999
"DXF R12 Output" (www.mydxf.blogspot.com)
 0 
SECTION
 2 
HEADER
 9 
$ACADVER
 1 
AC1009
 9 
$EXTMIN
 10 
 0 
 20 
 0 
 9 
$EXTMAX
 10 
 8.5 
 20 
 11 
 0 
ENDSEC
 0 
SECTION
 2 
ENTITIES
0
LINE
8
club1
10
6.425600
20
75.973200
11
7.181552
21
68.791650
0
LINE
8
club1
10
7.181552
20
68.791650
11
13.985122
21
66.523790
0
LINE
8
club1
10
13.985122
20
66.523790
11
29.104122
21
41.199390
0
LINE
8
club1
10
29.104122
20
41.199390
11
26.836262
21
30.993990
0
LINE
8
club1
10
26.836262
20
30.993990
11
28.348172
21
21.544580
0
LINE
8
club1
10
28.348172
20
21.544580
11
30.994002
21
13.985060
0
LINE
8
club1
10
30.994002
20
13.985060
11
38.553522
21
9.449350
0
LINE
8
club1
10
38.553522
20
9.449350
11
49.892822
21
8.693398
0
LINE
8
club1
10
49.892822
20
8.693398
11
56.963662
21
10.583278
0
LINE
8
club1
10
56.963662
20
10.583278
11
63.121992
21
6.803518
0
LINE
8
club1
10
63.121992
20
6.803518
11
61.518372
21
13.985068
0
LINE
8
club1
10
61.518372
20
13.985068
11
65.767822
21
19.479158
0
LINE
8
club1
10
65.767822
20
19.479158
11
66.523773
21
25.702338
0
LINE
8
club1
10
66.523773
20
25.702338
11
63.877943
21
33.261858
0
LINE
8
club1
10
63.877943
20
33.261858
11
57.498203
21
42.692268
0
LINE
8
club1
10
57.498203
20
42.692268
11
47.403603
21
47.071418
0
LINE
8
club1
10
47.403603
20
47.071418
11
36.304703
21
47.495250
0
LINE
8
club1
10
36.304703
20
47.495250
11
17.405903
21
69.528550
0
LINE
8
club1
10
17.405903
20
69.528550
11
14.741073
21
74.839210
0
LINE
8
club1
10
14.741073
20
74.839210
11
6.425600
21
75.973200
0
LINE
8
Layer 1
10
26.400200
20
4.743750
11
23.423640
21
7.323440
0
LINE
8
Layer 1
10
23.423640
20
7.323440
11
20.050200
21
5.016600
0
LINE
8
Layer 1
10
20.050200
20
5.016600
11
23.225200
21
2.436910
0
LINE
8
Layer 1
10
23.225200
20
2.436910
11
26.400200
21
4.743750
0
LINE
8
Layer 1
10
31.906840
20
8.414840
11
30.285231
21
10.020945
0
LINE
8
Layer 1
10
30.285231
20
10.020945
11
28.669825
21
11.168160
0
LINE
8
Layer 1
10
28.669825
20
11.168160
11
27.060621
21
11.856488
0
LINE
8
Layer 1
10
27.060621
20
11.856488
11
25.457620
21
12.085930
0
LINE
8
Layer 1
10
25.457620
20
12.085930
11
24.401871
21
11.996013
0
LINE
8
Layer 1
10
24.401871
20
11.996013
11
23.318216
21
11.726262
0
LINE
8
Layer 1
10
23.318216
20
11.726262
11
22.206655
21
11.276678
0
LINE
8
Layer 1
10
22.206655
20
11.276678
11
21.067190
21
10.647260
0
LINE
8
Layer 1
10
21.067190
20
10.647260
11
19.039424
21
9.177585
0
LINE
8
Layer 1
10
19.039424
20
9.177585
11
16.230300
21
6.802540
0
LINE
8
Layer 1
10
16.230300
20
6.802540
11
16.106277
21
6.405665
0
LINE
8
Layer 1
10
16.106277
20
6.405665
11
16.602370
21
6.207228
0
LINE
8
Layer 1
10
16.602370
20
6.207228
11
18.006936
21
7.585439
0
LINE
8
Layer 1
10
18.006936
20
7.585439
11
19.467311
21
8.569877
0
LINE
8
Layer 1
10
19.467311
20
8.569877
11
20.983495
21
9.160540
0
LINE
8
Layer 1
10
20.983495
20
9.160540
11
22.555490
21
9.357428
0
LINE
8
Layer 1
10
22.555490
20
9.357428
11
23.477528
21
9.280688
0
LINE
8
Layer 1
10
23.477528
20
9.280688
11
24.370886
21
9.050470
0
LINE
8
Layer 1
10
24.370886
20
9.050470
11
26.071557
21
8.129595
0
LINE
8
Layer 1
10
26.071557
20
8.129595
11
27.657506
21
6.594805
0
LINE
8
Layer 1
10
27.657506
20
6.594805
11
29.128730
21
4.446098
0
LINE
8
Layer 1
10
29.128730
20
4.446098
11
30.542600
21
6.752938
0
LINE
8
Layer 1
10
30.542600
20
6.752938
11
31.906840
21
8.414840
0
LINE
8
Layer 1
10
42.647240
20
22.751940
11
42.561974
21
24.829333
0
LINE
8
Layer 1
10
42.561974
20
24.829333
11
42.306175
21
26.720691
0
LINE
8
Layer 1
10
42.306175
20
26.720691
11
41.879844
21
28.426014
0
LINE
8
Layer 1
10
41.879844
20
28.426014
11
41.282980
21
29.945300
0
LINE
8
Layer 1
10
41.282980
20
29.945300
11
40.284591
21
31.551405
0
LINE
8
Layer 1
10
40.284591
20
31.551405
11
39.050559
21
32.698620
0
LINE
8
Layer 1
10
39.050559
20
32.698620
11
37.580882
21
33.386948
0
LINE
8
Layer 1
10
37.580882
20
33.386948
11
35.875560
21
33.616390
0
LINE
8
Layer 1
10
35.875560
20
33.616390
11
34.467894
21
33.279976
0
LINE
8
Layer 1
10
34.467894
20
33.279976
11
33.320678
21
32.618000
0
LINE
8
Layer 1
10
33.320678
20
32.618000
11
32.433909
21
31.630464
0
LINE
8
Layer 1
10
32.433909
20
31.630464
11
31.807590
21
30.317370
0
LINE
8
Layer 1
10
31.807590
20
30.317370
11
31.342502
21
28.326794
0
LINE
8
Layer 1
10
31.342502
20
28.326794
11
30.840207
21
24.984360
0
LINE
8
Layer 1
10
30.840207
20
24.984360
11
29.128687
21
26.199790
0
LINE
8
Layer 1
10
29.128687
20
26.199790
11
28.310134
21
26.683481
0
LINE
8
Layer 1
10
28.310134
20
26.683481
11
27.293137
21
26.844711
0
LINE
8
Layer 1
10
27.293137
20
26.844711
11
25.955237
21
26.574960
0
LINE
8
Layer 1
10
25.955237
20
26.574960
11
24.496411
21
25.765707
0
LINE
8
Layer 1
10
24.496411
20
25.765707
11
22.916661
21
24.416951
0
LINE
8
Layer 1
10
22.916661
20
24.416951
11
21.215987
21
22.528691
0
LINE
8
Layer 1
10
21.215987
20
22.528691
11
20.354025
21
23.787529
0
LINE
8
Layer 1
10
20.354025
20
23.787529
11
19.157197
21
24.835531
0
LINE
8
Layer 1
10
19.157197
20
24.835531
11
20.744309
21
25.606414
0
LINE
8
Layer 1
10
20.744309
20
25.606414
11
22.119806
21
26.455587
0
LINE
8
Layer 1
10
22.119806
20
26.455587
11
23.283688
21
27.383050
0
LINE
8
Layer 1
10
23.283688
20
27.383050
11
24.235956
21
28.388803
0
LINE
8
Layer 1
10
24.235956
20
28.388803
11
24.976609
21
29.472846
0
LINE
8
Layer 1
10
24.976609
20
29.472846
11
25.505647
21
30.635179
0
LINE
8
Layer 1
10
25.505647
20
30.635179
11
25.823069
21
31.875800
0
LINE
8
Layer 1
10
25.823069
20
31.875800
11
25.928877
21
33.194711
0
LINE
8
Layer 1
10
25.928877
20
33.194711
11
25.786250
21
34.650434
0
LINE
8
Layer 1
10
25.786250
20
34.650434
11
25.358369
21
35.966634
0
LINE
8
Layer 1
10
25.358369
20
35.966634
11
24.645235
21
37.143306
0
LINE
8
Layer 1
10
24.645235
20
37.143306
11
23.646847
21
38.180451
0
LINE
8
Layer 1
10
23.646847
20
38.180451
11
22.518236
21
38.983504
0
LINE
8
Layer 1
10
22.518236
20
38.983504
11
21.265599
21
39.557113
0
LINE
8
Layer 1
10
21.265599
20
39.557113
11
19.888939
21
39.901279
0
LINE
8
Layer 1
10
19.888939
20
39.901279
11
18.388257
21
40.016001
0
LINE
8
Layer 1
10
18.388257
20
40.016001
11
16.486047
21
39.871824
0
LINE
8
Layer 1
10
16.486047
20
39.871824
11
14.698558
21
39.439292
0
LINE
8
Layer 1
10
14.698558
20
39.439292
11
13.025791
21
38.718404
0
LINE
8
Layer 1
10
13.025791
20
38.718404
11
11.467747
21
37.709161
0
LINE
8
Layer 1
10
11.467747
20
37.709161
11
10.289569
21
36.673565
0
LINE
8
Layer 1
10
10.289569
20
36.673565
11
9.111370
21
35.377520
0
LINE
8
Layer 1
10
9.111370
20
35.377520
11
6.754930
21
32.004100
0
LINE
8
Layer 1
10
6.754930
20
32.004100
11
5.148830
21
29.039925
0
LINE
8
Layer 1
10
5.148830
20
29.039925
11
3.059040
21
24.711500
0
LINE
8
Layer 1
10
3.059040
20
24.711500
11
2.786188
21
23.768922
0
LINE
8
Layer 1
10
2.786188
20
23.768922
11
3.009430
21
23.967360
0
LINE
8
Layer 1
10
3.009430
20
23.967360
11
3.579938
21
24.711500
0
LINE
8
Layer 1
10
3.579938
20
24.711500
11
6.754938
21
30.590210
0
LINE
8
Layer 1
10
6.754938
20
30.590210
11
7.572717
21
31.956406
0
LINE
8
Layer 1
10
7.572717
20
31.956406
11
8.450958
21
33.140443
0
LINE
8
Layer 1
10
8.450958
20
33.140443
11
9.389660
21
34.142319
0
LINE
8
Layer 1
10
9.389660
20
34.142319
11
10.388824
21
34.962036
0
LINE
8
Layer 1
10
10.388824
20
34.962036
11
11.448450
21
35.599594
0
LINE
8
Layer 1
10
11.448450
20
35.599594
11
12.568537
21
36.054992
0
LINE
8
Layer 1
10
12.568537
20
36.054992
11
13.749087
21
36.328230
0
LINE
8
Layer 1
10
13.749087
20
36.328230
11
14.990098
21
36.419310
0
LINE
8
Layer 1
10
14.990098
20
36.419310
11
16.332653
21
36.334044
0
LINE
8
Layer 1
10
16.332653
20
36.334044
11
17.532578
21
36.078245
0
LINE
8
Layer 1
10
17.532578
20
36.078245
11
18.589876
21
35.651914
0
LINE
8
Layer 1
10
18.589876
20
35.651914
11
19.504548
21
35.055050
0
LINE
8
Layer 1
10
19.504548
20
35.055050
11
20.307601
21
34.230295
0
LINE
8
Layer 1
10
20.307601
20
34.230295
11
20.881211
21
33.244309
0
LINE
8
Layer 1
10
20.881211
20
33.244309
11
21.225376
21
32.097091
0
LINE
8
Layer 1
10
21.225376
20
32.097091
11
21.340098
21
30.788640
0
LINE
8
Layer 1
10
21.340098
20
30.788640
11
21.186619
21
29.168584
0
LINE
8
Layer 1
10
21.186619
20
29.168584
11
20.726182
21
27.731461
0
LINE
8
Layer 1
10
20.726182
20
27.731461
11
19.958789
21
26.477273
0
LINE
8
Layer 1
10
19.958789
20
26.477273
11
18.884438
21
25.406020
0
LINE
8
Layer 1
10
18.884438
20
25.406020
11
16.776038
21
26.447820
0
LINE
8
Layer 1
10
16.776038
20
26.447820
11
14.915686
21
27.222967
0
LINE
8
Layer 1
10
14.915686
20
27.222967
11
13.154558
21
27.663250
0
LINE
8
Layer 1
10
13.154558
20
27.663250
11
11.914328
21
25.331610
0
LINE
8
Layer 1
10
11.914328
20
25.331610
11
10.847728
21
23.074380
0
LINE
8
Layer 1
10
10.847728
20
23.074380
11
14.388597
21
22.429458
0
LINE
8
Layer 1
10
14.388597
20
22.429458
11
15.726500
21
21.958168
0
LINE
8
Layer 1
10
15.726500
20
21.958168
11
16.776048
21
21.387660
0
LINE
8
Layer 1
10
16.776048
20
21.387660
11
17.882958
21
20.407877
0
LINE
8
Layer 1
10
17.882958
20
20.407877
11
18.797631
21
19.130436
0
LINE
8
Layer 1
10
18.797631
20
19.130436
11
19.520066
21
17.555338
0
LINE
8
Layer 1
10
19.520066
20
17.555338
11
20.050268
21
15.682580
0
LINE
8
Layer 1
10
20.050268
20
15.682580
11
20.124678
21
14.938440
0
LINE
8
Layer 1
10
20.124678
20
14.938440
11
19.951045
21
13.929199
0
LINE
8
Layer 1
10
19.951045
20
13.929199
11
19.430146
21
13.208311
0
LINE
8
Layer 1
10
19.430146
20
13.208311
11
18.561980
21
12.775778
0
LINE
8
Layer 1
10
18.561980
20
12.775778
11
17.346548
21
12.631600
0
LINE
8
Layer 1
10
17.346548
20
12.631600
11
14.878483
21
13.183504
0
LINE
8
Layer 1
10
14.878483
20
13.183504
11
12.832098
21
14.144690
0
LINE
8
Layer 1
10
12.832098
20
14.144690
11
11.182586
21
15.440734
0
LINE
8
Layer 1
10
11.182586
20
15.440734
11
9.309828
21
17.394100
0
LINE
8
Layer 1
10
9.309828
20
17.394100
11
8.516066
21
16.836013
0
LINE
8
Layer 1
10
8.516066
20
16.836013
11
7.623100
21
15.856200
0
LINE
8
Layer 1
10
7.623100
20
15.856200
11
5.886770
21
13.648600
0
LINE
8
Layer 1
10
5.886770
20
13.648600
11
7.821538
21
11.955679
0
LINE
8
Layer 1
10
7.821538
20
11.955679
11
9.880326
21
10.746451
0
LINE
8
Layer 1
10
9.880326
20
10.746451
11
12.063137
21
10.020915
0
LINE
8
Layer 1
10
12.063137
20
10.020915
11
14.369970
21
9.779070
0
LINE
8
Layer 1
10
14.369970
20
9.779070
11
16.126453
21
9.951152
0
LINE
8
Layer 1
10
16.126453
20
9.951152
11
17.675196
21
10.467400
0
LINE
8
Layer 1
10
17.675196
20
10.467400
11
19.016199
21
11.327812
0
LINE
8
Layer 1
10
19.016199
20
11.327812
11
20.149460
21
12.532390
0
LINE
8
Layer 1
10
20.149460
20
12.532390
11
20.963362
21
13.847039
0
LINE
8
Layer 1
10
20.963362
20
13.847039
11
21.544721
21
15.335320
0
LINE
8
Layer 1
10
21.544721
20
15.335320
11
21.893538
21
16.997234
0
LINE
8
Layer 1
10
21.893538
20
16.997234
11
22.009810
21
18.832780
0
LINE
8
Layer 1
10
22.009810
20
18.832780
11
21.860982
21
20.221840
0
LINE
8
Layer 1
10
21.860982
20
20.221840
11
21.662545
21
21.685320
0
LINE
8
Layer 1
10
21.662545
20
21.685320
11
21.805172
21
22.262029
0
LINE
8
Layer 1
10
21.805172
20
22.262029
11
22.233052
21
22.751920
0
LINE
8
Layer 1
10
22.233052
20
22.751920
11
23.101216
21
23.272818
0
LINE
8
Layer 1
10
23.101216
20
23.272818
11
23.969382
21
23.446451
0
LINE
8
Layer 1
10
23.969382
20
23.446451
11
25.104196
21
23.212357
0
LINE
8
Layer 1
10
25.104196
20
23.212357
11
26.127388
21
22.510075
0
LINE
8
Layer 1
10
26.127388
20
22.510075
11
27.038960
21
21.339603
0
LINE
8
Layer 1
10
27.038960
20
21.339603
11
27.838912
21
19.700941
0
LINE
8
Layer 1
10
27.838912
20
19.700941
11
30.691452
21
12.854851
0
LINE
8
Layer 1
10
30.691452
20
12.854851
11
31.678986
21
11.369671
0
LINE
8
Layer 1
10
31.678986
20
11.369671
11
32.781244
21
10.262762
0
LINE
8
Layer 1
10
32.781244
20
10.262762
11
33.998226
21
9.534125
0
LINE
8
Layer 1
10
33.998226
20
9.534125
11
35.329932
21
9.183761
0
LINE
8
Layer 1
10
35.329932
20
9.183761
11
36.534509
21
9.399251
0
LINE
8
Layer 1
10
36.534509
20
9.399251
11
37.717383
21
10.045722
0
LINE
8
Layer 1
10
37.717383
20
10.045722
11
38.878555
21
11.123175
0
LINE
8
Layer 1
10
38.878555
20
11.123175
11
40.018022
21
12.631611
0
LINE
8
Layer 1
10
40.018022
20
12.631611
11
41.168338
21
14.771016
0
LINE
8
Layer 1
10
41.168338
20
14.771016
11
41.989995
21
17.170867
0
LINE
8
Layer 1
10
41.989995
20
17.170867
11
42.482990
21
19.831165
0
LINE
8
Layer 1
10
42.482990
20
19.831165
11
42.647322
21
22.751911
0
LINE
8
Layer 1
10
42.647322
20
22.751911
11
42.647240
21
22.751940
0
LINE
8
Layer 1
10
40.514040
20
19.080850
11
40.371415
21
16.150799
0
LINE
8
Layer 1
10
40.371415
20
16.150799
11
39.844316
21
14.057905
0
LINE
8
Layer 1
10
39.844316
20
14.057905
11
39.436589
21
13.325392
0
LINE
8
Layer 1
10
39.436589
20
13.325392
11
38.932744
21
12.802169
0
LINE
8
Layer 1
10
38.932744
20
12.802169
11
38.332781
21
12.488235
0
LINE
8
Layer 1
10
38.332781
20
12.488235
11
37.636700
21
12.383590
0
LINE
8
Layer 1
10
37.636700
20
12.383590
11
37.094486
21
12.584353
0
LINE
8
Layer 1
10
37.094486
20
12.584353
11
36.546845
21
12.963400
0
LINE
8
Layer 1
10
36.546845
20
12.963400
11
35.435285
21
14.256346
0
LINE
8
Layer 1
10
35.435285
20
14.256346
11
34.302020
21
16.262426
0
LINE
8
Layer 1
10
34.302020
20
16.262426
11
33.147050
21
18.981640
0
LINE
8
Layer 1
10
33.147050
20
18.981640
11
32.384307
21
21.536524
0
LINE
8
Layer 1
10
32.384307
20
21.536524
11
32.130060
21
23.843360
0
LINE
8
Layer 1
10
32.130060
20
23.843360
11
32.280438
21
25.274279
0
LINE
8
Layer 1
10
32.280438
20
25.274279
11
32.731573
21
26.441650
0
LINE
8
Layer 1
10
32.731573
20
26.441650
11
33.483464
21
27.345471
0
LINE
8
Layer 1
10
33.483464
20
27.345471
11
34.536110
21
27.985740
0
LINE
8
Layer 1
10
34.536110
20
27.985740
11
36.007338
21
27.846214
0
LINE
8
Layer 1
10
36.007338
20
27.846214
11
37.270828
21
27.427635
0
LINE
8
Layer 1
10
37.270828
20
27.427635
11
38.326578
21
26.730003
0
LINE
8
Layer 1
10
38.326578
20
26.730003
11
39.174590
21
25.753320
0
LINE
8
Layer 1
10
39.174590
20
25.753320
11
39.619524
21
24.916161
0
LINE
8
Layer 1
10
39.619524
20
24.916161
11
39.986945
21
23.843357
0
LINE
8
Layer 1
10
39.986945
20
23.843357
11
40.489240
21
20.990820
0
LINE
8
Layer 1
10
40.489240
20
20.990820
11
40.514040
21
19.080850
0
LINE
8
Layer 1
10
23.220700
20
2.269530
11
19.830100
21
5.025390
0
LINE
8
Layer 1
10
19.830100
20
5.025390
11
23.433600
21
7.490230
0
LINE
8
Layer 1
10
23.433600
20
7.490230
11
26.613300
21
4.734380
0
LINE
8
Layer 1
10
26.613300
20
4.734380
11
26.478500
21
4.636720
0
LINE
8
Layer 1
10
26.478500
20
4.636720
11
23.220700
21
2.269530
0
LINE
8
Layer 1
10
23.230500
20
2.603514
11
26.187500
21
4.753910
0
LINE
8
Layer 1
10
26.187500
20
4.753910
11
23.414100
21
7.156250
0
LINE
8
Layer 1
10
23.414100
20
7.156250
11
20.269500
21
5.007810
0
LINE
8
Layer 1
10
20.269500
20
5.007810
11
23.230500
21
2.603514
0
LINE
8
Layer 1
10
29.132840
20
4.171874
11
29.013700
21
4.380858
0
LINE
8
Layer 1
10
29.013700
20
4.380858
11
27.557512
21
6.509771
0
LINE
8
Layer 1
10
27.557512
20
6.509771
11
25.996696
21
8.022357
0
LINE
8
Layer 1
10
25.996696
20
8.022357
11
24.329637
21
8.925131
0
LINE
8
Layer 1
10
24.329637
20
8.925131
11
23.455762
21
9.149874
0
LINE
8
Layer 1
10
23.455762
20
9.149874
11
22.554720
21
9.224608
0
LINE
8
Layer 1
10
22.554720
20
9.224608
11
21.014252
21
9.032325
0
LINE
8
Layer 1
10
21.014252
20
9.032325
11
19.526354
21
8.453227
0
LINE
8
Layer 1
10
19.526354
20
8.453227
11
18.089259
21
7.483939
0
LINE
8
Layer 1
10
18.089259
20
7.483939
11
16.701200
21
6.121088
0
LINE
8
Layer 1
10
16.701200
20
6.121088
11
16.640650
21
6.048822
0
LINE
8
Layer 1
10
16.640650
20
6.048822
11
15.943384
21
6.328119
0
LINE
8
Layer 1
10
15.943384
20
6.328119
11
16.115259
21
6.876947
0
LINE
8
Layer 1
10
16.115259
20
6.876947
11
16.142599
21
6.902338
0
LINE
8
Layer 1
10
16.142599
20
6.902338
11
18.956745
21
9.281329
0
LINE
8
Layer 1
10
18.956745
20
9.281329
11
20.998069
21
10.759758
0
LINE
8
Layer 1
10
20.998069
20
10.759758
11
22.150363
21
11.396342
0
LINE
8
Layer 1
10
22.150363
20
11.396342
11
23.277640
21
11.852465
0
LINE
8
Layer 1
10
23.277640
20
11.852465
11
24.379877
21
12.126979
0
LINE
8
Layer 1
10
24.379877
20
12.126979
11
25.457049
21
12.218738
0
LINE
8
Layer 1
10
25.457049
20
12.218738
11
27.094949
21
11.984423
0
LINE
8
Layer 1
10
27.094949
20
11.984423
11
28.732675
21
11.284166
0
LINE
8
Layer 1
10
28.732675
20
11.284166
11
30.369796
21
10.121994
0
LINE
8
Layer 1
10
30.369796
20
10.121994
11
32.005879
21
8.501938
0
LINE
8
Layer 1
10
32.005879
20
8.501938
11
32.080099
21
8.417954
0
LINE
8
Layer 1
10
32.080099
20
8.417954
11
32.009789
21
8.330063
0
LINE
8
Layer 1
10
32.009789
20
8.330063
11
30.644559
21
6.669903
0
LINE
8
Layer 1
10
30.644559
20
6.669903
11
29.246100
21
4.384770
0
LINE
8
Layer 1
10
29.246100
20
4.384770
11
29.132840
21
4.171874
0
LINE
8
Layer 1
10
29.111360
20
4.671874
11
30.439480
21
6.835934
0
LINE
8
Layer 1
10
30.439480
20
6.835934
11
31.724640
21
8.400384
0
LINE
8
Layer 1
10
31.724640
20
8.400384
11
30.138829
21
9.954110
0
LINE
8
Layer 1
10
30.138829
20
9.954110
11
28.565530
21
11.064404
0
LINE
8
Layer 1
10
28.565530
20
11.064404
11
27.004891
21
11.730871
0
LINE
8
Layer 1
10
27.004891
20
11.730871
11
25.457060
21
11.953114
0
LINE
8
Layer 1
10
25.457060
20
11.953114
11
24.422979
21
11.865101
0
LINE
8
Layer 1
10
24.422979
20
11.865101
11
23.358442
21
11.600248
0
LINE
8
Layer 1
10
23.358442
20
11.600248
11
21.136750
21
10.535144
0
LINE
8
Layer 1
10
21.136750
20
10.535144
11
19.131731
21
9.079857
0
LINE
8
Layer 1
10
19.131731
20
9.079857
11
16.345700
21
6.724610
0
LINE
8
Layer 1
10
16.345700
20
6.724610
11
16.269500
21
6.482420
0
LINE
8
Layer 1
10
16.269500
20
6.482420
11
16.580100
21
6.359380
0
LINE
8
Layer 1
10
16.580100
20
6.359380
11
17.984492
21
7.718926
0
LINE
8
Layer 1
10
17.984492
20
7.718926
11
19.449111
21
8.698454
0
LINE
8
Layer 1
10
19.449111
20
8.698454
11
20.972878
21
9.291160
0
LINE
8
Layer 1
10
20.972878
20
9.291160
11
22.554710
21
9.490240
0
LINE
8
Layer 1
10
22.554710
20
9.490240
11
23.477455
21
9.412705
0
LINE
8
Layer 1
10
23.477455
20
9.412705
11
24.370721
21
9.181386
0
LINE
8
Layer 1
10
24.370721
20
9.181386
11
26.068823
21
8.265100
0
LINE
8
Layer 1
10
26.068823
20
8.265100
11
27.649028
21
6.756794
0
LINE
8
Layer 1
10
27.649028
20
6.756794
11
29.111350
21
4.671880
0
LINE
8
Layer 1
10
29.111350
20
4.671880
11
29.111360
21
4.671874
0
LINE
8
Layer 1
10
35.322300
20
9.050784
11
35.314500
21
9.052734
0
LINE
8
Layer 1
10
35.314500
20
9.052734
11
33.948429
21
9.412770
0
LINE
8
Layer 1
10
33.948429
20
9.412770
11
32.702401
21
10.158881
0
LINE
8
Layer 1
10
32.702401
20
10.158881
11
31.577853
21
11.286488
0
LINE
8
Layer 1
10
31.577853
20
11.286488
11
30.576220
21
12.791014
0
LINE
8
Layer 1
10
30.576220
20
12.791014
11
29.632860
21
14.923824
0
LINE
8
Layer 1
10
29.632860
20
14.923824
11
27.716840
21
19.652344
0
LINE
8
Layer 1
10
27.716840
20
19.652344
11
26.926198
21
21.271127
0
LINE
8
Layer 1
10
26.926198
20
21.271127
11
26.035200
21
22.416014
0
LINE
8
Layer 1
10
26.035200
20
22.416014
11
25.052109
21
23.092253
0
LINE
8
Layer 1
10
25.052109
20
23.092253
11
23.968790
21
23.314451
0
LINE
8
Layer 1
10
23.968790
20
23.314451
11
23.149551
21
23.150037
0
LINE
8
Layer 1
10
23.149551
20
23.150037
11
22.316450
21
22.648436
0
LINE
8
Layer 1
10
22.316450
20
22.648436
11
22.314450
21
22.648436
0
LINE
8
Layer 1
10
22.314450
20
22.648436
11
21.920836
21
22.202055
0
LINE
8
Layer 1
10
21.920836
20
22.202055
11
21.794919
21
21.685545
0
LINE
8
Layer 1
10
21.794919
20
21.685545
11
21.992185
21
20.238275
0
LINE
8
Layer 1
10
21.992185
20
20.238275
11
22.142575
21
18.839835
0
LINE
8
Layer 1
10
22.142575
20
18.839835
11
22.142575
21
18.832035
0
LINE
8
Layer 1
10
22.142575
20
18.832035
11
22.025005
21
16.978942
0
LINE
8
Layer 1
10
22.025005
20
16.978942
11
21.671828
21
15.297246
0
LINE
8
Layer 1
10
21.671828
20
15.297246
11
21.082345
21
13.788217
0
LINE
8
Layer 1
10
21.082345
20
13.788217
11
20.255855
21
12.453125
0
LINE
8
Layer 1
10
20.255855
20
12.453125
11
19.100771
21
11.227301
0
LINE
8
Layer 1
10
19.100771
20
11.227301
11
17.731629
21
10.349995
0
LINE
8
Layer 1
10
17.731629
20
10.349995
11
16.152920
21
9.822594
0
LINE
8
Layer 1
10
16.152920
20
9.822594
11
14.369135
21
9.646485
0
LINE
8
Layer 1
10
14.369135
20
9.646485
11
12.035000
21
9.891862
0
LINE
8
Layer 1
10
12.035000
20
9.891862
11
9.825790
21
10.626670
0
LINE
8
Layer 1
10
9.825790
20
10.626670
11
7.743720
21
11.848926
0
LINE
8
Layer 1
10
7.743720
20
11.848926
11
5.791005
21
13.556645
0
LINE
8
Layer 1
10
5.791005
20
13.556645
11
5.710927
21
13.638675
0
LINE
8
Layer 1
10
5.710927
20
13.638675
11
7.519517
21
15.937505
0
LINE
8
Layer 1
10
7.519517
20
15.937505
11
8.426388
21
16.933777
0
LINE
8
Layer 1
10
8.426388
20
16.933777
11
9.253897
21
17.513675
0
LINE
8
Layer 1
10
9.253897
20
17.513675
11
9.343741
21
17.556645
0
LINE
8
Layer 1
10
9.343741
20
17.556645
11
9.410147
21
17.480475
0
LINE
8
Layer 1
10
9.410147
20
17.480475
11
11.272717
21
15.537435
0
LINE
8
Layer 1
10
11.272717
20
15.537435
11
12.902337
21
14.255865
0
LINE
8
Layer 1
10
12.902337
20
14.255865
11
14.916178
21
13.310847
0
LINE
8
Layer 1
10
14.916178
20
13.310847
11
17.353507
21
12.765635
0
LINE
8
Layer 1
10
17.353507
20
12.765635
11
18.527463
21
12.905385
0
LINE
8
Layer 1
10
18.527463
20
12.905385
11
19.345697
21
13.310557
0
LINE
8
Layer 1
10
19.345697
20
13.310557
11
19.829731
21
13.978769
0
LINE
8
Layer 1
10
19.829731
20
13.978769
11
19.992182
21
14.935557
0
LINE
8
Layer 1
10
19.992182
20
14.935557
11
19.917962
21
15.664072
0
LINE
8
Layer 1
10
19.917962
20
15.664072
11
19.393100
21
17.514990
0
LINE
8
Layer 1
10
19.393100
20
17.514990
11
18.681448
21
19.066536
0
LINE
8
Layer 1
10
18.681448
20
19.066536
11
17.783853
21
20.320659
0
LINE
8
Layer 1
10
17.783853
20
20.320659
11
16.701162
21
21.279312
0
LINE
8
Layer 1
10
16.701162
20
21.279312
11
15.673316
21
21.837067
0
LINE
8
Layer 1
10
15.673316
20
21.837067
11
14.352331
21
22.301890
0
LINE
8
Layer 1
10
14.352331
20
22.301890
11
10.833972
21
22.943372
0
LINE
8
Layer 1
10
10.833972
20
22.943372
11
10.648426
21
22.962902
0
LINE
8
Layer 1
10
10.648426
20
22.962902
11
11.796866
21
25.390632
0
LINE
8
Layer 1
10
11.796866
20
25.390632
11
13.082026
21
27.808602
0
LINE
8
Layer 1
10
13.082026
20
27.808602
11
13.175776
21
27.792972
0
LINE
8
Layer 1
10
13.175776
20
27.792972
11
14.957637
21
27.347938
0
LINE
8
Layer 1
10
14.957637
20
27.347938
11
16.833976
21
26.566412
0
LINE
8
Layer 1
10
16.833976
20
26.566412
11
18.851556
21
25.570318
0
LINE
8
Layer 1
10
18.851556
20
25.570318
11
19.879773
21
26.612685
0
LINE
8
Layer 1
10
19.879773
20
26.612685
11
20.616113
21
27.826345
0
LINE
8
Layer 1
10
20.616113
20
27.826345
11
21.059042
21
29.216679
0
LINE
8
Layer 1
10
21.059042
20
29.216679
11
21.207026
21
30.789068
0
LINE
8
Layer 1
10
21.207026
20
30.789068
11
21.095779
21
32.072800
0
LINE
8
Layer 1
10
21.095779
20
32.072800
11
20.761605
21
33.192147
0
LINE
8
Layer 1
10
20.761605
20
33.192147
11
20.203851
21
34.150969
0
LINE
8
Layer 1
10
20.203851
20
34.150969
11
19.421866
21
34.953128
0
LINE
8
Layer 1
10
19.421866
20
34.953128
11
18.528995
21
35.535670
0
LINE
8
Layer 1
10
18.528995
20
35.535670
11
17.493858
21
35.952658
0
LINE
8
Layer 1
10
17.493858
20
35.952658
11
16.314816
21
36.203376
0
LINE
8
Layer 1
10
16.314816
20
36.203376
11
14.990226
21
36.287108
0
LINE
8
Layer 1
10
14.990226
20
36.287108
11
13.768136
21
36.197933
0
LINE
8
Layer 1
10
13.768136
20
36.197933
11
12.606133
21
35.929940
0
LINE
8
Layer 1
10
12.606133
20
35.929940
11
11.503775
21
35.482423
0
LINE
8
Layer 1
10
11.503775
20
35.482423
11
10.460616
21
34.854679
0
LINE
8
Layer 1
10
10.460616
20
34.854679
11
9.476212
21
34.046004
0
LINE
8
Layer 1
10
9.476212
20
34.046004
11
8.550118
21
33.055693
0
LINE
8
Layer 1
10
8.550118
20
33.055693
11
6.871086
21
30.527348
0
LINE
8
Layer 1
10
6.871086
20
30.527348
11
3.697256
21
24.648438
0
LINE
8
Layer 1
10
3.697256
20
24.648438
11
3.703116
21
24.666018
0
LINE
8
Layer 1
10
3.703116
20
24.666018
11
3.454404
21
24.209165
0
LINE
8
Layer 1
10
3.454404
20
24.209165
11
3.083980
21
23.857400
0
LINE
8
Layer 1
10
3.083980
20
23.857400
11
2.531250
21
23.365200
0
LINE
8
Layer 1
10
2.531250
20
23.365200
11
2.935547
21
24.757780
0
LINE
8
Layer 1
10
2.935547
20
24.757780
11
2.939457
21
24.767580
0
LINE
8
Layer 1
10
2.939457
20
24.767580
11
5.030417
21
29.099755
0
LINE
8
Layer 1
10
5.030417
20
29.099755
11
6.640627
21
32.072270
0
LINE
8
Layer 1
10
6.640627
20
32.072270
11
6.642577
21
32.072270
0
LINE
8
Layer 1
10
6.642577
20
32.072270
11
9.009386
21
35.462013
0
LINE
8
Layer 1
10
9.009386
20
35.462013
11
10.196172
21
36.768020
0
LINE
8
Layer 1
10
10.196172
20
36.768020
11
11.386717
21
37.814460
0
LINE
8
Layer 1
10
11.386717
20
37.814460
11
12.963144
21
38.835098
0
LINE
8
Layer 1
10
12.963144
20
38.835098
11
14.656790
21
39.564524
0
LINE
8
Layer 1
10
14.656790
20
39.564524
11
16.465887
21
40.002415
0
LINE
8
Layer 1
10
16.465887
20
40.002415
11
18.388667
21
40.148450
0
LINE
8
Layer 1
10
18.388667
20
40.148450
11
19.910176
21
40.031714
0
LINE
8
Layer 1
10
19.910176
20
40.031714
11
21.309220
21
39.681555
0
LINE
8
Layer 1
10
21.309220
20
39.681555
11
22.583924
21
39.098046
0
LINE
8
Layer 1
10
22.583924
20
39.098046
11
23.732417
21
38.281260
0
LINE
8
Layer 1
10
23.732417
20
38.281260
11
24.749046
21
37.223741
0
LINE
8
Layer 1
10
24.749046
20
37.223741
11
25.476797
21
36.021396
0
LINE
8
Layer 1
10
25.476797
20
36.021396
11
25.914388
21
34.677498
0
LINE
8
Layer 1
10
25.914388
20
34.677498
11
26.060537
21
33.195320
0
LINE
8
Layer 1
10
26.060537
20
33.195320
11
25.954316
21
31.872996
0
LINE
8
Layer 1
10
25.954316
20
31.872996
11
25.636555
21
30.628011
0
LINE
8
Layer 1
10
25.636555
20
30.628011
11
25.108604
21
29.460660
0
LINE
8
Layer 1
10
25.108604
20
29.460660
11
24.371813
21
28.371242
0
LINE
8
Layer 1
10
24.371813
20
28.371242
11
23.427534
21
27.360054
0
LINE
8
Layer 1
10
23.427534
20
27.360054
11
22.277116
21
26.427393
0
LINE
8
Layer 1
10
22.277116
20
26.427393
11
20.921910
21
25.573556
0
LINE
8
Layer 1
10
20.921910
20
25.573556
11
19.363267
21
24.798840
0
LINE
8
Layer 1
10
19.363267
20
24.798840
11
20.423223
21
23.842720
0
LINE
8
Layer 1
10
20.423223
20
23.842720
11
21.218737
21
22.716810
0
LINE
8
Layer 1
10
21.218737
20
22.716810
11
22.896672
21
24.563349
0
LINE
8
Layer 1
10
22.896672
20
24.563349
11
24.466331
21
25.896427
0
LINE
8
Layer 1
10
24.466331
20
25.896427
11
25.930747
21
26.704637
0
LINE
8
Layer 1
10
25.930747
20
26.704637
11
27.292957
21
26.976570
0
LINE
8
Layer 1
10
27.292957
20
26.976570
11
28.354149
21
26.807447
0
LINE
8
Layer 1
10
28.354149
20
26.807447
11
29.216787
21
26.298836
0
LINE
8
Layer 1
10
29.216787
20
26.298836
11
30.748037
21
25.212896
0
LINE
8
Layer 1
10
30.748037
20
25.212896
11
31.229121
21
28.402156
0
LINE
8
Layer 1
10
31.229121
20
28.402156
11
31.681631
21
30.359376
0
LINE
8
Layer 1
10
31.681631
20
30.359376
11
32.325127
21
31.701731
0
LINE
8
Layer 1
10
32.325127
20
31.701731
11
33.240342
21
32.717262
0
LINE
8
Layer 1
10
33.240342
20
32.717262
11
34.421125
21
33.401017
0
LINE
8
Layer 1
10
34.421125
20
33.401017
11
35.861321
21
33.748046
0
LINE
8
Layer 1
10
35.861321
20
33.748046
11
35.869121
21
33.748046
0
LINE
8
Layer 1
10
35.869121
20
33.748046
11
35.875021
21
33.748046
0
LINE
8
Layer 1
10
35.875021
20
33.748046
11
37.615648
21
33.511398
0
LINE
8
Layer 1
10
37.615648
20
33.511398
11
39.120858
21
32.804810
0
LINE
8
Layer 1
10
39.120858
20
32.804810
11
40.384986
21
31.633317
0
LINE
8
Layer 1
10
40.384986
20
31.633317
11
41.402361
21
30.001956
0
LINE
8
Layer 1
10
41.402361
20
30.001956
11
42.005961
21
28.465830
0
LINE
8
Layer 1
10
42.005961
20
28.465830
11
42.436126
21
26.745390
0
LINE
8
Layer 1
10
42.436126
20
26.745390
11
42.693646
21
24.840733
0
LINE
8
Layer 1
10
42.693646
20
24.840733
11
42.779311
21
22.751956
0
LINE
8
Layer 1
10
42.779311
20
22.751956
11
42.614046
21
19.815384
0
LINE
8
Layer 1
10
42.614046
20
19.815384
11
42.117739
21
17.136875
0
LINE
8
Layer 1
10
42.117739
20
17.136875
11
41.289621
21
14.717556
0
LINE
8
Layer 1
10
41.289621
20
14.717556
11
40.128921
21
12.558556
0
LINE
8
Layer 1
10
40.128921
20
12.558556
11
38.975918
21
11.033069
0
LINE
8
Layer 1
10
38.975918
20
11.033069
11
37.791899
21
9.935858
0
LINE
8
Layer 1
10
37.791899
20
9.935858
11
36.576683
21
9.273044
0
LINE
8
Layer 1
10
36.576683
20
9.273044
11
35.330091
21
9.050746
0
LINE
8
Layer 1
10
35.330091
20
9.050746
11
35.322300
21
9.050784
0
LINE
8
Layer 1
10
35.335970
20
9.318362
11
36.497144
21
9.528132
0
LINE
8
Layer 1
10
36.497144
20
9.528132
11
37.646464
21
10.157727
0
LINE
8
Layer 1
10
37.646464
20
10.157727
11
38.783601
21
11.213832
0
LINE
8
Layer 1
10
38.783601
20
11.213832
11
39.908230
21
12.703132
0
LINE
8
Layer 1
10
39.908230
20
12.703132
11
41.048044
21
14.823206
0
LINE
8
Layer 1
10
41.048044
20
14.823206
11
41.862966
21
17.204141
0
LINE
8
Layer 1
10
41.862966
20
17.204141
11
42.352375
21
19.846771
0
LINE
8
Layer 1
10
42.352375
20
19.846771
11
42.515650
21
22.751932
0
LINE
8
Layer 1
10
42.515650
20
22.751932
11
42.430783
21
24.817941
0
LINE
8
Layer 1
10
42.430783
20
24.817941
11
42.176708
21
26.696001
0
LINE
8
Layer 1
10
42.176708
20
26.696001
11
41.754214
21
28.386206
0
LINE
8
Layer 1
10
41.754214
20
28.386206
11
41.164090
21
29.888652
0
LINE
8
Layer 1
10
41.164090
20
29.888652
11
40.185932
21
31.467052
0
LINE
8
Layer 1
10
40.185932
20
31.467052
11
38.983410
21
32.588512
0
LINE
8
Layer 1
10
38.983410
20
32.588512
11
37.551403
21
33.258480
0
LINE
8
Layer 1
10
37.551403
20
33.258480
11
35.884790
21
33.482402
0
LINE
8
Layer 1
10
35.884790
20
33.482402
11
34.512013
21
33.155964
0
LINE
8
Layer 1
10
34.512013
20
33.155964
11
33.399745
21
32.516131
0
LINE
8
Layer 1
10
33.399745
20
32.516131
11
32.542207
21
31.557676
0
LINE
8
Layer 1
10
32.542207
20
31.557676
11
31.933620
21
30.275372
0
LINE
8
Layer 1
10
31.933620
20
30.275372
11
31.473694
21
28.304907
0
LINE
8
Layer 1
10
31.473694
20
28.304907
11
30.970729
21
24.966782
0
LINE
8
Layer 1
10
30.970729
20
24.966782
11
30.943400
21
24.750000
0
LINE
8
Layer 1
10
30.943400
20
24.750000
11
29.046920
21
26.095700
0
LINE
8
Layer 1
10
29.046920
20
26.095700
11
29.041020
21
26.101600
0
LINE
8
Layer 1
10
29.041020
20
26.101600
11
28.266159
21
26.559981
0
LINE
8
Layer 1
10
28.266159
20
26.559981
11
27.292970
21
26.712929
0
LINE
8
Layer 1
10
27.292970
20
26.712929
11
26.001123
21
26.449040
0
LINE
8
Layer 1
10
26.001123
20
26.449040
11
24.571731
21
25.653593
0
LINE
8
Layer 1
10
24.571731
20
25.653593
11
23.009306
21
24.320919
0
LINE
8
Layer 1
10
23.009306
20
24.320919
11
21.318360
21
22.445349
0
LINE
8
Layer 1
10
21.318360
20
22.445349
11
21.189454
21
22.287146
0
LINE
8
Layer 1
10
21.189454
20
22.287146
11
21.097654
21
22.468787
0
LINE
8
Layer 1
10
21.097654
20
22.468787
11
20.255166
21
23.699652
0
LINE
8
Layer 1
10
20.255166
20
23.699652
11
19.082034
21
24.726597
0
LINE
8
Layer 1
10
19.082034
20
24.726597
11
18.886722
21
24.863316
0
LINE
8
Layer 1
10
18.886722
20
24.863316
11
19.105472
21
24.957066
0
LINE
8
Layer 1
10
19.105472
20
24.957066
11
20.681279
21
25.721615
0
LINE
8
Layer 1
10
20.681279
20
25.721615
11
22.043996
21
26.560975
0
LINE
8
Layer 1
10
22.043996
20
26.560975
11
23.194542
21
27.475631
0
LINE
8
Layer 1
10
23.194542
20
27.475631
11
24.133836
21
28.466070
0
LINE
8
Layer 1
10
24.133836
20
28.466070
11
24.862797
21
29.532775
0
LINE
8
Layer 1
10
24.862797
20
29.532775
11
25.382346
21
30.676233
0
LINE
8
Layer 1
10
25.382346
20
30.676233
11
25.693401
21
31.896928
0
LINE
8
Layer 1
10
25.693401
20
31.896928
11
25.796882
21
33.195346
0
LINE
8
Layer 1
10
25.796882
20
33.195346
11
25.657717
21
34.624497
0
LINE
8
Layer 1
10
25.657717
20
34.624497
11
25.239414
21
35.912730
0
LINE
8
Layer 1
10
25.239414
20
35.912730
11
24.540763
21
37.063463
0
LINE
8
Layer 1
10
24.540763
20
37.063463
11
23.560552
21
38.080116
0
LINE
8
Layer 1
10
23.560552
20
38.080116
11
22.452062
21
38.869249
0
LINE
8
Layer 1
10
22.452062
20
38.869249
11
21.222029
21
39.432553
0
LINE
8
Layer 1
10
21.222029
20
39.432553
11
19.868288
21
39.770322
0
LINE
8
Layer 1
10
19.868288
20
39.770322
11
18.388672
21
39.882846
0
LINE
8
Layer 1
10
18.388672
20
39.882846
11
16.506912
21
39.740588
0
LINE
8
Layer 1
10
16.506912
20
39.740588
11
14.740767
21
39.313548
0
LINE
8
Layer 1
10
14.740767
20
39.313548
11
13.088614
21
38.601333
0
LINE
8
Layer 1
10
13.088614
20
38.601333
11
11.548832
21
37.603546
0
LINE
8
Layer 1
10
11.548832
20
37.603546
11
10.382958
21
36.578771
0
LINE
8
Layer 1
10
10.382958
20
36.578771
11
9.213312
21
35.292673
0
LINE
8
Layer 1
10
9.213312
20
35.292673
11
6.867232
21
31.935536
0
LINE
8
Layer 1
10
6.867232
20
31.935536
11
6.869182
21
31.935536
0
LINE
8
Layer 1
10
6.869182
20
31.935536
11
5.268491
21
28.981537
0
LINE
8
Layer 1
10
5.268491
20
28.981537
11
3.181682
21
24.660146
0
LINE
8
Layer 1
10
3.181682
20
24.660146
11
3.179732
21
24.656246
0
LINE
8
Layer 1
10
3.179732
20
24.656246
11
3.060550
21
24.244100
0
LINE
8
Layer 1
10
3.060550
20
24.244100
11
3.455081
21
24.757771
0
LINE
8
Layer 1
10
3.455081
20
24.757771
11
3.458991
21
24.765571
0
LINE
8
Layer 1
10
3.458991
20
24.765571
11
6.638681
21
30.652291
0
LINE
8
Layer 1
10
6.638681
20
30.652291
11
7.463454
21
32.028986
0
LINE
8
Layer 1
10
7.463454
20
32.028986
11
8.351755
21
33.224407
0
LINE
8
Layer 1
10
8.351755
20
33.224407
11
9.303130
21
34.237849
0
LINE
8
Layer 1
10
9.303130
20
34.237849
11
10.317125
21
35.068608
0
LINE
8
Layer 1
10
10.317125
20
35.068608
11
11.393287
21
35.715981
0
LINE
8
Layer 1
10
11.393287
20
35.715981
11
12.531162
21
36.179261
0
LINE
8
Layer 1
10
12.531162
20
36.179261
11
13.730298
21
36.457746
0
LINE
8
Layer 1
10
13.730298
20
36.457746
11
14.990241
21
36.550731
0
LINE
8
Layer 1
10
14.990241
20
36.550731
11
16.350818
21
36.464236
0
LINE
8
Layer 1
10
16.350818
20
36.464236
11
17.571761
21
36.204031
0
LINE
8
Layer 1
10
17.571761
20
36.204031
11
18.651359
21
35.769030
0
LINE
8
Layer 1
10
18.651359
20
35.769030
11
19.587901
21
35.158151
0
LINE
8
Layer 1
10
19.587901
20
35.158151
11
20.411841
21
34.310741
0
LINE
8
Layer 1
10
20.411841
20
34.310741
11
21.000903
21
33.297457
0
LINE
8
Layer 1
10
21.000903
20
33.297457
11
21.354657
21
32.122236
0
LINE
8
Layer 1
10
21.354657
20
32.122236
11
21.472671
21
30.789011
0
LINE
8
Layer 1
10
21.472671
20
30.789011
11
21.315477
21
29.142697
0
LINE
8
Layer 1
10
21.315477
20
29.142697
11
20.844665
21
27.676898
0
LINE
8
Layer 1
10
20.844665
20
27.676898
11
20.061392
21
26.395574
0
LINE
8
Layer 1
10
20.061392
20
26.395574
11
18.966811
21
25.302681
0
LINE
8
Layer 1
10
18.966811
20
25.302681
11
18.900400
21
25.250000
0
LINE
8
Layer 1
10
18.900400
20
25.250000
11
16.716800
21
26.330100
0
LINE
8
Layer 1
10
16.716800
20
26.330100
11
14.918271
21
27.075745
0
LINE
8
Layer 1
10
14.918271
20
27.075745
11
13.218750
21
27.503930
0
LINE
8
Layer 1
10
13.218750
20
27.503930
11
12.033200
21
25.271510
0
LINE
8
Layer 1
10
12.033200
20
25.271510
11
11.041013
21
23.171900
0
LINE
8
Layer 1
10
11.041013
20
23.171900
11
14.486536
21
22.530292
0
LINE
8
Layer 1
10
14.486536
20
22.530292
11
15.806406
21
22.064341
0
LINE
8
Layer 1
10
15.806406
20
22.064341
11
16.851563
21
21.496120
0
LINE
8
Layer 1
10
16.851563
20
21.496120
11
17.981094
21
20.496515
0
LINE
8
Layer 1
10
17.981094
20
20.496515
11
18.911598
21
19.197581
0
LINE
8
Layer 1
10
18.911598
20
19.197581
11
19.644117
21
17.601627
0
LINE
8
Layer 1
10
19.644117
20
17.601627
11
20.179693
21
15.710960
0
LINE
8
Layer 1
10
20.179693
20
15.710960
11
20.181693
21
15.703160
0
LINE
8
Layer 1
10
20.181693
20
15.703160
11
20.257863
21
14.945347
0
LINE
8
Layer 1
10
20.257863
20
14.945347
11
20.257863
21
14.937547
0
LINE
8
Layer 1
10
20.257863
20
14.937547
11
20.071931
21
13.878755
0
LINE
8
Layer 1
10
20.071931
20
13.878755
11
19.513723
21
13.107467
0
LINE
8
Layer 1
10
19.513723
20
13.107467
11
18.597703
21
12.649171
0
LINE
8
Layer 1
10
18.597703
20
12.649171
11
17.345700
21
12.500000
0
LINE
8
Layer 1
10
17.345700
20
12.500000
11
17.337900
21
12.500000
0
LINE
8
Layer 1
10
17.337900
20
12.500000
11
17.330100
21
12.500000
0
LINE
8
Layer 1
10
17.330100
20
12.500000
11
14.836835
21
13.058025
0
LINE
8
Layer 1
10
14.836835
20
13.058025
11
12.761740
21
14.033200
0
LINE
8
Layer 1
10
12.761740
20
14.033200
11
11.135199
21
15.316729
0
LINE
8
Layer 1
10
11.135199
20
15.316729
11
9.306660
21
17.218750
0
LINE
8
Layer 1
10
9.306660
20
17.218750
11
8.571626
21
16.694506
0
LINE
8
Layer 1
10
8.571626
20
16.694506
11
7.726560
21
15.773400
0
LINE
8
Layer 1
10
7.726560
20
15.773400
11
6.074220
21
13.673790
0
LINE
8
Layer 1
10
6.074220
20
13.673790
11
7.972427
21
12.031157
0
LINE
8
Layer 1
10
7.972427
20
12.031157
11
9.985340
21
10.855272
0
LINE
8
Layer 1
10
9.985340
20
10.855272
11
12.116423
21
10.148217
0
LINE
8
Layer 1
10
12.116423
20
10.148217
11
14.369140
21
9.912070
0
LINE
8
Layer 1
10
14.369140
20
9.912070
11
16.098565
21
10.080004
0
LINE
8
Layer 1
10
16.098565
20
10.080004
11
17.617880
21
10.584828
0
LINE
8
Layer 1
10
17.617880
20
10.584828
11
18.931282
21
11.428079
0
LINE
8
Layer 1
10
18.931282
20
11.428079
11
20.042970
21
12.611290
0
LINE
8
Layer 1
10
20.042970
20
12.611290
11
20.044970
21
12.613290
0
LINE
8
Layer 1
10
20.044970
20
12.613290
11
20.845984
21
13.907008
0
LINE
8
Layer 1
10
20.845984
20
13.907008
11
21.418549
21
15.373469
0
LINE
8
Layer 1
10
21.418549
20
15.373469
11
21.762332
21
17.014528
0
LINE
8
Layer 1
10
21.762332
20
17.014528
11
21.877000
21
18.832040
0
LINE
8
Layer 1
10
21.877000
20
18.832040
11
21.730516
21
20.205090
0
LINE
8
Layer 1
10
21.730516
20
20.205090
11
21.529344
21
21.675790
0
LINE
8
Layer 1
10
21.529344
20
21.675790
11
21.529344
21
21.685590
0
LINE
8
Layer 1
10
21.529344
20
21.685590
11
21.689462
21
22.322303
0
LINE
8
Layer 1
10
21.689462
20
22.322303
11
22.152391
21
22.855510
0
LINE
8
Layer 1
10
22.152391
20
22.855510
11
23.053680
21
23.395185
0
LINE
8
Layer 1
10
23.053680
20
23.395185
11
23.968801
21
23.578166
0
LINE
8
Layer 1
10
23.968801
20
23.578166
11
25.155309
21
23.333006
0
LINE
8
Layer 1
10
25.155309
20
23.333006
11
26.218801
21
22.605510
0
LINE
8
Layer 1
10
26.218801
20
22.605510
11
27.151336
21
21.409013
0
LINE
8
Layer 1
10
27.151336
20
21.409013
11
27.960991
21
19.750040
0
LINE
8
Layer 1
10
27.960991
20
19.750040
11
29.877011
21
15.027380
0
LINE
8
Layer 1
10
29.877011
20
15.027380
11
30.806699
21
12.919960
0
LINE
8
Layer 1
10
30.806699
20
12.919960
11
30.806699
21
12.917960
0
LINE
8
Layer 1
10
30.806699
20
12.917960
11
31.778284
21
11.455481
0
LINE
8
Layer 1
10
31.778284
20
11.455481
11
32.856325
21
10.371271
0
LINE
8
Layer 1
10
32.856325
20
10.371271
11
34.041866
21
9.660496
0
LINE
8
Layer 1
10
34.041866
20
9.660496
11
35.335949
21
9.318320
0
LINE
8
Layer 1
10
35.335949
20
9.318320
11
35.335970
21
9.318362
0
LINE
8
Layer 1
10
37.623080
20
12.251952
11
37.609410
21
12.253952
0
LINE
8
Layer 1
10
37.609410
20
12.253952
11
37.032809
21
12.466084
0
LINE
8
Layer 1
10
37.032809
20
12.466084
11
36.461837
21
12.860219
0
LINE
8
Layer 1
10
36.461837
20
12.860219
11
35.326210
21
14.181682
0
LINE
8
Layer 1
10
35.326210
20
14.181682
11
34.182951
21
16.205136
0
LINE
8
Layer 1
10
34.182951
20
16.205136
11
33.023480
21
18.935592
0
LINE
8
Layer 1
10
33.023480
20
18.935592
11
32.254950
21
21.510191
0
LINE
8
Layer 1
10
32.254950
20
21.510191
11
31.998090
21
23.843792
0
LINE
8
Layer 1
10
31.998090
20
23.843792
11
32.154716
21
25.305325
0
LINE
8
Layer 1
10
32.154716
20
25.305325
11
32.622954
21
26.508363
0
LINE
8
Layer 1
10
32.622954
20
26.508363
11
33.400343
21
27.445034
0
LINE
8
Layer 1
10
33.400343
20
27.445034
11
34.484420
21
28.107462
0
LINE
8
Layer 1
10
34.484420
20
28.107462
11
34.509810
21
28.117262
0
LINE
8
Layer 1
10
34.509810
20
28.117262
11
34.537150
21
28.117262
0
LINE
8
Layer 1
10
34.537150
20
28.117262
11
36.035321
21
27.973621
0
LINE
8
Layer 1
10
36.035321
20
27.973621
11
37.329409
21
27.543301
0
LINE
8
Layer 1
10
37.329409
20
27.543301
11
38.414380
21
26.827206
0
LINE
8
Layer 1
10
38.414380
20
26.827206
11
39.285200
21
25.826242
0
LINE
8
Layer 1
10
39.285200
20
25.826242
11
39.742683
21
24.967295
0
LINE
8
Layer 1
10
39.742683
20
24.967295
11
40.116117
21
23.877996
0
LINE
8
Layer 1
10
40.116117
20
23.877996
11
40.621140
21
21.003972
0
LINE
8
Layer 1
10
40.621140
20
21.003972
11
40.621140
21
20.998072
0
LINE
8
Layer 1
10
40.621140
20
20.998072
11
40.646530
21
19.082052
0
LINE
8
Layer 1
10
40.646530
20
19.082052
11
40.503876
21
16.133113
0
LINE
8
Layer 1
10
40.503876
20
16.133113
11
39.966843
21
14.005882
0
LINE
8
Layer 1
10
39.966843
20
14.005882
11
39.541447
21
13.248107
0
LINE
8
Layer 1
10
39.541447
20
13.248107
11
39.007746
21
12.698948
0
LINE
8
Layer 1
10
39.007746
20
12.698948
11
38.371073
21
12.364778
0
LINE
8
Layer 1
10
38.371073
20
12.364778
11
37.636763
21
12.251972
0
LINE
8
Layer 1
10
37.636763
20
12.251972
11
37.623080
21
12.251952
0
LINE
8
Layer 1
10
37.652380
20
12.519530
11
38.304438
21
12.618867
0
LINE
8
Layer 1
10
38.304438
20
12.618867
11
38.863707
21
12.912189
0
LINE
8
Layer 1
10
38.863707
20
12.912189
11
39.334889
21
13.406642
0
LINE
8
Layer 1
10
39.334889
20
13.406642
11
39.722690
21
14.109370
0
LINE
8
Layer 1
10
39.722690
20
14.109370
11
40.240052
21
16.167438
0
LINE
8
Layer 1
10
40.240052
20
16.167438
11
40.382846
21
19.078120
0
LINE
8
Layer 1
10
40.382846
20
19.078120
11
40.380846
21
19.078120
0
LINE
8
Layer 1
10
40.380846
20
19.078120
11
40.380846
21
19.080120
0
LINE
8
Layer 1
10
40.380846
20
19.080120
11
40.357406
21
20.976600
0
LINE
8
Layer 1
10
40.357406
20
20.976600
11
39.858031
21
23.807854
0
LINE
8
Layer 1
10
39.858031
20
23.807854
11
39.496760
21
24.864298
0
LINE
8
Layer 1
10
39.496760
20
24.864298
11
39.064436
21
25.679730
0
LINE
8
Layer 1
10
39.064436
20
25.679730
11
38.244105
21
26.626480
0
LINE
8
Layer 1
10
38.244105
20
26.626480
11
37.224202
21
27.302076
0
LINE
8
Layer 1
10
37.224202
20
27.302076
11
36.000394
21
27.708492
0
LINE
8
Layer 1
10
36.000394
20
27.708492
11
34.568346
21
27.847700
0
LINE
8
Layer 1
10
34.568346
20
27.847700
11
33.557322
21
27.229235
0
LINE
8
Layer 1
10
33.557322
20
27.229235
11
32.836705
21
26.361720
0
LINE
8
Layer 1
10
32.836705
20
26.361720
11
32.405248
21
25.236217
0
LINE
8
Layer 1
10
32.405248
20
25.236217
11
32.261706
21
23.843790
0
LINE
8
Layer 1
10
32.261706
20
23.843790
11
32.513928
21
21.564114
0
LINE
8
Layer 1
10
32.513928
20
21.564114
11
33.271476
21
19.029340
0
LINE
8
Layer 1
10
33.271476
20
19.029340
11
34.421792
21
16.320097
0
LINE
8
Layer 1
10
34.421792
20
16.320097
11
35.544916
21
14.330120
0
LINE
8
Layer 1
10
35.544916
20
14.330120
11
36.625939
21
13.073204
0
LINE
8
Layer 1
10
36.625939
20
13.073204
11
37.652336
21
12.519570
0
LINE
8
Layer 1
10
37.652336
20
12.519570
11
37.652380
21
12.519530
0
LINE
8
Layer 1
10
22.951200
20
1.939450
11
19.478500
21
4.761720
0
LINE
8
Layer 1
10
19.478500
20
4.761720
11
23.169900
21
7.287110
0
LINE
8
Layer 1
10
23.169900
20
7.287110
11
26.425800
21
4.464840
0
LINE
8
Layer 1
10
26.425800
20
4.464840
11
26.240200
21
4.328120
0
LINE
8
Layer 1
10
26.240200
20
4.328120
11
22.951200
21
1.939450
0
LINE
8
Layer 1
10
22.951200
20
1.939450
11
22.951200
21
1.939450
0
LINE
8
Layer 1
10
22.964800
20
2.400390
11
25.837900
21
4.490230
0
LINE
8
Layer 1
10
25.837900
20
4.490230
11
23.142600
21
6.826170
0
LINE
8
Layer 1
10
23.142600
20
6.826170
11
20.087900
21
4.736330
0
LINE
8
Layer 1
10
20.087900
20
4.736330
11
22.964800
21
2.400390
0
LINE
8
Layer 1
10
22.964800
20
2.400390
11
22.964800
21
2.400390
0
LINE
8
Layer 1
10
28.867200
20
3.800780
11
28.703100
21
4.087890
0
LINE
8
Layer 1
10
28.703100
20
4.087890
11
27.252895
21
6.209634
0
LINE
8
Layer 1
10
27.252895
20
6.209634
11
25.702163
21
7.714552
0
LINE
8
Layer 1
10
25.702163
20
7.714552
11
24.048398
21
8.611217
0
LINE
8
Layer 1
10
24.048398
20
8.611217
11
23.182097
21
8.834133
0
LINE
8
Layer 1
10
23.182097
20
8.834133
11
22.289100
21
8.908200
0
LINE
8
Layer 1
10
22.289100
20
8.908200
11
20.760455
21
8.717340
0
LINE
8
Layer 1
10
20.760455
20
8.717340
11
19.283062
21
8.141915
0
LINE
8
Layer 1
10
19.283062
20
8.141915
11
17.854589
21
7.177660
0
LINE
8
Layer 1
10
17.854589
20
7.177660
11
16.472700
21
5.820310
0
LINE
8
Layer 1
10
16.472700
20
5.820310
11
16.386700
21
5.722660
0
LINE
8
Layer 1
10
16.386700
20
5.722660
11
15.615200
21
6.031250
0
LINE
8
Layer 1
10
15.615200
20
6.031250
11
15.804700
21
6.638670
0
LINE
8
Layer 1
10
15.804700
20
6.638670
11
15.841800
21
6.671880
0
LINE
8
Layer 1
10
15.841800
20
6.671880
11
18.657238
21
9.052891
0
LINE
8
Layer 1
10
18.657238
20
9.052891
11
20.703100
21
10.535200
0
LINE
8
Layer 1
10
20.703100
20
10.535200
11
21.860470
21
11.174492
0
LINE
8
Layer 1
10
21.860470
20
11.174492
11
22.994188
21
11.633138
0
LINE
8
Layer 1
10
22.994188
20
11.633138
11
24.103961
21
11.909514
0
LINE
8
Layer 1
10
24.103961
20
11.909514
11
25.189500
21
12.002000
0
LINE
8
Layer 1
10
25.189500
20
12.002000
11
26.840531
21
11.765787
0
LINE
8
Layer 1
10
26.840531
20
11.765787
11
28.488825
21
11.060897
0
LINE
8
Layer 1
10
28.488825
20
11.060897
11
30.133931
21
9.892954
0
LINE
8
Layer 1
10
30.133931
20
9.892954
11
31.775400
21
8.267580
0
LINE
8
Layer 1
10
31.775400
20
8.267580
11
31.878900
21
8.152340
0
LINE
8
Layer 1
10
31.878900
20
8.152340
11
31.781200
21
8.031250
0
LINE
8
Layer 1
10
31.781200
20
8.031250
11
30.416000
21
6.371090
0
LINE
8
Layer 1
10
30.416000
20
6.371090
11
30.416000
21
6.369140
0
LINE
8
Layer 1
10
30.416000
20
6.369140
11
29.023400
21
4.093750
0
LINE
8
Layer 1
10
29.023400
20
4.093750
11
28.867200
21
3.800780
0
LINE
8
Layer 1
10
28.867200
20
3.800780
11
28.867200
21
3.800780
0
LINE
8
Layer 1
10
28.837900
20
4.486330
11
30.134800
21
6.601560
0
LINE
8
Layer 1
10
30.134800
20
6.601560
11
31.386700
21
8.126950
0
LINE
8
Layer 1
10
31.386700
20
8.126950
11
29.814966
21
9.660785
0
LINE
8
Layer 1
10
29.814966
20
9.660785
11
28.258100
21
10.757769
0
LINE
8
Layer 1
10
28.258100
20
10.757769
11
26.716234
21
11.416780
0
LINE
8
Layer 1
10
26.716234
20
11.416780
11
25.189500
21
11.636700
0
LINE
8
Layer 1
10
25.189500
20
11.636700
11
24.163725
21
11.549105
0
LINE
8
Layer 1
10
24.163725
20
11.549105
11
23.106675
21
11.285438
0
LINE
8
Layer 1
10
23.106675
20
11.285438
11
20.896500
21
10.224600
0
LINE
8
Layer 1
10
20.896500
20
10.224600
11
18.899363
21
8.775209
0
LINE
8
Layer 1
10
18.899363
20
8.775209
11
16.121100
21
6.427730
0
LINE
8
Layer 1
10
16.121100
20
6.427730
11
16.064500
21
6.246090
0
LINE
8
Layer 1
10
16.064500
20
6.246090
11
16.304700
21
6.148440
0
LINE
8
Layer 1
10
16.304700
20
6.148440
11
17.709464
21
7.501552
0
LINE
8
Layer 1
10
17.709464
20
7.501552
11
19.176188
21
8.479679
0
LINE
8
Layer 1
10
19.176188
20
8.479679
11
20.703267
21
9.073436
0
LINE
8
Layer 1
10
20.703267
20
9.073436
11
22.289100
21
9.273440
0
LINE
8
Layer 1
10
22.289100
20
9.273440
11
23.212237
21
9.195617
0
LINE
8
Layer 1
10
23.212237
20
9.195617
11
24.105292
21
8.963878
0
LINE
8
Layer 1
10
24.105292
20
8.963878
11
25.801588
21
8.049015
0
LINE
8
Layer 1
10
25.801588
20
8.049015
11
27.378839
21
6.549587
0
LINE
8
Layer 1
10
27.378839
20
6.549587
11
28.837900
21
4.486330
0
LINE
8
Layer 1
10
28.837900
20
4.486330
11
28.837900
21
4.486330
0
LINE
8
Layer 1
10
35.041000
20
8.734380
11
33.662017
21
9.098066
0
LINE
8
Layer 1
10
33.662017
20
9.098066
11
32.405237
21
9.850766
0
LINE
8
Layer 1
10
32.405237
20
9.850766
11
31.272489
21
10.986179
0
LINE
8
Layer 1
10
31.272489
20
10.986179
11
30.265600
21
12.498000
0
LINE
8
Layer 1
10
30.265600
20
12.498000
11
30.263700
21
12.500000
0
LINE
8
Layer 1
10
30.263700
20
12.500000
11
29.320300
21
14.638700
0
LINE
8
Layer 1
10
29.320300
20
14.638700
11
27.402300
21
19.365200
0
LINE
8
Layer 1
10
27.402300
20
19.365200
11
27.402300
21
19.367200
0
LINE
8
Layer 1
10
27.402300
20
19.367200
11
26.615425
21
20.977300
0
LINE
8
Layer 1
10
26.615425
20
20.977300
11
25.732400
21
22.111300
0
LINE
8
Layer 1
10
25.732400
20
22.111300
11
24.764762
21
22.778062
0
LINE
8
Layer 1
10
24.764762
20
22.778062
11
23.701200
21
22.996100
0
LINE
8
Layer 1
10
23.701200
20
22.996100
11
22.900212
21
22.835637
0
LINE
8
Layer 1
10
22.900212
20
22.835637
11
22.080100
21
22.341800
0
LINE
8
Layer 1
10
22.080100
20
22.341800
11
22.078100
21
22.341800
0
LINE
8
Layer 1
10
22.078100
20
22.341800
11
21.699200
21
21.912537
0
LINE
8
Layer 1
10
21.699200
20
21.912537
11
21.580100
21
21.419900
0
LINE
8
Layer 1
10
21.580100
20
21.419900
11
21.775400
21
19.976600
0
LINE
8
Layer 1
10
21.775400
20
19.976600
11
21.925800
21
18.576200
0
LINE
8
Layer 1
10
21.925800
20
18.576200
11
21.925800
21
18.566400
0
LINE
8
Layer 1
10
21.925800
20
18.566400
11
21.807630
21
16.706839
0
LINE
8
Layer 1
10
21.807630
20
16.706839
11
21.452637
21
15.017012
0
LINE
8
Layer 1
10
21.452637
20
15.017012
11
20.860102
21
13.499330
0
LINE
8
Layer 1
10
20.860102
20
13.499330
11
20.029300
21
12.156200
0
LINE
8
Layer 1
10
20.029300
20
12.156200
11
20.027300
21
12.154300
0
LINE
8
Layer 1
10
20.027300
20
12.154300
11
18.864402
21
10.921494
0
LINE
8
Layer 1
10
18.864402
20
10.921494
11
17.485588
21
10.038615
0
LINE
8
Layer 1
10
17.485588
20
10.038615
11
15.896680
21
9.507524
0
LINE
8
Layer 1
10
15.896680
20
9.507524
11
14.103500
21
9.330080
0
LINE
8
Layer 1
10
14.103500
20
9.330080
11
11.758857
21
9.576525
0
LINE
8
Layer 1
10
11.758857
20
9.576525
11
9.539259
21
10.314253
0
LINE
8
Layer 1
10
9.539259
20
10.314253
11
7.447976
21
11.540848
0
LINE
8
Layer 1
10
7.447976
20
11.540848
11
5.488280
21
13.253900
0
LINE
8
Layer 1
10
5.488280
20
13.253900
11
5.376950
21
13.369100
0
LINE
8
Layer 1
10
5.376950
20
13.369100
11
7.212890
21
15.701200
0
LINE
8
Layer 1
10
7.212890
20
15.701200
11
7.212890
21
15.703100
0
LINE
8
Layer 1
10
7.212890
20
15.703100
11
8.124779
21
16.705200
0
LINE
8
Layer 1
10
8.124779
20
16.705200
11
8.964840
21
17.293000
0
LINE
8
Layer 1
10
8.964840
20
17.293000
11
9.089840
21
17.349600
0
LINE
8
Layer 1
10
9.089840
20
17.349600
11
9.179690
21
17.246100
0
LINE
8
Layer 1
10
9.179690
20
17.246100
11
11.039249
21
15.307150
0
LINE
8
Layer 1
10
11.039249
20
15.307150
11
12.662100
21
14.031200
0
LINE
8
Layer 1
10
12.662100
20
14.031200
11
14.662313
21
13.092263
0
LINE
8
Layer 1
10
14.662313
20
13.092263
11
17.085900
21
12.548800
0
LINE
8
Layer 1
10
17.085900
20
12.548800
11
18.246700
21
12.686400
0
LINE
8
Layer 1
10
18.246700
20
12.686400
11
19.046900
21
13.082000
0
LINE
8
Layer 1
10
19.046900
20
13.082000
11
19.515937
21
13.731000
0
LINE
8
Layer 1
10
19.515937
20
13.731000
11
19.673800
21
14.668000
0
LINE
8
Layer 1
10
19.673800
20
14.668000
11
19.603500
21
15.384800
0
LINE
8
Layer 1
10
19.603500
20
15.384800
11
19.080394
21
17.229625
0
LINE
8
Layer 1
10
19.080394
20
17.229625
11
18.371700
21
18.773475
0
LINE
8
Layer 1
10
18.371700
20
18.773475
11
17.479106
21
20.019463
0
LINE
8
Layer 1
10
17.479106
20
20.019463
11
16.404300
21
20.970700
0
LINE
8
Layer 1
10
16.404300
20
20.970700
11
15.384542
21
21.523259
0
LINE
8
Layer 1
10
15.384542
20
21.523259
11
14.069838
21
21.985275
0
LINE
8
Layer 1
10
14.069838
20
21.985275
11
10.560500
21
22.625000
0
LINE
8
Layer 1
10
10.560500
20
22.625000
11
10.306600
21
22.654300
0
LINE
8
Layer 1
10
10.306600
20
22.654300
11
11.484400
21
25.146500
0
LINE
8
Layer 1
10
11.484400
20
25.146500
11
12.787100
21
27.597700
0
LINE
8
Layer 1
10
12.787100
20
27.597700
11
12.916000
21
27.576200
0
LINE
8
Layer 1
10
12.916000
20
27.576200
11
14.706588
21
27.128525
0
LINE
8
Layer 1
10
14.706588
20
27.128525
11
16.589800
21
26.343800
0
LINE
8
Layer 1
10
16.589800
20
26.343800
11
18.570300
21
25.365200
0
LINE
8
Layer 1
10
18.570300
20
25.365200
11
19.581522
21
26.396462
0
LINE
8
Layer 1
10
19.581522
20
26.396462
11
20.307050
21
27.594675
0
LINE
8
Layer 1
10
20.307050
20
27.594675
11
20.744278
21
28.967225
0
LINE
8
Layer 1
10
20.744278
20
28.967225
11
20.890600
21
30.521500
0
LINE
8
Layer 1
10
20.890600
20
30.521500
11
20.780434
21
31.795820
0
LINE
8
Layer 1
10
20.780434
20
31.795820
11
20.449525
21
32.904512
0
LINE
8
Layer 1
10
20.449525
20
32.904512
11
19.897253
21
33.852948
0
LINE
8
Layer 1
10
19.897253
20
33.852948
11
19.123000
21
34.646500
0
LINE
8
Layer 1
10
19.123000
20
34.646500
11
18.238395
21
35.223558
0
LINE
8
Layer 1
10
18.238395
20
35.223558
11
17.211637
21
35.636938
0
LINE
8
Layer 1
10
17.211637
20
35.636938
11
16.040486
21
35.885673
0
LINE
8
Layer 1
10
16.040486
20
35.885673
11
14.722700
21
35.968800
0
LINE
8
Layer 1
10
14.722700
20
35.968800
11
13.507807
21
35.880392
0
LINE
8
Layer 1
10
13.507807
20
35.880392
11
12.352930
21
35.614503
0
LINE
8
Layer 1
10
12.352930
20
35.614503
11
11.257433
21
35.170138
0
LINE
8
Layer 1
10
11.257433
20
35.170138
11
10.220682
21
34.546300
0
LINE
8
Layer 1
10
10.220682
20
34.546300
11
9.242043
21
33.741993
0
LINE
8
Layer 1
10
9.242043
20
33.741993
11
8.320879
21
32.756222
0
LINE
8
Layer 1
10
8.320879
20
32.756222
11
6.648440
21
30.236300
0
LINE
8
Layer 1
10
6.648440
20
30.236300
11
3.484380
21
24.380900
0
LINE
8
Layer 1
10
3.484380
20
24.380900
11
3.227804
21
23.911187
0
LINE
8
Layer 1
10
3.227804
20
23.911187
11
2.845700
21
23.548800
0
LINE
8
Layer 1
10
2.845700
20
23.548800
11
2.167970
21
22.945300
0
LINE
8
Layer 1
10
2.167970
20
22.945300
11
2.621090
21
24.507800
0
LINE
8
Layer 1
10
2.621090
20
24.507800
11
2.626950
21
24.521500
0
LINE
8
Layer 1
10
2.626950
20
24.521500
11
4.718327
21
28.854737
0
LINE
8
Layer 1
10
4.718327
20
28.854737
11
6.330080
21
31.830100
0
LINE
8
Layer 1
10
6.330080
20
31.830100
11
6.332030
21
31.830100
0
LINE
8
Layer 1
10
6.332030
20
31.830100
11
6.332030
21
31.832000
0
LINE
8
Layer 1
10
6.332030
20
31.832000
11
7.516650
21
33.658905
0
LINE
8
Layer 1
10
7.516650
20
33.658905
11
8.703674
21
35.226788
0
LINE
8
Layer 1
10
8.703674
20
35.226788
11
9.894319
21
36.535752
0
LINE
8
Layer 1
10
9.894319
20
36.535752
11
11.089800
21
37.585900
0
LINE
8
Layer 1
10
11.089800
20
37.585900
11
12.672978
21
38.611089
0
LINE
8
Layer 1
10
12.672978
20
38.611089
11
14.374000
21
39.344238
0
LINE
8
Layer 1
10
14.374000
20
39.344238
11
16.190747
21
39.784642
0
LINE
8
Layer 1
10
16.190747
20
39.784642
11
18.121100
21
39.931600
0
LINE
8
Layer 1
10
18.121100
20
39.931600
11
19.650641
21
39.813844
0
LINE
8
Layer 1
10
19.650641
20
39.813844
11
21.058475
21
39.460850
0
LINE
8
Layer 1
10
21.058475
20
39.460850
11
22.341847
21
38.873031
0
LINE
8
Layer 1
10
22.341847
20
38.873031
11
23.498000
21
38.050800
0
LINE
8
Layer 1
10
23.498000
20
38.050800
11
24.521264
21
36.985673
0
LINE
8
Layer 1
10
24.521264
20
36.985673
11
25.254663
21
35.773763
0
LINE
8
Layer 1
10
25.254663
20
35.773763
11
25.696180
21
34.419595
0
LINE
8
Layer 1
10
25.696180
20
34.419595
11
25.843800
21
32.927700
0
LINE
8
Layer 1
10
25.843800
20
32.927700
11
25.737474
21
31.603926
0
LINE
8
Layer 1
10
25.737474
20
31.603926
11
25.419702
21
30.357106
0
LINE
8
Layer 1
10
25.419702
20
30.357106
11
24.892287
21
29.187659
0
LINE
8
Layer 1
10
24.892287
20
29.187659
11
24.157038
21
28.096000
0
LINE
8
Layer 1
10
24.157038
20
28.096000
11
23.215758
21
27.082548
0
LINE
8
Layer 1
10
23.215758
20
27.082548
11
22.070255
21
26.147719
0
LINE
8
Layer 1
10
22.070255
20
26.147719
11
20.722333
21
25.291930
0
LINE
8
Layer 1
10
20.722333
20
25.291930
11
19.173800
21
24.515600
0
LINE
8
Layer 1
10
19.173800
20
24.515600
11
20.183675
21
23.596288
0
LINE
8
Layer 1
10
20.183675
20
23.596288
11
20.953100
21
22.521500
0
LINE
8
Layer 1
10
20.953100
20
22.521500
11
22.622319
21
24.352159
0
LINE
8
Layer 1
10
22.622319
20
24.352159
11
24.188075
21
25.679250
0
LINE
8
Layer 1
10
24.188075
20
25.679250
11
25.654419
21
26.487041
0
LINE
8
Layer 1
10
25.654419
20
26.487041
11
27.025400
21
26.759800
0
LINE
8
Layer 1
10
27.025400
20
26.759800
11
28.103200
21
26.587050
0
LINE
8
Layer 1
10
28.103200
20
26.587050
11
28.982400
21
26.068400
0
LINE
8
Layer 1
10
28.982400
20
26.068400
11
28.966800
21
26.082000
0
LINE
8
Layer 1
10
28.966800
20
26.082000
11
30.445300
21
25.031200
0
LINE
8
Layer 1
10
30.445300
20
25.031200
11
30.918925
21
28.164450
0
LINE
8
Layer 1
10
30.918925
20
28.164450
11
31.367200
21
30.109400
0
LINE
8
Layer 1
10
31.367200
20
30.109400
11
32.017164
21
31.462283
0
LINE
8
Layer 1
10
32.017164
20
31.462283
11
32.942837
21
32.488213
0
LINE
8
Layer 1
10
32.942837
20
32.488213
11
34.135867
21
33.180186
0
LINE
8
Layer 1
10
34.135867
20
33.180186
11
35.587900
21
33.531200
0
LINE
8
Layer 1
10
35.587900
20
33.531200
11
35.597700
21
33.531200
0
LINE
8
Layer 1
10
35.597700
20
33.531200
11
35.607400
21
33.531200
0
LINE
8
Layer 1
10
35.607400
20
33.531200
11
37.361337
21
33.292002
0
LINE
8
Layer 1
10
37.361337
20
33.292002
11
38.879850
21
32.578888
0
LINE
8
Layer 1
10
38.879850
20
32.578888
11
40.155212
21
31.398580
0
LINE
8
Layer 1
10
40.155212
20
31.398580
11
41.179700
21
29.757800
0
LINE
8
Layer 1
10
41.179700
20
29.757800
11
41.179700
21
29.755900
0
LINE
8
Layer 1
10
41.179700
20
29.755900
11
41.785997
21
28.213378
0
LINE
8
Layer 1
10
41.785997
20
28.213378
11
42.217975
21
26.487200
0
LINE
8
Layer 1
10
42.217975
20
26.487200
11
42.476516
21
24.577497
0
LINE
8
Layer 1
10
42.476516
20
24.577497
11
42.562500
21
22.484400
0
LINE
8
Layer 1
10
42.562500
20
22.484400
11
42.396906
21
19.541873
0
LINE
8
Layer 1
10
42.396906
20
19.541873
11
41.899400
21
16.856587
0
LINE
8
Layer 1
10
41.899400
20
16.856587
11
41.068894
21
14.430033
0
LINE
8
Layer 1
10
41.068894
20
14.430033
11
39.904300
21
12.263700
0
LINE
8
Layer 1
10
39.904300
20
12.263700
11
38.746003
21
10.731929
0
LINE
8
Layer 1
10
38.746003
20
10.731929
11
37.553000
21
9.627649
0
LINE
8
Layer 1
10
37.553000
20
9.627649
11
36.325197
21
8.959065
0
LINE
8
Layer 1
10
36.325197
20
8.959065
11
35.062500
21
8.734380
0
LINE
8
Layer 1
10
35.062500
20
8.734380
11
35.052700
21
8.734380
0
LINE
8
Layer 1
10
35.052700
20
8.734380
11
35.041000
21
8.734380
0
LINE
8
Layer 1
10
35.041000
20
8.734380
11
35.041000
21
8.734380
0
LINE
8
Layer 1
10
35.072300
20
9.103520
11
36.216344
21
9.311699
0
LINE
8
Layer 1
10
36.216344
20
9.311699
11
37.352100
21
9.935239
0
LINE
8
Layer 1
10
37.352100
20
9.935239
11
38.479306
21
10.983239
0
LINE
8
Layer 1
10
38.479306
20
10.983239
11
39.597700
21
12.464800
0
LINE
8
Layer 1
10
39.597700
20
12.464800
11
40.733563
21
14.577211
0
LINE
8
Layer 1
10
40.733563
20
14.577211
11
41.546100
21
16.950238
0
LINE
8
Layer 1
10
41.546100
20
16.950238
11
42.034337
21
19.585445
0
LINE
8
Layer 1
10
42.034337
20
19.585445
11
42.197300
21
22.484400
0
LINE
8
Layer 1
10
42.197300
20
22.484400
11
42.112739
21
24.546058
0
LINE
8
Layer 1
10
42.112739
20
24.546058
11
41.859662
21
26.419063
0
LINE
8
Layer 1
10
41.859662
20
26.419063
11
41.438980
21
28.103536
0
LINE
8
Layer 1
10
41.438980
20
28.103536
11
40.851600
21
29.599600
0
LINE
8
Layer 1
10
40.851600
20
29.599600
11
39.880528
21
31.168294
0
LINE
8
Layer 1
10
39.880528
20
31.168294
11
38.689200
21
32.280275
0
LINE
8
Layer 1
10
38.689200
20
32.280275
11
37.270472
21
32.943044
0
LINE
8
Layer 1
10
37.270472
20
32.943044
11
35.617200
21
33.164100
0
LINE
8
Layer 1
10
35.617200
20
33.164100
11
34.259070
21
32.840841
0
LINE
8
Layer 1
10
34.259070
20
32.840841
11
33.160713
21
32.209200
0
LINE
8
Layer 1
10
33.160713
20
32.209200
11
32.314523
21
31.262034
0
LINE
8
Layer 1
10
32.314523
20
31.262034
11
31.712900
21
29.992200
0
LINE
8
Layer 1
10
31.712900
20
29.992200
11
31.256013
21
28.029612
0
LINE
8
Layer 1
10
31.256013
20
28.029612
11
30.753900
21
24.693400
0
LINE
8
Layer 1
10
30.753900
20
24.693400
11
30.714800
21
24.392600
0
LINE
8
Layer 1
10
30.714800
20
24.392600
11
28.748000
21
25.789100
0
LINE
8
Layer 1
10
28.748000
20
25.789100
11
28.740200
21
25.796900
0
LINE
8
Layer 1
10
28.740200
20
25.796900
11
27.981950
21
26.245175
0
LINE
8
Layer 1
10
27.981950
20
26.245175
11
27.025400
21
26.394500
0
LINE
8
Layer 1
10
27.025400
20
26.394500
11
25.751055
21
26.133022
0
LINE
8
Layer 1
10
25.751055
20
26.133022
11
24.332887
21
25.343225
0
LINE
8
Layer 1
10
24.332887
20
25.343225
11
22.777077
21
24.017066
0
LINE
8
Layer 1
10
22.777077
20
24.017066
11
21.089800
21
22.146500
0
LINE
8
Layer 1
10
21.089800
20
22.146500
11
20.914100
21
21.929700
0
LINE
8
Layer 1
10
20.914100
20
21.929700
11
20.787100
21
22.177700
0
LINE
8
Layer 1
10
20.787100
20
22.177700
11
19.951650
21
23.398500
0
LINE
8
Layer 1
10
19.951650
20
23.398500
11
18.787100
21
24.418000
0
LINE
8
Layer 1
10
18.787100
20
24.418000
11
18.515600
21
24.605500
0
LINE
8
Layer 1
10
18.515600
20
24.605500
11
18.818400
21
24.736300
0
LINE
8
Layer 1
10
18.818400
20
24.736300
11
20.389879
21
25.498406
0
LINE
8
Layer 1
10
20.389879
20
25.498406
11
21.747648
21
26.333934
0
LINE
8
Layer 1
10
21.747648
20
26.333934
11
22.892997
21
27.243577
0
LINE
8
Layer 1
10
22.892997
20
27.243577
11
23.827213
21
28.228025
0
LINE
8
Layer 1
10
23.827213
20
28.228025
11
24.551583
21
29.287970
0
LINE
8
Layer 1
10
24.551583
20
29.287970
11
25.067395
21
30.424103
0
LINE
8
Layer 1
10
25.067395
20
30.424103
11
25.375938
21
31.637116
0
LINE
8
Layer 1
10
25.375938
20
31.637116
11
25.478500
21
32.927700
0
LINE
8
Layer 1
10
25.478500
20
32.927700
11
25.340995
21
34.346664
0
LINE
8
Layer 1
10
25.340995
20
34.346664
11
24.927087
21
35.624038
0
LINE
8
Layer 1
10
24.927087
20
35.624038
11
24.234686
21
36.764667
0
LINE
8
Layer 1
10
24.234686
20
36.764667
11
23.261700
21
37.773400
0
LINE
8
Layer 1
10
23.261700
20
37.773400
11
23.261700
21
37.775400
0
LINE
8
Layer 1
10
23.261700
20
37.775400
11
23.259800
21
37.775400
0
LINE
8
Layer 1
10
23.259800
20
37.775400
11
22.158964
21
38.559342
0
LINE
8
Layer 1
10
22.158964
20
38.559342
11
20.937612
21
39.118988
0
LINE
8
Layer 1
10
20.937612
20
39.118988
11
19.592680
21
39.454589
0
LINE
8
Layer 1
10
19.592680
20
39.454589
11
18.121100
21
39.566400
0
LINE
8
Layer 1
10
18.121100
20
39.566400
11
16.247186
21
39.424767
0
LINE
8
Layer 1
10
16.247186
20
39.424767
11
14.489363
21
38.999588
0
LINE
8
Layer 1
10
14.489363
20
38.999588
11
12.845258
21
38.290439
0
LINE
8
Layer 1
10
12.845258
20
38.290439
11
11.312500
21
37.296900
0
LINE
8
Layer 1
10
11.312500
20
37.296900
11
10.151559
21
36.276180
0
LINE
8
Layer 1
10
10.151559
20
36.276180
11
8.985771
21
34.993738
0
LINE
8
Layer 1
10
8.985771
20
34.993738
11
6.644530
21
31.642600
0
LINE
8
Layer 1
10
6.644530
20
31.642600
11
5.046811
21
28.693850
0
LINE
8
Layer 1
10
5.046811
20
28.693850
11
2.962890
21
24.378900
0
LINE
8
Layer 1
10
2.962890
20
24.378900
11
2.914060
21
24.210900
0
LINE
8
Layer 1
10
2.914060
20
24.210900
11
3.140620
21
24.507800
0
LINE
8
Layer 1
10
3.140620
20
24.507800
11
3.146480
21
24.519500
0
LINE
8
Layer 1
10
3.146480
20
24.519500
11
6.326170
21
30.410200
0
LINE
8
Layer 1
10
6.326170
20
30.410200
11
7.153627
21
31.790839
0
LINE
8
Layer 1
10
7.153627
20
31.790839
11
8.045825
21
32.990472
0
LINE
8
Layer 1
10
8.045825
20
32.990472
11
9.002124
21
34.008150
0
LINE
8
Layer 1
10
9.002124
20
34.008150
11
10.021883
21
34.842925
0
LINE
8
Layer 1
10
10.021883
20
34.842925
11
11.104460
21
35.493846
0
LINE
8
Layer 1
10
11.104460
20
35.493846
11
12.249216
21
35.959966
0
LINE
8
Layer 1
10
12.249216
20
35.959966
11
13.455510
21
36.240333
0
LINE
8
Layer 1
10
13.455510
20
36.240333
11
14.722700
21
36.334000
0
LINE
8
Layer 1
10
14.722700
20
36.334000
11
16.090056
21
36.246892
0
LINE
8
Layer 1
10
16.090056
20
36.246892
11
17.318850
21
35.984687
0
LINE
8
Layer 1
10
17.318850
20
35.984687
11
18.406794
21
35.546064
0
LINE
8
Layer 1
10
18.406794
20
35.546064
11
19.351600
21
34.929700
0
LINE
8
Layer 1
10
19.351600
20
34.929700
11
20.183578
21
34.073673
0
LINE
8
Layer 1
10
20.183578
20
34.073673
11
20.778800
21
33.050013
0
LINE
8
Layer 1
10
20.778800
20
33.050013
11
21.136497
21
31.864145
0
LINE
8
Layer 1
10
21.136497
20
31.864145
11
21.255900
21
30.521500
0
LINE
8
Layer 1
10
21.255900
20
30.521500
11
21.097219
21
28.865256
0
LINE
8
Layer 1
10
21.097219
20
28.865256
11
20.622300
21
27.388675
0
LINE
8
Layer 1
10
20.622300
20
27.388675
11
19.832831
21
26.097156
0
LINE
8
Layer 1
10
19.832831
20
26.097156
11
18.730500
21
24.996100
0
LINE
8
Layer 1
10
18.730500
20
24.996100
11
18.640600
21
24.923800
0
LINE
8
Layer 1
10
18.640600
20
24.923800
11
16.427700
21
26.017600
0
LINE
8
Layer 1
10
16.427700
20
26.017600
11
14.652687
21
26.752288
0
LINE
8
Layer 1
10
14.652687
20
26.752288
11
12.976600
21
27.175800
0
LINE
8
Layer 1
10
12.976600
20
27.175800
11
11.810500
21
24.982400
0
LINE
8
Layer 1
10
11.810500
20
24.982400
11
10.847700
21
22.943400
0
LINE
8
Layer 1
10
10.847700
20
22.943400
11
14.256338
21
22.302900
0
LINE
8
Layer 1
10
14.256338
20
22.302900
11
15.568411
21
21.838819
0
LINE
8
Layer 1
10
15.568411
20
21.838819
11
16.611300
21
21.271500
0
LINE
8
Layer 1
10
16.611300
20
21.271500
11
16.613300
21
21.271500
0
LINE
8
Layer 1
10
16.613300
20
21.271500
11
17.751259
21
20.263909
0
LINE
8
Layer 1
10
17.751259
20
20.263909
11
18.687450
21
18.955850
0
LINE
8
Layer 1
10
18.687450
20
18.955850
11
19.423466
21
17.351016
0
LINE
8
Layer 1
10
19.423466
20
17.351016
11
19.960900
21
15.453100
0
LINE
8
Layer 1
10
19.960900
20
15.453100
11
19.962900
21
15.443400
0
LINE
8
Layer 1
10
19.962900
20
15.443400
11
20.039100
21
14.679700
0
LINE
8
Layer 1
10
20.039100
20
14.679700
11
20.039100
21
14.671900
0
LINE
8
Layer 1
10
20.039100
20
14.671900
11
19.850075
21
13.592762
0
LINE
8
Layer 1
10
19.850075
20
13.592762
11
19.279300
21
12.800800
0
LINE
8
Layer 1
10
19.279300
20
12.800800
11
18.345562
21
12.332687
0
LINE
8
Layer 1
10
18.345562
20
12.332687
11
17.080100
21
12.181600
0
LINE
8
Layer 1
10
17.080100
20
12.181600
11
17.068400
21
12.181600
0
LINE
8
Layer 1
10
17.068400
20
12.181600
11
17.056600
21
12.183600
0
LINE
8
Layer 1
10
17.056600
20
12.183600
11
14.553313
21
12.743075
0
LINE
8
Layer 1
10
14.553313
20
12.743075
11
12.466800
21
13.722700
0
LINE
8
Layer 1
10
12.466800
20
13.722700
11
10.849001
21
15.001838
0
LINE
8
Layer 1
10
10.849001
20
15.001838
11
9.037110
21
16.884800
0
LINE
8
Layer 1
10
9.037110
20
16.884800
11
8.324944
21
16.373712
0
LINE
8
Layer 1
10
8.324944
20
16.373712
11
7.500000
21
15.476600
0
LINE
8
Layer 1
10
7.500000
20
15.476600
11
5.878910
21
13.414100
0
LINE
8
Layer 1
10
5.878910
20
13.414100
11
7.763183
21
11.791209
0
LINE
8
Layer 1
10
7.763183
20
11.791209
11
9.759335
21
10.627930
0
LINE
8
Layer 1
10
9.759335
20
10.627930
11
11.871422
21
9.927551
0
LINE
8
Layer 1
10
11.871422
20
9.927551
11
14.103500
21
9.693360
0
LINE
8
Layer 1
10
14.103500
20
9.693360
11
15.822537
21
9.860183
0
LINE
8
Layer 1
10
15.822537
20
9.860183
11
17.330375
21
10.361693
0
LINE
8
Layer 1
10
17.330375
20
10.361693
11
18.632975
21
11.199445
0
LINE
8
Layer 1
10
18.632975
20
11.199445
11
19.736300
21
12.375000
0
LINE
8
Layer 1
10
19.736300
20
12.375000
11
20.531813
21
13.659900
0
LINE
8
Layer 1
10
20.531813
20
13.659900
11
21.101125
21
15.117675
0
LINE
8
Layer 1
10
21.101125
20
15.117675
11
21.443600
21
16.750013
0
LINE
8
Layer 1
10
21.443600
20
16.750013
11
21.558600
21
18.558600
0
LINE
8
Layer 1
10
21.558600
20
18.558600
11
21.412100
21
19.933600
0
LINE
8
Layer 1
10
21.412100
20
19.933600
11
21.212900
21
21.406200
0
LINE
8
Layer 1
10
21.212900
20
21.406200
11
21.212900
21
21.418000
0
LINE
8
Layer 1
10
21.212900
20
21.418000
11
21.378050
21
22.077137
0
LINE
8
Layer 1
10
21.378050
20
22.077137
11
21.851600
21
22.627000
0
LINE
8
Layer 1
10
21.851600
20
22.627000
11
21.853500
21
22.627000
0
LINE
8
Layer 1
10
21.853500
20
22.627000
11
21.853500
21
22.628900
0
LINE
8
Layer 1
10
21.853500
20
22.628900
11
22.767788
21
23.175250
0
LINE
8
Layer 1
10
22.767788
20
23.175250
11
23.701200
21
23.361300
0
LINE
8
Layer 1
10
23.701200
20
23.361300
11
24.907425
21
23.111013
0
LINE
8
Layer 1
10
24.907425
20
23.111013
11
25.986300
21
22.373000
0
LINE
8
Layer 1
10
25.986300
20
22.373000
11
26.927813
21
21.167675
0
LINE
8
Layer 1
10
26.927813
20
21.167675
11
27.742200
21
19.502000
0
LINE
8
Layer 1
10
27.742200
20
19.502000
11
27.740200
21
19.502000
0
LINE
8
Layer 1
10
27.740200
20
19.502000
11
29.656200
21
14.779300
0
LINE
8
Layer 1
10
29.656200
20
14.779300
11
30.584000
21
12.675800
0
LINE
8
Layer 1
10
30.584000
20
12.675800
11
31.549672
21
11.221127
0
LINE
8
Layer 1
10
31.549672
20
11.221127
11
32.618375
21
10.145608
0
LINE
8
Layer 1
10
32.618375
20
10.145608
11
33.791966
21
9.442114
0
LINE
8
Layer 1
10
33.791966
20
9.442114
11
35.072300
21
9.103520
0
LINE
8
Layer 1
10
35.072300
20
9.103520
11
35.072300
21
9.103520
0
LINE
8
Layer 1
10
37.351600
20
11.933600
11
37.332000
21
11.937500
0
LINE
8
Layer 1
10
37.332000
20
11.937500
11
36.742352
21
12.154059
0
LINE
8
Layer 1
10
36.742352
20
12.154059
11
36.162463
21
12.554125
0
LINE
8
Layer 1
10
36.162463
20
12.554125
11
35.017600
21
13.886700
0
LINE
8
Layer 1
10
35.017600
20
13.886700
11
33.870350
21
15.916200
0
LINE
8
Layer 1
10
33.870350
20
15.916200
11
32.709000
21
18.650400
0
LINE
8
Layer 1
10
32.709000
20
18.650400
11
31.937925
21
21.232437
0
LINE
8
Layer 1
10
31.937925
20
21.232437
11
31.679700
21
23.576200
0
LINE
8
Layer 1
10
31.679700
20
23.576200
11
31.838822
21
25.049464
0
LINE
8
Layer 1
10
31.838822
20
25.049464
11
32.313825
21
26.266312
0
LINE
8
Layer 1
10
32.313825
20
26.266312
11
33.101166
21
27.215730
0
LINE
8
Layer 1
10
33.101166
20
27.215730
11
34.197300
21
27.886700
0
LINE
8
Layer 1
10
34.197300
20
27.886700
11
34.232400
21
27.900400
0
LINE
8
Layer 1
10
34.232400
20
27.900400
11
34.269500
21
27.900400
0
LINE
8
Layer 1
10
34.269500
20
27.900400
11
35.777833
21
27.755311
0
LINE
8
Layer 1
10
35.777833
20
27.755311
11
37.083337
21
27.320787
0
LINE
8
Layer 1
10
37.083337
20
27.320787
11
38.179198
21
26.597945
0
LINE
8
Layer 1
10
38.179198
20
26.597945
11
39.058600
21
25.587900
0
LINE
8
Layer 1
10
39.058600
20
25.587900
11
39.521105
21
24.720580
0
LINE
8
Layer 1
10
39.521105
20
24.720580
11
39.897388
21
23.624763
0
LINE
8
Layer 1
10
39.897388
20
23.624763
11
40.404300
21
20.742200
0
LINE
8
Layer 1
10
40.404300
20
20.742200
11
40.404300
21
20.734400
0
LINE
8
Layer 1
10
40.404300
20
20.734400
11
40.429700
21
18.816400
0
LINE
8
Layer 1
10
40.429700
20
18.816400
11
40.285988
21
15.859675
0
LINE
8
Layer 1
10
40.285988
20
15.859675
11
39.744100
21
13.718800
0
LINE
8
Layer 1
10
39.744100
20
13.718800
11
39.312284
21
12.951247
0
LINE
8
Layer 1
10
39.312284
20
12.951247
11
38.767800
21
12.391875
0
LINE
8
Layer 1
10
38.767800
20
12.391875
11
38.117716
21
12.049666
0
LINE
8
Layer 1
10
38.117716
20
12.049666
11
37.369100
21
11.933600
0
LINE
8
Layer 1
10
37.369100
20
11.933600
11
37.351600
21
11.933600
0
LINE
8
Layer 1
10
37.351600
20
11.933600
11
37.351600
21
11.933600
0
LINE
8
Layer 1
10
37.388700
20
12.304700
11
38.024889
21
12.401728
0
LINE
8
Layer 1
10
38.024889
20
12.401728
11
38.569738
21
12.687400
0
LINE
8
Layer 1
10
38.569738
20
12.687400
11
39.029442
21
13.171372
0
LINE
8
Layer 1
10
39.029442
20
13.171372
11
39.410200
21
13.863300
0
LINE
8
Layer 1
10
39.410200
20
13.863300
11
39.922713
21
15.907675
0
LINE
8
Layer 1
10
39.922713
20
15.907675
11
40.064500
21
18.810500
0
LINE
8
Layer 1
10
40.064500
20
18.810500
11
40.039100
21
20.714800
0
LINE
8
Layer 1
10
40.039100
20
20.714800
11
40.039100
21
20.720700
0
LINE
8
Layer 1
10
40.039100
20
20.720700
11
39.540750
21
23.533012
0
LINE
8
Layer 1
10
39.540750
20
23.533012
11
39.182384
21
24.579914
0
LINE
8
Layer 1
10
39.182384
20
24.579914
11
38.755900
21
25.384800
0
LINE
8
Layer 1
10
38.755900
20
25.384800
11
37.945828
21
26.320062
0
LINE
8
Layer 1
10
37.945828
20
26.320062
11
36.939050
21
26.986975
0
LINE
8
Layer 1
10
36.939050
20
26.986975
11
35.729847
21
27.388425
0
LINE
8
Layer 1
10
35.729847
20
27.388425
11
34.312500
21
27.527300
0
LINE
8
Layer 1
10
34.312500
20
27.527300
11
33.317950
21
26.917028
0
LINE
8
Layer 1
10
33.317950
20
26.917028
11
32.609600
21
26.063175
0
LINE
8
Layer 1
10
32.609600
20
26.063175
11
32.185800
21
24.953609
0
LINE
8
Layer 1
10
32.185800
20
24.953609
11
32.044900
21
23.576200
0
LINE
8
Layer 1
10
32.044900
20
23.576200
11
32.295775
21
21.306638
0
LINE
8
Layer 1
10
32.295775
20
21.306638
11
33.050800
21
18.779300
0
LINE
8
Layer 1
10
33.050800
20
18.779300
11
34.199187
21
16.074762
0
LINE
8
Layer 1
10
34.199187
20
16.074762
11
35.318400
21
14.091800
0
LINE
8
Layer 1
10
35.318400
20
14.091800
11
36.386850
21
12.849125
0
LINE
8
Layer 1
10
36.386850
20
12.849125
11
37.388700
21
12.304700
0
LINE
8
Layer 1
10
37.388700
20
12.304700
11
37.388700
21
12.304700
0
LINE
8
club2
10
4.913690
20
92.604200
11
4.720894
21
92.408325
0
LINE
8
club2
10
4.720894
20
92.408325
11
4.591954
21
91.918828
0
LINE
8
club2
10
4.591954
20
91.918828
11
4.521166
21
90.084775
0
LINE
8
club2
10
4.521166
20
90.084775
11
5.096630
21
83.177100
0
LINE
8
club2
10
6.380680
20
81.841190
11
13.797840
21
79.381900
0
LINE
8
club2
10
13.797840
20
79.381900
11
13.797845
21
79.381898
0
LINE
8
club2
10
12.672915
20
80.038254
11
24.405680
21
66.375315
0
LINE
8
club2
10
24.405680
20
66.375315
11
39.829615
21
49.046954
0
LINE
8
club2
10
38.737825
20
51.782714
11
38.456400
21
39.687500
0
LINE
8
club2
10
38.485540
20
39.190346
11
39.758100
21
26.311046
0
LINE
8
club2
10
40.368010
20
24.523206
11
47.007350
21
13.085406
0
LINE
8
club2
10
49.094800
20
11.226296
11
64.896200
21
3.882190
0
LINE
8
club2
10
67.009840
20
3.450857
11
84.021040
21
3.728055
0
LINE
8
club2
10
85.891020
20
4.138711
11
94.595120
21
7.893991
0
LINE
8
club2
10
90.954600
20
7.760220
11
98.234050
21
5.205340
0
LINE
8
club2
10
98.234050
20
5.205340
11
98.511921
21
5.108095
0
LINE
8
club2
10
105.141141
20
10.301425
11
104.377561
21
18.238195
0
LINE
8
club2
10
104.267341
20
16.621445
11
105.762451
21
23.050985
0
LINE
8
club2
10
105.892121
20
24.030067
11
106.214571
21
35.749167
0
LINE
8
club2
10
106.005711
20
37.334477
11
102.129591
21
49.778477
0
LINE
8
club2
10
100.925271
20
51.788417
11
90.604871
21
61.878717
0
LINE
8
club2
10
87.799901
20
63.216887
11
73.413501
21
64.507617
0
LINE
8
club2
10
72.810867
20
64.529817
11
60.723100
21
63.913000
0
LINE
8
club2
10
60.390880
20
63.889390
11
53.604940
21
62.974780
0
LINE
8
club2
10
56.419680
20
62.230771
11
36.668498
21
75.644784
0
LINE
8
club2
10
36.668498
20
75.644784
11
21.064500
21
85.854400
0
LINE
8
club2
10
21.652626
20
85.242581
11
21.652622
21
85.242585
0
LINE
8
club2
10
21.652622
20
85.242585
11
17.475462
21
90.647285
0
LINE
8
club2
10
16.386522
20
91.434564
11
11.574059
21
92.290633
0
LINE
8
club2
10
11.574059
20
92.290633
11
8.011118
21
92.782108
0
LINE
8
club2
10
8.011118
20
92.782108
11
5.767670
21
92.892220
0
LINE
8
club2
10
5.767670
20
92.892220
11
5.162623
21
92.799024
0
LINE
8
club2
10
5.162623
20
92.799024
11
4.913690
21
92.604200
0
LINE
8
club2
10
4.913690
20
92.604200
11
5.027515
21
92.309273
0
LINE
8
club2
10
5.027515
20
92.309273
11
5.499196
21
91.919031
0
LINE
8
club2
10
5.499196
20
91.919031
11
7.481787
21
90.863325
0
LINE
8
club2
10
7.481787
20
90.863325
11
10.792782
21
89.458531
0
LINE
8
club2
10
10.792782
20
89.458531
11
15.363500
21
87.726100
0
LINE
8
club2
10
14.274560
20
88.513379
11
17.656920
21
82.578809
0
LINE
8
club2
10
17.656920
20
82.578809
11
17.656923
21
82.578804
0
LINE
8
club2
10
18.245049
20
81.966985
11
32.796248
21
70.305775
0
LINE
8
club2
10
32.796248
20
70.305775
11
51.681449
21
55.697785
0
LINE
8
club2
10
54.496189
20
54.953776
11
61.317389
21
55.551074
0
LINE
8
club2
10
60.985169
20
55.527464
11
73.087869
21
55.666650
0
LINE
8
club2
10
72.485235
20
55.688850
11
86.825035
21
53.955770
0
LINE
8
club2
10
84.020065
20
55.293940
11
94.110365
21
44.973540
0
LINE
8
club2
10
92.906055
20
46.983480
11
96.589500
21
34.481000
0
LINE
8
club2
10
96.380638
20
36.066310
11
95.947100
21
24.350900
0
LINE
8
club2
10
96.076764
20
25.329982
11
94.548100
21
18.908300
0
LINE
8
club2
10
94.437879
20
17.291550
11
95.186203
21
9.353320
0
LINE
8
club2
10
101.815423
20
14.546650
11
101.537553
21
14.643910
0
LINE
8
club2
10
101.537553
20
14.643910
11
94.253693
21
17.186190
0
LINE
8
club2
10
90.613173
20
17.052427
11
81.930363
21
13.248177
0
LINE
8
club2
10
83.800343
20
13.658833
11
66.793700
21
13.180100
0
LINE
8
club2
10
68.907340
20
12.748769
11
52.958840
21
19.767829
0
LINE
8
club2
10
55.046290
20
17.908719
11
48.078490
21
29.149419
0
LINE
8
club2
10
48.688400
20
27.361579
11
46.937150
21
40.184579
0
LINE
8
club2
10
46.966290
20
39.687424
11
46.684792
21
51.782624
0
LINE
8
club2
10
45.593002
20
54.518384
11
29.088738
21
70.821198
0
LINE
8
club2
10
29.088738
20
70.821198
11
16.053300
21
83.247400
0
LINE
8
club2
10
14.928370
20
83.903756
11
14.928364
21
83.903757
0
LINE
8
club2
10
14.928364
20
83.903757
11
7.226494
21
85.224227
0
LINE
8
club2
10
8.510510
20
83.888400
11
6.279639
21
90.451171
0
LINE
8
club2
10
6.279639
20
90.451171
11
5.482343
21
92.104366
0
LINE
8
club2
10
5.482343
20
92.104366
11
5.168661
21
92.501643
0
LINE
8
club2
10
5.168661
20
92.501643
11
4.913690
21
92.604220
 0 
ENDSEC
 0 
EOF