<?xml version="1.0" encoding="UTF-8" standalone="no"?>
<svg
   xmlns:dc="http://purl.org/dc/elements/1.1/"
   xmlns:cc="http://creativecommons.org/ns#"
   xmlns:rdf="http://www.w3.org/1999/02/22-rdf-syntax-ns#"
   xmlns:svg="http://www.w3.org/2000/svg"
   xmlns="http://www.w3.org/2000/svg"
   xmlns:sodipodi="http://sodipodi.sourceforge.net/DTD/sodipodi-0.dtd"
   xmlns:inkscape="http://www.inkscape.org/namespaces/inkscape"
   sodipodi:docname="club.svg"
   inkscape:version="1.0 (4035a4fb49, 2020-05-01)"
   id="svg2114"
   version="1.1"
   viewBox="0 0 210 297"
   height="297mm"
   width="210mm">
  <defs
     id="defs2108">
    <inkscape:path-effect
       fuse_tolerance="0"
       hide_knot="false"
       vertical_pattern="false"
       prop_units="false"
       tang_offset="0"
       normal_offset="0"
       spacing="0"
       scale_y_rel="false"
       prop_scale="1"
       copytype="single_stretched"
       pattern="M 0,5 C 0,2.24 2.24,0 5,0 7.76,0 10,2.24 10,5 10,7.76 7.76,10 5,10 2.24,10 0,7.76 0,5 Z"
       lpeversion="1"
       is_visible="true"
       id="path-effect2681"
       effect="skeletal" />
  </defs>
  <sodipodi:namedview
     inkscape:window-maximized="0"
     inkscape:window-y="0"
     inkscape:window-x="52"
     inkscape:window-height="1040"
     inkscape:window-width="1375"
     showgrid="false"
     inkscape:document-rotation="0"
     inkscape:current-layer="layer1"
     inkscape:document-units="mm"
     inkscape:cy="524.46712"
     inkscape:cx="307.10379"
     inkscape:zoom="0.7"
     inkscape:pageshadow="2"
     inkscape:pageopacity="0.0"
     borderopacity="1.0"
     bordercolor="#666666"
     pagecolor="#ffffff"
     id="base" />
  <metadata
     id="metadata2111">
    <rdf:RDF>
      <cc:Work
         rdf:about="">
        <dc:format>image/svg+xml</dc:format>
        <dc:type
           rdf:resource="http://purl.org/dc/dcmitype/StillImage" />
        <dc:title></dc:title>
      </cc:Work>
    </rdf:RDF>
  </metadata>
  <g
     id="layer1"
     inkscape:groupmode="layer"
     inkscape:label="club1">
    <path
       sodipodi:nodetypes="cccccccccccccccccccccc"
       inkscape:original-d="M 7.9374999,100.54167 9.8273808,91.470238 17.386905,89.580356 45.735118,59.720238 V 47.624999 l 1.511906,-12.85119 6.803569,-11.339285 15.875,-7.181548 17.00893,0.377976 8.693452,3.779762 7.559525,-2.645833 -0.75595,7.9375 1.5119,6.425594 0.37798,11.717264 -3.77976,12.473212 -10.205362,10.205357 -14.363094,1.511906 -12.095239,-0.377976 -6.80357,-0.755954 -34.395834,24.94643 -3.779762,5.669642 z"
       inkscape:path-effect="#path-effect2681"
       id="path2679"
       d="M 7.9374999,100.54167 C 7.3372435,100.41662 7.4300508,97.090685 8.1204443,91.114626 m 1.2840546,-1.335915 c 2.1148881,-0.737084 4.5965201,-1.559494 7.4171651,-2.459294 2e-6,-10e-7 4e-6,-10e-7 5e-6,-2e-6 m -1.124927,0.656356 c 6.465242,-7.744574 15.769924,-18.35955 27.156712,-30.99129 m -1.091792,2.735757 C 41.661334,55.835197 41.567348,51.798913 41.480164,47.624996 m 0.02914,-0.497154 c 0.401665,-4.16138 0.826231,-8.459038 1.272559,-12.879346 m 0.60991,-1.787835 c 2.149443,-3.719999 4.364556,-7.536213 6.639338,-11.437826 m 2.087452,-1.859111 C 57.23993,16.76894 62.514344,14.317349 67.920056,11.819689 m 2.113638,-0.431332 c 5.556512,0.07907 11.233475,0.171392 17.011171,0.277198 m 1.86998,0.410656 c 2.876456,1.23729 5.778795,2.489433 8.704099,3.755275 m -3.640515,-0.133763 c 2.410176,-0.848257 4.837162,-1.700079 7.279451,-2.55488 0.0926,-0.03242 0.18527,-0.06484 0.27787,-0.09724 m 6.62922,5.193326 c -0.25379,2.662904 -0.50839,5.309086 -0.76358,7.936774 m -0.11022,-1.616754 c 0.503,2.155711 1.00143,4.299237 1.49511,6.429544 m 0.12967,0.979082 c 0.11421,3.953908 0.22169,7.862339 0.32245,11.719056 m -0.20886,1.585313 c -1.30643,4.217941 -2.59948,8.368895 -3.87612,12.44401 m -1.20432,2.009936 c -3.51024,3.445142 -6.953853,6.811834 -10.320395,10.090321 m -2.804968,1.338172 c -4.929049,0.452901 -9.730059,0.883539 -14.386374,1.290728 m -0.602634,0.0222 C 71.685837,72.264304 67.652679,72.058461 63.74695,71.850538 m -0.33222,-0.02361 c -2.307867,-0.307836 -4.570663,-0.612825 -6.785941,-0.91461 m 2.814745,-0.744009 C 45.056449,80.069235 32.945799,88.16354 24.088308,93.791942 m 0.588126,-0.611819 c -1e-6,1e-6 -2e-6,3e-6 -4e-6,4e-6 -1.521549,2.003914 -2.91709,3.809882 -4.177161,5.404703 m -1.088941,0.787279 C 12.191801,100.74911 8.1187287,101.19864 7.9374957,100.54167 7.7562628,99.884703 11.483731,98.182359 18.38729,95.663603 m -1.088941,0.787279 c 0.987499,-1.776535 2.117801,-3.759328 3.382356,-5.934572 1e-6,-2e-6 2e-6,-3e-6 3e-6,-5e-6 m 0.588126,-0.611819 c 8.101132,-6.67126 19.556628,-15.668885 33.436443,-26.269227 m 2.814744,-0.744009 c 2.227492,0.191857 4.502046,0.391019 6.821198,0.597298 m -0.33222,-0.02361 c 3.911092,0.03635 7.949233,0.08274 12.102704,0.139186 m -0.602634,0.0222 c 4.639043,-0.57127 9.424493,-1.149734 14.33981,-1.733083 M 87.043911,63.23141 C 90.3224,59.864869 93.689094,56.421259 97.134238,52.911016 m -1.204314,2.009936 C 97.130069,50.822656 98.35867,46.652173 99.61332,42.41854 m -0.208862,1.585313 C 99.256445,40.14866 99.111807,36.241428 98.970953,32.28838 m 0.129664,0.979082 C 98.592595,31.14053 98.08294,28.999643 97.571929,26.845818 m -0.110221,-1.616754 c 0.245411,-2.628619 0.494889,-5.275289 0.748324,-7.938226 m 6.629218,5.193326 c -0.0926,0.03242 -0.18522,0.06484 -0.27787,0.09726 -2.44229,0.854801 -4.870754,1.702388 -7.283859,2.542278 m -3.640515,-0.133763 c -2.920894,-1.275983 -5.816107,-2.544515 -8.682805,-3.804249 m 1.86998,0.410656 C 81.047488,21.445391 75.372028,21.285439 69.817489,21.117595 m 2.113637,-0.431331 c -5.444931,2.410965 -10.768575,4.753734 -15.948503,7.019058 m 2.087451,-1.859113 c -2.372114,3.843214 -4.696954,7.593592 -6.967803,11.240748 m 0.60991,-1.787835 c -0.591733,4.403202 -1.176169,8.682052 -1.751253,12.823029 m 0.02914,-0.497155 c -0.08718,4.173917 -0.18117,8.210201 -0.281498,12.095242 m -1.091792,2.735757 C 36.593198,74.483181 26.475569,84.326372 19.077068,91.184941 m -1.124927,0.656356 c -2e-6,0 -4e-6,10e-7 -6e-6,10e-7 -2.91224,0.533422 -5.488932,0.975594 -7.701872,1.320467 m 1.284054,-1.335915 c -1.7534882,5.75458 -2.9965607,8.84087 -3.5968171,8.71582"
       style="fill:#000000;stroke:none;stroke-width:0.264583px;stroke-linecap:butt;stroke-linejoin:miter;stroke-opacity:1" />
  </g>
</svg>
