999
"DXF R12 Output" (www.mydxf.blogspot.com)
 0 
SECTION
 2 
HEADER
 9 
$ACADVER
 1 
AC1009
 9 
$EXTMIN
 10 
 0 
 20 
 0 
 9 
$EXTMAX
 10 
 8.5 
 20 
 11 
 0 
ENDSEC
 0 
SECTION
 2 
ENTITIES
0
LINE
8
conch1
10
44.223200
20
18.520800
11
54.482687
21
20.038875
0
LINE
8
conch1
10
54.482687
20
20.038875
11
62.887752
21
21.610613
0
LINE
8
conch1
10
62.887752
20
21.610613
11
66.620153
21
22.504615
0
LINE
8
conch1
10
66.620153
20
22.504615
11
69.548100
21
23.434500
0
LINE
8
conch1
10
69.548100
20
23.434500
11
71.177239
21
24.196409
0
LINE
8
conch1
10
71.177239
20
24.196409
11
73.138522
21
25.293119
0
LINE
8
conch1
10
73.138522
20
25.293119
11
77.380225
21
27.952925
0
LINE
8
conch1
10
77.380225
20
27.952925
11
82.399100
21
31.372000
0
LINE
8
conch1
10
82.399100
20
31.372000
11
106.211100
21
28.348200
0
LINE
8
conch1
10
106.211100
20
28.348200
11
107.723100
21
19.654700
0
LINE
8
conch1
10
107.723100
20
19.654700
11
103.313600
21
19.347100
0
LINE
8
conch1
10
103.313600
20
19.347100
11
99.679631
21
18.989741
0
LINE
8
conch1
10
99.679631
20
18.989741
11
96.762100
21
18.520800
0
LINE
8
conch1
10
96.762100
20
18.520800
11
93.303215
21
17.505845
0
LINE
8
conch1
10
93.303215
20
17.505845
11
89.476767
21
16.107462
0
LINE
8
conch1
10
89.476767
20
16.107462
11
81.218938
21
12.643300
0
LINE
8
conch1
10
81.218938
20
12.643300
11
72.984114
21
9.094087
0
LINE
8
conch1
10
72.984114
20
9.094087
11
69.186424
21
7.589392
0
LINE
8
conch1
10
69.186424
20
7.589392
11
65.767800
21
6.425600
0
LINE
8
conch1
10
65.767800
20
6.425600
11
59.121283
21
4.776875
0
LINE
8
conch1
10
59.121283
20
4.776875
11
50.851363
21
3.049175
0
LINE
8
conch1
10
50.851363
20
3.049175
11
40.821400
21
1.133900
0
LINE
8
conch1
10
40.821400
20
1.133900
11
37.820009
21
1.315050
0
LINE
8
conch1
10
37.820009
20
1.315050
11
30.770325
21
1.931950
0
LINE
8
conch1
10
30.770325
20
1.931950
11
26.643539
21
2.438236
0
LINE
8
conch1
10
26.643539
20
2.438236
11
22.604078
21
3.094775
0
LINE
8
conch1
10
22.604078
20
3.094775
11
19.018410
21
3.915339
0
LINE
8
conch1
10
19.018410
20
3.915339
11
16.253000
21
4.913700
0
LINE
8
conch1
10
16.253000
20
4.913700
11
14.465877
21
5.909037
0
LINE
8
conch1
10
14.465877
20
5.909037
11
12.526422
21
7.207912
0
LINE
8
conch1
10
12.526422
20
7.207912
11
10.523118
21
8.745851
0
LINE
8
conch1
10
10.523118
20
8.745851
11
8.544450
21
10.458375
0
LINE
8
conch1
10
8.544450
20
10.458375
11
6.678900
21
12.281009
0
LINE
8
conch1
10
6.678900
20
12.281009
11
5.014953
21
14.149275
0
LINE
8
conch1
10
5.014953
20
14.149275
11
3.641092
21
15.998698
0
LINE
8
conch1
10
3.641092
20
15.998698
11
2.645800
21
17.764800
0
LINE
8
conch1
10
2.645800
20
17.764800
11
2.341156
21
18.787093
0
LINE
8
conch1
10
2.341156
20
18.787093
11
2.162964
21
20.111612
0
LINE
8
conch1
10
2.162964
20
20.111612
11
2.080113
21
23.126675
0
LINE
8
conch1
10
2.080113
20
23.126675
11
2.267800
21
26.836300
0
LINE
8
conch1
10
2.267800
20
26.836300
11
6.808213
21
32.208600
0
LINE
8
conch1
10
6.808213
20
32.208600
11
10.777567
21
36.388225
0
LINE
8
conch1
10
10.777567
20
36.388225
11
12.689401
21
38.111812
0
LINE
8
conch1
10
12.689401
20
38.111812
11
14.363100
21
39.309500
0
LINE
8
conch1
10
14.363100
20
39.309500
11
16.368712
21
40.291360
0
LINE
8
conch1
10
16.368712
20
40.291360
11
18.734380
21
41.180637
0
LINE
8
conch1
10
18.734380
20
41.180637
11
24.110613
21
42.656525
0
LINE
8
conch1
10
24.110613
20
42.656525
11
29.621264
21
43.687325
0
LINE
8
conch1
10
29.621264
20
43.687325
11
34.395800
21
44.223200
0
LINE
8
conch1
10
34.395800
20
44.223200
11
39.229413
21
44.208661
0
LINE
8
conch1
10
39.229413
20
44.208661
11
44.844525
21
43.719887
0
LINE
8
conch1
10
44.844525
20
43.719887
11
50.432450
21
42.915795
0
LINE
8
conch1
10
50.432450
20
42.915795
11
55.184500
21
41.955300
0
LINE
8
conch1
10
55.184500
20
41.955300
11
58.198756
21
41.074306
0
LINE
8
conch1
10
58.198756
20
41.074306
11
61.901248
21
39.780923
0
LINE
8
conch1
10
61.901248
20
39.780923
11
70.026938
21
36.610237
0
LINE
8
conch1
10
70.026938
20
36.610237
11
79.753100
21
32.505900
0
LINE
8
conch1
10
16.253000
20
4.913730
11
14.363100
21
39.309530
0
LINE
8
conch1
10
32.128000
20
2.267830
11
30.616100
21
44.223230
0
LINE
8
conch2
10
4.913700
20
18.142900
11
12.473200
21
9.449410
0
LINE
8
conch2
10
12.473200
20
9.449410
11
26.836300
21
3.779760
0
LINE
8
conch2
10
26.836300
20
3.779760
11
45.357100
21
3.401790
0
LINE
8
conch2
10
45.357100
20
3.401790
11
63.878000
21
9.827380
0
LINE
8
conch2
10
63.878000
20
9.827380
11
77.863100
21
18.142860
0
LINE
8
conch2
10
77.863100
20
18.142860
11
107.345200
21
21.544640
0
LINE
8
conch2
10
107.345200
20
21.544640
11
104.321390
21
32.505940
0
LINE
8
conch2
10
104.321390
20
32.505940
11
70.303490
21
34.017840
0
LINE
8
conch2
10
70.303490
20
34.017840
11
60.854080
21
25.324390
0
LINE
8
conch2
10
60.854080
20
25.324390
11
44.223080
21
18.520820
0
LINE
8
conch2
10
44.223080
20
18.520820
11
43.245713
21
19.631820
0
LINE
8
conch2
10
43.245713
20
19.631820
11
44.199312
21
19.754208
0
LINE
8
conch2
10
44.199312
20
19.754208
11
46.214492
21
20.451005
0
LINE
8
conch2
10
46.214492
20
20.451005
11
51.964041
21
22.839536
0
LINE
8
conch2
10
51.964041
20
22.839536
11
60.081013
21
26.498270
0
LINE
8
conch2
10
60.081013
20
26.498270
11
68.413700
21
35.907700
0
LINE
8
conch2
10
68.413700
20
35.907700
11
55.562500
21
39.687500
0
LINE
8
conch2
10
55.562500
20
39.687500
11
36.285700
21
43.089300
0
LINE
8
conch2
10
36.285700
20
43.089300
11
29.104200
21
40.821400
0
LINE
8
conch2
10
29.104200
20
40.821400
11
33.923400
21
7.370540
0
LINE
8
conch2
10
33.923400
20
7.370540
11
30.994100
21
5.291670
0
LINE
8
conch2
10
30.994100
20
5.291670
11
26.458300
21
39.687500
0
LINE
8
conch2
10
26.458300
20
39.687500
11
15.875000
21
34.395800
0
LINE
8
conch2
10
15.875000
20
34.395800
11
18.520800
21
13.229200
0
LINE
8
conch2
10
18.520800
20
13.229200
11
16.253000
21
8.315480
0
LINE
8
conch2
10
16.253000
20
8.315480
11
13.607100
21
32.506000
0
LINE
8
conch2
10
13.607100
20
32.506000
11
5.669650
21
24.946400
0
LINE
8
conch2
10
5.669650
20
24.946400
11
4.913700
21
18.142900
 0 
ENDSEC
 0 
EOF