<?xml version="1.0" encoding="UTF-8" standalone="no"?>
<svg
   xmlns:dc="http://purl.org/dc/elements/1.1/"
   xmlns:cc="http://creativecommons.org/ns#"
   xmlns:rdf="http://www.w3.org/1999/02/22-rdf-syntax-ns#"
   xmlns:svg="http://www.w3.org/2000/svg"
   xmlns="http://www.w3.org/2000/svg"
   xmlns:sodipodi="http://sodipodi.sourceforge.net/DTD/sodipodi-0.dtd"
   xmlns:inkscape="http://www.inkscape.org/namespaces/inkscape"
   sodipodi:docname="conch.svg"
   inkscape:version="1.0 (4035a4fb49, 2020-05-01)"
   id="svg8"
   version="1.1"
   viewBox="0 0 210 297"
   height="297mm"
   width="210mm">
  <defs
     id="defs2" />
  <sodipodi:namedview
     inkscape:window-maximized="0"
     inkscape:window-y="0"
     inkscape:window-x="156"
     inkscape:window-height="1040"
     inkscape:window-width="1375"
     showgrid="false"
     inkscape:document-rotation="0"
     inkscape:current-layer="layer1"
     inkscape:document-units="mm"
     inkscape:cy="384.14512"
     inkscape:cx="267.45764"
     inkscape:zoom="0.7"
     inkscape:pageshadow="2"
     inkscape:pageopacity="0.0"
     borderopacity="1.0"
     bordercolor="#666666"
     pagecolor="#ffffff"
     id="base" />
  <metadata
     id="metadata5">
    <rdf:RDF>
      <cc:Work
         rdf:about="">
        <dc:format>image/svg+xml</dc:format>
        <dc:type
           rdf:resource="http://purl.org/dc/dcmitype/StillImage" />
        <dc:title></dc:title>
      </cc:Work>
    </rdf:RDF>
  </metadata>
  <g
     id="layer1"
     inkscape:groupmode="layer"
     inkscape:label="Layer 1">
    <path
       sodipodi:nodetypes="cacccaacaacaaac"
       id="path833"
       d="m 77.863093,47.624999 c 0,0 17.315125,1.784392 25.324407,4.913691 4.68971,1.832313 12.85119,7.9375 12.85119,7.9375 l 23.8125,-3.023809 1.5119,-8.693454 c 0,0 -7.39122,-0.269438 -10.96131,-1.133928 -10.77866,-2.610027 -20.36869,-8.918187 -30.994042,-12.095239 -8.144223,-2.435178 -24.94643,-5.291666 -24.94643,-5.291666 0,0 -17.12467,0.140372 -24.568451,3.779763 -5.604809,2.740286 -11.018824,7.174603 -13.607142,12.851191 -1.255583,2.75369 -0.377977,9.071428 -0.377977,9.071428 0,0 7.071136,9.592215 12.095238,12.473215 5.964459,3.420234 13.172159,4.460671 20.032738,4.91369 6.955528,0.459289 14.014373,-0.625013 20.788691,-2.267857 8.527168,-2.067929 24.568455,-9.449405 24.568455,-9.449405"
       style="fill:none;stroke:#000000;stroke-width:1.765;stroke-linecap:butt;stroke-linejoin:miter;stroke-opacity:1;stroke-miterlimit:4;stroke-dasharray:none" />
    <path
       id="path835"
       d="M 49.892857,34.017857 48.002975,68.41369"
       style="fill:none;stroke:#000000;stroke-width:0.965;stroke-linecap:butt;stroke-linejoin:miter;stroke-opacity:1;stroke-miterlimit:4;stroke-dasharray:none" />
    <path
       sodipodi:nodetypes="cc"
       id="path837"
       d="M 65.767856,31.372023 64.255952,73.327381"
       style="fill:none;stroke:#000000;stroke-width:0.865;stroke-linecap:butt;stroke-linejoin:miter;stroke-opacity:1;stroke-miterlimit:4;stroke-dasharray:none" />
  </g>
</svg>
