999
"DXF R12 Output" (www.mydxf.blogspot.com)
 0 
SECTION
 2 
HEADER
 9 
$ACADVER
 1 
AC1009
 9 
$EXTMIN
 10 
 0 
 20 
 0 
 9 
$EXTMAX
 10 
 8.5 
 20 
 11 
 0 
ENDSEC
 0 
SECTION
 2 
ENTITIES
0
LINE
8
disc1
10
327.857000
20
4.285160
11
296.428000
21
48.572300
0
LINE
8
disc1
10
296.428000
20
48.572300
11
325.000000
21
68.572300
0
LINE
8
disc1
10
325.000000
20
68.572300
11
325.000000
21
94.285200
0
LINE
8
disc1
10
325.000000
20
94.285200
11
306.428000
21
95.714800
0
LINE
8
disc1
10
306.428000
20
95.714800
11
306.428000
21
108.572000
0
LINE
8
disc1
10
306.428000
20
108.572000
11
327.857000
21
118.572000
0
LINE
8
disc1
10
327.857000
20
118.572000
11
326.428000
21
157.143000
0
LINE
8
disc1
10
326.428000
20
157.143000
11
305.000000
21
167.143000
0
LINE
8
disc1
10
305.000000
20
167.143000
11
350.715000
21
164.285000
0
LINE
8
disc1
10
350.715000
20
164.285000
11
337.857000
21
155.715000
0
LINE
8
disc1
10
337.857000
20
155.715000
11
336.428000
21
115.715000
0
LINE
8
disc1
10
336.428000
20
115.715000
11
353.572000
21
102.857000
0
LINE
8
disc1
10
353.572000
20
102.857000
11
355.000000
21
91.427700
0
LINE
8
disc1
10
355.000000
20
91.427700
11
333.572000
21
91.427700
0
LINE
8
disc1
10
333.572000
20
91.427700
11
333.572000
21
68.572300
0
LINE
8
disc1
10
333.572000
20
68.572300
11
357.857000
21
44.285200
0
LINE
8
disc1
10
357.857000
20
44.285200
11
327.857000
21
4.285160
0
LINE
8
disc1
10
327.857000
20
4.285160
11
327.857000
21
4.285160
0
LINE
8
disc1
10
350.715000
20
164.285000
11
393.764000
21
179.928000
0
LINE
8
disc1
10
393.764000
20
179.928000
11
385.400000
21
166.934000
0
LINE
8
disc1
10
385.400000
20
166.934000
11
400.070000
21
129.693000
0
LINE
8
disc1
10
400.070000
20
129.693000
11
420.922000
21
124.756000
0
LINE
8
disc1
10
420.922000
20
124.756000
11
426.797000
21
114.850000
0
LINE
8
disc1
10
426.797000
20
114.850000
11
407.152000
21
106.289000
0
LINE
8
disc1
10
407.152000
20
106.289000
11
416.285000
21
85.335900
0
LINE
8
disc1
10
416.285000
20
85.335900
11
448.250000
21
72.773400
0
LINE
8
disc1
10
448.250000
20
72.773400
11
436.727000
21
24.119100
0
LINE
8
disc1
10
436.727000
20
24.119100
11
390.223000
21
52.162100
0
LINE
8
disc1
10
390.223000
20
52.162100
11
408.426000
21
81.910200
0
LINE
8
disc1
10
408.426000
20
81.910200
11
398.154000
21
105.484000
0
LINE
8
disc1
10
398.154000
20
105.484000
11
380.559000
21
99.375000
0
LINE
8
disc1
10
380.559000
20
99.375000
11
375.422000
21
111.162000
0
LINE
8
disc1
10
375.422000
20
111.162000
11
391.072000
21
128.889000
0
LINE
8
disc1
10
391.072000
20
128.889000
11
374.354000
21
163.678000
0
LINE
8
disc1
10
374.354000
20
163.678000
11
350.715000
21
164.285000
0
LINE
8
disc1
10
350.715000
20
164.285000
11
350.715000
21
164.285000
0
LINE
8
disc1
10
246.074000
20
14.693400
11
225.307000
21
64.869100
0
LINE
8
disc1
10
225.307000
20
64.869100
11
257.617000
21
77.998000
0
LINE
8
disc1
10
257.617000
20
77.998000
11
263.350000
21
103.064000
0
LINE
8
disc1
10
263.350000
20
103.064000
11
245.562000
21
108.598000
0
LINE
8
disc1
10
245.562000
20
108.598000
11
248.428000
21
121.131000
0
LINE
8
disc1
10
248.428000
20
121.131000
11
271.547000
21
126.104000
0
LINE
8
disc1
10
271.547000
20
126.104000
11
278.752000
21
164.023000
0
LINE
8
disc1
10
278.752000
20
164.023000
11
260.090000
21
178.547000
0
LINE
8
disc1
10
260.090000
20
178.547000
11
304.018000
21
165.572000
0
LINE
8
disc1
10
304.018000
20
165.572000
11
289.574000
21
160.082000
0
LINE
8
disc1
10
289.574000
20
160.082000
11
279.266000
21
121.408000
0
LINE
8
disc1
10
279.266000
20
121.408000
11
293.111000
21
105.053000
0
LINE
8
disc1
10
293.111000
20
105.053000
11
291.957000
21
93.593800
0
LINE
8
disc1
10
291.957000
20
93.593800
11
271.068000
21
98.369100
0
LINE
8
disc1
10
271.068000
20
98.369100
11
265.973000
21
76.087900
0
LINE
8
disc1
10
265.973000
20
76.087900
11
284.234000
21
47.000000
0
LINE
8
disc1
10
284.234000
20
47.000000
11
246.074000
21
14.693400
0
LINE
8
disc1
10
246.074000
20
14.693400
11
246.074000
21
14.693400
0
LINE
8
disc1
10
260.090000
20
178.547000
11
244.695000
21
177.225000
0
LINE
8
disc1
10
244.695000
20
177.225000
11
224.186000
21
142.854000
0
LINE
8
disc1
10
224.186000
20
142.854000
11
233.021000
21
123.330000
0
LINE
8
disc1
10
233.021000
20
123.330000
11
228.771000
21
112.625000
0
LINE
8
disc1
10
228.771000
20
112.625000
11
209.990000
21
122.941000
0
LINE
8
disc1
10
209.990000
20
122.941000
11
198.986000
21
102.908000
0
LINE
8
disc1
10
198.986000
20
102.908000
11
208.580000
21
69.929700
0
LINE
8
disc1
10
208.580000
20
69.929700
11
163.029000
21
49.314500
0
LINE
8
disc1
10
163.029000
20
49.314500
11
156.803000
21
103.260000
0
LINE
8
disc1
10
156.803000
20
103.260000
11
191.473000
21
107.035000
0
LINE
8
disc1
10
191.473000
20
107.035000
11
203.852000
21
129.572000
0
LINE
8
disc1
10
203.852000
20
129.572000
11
188.262000
21
139.766000
0
LINE
8
disc1
10
188.262000
20
139.766000
11
194.453000
21
151.035000
0
LINE
8
disc1
10
194.453000
20
151.035000
11
218.049000
21
149.484000
0
LINE
8
disc1
10
218.049000
20
149.484000
11
235.365000
21
183.979000
0
LINE
8
disc1
10
235.365000
20
183.979000
11
221.398000
21
203.061000
0
LINE
8
disc1
10
221.398000
20
203.061000
11
260.090000
21
178.547000
0
LINE
8
disc1
10
260.090000
20
178.547000
11
260.090000
21
178.547000
0
LINE
8
disc1
10
221.398000
20
203.061000
11
206.283000
21
206.277000
0
LINE
8
disc1
10
206.283000
20
206.277000
11
176.656000
21
179.365000
0
LINE
8
disc1
10
176.656000
20
179.365000
11
179.426000
21
158.117000
0
LINE
8
disc1
10
179.426000
20
158.117000
11
172.242000
21
149.113000
0
LINE
8
disc1
10
172.242000
20
149.113000
11
157.277000
21
164.451000
0
LINE
8
disc1
10
157.277000
20
164.451000
11
140.918000
21
148.488000
0
LINE
8
disc1
10
140.918000
20
148.488000
11
140.494000
21
114.146000
0
LINE
8
disc1
10
140.494000
20
114.146000
11
90.914100
21
107.686000
0
LINE
8
disc1
10
90.914100
20
107.686000
11
100.664000
21
161.107000
0
LINE
8
disc1
10
100.664000
20
161.107000
11
134.932000
21
154.623000
0
LINE
8
disc1
10
134.932000
20
154.623000
11
153.338000
21
172.580000
0
LINE
8
disc1
10
153.338000
20
172.580000
11
141.391000
21
186.871000
0
LINE
8
disc1
10
141.391000
20
186.871000
11
150.594000
21
195.850000
0
LINE
8
disc1
10
150.594000
20
195.850000
11
172.715000
21
187.496000
0
LINE
8
disc1
10
172.715000
20
187.496000
11
199.326000
21
215.455000
0
LINE
8
disc1
10
199.326000
20
215.455000
11
191.518000
21
237.775000
0
LINE
8
disc1
10
191.518000
20
237.775000
11
221.398000
21
203.061000
0
LINE
8
disc1
10
221.398000
20
203.061000
11
221.398000
21
203.061000
0
LINE
8
disc1
10
191.518000
20
237.775000
11
177.115000
21
243.375000
0
LINE
8
disc1
10
177.115000
20
243.375000
11
143.555000
21
221.564000
0
LINE
8
disc1
10
143.555000
20
221.564000
11
142.881000
21
200.146000
0
LINE
8
disc1
10
142.881000
20
200.146000
11
134.348000
21
192.410000
0
LINE
8
disc1
10
134.348000
20
192.410000
11
122.037000
21
209.949000
0
LINE
8
disc1
10
122.037000
20
209.949000
11
103.328000
21
196.818000
0
LINE
8
disc1
10
103.328000
20
196.818000
11
97.402300
21
162.988000
0
LINE
8
disc1
10
97.402300
20
162.988000
11
47.427700
21
164.562000
0
LINE
8
disc1
10
47.427700
20
164.562000
11
65.619100
21
215.729000
0
LINE
8
disc1
10
65.619100
20
215.729000
11
98.402300
21
203.834000
0
LINE
8
disc1
10
98.402300
20
203.834000
11
119.451000
21
218.607000
0
LINE
8
disc1
10
119.451000
20
218.607000
11
109.951000
21
234.629000
0
LINE
8
disc1
10
109.951000
20
234.629000
11
120.475000
21
242.016000
0
LINE
8
disc1
10
120.475000
20
242.016000
11
140.969000
21
230.221000
0
LINE
8
disc1
10
140.969000
20
230.221000
11
171.719000
21
253.549000
0
LINE
8
disc1
10
171.719000
20
253.549000
11
167.594000
21
276.834000
0
LINE
8
disc1
10
167.594000
20
276.834000
11
191.518000
21
237.775000
0
LINE
8
disc1
10
191.518000
20
237.775000
11
191.518000
21
237.775000
0
LINE
8
disc1
10
167.594000
20
276.834000
11
157.430000
21
288.473000
0
LINE
8
disc1
10
157.430000
20
288.473000
11
117.582000
21
284.713000
0
LINE
8
disc1
10
117.582000
20
284.713000
11
107.053000
21
266.049000
0
LINE
8
disc1
10
107.053000
20
266.049000
11
95.904300
21
263.152000
0
LINE
8
disc1
10
95.904300
20
263.152000
11
93.130900
21
284.402000
0
LINE
8
disc1
10
93.130900
20
284.402000
11
70.464800
21
281.443000
0
LINE
8
disc1
10
70.464800
20
281.443000
11
49.527300
21
254.217000
0
LINE
8
disc1
10
49.527300
20
254.217000
11
5.980470
21
278.787000
0
LINE
8
disc1
10
5.980470
20
278.787000
11
45.826200
21
315.684000
0
LINE
8
disc1
10
45.826200
20
315.684000
11
69.355500
21
289.941000
0
LINE
8
disc1
10
69.355500
20
289.941000
11
94.853500
21
293.271000
0
LINE
8
disc1
10
94.853500
20
293.271000
11
93.867200
21
311.871000
0
LINE
8
disc1
10
93.867200
20
311.871000
11
106.615000
21
313.535000
0
LINE
8
disc1
10
106.615000
20
313.535000
11
119.305000
21
293.582000
0
LINE
8
disc1
10
119.305000
20
293.582000
11
157.367000
21
299.990000
0
LINE
8
disc1
10
157.367000
20
299.990000
11
164.510000
21
322.533000
0
LINE
8
disc1
10
164.510000
20
322.533000
11
167.594000
21
276.834000
0
LINE
8
disc1
10
167.594000
20
276.834000
11
167.594000
21
276.834000
0
LINE
8
disc1
10
164.510000
20
322.533000
11
157.924000
21
336.512000
0
LINE
8
disc1
10
157.924000
20
336.512000
11
118.568000
21
343.812000
0
LINE
8
disc1
10
118.568000
20
343.812000
11
103.328000
21
328.748000
0
LINE
8
disc1
10
103.328000
20
328.748000
11
91.814500
21
329.016000
0
LINE
8
disc1
10
91.814500
20
329.016000
11
94.968800
21
350.211000
0
LINE
8
disc1
10
94.968800
20
350.211000
11
72.359400
21
353.576000
0
LINE
8
disc1
10
72.359400
20
353.576000
11
44.763700
21
333.127000
0
LINE
8
disc1
10
44.763700
20
333.127000
11
9.615230
21
368.688000
0
LINE
8
disc1
10
9.615230
20
368.688000
11
58.043000
21
393.258000
0
LINE
8
disc1
10
58.043000
20
393.258000
11
73.621100
21
362.053000
0
LINE
8
disc1
10
73.621100
20
362.053000
11
99.054700
21
358.270000
0
LINE
8
disc1
10
99.054700
20
358.270000
11
103.201000
21
376.428000
0
LINE
8
disc1
10
103.201000
20
376.428000
11
115.918000
21
374.537000
0
LINE
8
disc1
10
115.918000
20
374.537000
11
122.656000
21
351.869000
0
LINE
8
disc1
10
122.656000
20
351.869000
11
161.018000
21
347.605000
0
LINE
8
disc1
10
161.018000
20
347.605000
11
174.062000
21
367.330000
0
LINE
8
disc1
10
174.062000
20
367.330000
11
164.510000
21
322.533000
0
LINE
8
disc1
10
164.510000
20
322.533000
11
164.510000
21
322.533000
0
LINE
8
disc1
10
174.062000
20
367.330000
11
171.832000
21
382.621000
0
LINE
8
disc1
10
171.832000
20
382.621000
11
136.309000
21
401.062000
0
LINE
8
disc1
10
136.309000
20
401.062000
11
117.342000
21
391.088000
0
LINE
8
disc1
10
117.342000
20
391.088000
11
106.404000
21
394.697000
0
LINE
8
disc1
10
106.404000
20
394.697000
11
115.594000
21
414.057000
0
LINE
8
disc1
10
115.594000
20
414.057000
11
94.943400
21
423.855000
0
LINE
8
disc1
10
94.943400
20
423.855000
11
62.589800
21
412.328000
0
LINE
8
disc1
10
62.589800
20
412.328000
11
39.316400
21
456.582000
0
LINE
8
disc1
10
39.316400
20
456.582000
11
92.800800
21
465.986000
0
LINE
8
disc1
10
92.800800
20
465.986000
11
98.619100
21
431.600000
0
LINE
8
disc1
10
98.619100
20
431.600000
11
121.850000
21
420.574000
0
LINE
8
disc1
10
121.850000
20
420.574000
11
131.104000
21
436.740000
0
LINE
8
disc1
10
131.104000
20
436.740000
11
142.719000
21
431.227000
0
LINE
8
disc1
10
142.719000
20
431.227000
11
142.564000
21
407.580000
0
LINE
8
disc1
10
142.564000
20
407.580000
11
178.023000
21
392.332000
0
LINE
8
disc1
10
178.023000
20
392.332000
11
196.244000
21
407.404000
0
LINE
8
disc1
10
196.244000
20
407.404000
11
174.062000
21
367.330000
0
LINE
8
disc1
10
174.062000
20
367.330000
11
174.062000
21
367.330000
0
LINE
8
disc1
10
196.244000
20
407.404000
11
196.494000
21
422.854000
0
LINE
8
disc1
10
196.494000
20
422.854000
11
164.389000
21
446.754000
0
LINE
8
disc1
10
164.389000
20
446.754000
11
144.068000
21
439.951000
0
LINE
8
disc1
10
144.068000
20
439.951000
11
133.852000
21
445.268000
0
LINE
8
disc1
10
133.852000
20
445.268000
11
146.025000
21
462.902000
0
LINE
8
disc1
10
146.025000
20
462.902000
11
127.215000
21
475.889000
0
LINE
8
disc1
10
127.215000
20
475.889000
11
93.431600
21
469.699000
0
LINE
8
disc1
10
93.431600
20
469.699000
11
77.558600
21
517.111000
0
LINE
8
disc1
10
77.558600
20
517.111000
11
131.857000
21
517.816000
0
LINE
8
disc1
10
131.857000
20
517.816000
11
132.086000
21
482.941000
0
LINE
8
disc1
10
132.086000
20
482.941000
11
153.246000
21
468.334000
0
LINE
8
disc1
10
153.246000
20
468.334000
11
164.973000
21
482.805000
0
LINE
8
disc1
10
164.973000
20
482.805000
11
175.555000
21
475.500000
0
LINE
8
disc1
10
175.555000
20
475.500000
11
171.609000
21
452.186000
0
LINE
8
disc1
10
171.609000
20
452.186000
11
204.164000
21
431.447000
0
LINE
8
disc1
10
204.164000
20
431.447000
11
224.566000
21
443.400000
0
LINE
8
disc1
10
224.566000
20
443.400000
11
196.244000
21
407.404000
0
LINE
8
disc1
10
196.244000
20
407.404000
11
196.244000
21
407.404000
0
LINE
8
disc1
10
515.607000
20
65.921900
11
463.414000
21
80.910200
0
LINE
8
disc1
10
463.414000
20
80.910200
11
473.256000
21
114.369000
0
LINE
8
disc1
10
473.256000
20
114.369000
11
457.209000
21
134.461000
0
LINE
8
disc1
10
457.209000
20
134.461000
11
441.807000
21
123.986000
0
LINE
8
disc1
10
441.807000
20
123.986000
11
433.781000
21
134.033000
0
LINE
8
disc1
10
433.781000
20
134.033000
11
444.285000
21
155.219000
0
LINE
8
disc1
10
444.285000
20
155.219000
11
419.096000
21
184.467000
0
LINE
8
disc1
10
419.096000
20
184.467000
11
396.111000
21
178.906000
0
LINE
8
disc1
10
396.111000
20
178.906000
11
433.615000
21
205.203000
0
LINE
8
disc1
10
433.615000
20
205.203000
11
428.918000
21
190.482000
0
LINE
8
disc1
10
428.918000
20
190.482000
11
452.766000
21
158.336000
0
LINE
8
disc1
10
452.766000
20
158.336000
11
474.184000
21
158.988000
0
LINE
8
disc1
10
474.184000
20
158.988000
11
482.432000
21
150.951000
0
LINE
8
disc1
10
482.432000
20
150.951000
11
465.689000
21
137.578000
0
LINE
8
disc1
10
465.689000
20
137.578000
11
479.953000
21
119.719000
0
LINE
8
disc1
10
479.953000
20
119.719000
11
514.086000
21
115.898000
0
LINE
8
disc1
10
514.086000
20
115.898000
11
515.607000
21
65.921900
0
LINE
8
disc1
10
515.607000
20
65.921900
11
515.607000
21
65.921900
0
LINE
8
disc1
10
433.615000
20
205.203000
11
466.414000
21
237.176000
0
LINE
8
disc1
10
466.414000
20
237.176000
11
464.139000
21
221.891000
0
LINE
8
disc1
10
464.139000
20
221.891000
11
492.832000
21
193.986000
0
LINE
8
disc1
10
492.832000
20
193.986000
11
513.869000
21
198.064000
0
LINE
8
disc1
10
513.869000
20
198.064000
11
523.301000
21
191.455000
0
LINE
8
disc1
10
523.301000
20
191.455000
11
508.918000
21
175.568000
0
LINE
8
disc1
10
508.918000
20
175.568000
11
525.863000
21
160.229000
0
LINE
8
disc1
10
525.863000
20
160.229000
11
560.166000
21
161.932000
0
LINE
8
disc1
10
560.166000
20
161.932000
11
569.686000
21
112.848000
0
LINE
8
disc1
10
569.686000
20
112.848000
11
515.762000
21
119.270000
0
LINE
8
disc1
10
515.762000
20
119.270000
11
520.111000
21
153.873000
0
LINE
8
disc1
10
520.111000
20
153.873000
11
501.049000
21
171.133000
0
LINE
8
disc1
10
501.049000
20
171.133000
11
487.525000
21
158.324000
0
LINE
8
disc1
10
487.525000
20
158.324000
11
477.994000
21
166.953000
0
LINE
8
disc1
10
477.994000
20
166.953000
11
484.963000
21
189.549000
0
LINE
8
disc1
10
484.963000
20
189.549000
11
455.410000
21
214.377000
0
LINE
8
disc1
10
455.410000
20
214.377000
11
433.615000
21
205.203000
0
LINE
8
disc1
10
433.615000
20
205.203000
11
433.615000
21
205.203000
0
LINE
8
disc1
10
466.414000
20
237.176000
11
488.482000
21
277.311000
0
LINE
8
disc1
10
488.482000
20
277.311000
11
490.758000
21
262.027000
0
LINE
8
disc1
10
490.758000
20
262.027000
11
526.332000
21
243.686000
0
LINE
8
disc1
10
526.332000
20
243.686000
11
545.270000
21
253.713000
0
LINE
8
disc1
10
545.270000
20
253.713000
11
556.217000
21
250.133000
0
LINE
8
disc1
10
556.217000
20
250.133000
11
547.084000
21
230.750000
0
LINE
8
disc1
10
547.084000
20
230.750000
11
567.762000
21
221.006000
0
LINE
8
disc1
10
567.762000
20
221.006000
11
600.082000
21
232.625000
0
LINE
8
disc1
10
600.082000
20
232.625000
11
623.479000
21
188.438000
0
LINE
8
disc1
10
623.479000
20
188.438000
11
570.021000
21
178.883000
0
LINE
8
disc1
10
570.021000
20
178.883000
11
564.107000
21
213.252000
0
LINE
8
disc1
10
564.107000
20
213.252000
11
540.846000
21
224.213000
0
LINE
8
disc1
10
540.846000
20
224.213000
11
531.639000
21
208.021000
0
LINE
8
disc1
10
531.639000
20
208.021000
11
520.008000
21
213.502000
0
LINE
8
disc1
10
520.008000
20
213.502000
11
520.094000
21
237.148000
0
LINE
8
disc1
10
520.094000
20
237.148000
11
484.594000
21
252.297000
0
LINE
8
disc1
10
484.594000
20
252.297000
11
466.414000
21
237.176000
0
LINE
8
disc1
10
466.414000
20
237.176000
11
466.414000
21
237.176000
0
LINE
8
disc1
10
488.482000
20
277.311000
11
498.713000
21
321.957000
0
LINE
8
disc1
10
498.713000
20
321.957000
11
505.088000
21
307.881000
0
LINE
8
disc1
10
505.088000
20
307.881000
11
544.326000
21
299.988000
0
LINE
8
disc1
10
544.326000
20
299.988000
11
559.793000
21
314.820000
0
LINE
8
disc1
10
559.793000
20
314.820000
11
571.301000
21
314.377000
0
LINE
8
disc1
10
571.301000
20
314.377000
11
567.828000
21
293.230000
0
LINE
8
disc1
10
567.828000
20
293.230000
11
590.383000
21
289.525000
0
LINE
8
disc1
10
590.383000
20
289.525000
11
618.283000
21
309.555000
0
LINE
8
disc1
10
618.283000
20
309.555000
11
652.893000
21
273.467000
0
LINE
8
disc1
10
652.893000
20
273.467000
11
604.098000
21
249.633000
0
LINE
8
disc1
10
604.098000
20
249.633000
11
588.992000
21
281.068000
0
LINE
8
disc1
10
588.992000
20
281.068000
11
563.619000
21
285.236000
0
LINE
8
disc1
10
563.619000
20
285.236000
11
559.199000
21
267.143000
0
LINE
8
disc1
10
559.199000
20
267.143000
11
546.512000
21
269.227000
0
LINE
8
disc1
10
546.512000
20
269.227000
11
540.117000
21
291.992000
0
LINE
8
disc1
10
540.117000
20
291.992000
11
501.824000
21
296.836000
0
LINE
8
disc1
10
501.824000
20
296.836000
11
488.482000
21
277.311000
0
LINE
8
disc1
10
488.482000
20
277.311000
11
488.482000
21
277.311000
0
LINE
8
disc1
10
498.713000
20
321.957000
11
492.406000
21
367.324000
0
LINE
8
disc1
10
492.406000
20
367.324000
11
503.367000
21
356.434000
0
LINE
8
disc1
10
503.367000
20
356.434000
11
542.850000
21
363.002000
0
LINE
8
disc1
10
542.850000
20
363.002000
11
552.035000
21
382.361000
0
LINE
8
disc1
10
552.035000
20
382.361000
11
562.949000
21
386.039000
0
LINE
8
disc1
10
562.949000
20
386.039000
11
567.219000
21
365.039000
0
LINE
8
disc1
10
567.219000
20
365.039000
11
589.617000
21
369.592000
0
LINE
8
disc1
10
589.617000
20
369.592000
11
608.578000
21
398.229000
0
LINE
8
disc1
10
608.578000
20
398.229000
11
653.752000
21
376.799000
0
LINE
8
disc1
10
653.752000
20
376.799000
11
616.615000
21
337.178000
0
LINE
8
disc1
10
616.615000
20
337.178000
11
591.324000
21
361.193000
0
LINE
8
disc1
10
591.324000
20
361.193000
11
566.125000
21
356.070000
0
LINE
8
disc1
10
566.125000
20
356.070000
11
568.426000
21
337.586000
0
LINE
8
disc1
10
568.426000
20
337.586000
11
555.826000
21
335.025000
0
LINE
8
disc1
10
555.826000
20
335.025000
11
541.758000
21
354.033000
0
LINE
8
disc1
10
541.758000
20
354.033000
11
504.244000
21
344.949000
0
LINE
8
disc1
10
504.244000
20
344.949000
11
498.713000
21
321.957000
0
LINE
8
disc1
10
498.713000
20
321.957000
11
498.713000
21
321.957000
0
LINE
8
disc1
10
492.406000
20
367.324000
11
468.502000
21
406.395000
0
LINE
8
disc1
10
468.502000
20
406.395000
11
482.900000
21
400.789000
0
LINE
8
disc1
10
482.900000
20
400.789000
11
516.473000
21
422.584000
0
LINE
8
disc1
10
516.473000
20
422.584000
11
517.158000
21
444.000000
0
LINE
8
disc1
10
517.158000
20
444.000000
11
525.695000
21
451.730000
0
LINE
8
disc1
10
525.695000
20
451.730000
11
537.998000
21
434.186000
0
LINE
8
disc1
10
537.998000
20
434.186000
11
556.713000
21
447.309000
0
LINE
8
disc1
10
556.713000
20
447.309000
11
562.654000
21
481.135000
0
LINE
8
disc1
10
562.654000
20
481.135000
11
612.629000
21
479.535000
0
LINE
8
disc1
10
612.629000
20
479.535000
11
594.412000
21
428.379000
0
LINE
8
disc1
10
594.412000
20
428.379000
11
561.633000
21
440.289000
0
LINE
8
disc1
10
561.633000
20
440.289000
11
540.578000
21
425.527000
0
LINE
8
disc1
10
540.578000
20
425.527000
11
550.070000
21
409.502000
0
LINE
8
disc1
10
550.070000
20
409.502000
11
539.543000
21
402.119000
0
LINE
8
disc1
10
539.543000
20
402.119000
11
519.055000
21
413.924000
0
LINE
8
disc1
10
519.055000
20
413.924000
11
488.293000
21
390.611000
0
LINE
8
disc1
10
488.293000
20
390.611000
11
492.406000
21
367.324000
0
LINE
8
disc1
10
492.406000
20
367.324000
11
492.406000
21
367.324000
0
LINE
8
disc1
10
469.035000
20
408.900000
11
435.795000
21
440.412000
0
LINE
8
disc1
10
435.795000
20
440.412000
11
451.156000
21
438.742000
0
LINE
8
disc1
10
451.156000
20
438.742000
11
477.906000
21
468.516000
0
LINE
8
disc1
10
477.906000
20
468.516000
11
473.000000
21
489.375000
0
LINE
8
disc1
10
473.000000
20
489.375000
11
479.234000
21
499.059000
0
LINE
8
disc1
10
479.234000
20
499.059000
11
495.676000
21
485.314000
0
LINE
8
disc1
10
495.676000
20
485.314000
11
510.336000
21
502.852000
0
LINE
8
disc1
10
510.336000
20
502.852000
11
507.279000
21
537.061000
0
LINE
8
disc1
10
507.279000
20
537.061000
11
555.951000
21
548.508000
0
LINE
8
disc1
10
555.951000
20
548.508000
11
551.660000
21
494.373000
0
LINE
8
disc1
10
551.660000
20
494.373000
11
516.912000
21
497.354000
0
LINE
8
disc1
10
516.912000
20
497.354000
11
500.420000
21
477.625000
0
LINE
8
disc1
10
500.420000
20
477.625000
11
513.752000
21
464.619000
0
LINE
8
disc1
10
513.752000
20
464.619000
11
505.506000
21
454.754000
0
LINE
8
disc1
10
505.506000
20
454.754000
11
482.650000
21
460.826000
0
LINE
8
disc1
10
482.650000
20
460.826000
11
459.008000
21
430.316000
0
LINE
8
disc1
10
459.008000
20
430.316000
11
469.035000
21
408.900000
0
LINE
8
disc1
10
469.035000
20
408.900000
11
469.035000
21
408.900000
0
LINE
8
disc1
10
435.795000
20
440.412000
11
397.930000
21
466.186000
0
LINE
8
disc1
10
397.930000
20
466.186000
11
413.361000
21
467.000000
0
LINE
8
disc1
10
413.361000
20
467.000000
11
434.990000
21
500.678000
0
LINE
8
disc1
10
434.990000
20
500.678000
11
426.803000
21
520.480000
0
LINE
8
disc1
10
426.803000
20
520.480000
11
431.402000
21
531.039000
0
LINE
8
disc1
10
431.402000
20
531.039000
11
449.834000
21
520.111000
0
LINE
8
disc1
10
449.834000
20
520.111000
11
461.492000
21
539.771000
0
LINE
8
disc1
10
461.492000
20
539.771000
11
452.988000
21
573.047000
0
LINE
8
disc1
10
452.988000
20
573.047000
11
499.193000
21
592.154000
0
LINE
8
disc1
10
499.193000
20
592.154000
11
503.641000
21
538.031000
0
LINE
8
disc1
10
503.641000
20
538.031000
11
468.865000
21
535.400000
0
LINE
8
disc1
10
468.865000
20
535.400000
11
455.750000
21
513.281000
0
LINE
8
disc1
10
455.750000
20
513.281000
11
470.996000
21
502.582000
0
LINE
8
disc1
10
470.996000
20
502.582000
11
464.438000
21
491.521000
0
LINE
8
disc1
10
464.438000
20
491.521000
11
440.906000
21
493.850000
0
LINE
8
disc1
10
440.906000
20
493.850000
11
422.463000
21
459.943000
0
LINE
8
disc1
10
422.463000
20
459.943000
11
435.795000
21
440.412000
0
LINE
8
disc1
10
435.795000
20
440.412000
11
435.795000
21
440.412000
0
LINE
8
disc1
10
397.930000
20
466.186000
11
354.201000
21
479.816000
0
LINE
8
disc1
10
354.201000
20
479.816000
11
368.727000
21
485.090000
0
LINE
8
disc1
10
368.727000
20
485.090000
11
379.613000
21
523.605000
0
LINE
8
disc1
10
379.613000
20
523.605000
11
366.016000
21
540.166000
0
LINE
8
disc1
10
366.016000
20
540.166000
11
367.342000
21
551.607000
0
LINE
8
disc1
10
367.342000
20
551.607000
11
388.156000
21
546.520000
0
LINE
8
disc1
10
388.156000
20
546.520000
11
393.586000
21
568.723000
0
LINE
8
disc1
10
393.586000
20
568.723000
11
375.762000
21
598.080000
0
LINE
8
disc1
10
375.762000
20
598.080000
11
414.402000
21
629.811000
0
LINE
8
disc1
10
414.402000
20
629.811000
11
434.414000
21
579.328000
0
LINE
8
disc1
10
434.414000
20
579.328000
11
401.912000
21
566.686000
0
LINE
8
disc1
10
401.912000
20
566.686000
11
395.805000
21
541.707000
0
LINE
8
disc1
10
395.805000
20
541.707000
11
413.506000
21
535.910000
0
LINE
8
disc1
10
413.506000
20
535.910000
11
410.451000
21
523.420000
0
LINE
8
disc1
10
410.451000
20
523.420000
11
387.262000
21
518.795000
0
LINE
8
disc1
10
387.262000
20
518.795000
11
379.488000
21
480.988000
0
LINE
8
disc1
10
379.488000
20
480.988000
11
397.930000
21
466.186000
0
LINE
8
disc1
10
397.930000
20
466.186000
11
397.930000
21
466.186000
0
LINE
8
disc1
10
354.201000
20
479.816000
11
308.412000
21
480.947000
0
LINE
8
disc1
10
308.412000
20
480.947000
11
320.938000
21
489.998000
0
LINE
8
disc1
10
320.938000
20
489.998000
11
320.855000
21
530.023000
0
LINE
8
disc1
10
320.855000
20
530.023000
11
303.240000
21
542.225000
0
LINE
8
disc1
10
303.240000
20
542.225000
11
301.381000
21
553.592000
0
LINE
8
disc1
10
301.381000
20
553.592000
11
322.795000
21
554.400000
0
LINE
8
disc1
10
322.795000
20
554.400000
11
321.932000
21
577.240000
0
LINE
8
disc1
10
321.932000
20
577.240000
11
296.748000
21
600.594000
0
LINE
8
disc1
10
296.748000
20
600.594000
11
325.217000
21
641.695000
0
LINE
8
disc1
10
325.217000
20
641.695000
11
358.295000
21
598.627000
0
LINE
8
disc1
10
358.295000
20
598.627000
11
330.498000
21
577.564000
0
LINE
8
disc1
10
330.498000
20
577.564000
11
331.467000
21
551.867000
0
LINE
8
disc1
10
331.467000
20
551.867000
11
350.080000
21
551.141000
0
LINE
8
disc1
10
350.080000
20
551.141000
11
350.564000
21
538.293000
0
LINE
8
disc1
10
350.564000
20
538.293000
11
329.529000
21
527.492000
0
LINE
8
disc1
10
329.529000
20
527.492000
11
332.412000
21
489.002000
0
LINE
8
disc1
10
332.412000
20
489.002000
11
354.201000
21
479.816000
0
LINE
8
disc1
10
354.201000
20
479.816000
11
354.201000
21
479.816000
0
LINE
8
disc1
10
308.412000
20
480.947000
11
263.816000
21
470.496000
0
LINE
8
disc1
10
263.816000
20
470.496000
11
273.654000
21
482.412000
0
LINE
8
disc1
10
273.654000
20
482.412000
11
263.484000
21
521.123000
0
LINE
8
disc1
10
263.484000
20
521.123000
11
243.361000
21
528.490000
0
LINE
8
disc1
10
243.361000
20
528.490000
11
238.697000
21
539.020000
0
LINE
8
disc1
10
238.697000
20
539.020000
11
259.215000
21
545.201000
0
LINE
8
disc1
10
259.215000
20
545.201000
11
252.621000
21
567.088000
0
LINE
8
disc1
10
252.621000
20
567.088000
11
222.361000
21
583.334000
0
LINE
8
disc1
10
222.361000
20
583.334000
11
239.547000
21
630.289000
0
LINE
8
disc1
10
239.547000
20
630.289000
11
282.414000
21
596.951000
0
LINE
8
disc1
10
282.414000
20
596.951000
11
260.828000
21
569.559000
0
LINE
8
disc1
10
260.828000
20
569.559000
11
268.246000
21
544.938000
0
LINE
8
disc1
10
268.246000
20
544.938000
11
286.439000
21
548.928000
0
LINE
8
disc1
10
286.439000
20
548.928000
11
290.148000
21
536.617000
0
LINE
8
disc1
10
290.148000
20
536.617000
11
272.516000
21
520.861000
0
LINE
8
disc1
10
272.516000
20
520.861000
11
285.010000
21
484.342000
0
LINE
8
disc1
10
285.010000
20
484.342000
11
308.412000
21
480.947000
0
LINE
8
disc1
10
308.412000
20
480.947000
11
308.412000
21
480.947000
0
LINE
8
disc1
10
263.816000
20
470.496000
11
227.109000
21
443.100000
0
LINE
8
disc1
10
227.109000
20
443.100000
11
231.369000
21
457.953000
0
LINE
8
disc1
10
231.369000
20
457.953000
11
206.580000
21
489.379000
0
LINE
8
disc1
10
206.580000
20
489.379000
11
185.189000
21
488.094000
0
LINE
8
disc1
10
185.189000
20
488.094000
11
176.707000
21
495.883000
0
LINE
8
disc1
10
176.707000
20
495.883000
11
193.047000
21
509.746000
0
LINE
8
disc1
10
193.047000
20
509.746000
11
178.260000
21
527.176000
0
LINE
8
disc1
10
178.260000
20
527.176000
11
144.029000
21
529.982000
0
LINE
8
disc1
10
144.029000
20
529.982000
11
141.027000
21
579.893000
0
LINE
8
disc1
10
141.027000
20
579.893000
11
193.643000
21
566.455000
0
LINE
8
disc1
10
193.643000
20
566.455000
11
184.795000
21
532.721000
0
LINE
8
disc1
10
184.795000
20
532.721000
11
201.432000
21
513.113000
0
LINE
8
disc1
10
201.432000
20
513.113000
11
216.518000
21
524.039000
0
LINE
8
disc1
10
216.518000
20
524.039000
11
224.834000
21
514.234000
0
LINE
8
disc1
10
224.834000
20
514.234000
11
214.965000
21
492.746000
0
LINE
8
disc1
10
214.965000
20
492.746000
11
241.008000
21
464.258000
0
LINE
8
disc1
10
241.008000
20
464.258000
11
263.816000
21
470.496000
0
LINE
8
disc1
10
263.816000
20
470.496000
11
263.816000
21
470.496000
 0 
ENDSEC
 0 
EOF