<?xml version="1.0" encoding="UTF-8" standalone="no"?>
<svg
   xmlns:dc="http://purl.org/dc/elements/1.1/"
   xmlns:cc="http://creativecommons.org/ns#"
   xmlns:rdf="http://www.w3.org/1999/02/22-rdf-syntax-ns#"
   xmlns:svg="http://www.w3.org/2000/svg"
   xmlns="http://www.w3.org/2000/svg"
   xmlns:sodipodi="http://sodipodi.sourceforge.net/DTD/sodipodi-0.dtd"
   xmlns:inkscape="http://www.inkscape.org/namespaces/inkscape"
   sodipodi:docname="disc.svg"
   inkscape:version="1.0 (4035a4fb49, 2020-05-01)"
   id="svg1472"
   version="1.1"
   viewBox="0 0 210 297"
   height="297mm"
   width="210mm">
  <defs
     id="defs1466" />
  <sodipodi:namedview
     inkscape:window-maximized="0"
     inkscape:window-y="0"
     inkscape:window-x="208"
     inkscape:window-height="1040"
     inkscape:window-width="1375"
     showgrid="false"
     inkscape:document-rotation="0"
     inkscape:current-layer="layer1"
     inkscape:document-units="mm"
     inkscape:cy="261.04427"
     inkscape:cx="179.2249"
     inkscape:zoom="0.7"
     inkscape:pageshadow="2"
     inkscape:pageopacity="0.0"
     borderopacity="1.0"
     bordercolor="#666666"
     pagecolor="#ffffff"
     id="base" />
  <metadata
     id="metadata1469">
    <rdf:RDF>
      <cc:Work
         rdf:about="">
        <dc:format>image/svg+xml</dc:format>
        <dc:type
           rdf:resource="http://purl.org/dc/dcmitype/StillImage" />
        <dc:title></dc:title>
      </cc:Work>
    </rdf:RDF>
  </metadata>
  <g
     id="layer1"
     inkscape:groupmode="layer"
     inkscape:label="Layer 1">
    <path
       id="path2035"
       d="M 80.697915,44.223214 86.36756,41.57738 86.745535,31.372023 81.075893,28.72619 v -3.401785 l 4.913688,-0.377976 V 18.142857 L 78.43006,12.85119 86.745535,1.133928 l 7.937499,10.583334 -6.425595,6.425595 v 6.047618 h 5.669645 l -0.37798,3.023811 -4.53571,3.401785 0.37797,10.583334 3.40179,2.267857"
       style="fill:none;stroke:#000000;stroke-width:0.264583px;stroke-linecap:butt;stroke-linejoin:miter;stroke-opacity:1" />
    <path
       style="fill:none;stroke:#000000;stroke-width:0.264583px;stroke-linecap:butt;stroke-linejoin:miter;stroke-opacity:1"
       d="m 92.793154,43.467262 6.25456,-0.160628 4.423346,-9.204679 -4.140626,-4.690461 1.358946,-3.118557 4.65557,1.616421 2.7179,-6.237116 -4.8162,-7.870977 12.30397,-7.419822 3.04879,12.873062 -8.45752,3.323704 -2.41591,5.544101 5.1976,2.264916 -1.55447,2.621058 -5.51702,1.306625 -3.88134,9.853174 2.21259,3.437988"
       id="path2037" />
    <path
       id="path2039"
       d="m 104.80468,47.335661 6.08124,1.470991 6.66434,-7.738144 -2.7788,-5.605673 2.123,-2.65801 4.07523,2.771218 4.246,-5.316021 -2.60424,-8.852458 13.8099,-3.965817 -0.40286,13.223032 -9.03079,1.010576 -3.77422,4.725352 4.43002,3.538331 -2.18245,2.126788 -5.66701,-0.172653 -6.30955,8.505255 1.24268,3.895006"
       style="fill:none;stroke:#000000;stroke-width:0.264583px;stroke-linecap:butt;stroke-linejoin:miter;stroke-opacity:1" />
    <path
       style="fill:none;stroke:#000000;stroke-width:0.264583px;stroke-linecap:butt;stroke-linejoin:miter;stroke-opacity:1"
       d="m 114.72717,54.293434 5.76659,2.427288 7.81914,-6.569111 -1.84376,-5.978782 2.52182,-2.283104 3.57802,3.388951 5.04363,-4.566209 -1.15073,-9.15554 14.26719,-1.699575 -2.51842,12.987241 -9.07597,-0.450911 -4.48322,4.058851 3.80516,4.203035 -2.4953,1.749224 -5.56595,-1.079322 -7.59199,7.383193 0.60189,4.04389"
       id="path2041" />
    <path
       id="path2043"
       d="m 123.40527,62.752553 4.81005,4.001093 9.393,-4.007942 -0.0231,-6.256576 3.0773,-1.449955 2.4363,4.283882 6.1546,-2.899911 1.56479,-9.093927 14.14392,2.527999 -6.19059,11.691339 -8.55148,-3.073876 -5.47075,2.577699 2.41658,5.128832 -2.89648,0.946926 -5.01057,-2.65311 -9.41271,4.852892 -0.60158,4.043936"
       style="fill:none;stroke:#000000;stroke-width:0.264583px;stroke-linecap:butt;stroke-linejoin:miter;stroke-opacity:1" />
    <path
       style="fill:none;stroke:#000000;stroke-width:0.264583px;stroke-linecap:butt;stroke-linejoin:miter;stroke-opacity:1"
       d="m 129.24455,73.371854 3.52988,5.165778 10.13164,-1.281288 1.69184,-6.023533 3.3568,-0.551423 1.16947,4.787435 6.71359,-1.102845 3.9963,-8.317311 12.91022,6.306156 -9.15671,9.548062 -7.38219,-5.299041 -5.96763,0.980309 0.91903,5.594655 -3.04509,0.117176 -4.09202,-3.924303 -10.38209,2.088511 -1.68644,3.72441"
       id="path2045" />
    <path
       style="fill:none;stroke:#000000;stroke-width:0.264583px;stroke-linecap:butt;stroke-linejoin:miter;stroke-opacity:1"
       d="M 80.697915,44.223214 86.36756,41.57738 86.745535,31.372023 81.075893,28.72619 v -3.401785 l 4.913688,-0.377976 V 18.142857 L 78.43006,12.85119 86.745535,1.133928 l 7.937499,10.583334 -6.425595,6.425595 v 6.047618 h 5.669645 l -0.37798,3.023811 -4.53571,3.401785 0.37797,10.583334 3.40179,2.267857"
       id="path2047" />
    <path
       id="path2049"
       d="m 92.793154,43.467262 6.25456,-0.160628 4.423346,-9.204679 -4.140626,-4.690461 1.358946,-3.118557 4.65557,1.616421 2.7179,-6.237116 -4.8162,-7.870977 12.30397,-7.419822 3.04879,12.873062 -8.45752,3.323704 -2.41591,5.544101 5.1976,2.264916 -1.55447,2.621058 -5.51702,1.306625 -3.88134,9.853174 2.21259,3.437988"
       style="fill:none;stroke:#000000;stroke-width:0.264583px;stroke-linecap:butt;stroke-linejoin:miter;stroke-opacity:1" />
    <path
       style="fill:none;stroke:#000000;stroke-width:0.264583px;stroke-linecap:butt;stroke-linejoin:miter;stroke-opacity:1"
       d="m 104.80468,47.335661 6.08124,1.470991 6.66434,-7.738144 -2.7788,-5.605673 2.123,-2.65801 4.07523,2.771218 4.246,-5.316021 -2.60424,-8.852458 13.8099,-3.965817 -0.40286,13.223032 -9.03079,1.010576 -3.77422,4.725352 4.43002,3.538331 -2.18245,2.126788 -5.66701,-0.172653 -6.30955,8.505255 1.24268,3.895006"
       id="path2051" />
    <path
       id="path2053"
       d="m 114.72717,54.293434 5.76659,2.427288 7.81914,-6.569111 -1.84376,-5.978782 2.52182,-2.283104 3.57802,3.388951 5.04363,-4.566209 -1.15073,-9.15554 14.26719,-1.699575 -2.51842,12.987241 -9.07597,-0.450911 -4.48322,4.058851 3.80516,4.203035 -2.4953,1.749224 -5.56595,-1.079322 -7.59199,7.383193 0.60189,4.04389"
       style="fill:none;stroke:#000000;stroke-width:0.264583px;stroke-linecap:butt;stroke-linejoin:miter;stroke-opacity:1" />
    <path
       style="fill:none;stroke:#000000;stroke-width:0.264583px;stroke-linecap:butt;stroke-linejoin:miter;stroke-opacity:1"
       d="m 123.40527,62.752553 4.81005,4.001093 9.393,-4.007942 -0.0231,-6.256576 3.0773,-1.449955 2.4363,4.283882 6.1546,-2.899911 1.56479,-9.093927 14.14392,2.527999 -6.19059,11.691339 -8.55148,-3.073876 -5.47075,2.577699 2.41658,5.128832 -2.89648,0.946926 -5.01057,-2.65311 -9.41271,4.852892 -0.60158,4.043936"
       id="path2055" />
    <path
       id="path2057"
       d="m 129.24455,73.371854 3.52988,5.165778 10.13164,-1.281288 1.69184,-6.023533 3.3568,-0.551423 1.16947,4.787435 6.71359,-1.102845 3.9963,-8.317311 12.91022,6.306156 -9.15671,9.548062 -7.38219,-5.299041 -5.96763,0.980309 0.91903,5.594655 -3.04509,0.117176 -4.09202,-3.924303 -10.38209,2.088511 -1.68644,3.72441"
       style="fill:none;stroke:#000000;stroke-width:0.264583px;stroke-linecap:butt;stroke-linejoin:miter;stroke-opacity:1" />
    <path
       style="fill:none;stroke:#000000;stroke-width:0.264583px;stroke-linecap:butt;stroke-linejoin:miter;stroke-opacity:1"
       d="m 131.95115,85.184602 1.46337,6.083077 9.92553,2.40338 3.72223,-5.028937 3.33361,0.67766 -0.60844,4.890497 6.66721,1.35532 6.69151,-6.353867 9.82593,10.482967 -11.95243,5.670131 -5.01678,-7.576831 -5.92641,-1.20473 -1.12944,5.556011 -2.88791,-0.97276 -2.43006,-5.122471 -10.44651,-1.73788 -2.90006,2.88184"
       id="path2059" />
    <path
       id="path2061"
       d="m 130.2825,97.188009 -1.08855,6.161201 8.13904,6.16833 5.42129,-3.12327 2.78534,1.95296 -2.51144,4.24025 5.57068,3.90591 8.67264,-3.15172 4.82007,13.53545 -13.22239,0.42328 -1.57229,-8.95012 -4.95172,-3.47191 -3.25492,4.64224 -2.25886,-2.04545 -0.1814,-5.66673 -8.88251,-5.76637 -3.80985,1.48337"
       style="fill:none;stroke:#000000;stroke-width:0.264583px;stroke-linecap:butt;stroke-linejoin:miter;stroke-opacity:1" />
    <path
       style="fill:none;stroke:#000000;stroke-width:0.264583px;stroke-linecap:butt;stroke-linejoin:miter;stroke-opacity:1"
       d="m 124.09885,108.18818 -2.65294,5.66633 6.25548,8.07226 6.04687,-1.60641 2.18182,2.60994 -3.52749,3.44151 4.36364,5.21988 9.19382,-0.78857 1.1353,14.32313 -12.87775,-3.0289 0.80867,-9.05111 -3.87879,-4.63989 -4.3499,3.63637 -1.64941,-2.56238 1.2981,-5.51904 -7.07788,-7.87739 -4.06449,0.44186"
       id="path2063" />
    <path
       id="path2065"
       d="m 115.3039,116.52577 -3.52739,5.16747 4.87982,8.97104 6.22625,-0.61579 1.73498,2.92609 -4.03379,2.8312 3.46996,5.85217 9.20127,0.69618 -1.17662,14.3198 -12.22525,-5.05509 2.24987,-8.80424 -3.08441,-5.20192 -4.87681,2.89163 -1.21709,-2.79375 2.16647,-5.23939 -5.72284,-8.91061 -4.08274,-0.21574"
       style="fill:none;stroke:#000000;stroke-width:0.264583px;stroke-linecap:butt;stroke-linejoin:miter;stroke-opacity:1" />
    <path
       style="fill:none;stroke:#000000;stroke-width:0.264583px;stroke-linecap:butt;stroke-linejoin:miter;stroke-opacity:1"
       d="m 105.28558,123.34482 -4.87909,3.9166 2.05646,10.00315 6.13578,1.22371 0.80787,3.30447 -4.68335,1.53409 1.61575,6.60893 8.59995,3.345 -5.2949,13.35684 -10.223806,-8.39551 4.715786,-7.76775 -1.43623,-5.87459 -5.507436,1.34644 -0.35094,-3.02706 3.598066,-4.38163 -2.880536,-10.19078 -3.84306,-1.39511"
       id="path2067" />
    <path
       id="path2069"
       d="m 93.715904,126.95162 -5.765426,2.43008 -0.762685,10.18381 5.565781,2.85786 -0.12833,3.39937 -4.924449,0.19234 -0.256648,6.79873 7.354517,5.57307 -8.751574,11.39524 -7.532611,-10.87523 6.663418,-6.17863 0.228132,-6.0433 -5.665596,-0.21389 0.491772,-3.0074 4.660806,-3.22826 0.02154,-10.59005 -3.313813,-2.39457"
       style="fill:none;stroke:#000000;stroke-width:0.264583px;stroke-linecap:butt;stroke-linejoin:miter;stroke-opacity:1" />
    <path
       id="path2071"
       d="m 131.95115,85.184602 1.46337,6.083077 9.92553,2.40338 3.72223,-5.028937 3.33361,0.67766 -0.60844,4.890497 6.66721,1.35532 6.69151,-6.353867 9.82593,10.482967 -11.95243,5.670131 -5.01678,-7.576831 -5.92641,-1.20473 -1.12944,5.556011 -2.88791,-0.97276 -2.43006,-5.122471 -10.44651,-1.73788 -2.90006,2.88184"
       style="fill:none;stroke:#000000;stroke-width:0.264583px;stroke-linecap:butt;stroke-linejoin:miter;stroke-opacity:1" />
    <path
       style="fill:none;stroke:#000000;stroke-width:0.264583px;stroke-linecap:butt;stroke-linejoin:miter;stroke-opacity:1"
       d="m 130.2825,97.188009 -1.08855,6.161201 8.13904,6.16833 5.42129,-3.12327 2.78534,1.95296 -2.51144,4.24025 5.57068,3.90591 8.67264,-3.15172 4.82007,13.53545 -13.22239,0.42328 -1.57229,-8.95012 -4.95172,-3.47191 -3.25492,4.64224 -2.25886,-2.04545 -0.1814,-5.66673 -8.88251,-5.76637 -3.80985,1.48337"
       id="path2073" />
    <path
       id="path2075"
       d="m 124.09885,108.18818 -2.65294,5.66633 6.25548,8.07226 6.04687,-1.60641 2.18182,2.60994 -3.52749,3.44151 4.36364,5.21988 9.19382,-0.78857 1.1353,14.32313 -12.87775,-3.0289 0.80867,-9.05111 -3.87879,-4.63989 -4.3499,3.63637 -1.64941,-2.56238 1.2981,-5.51904 -7.07788,-7.87739 -4.06449,0.44186"
       style="fill:none;stroke:#000000;stroke-width:0.264583px;stroke-linecap:butt;stroke-linejoin:miter;stroke-opacity:1" />
    <path
       style="fill:none;stroke:#000000;stroke-width:0.264583px;stroke-linecap:butt;stroke-linejoin:miter;stroke-opacity:1"
       d="m 115.3039,116.52577 -3.52739,5.16747 4.87982,8.97104 6.22625,-0.61579 1.73498,2.92609 -4.03379,2.8312 3.46996,5.85217 9.20127,0.69618 -1.17662,14.3198 -12.22525,-5.05509 2.24987,-8.80424 -3.08441,-5.20192 -4.87681,2.89163 -1.21709,-2.79375 2.16647,-5.23939 -5.72284,-8.91061 -4.08274,-0.21574"
       id="path2077" />
    <path
       id="path2079"
       d="m 105.28558,123.34482 -4.87909,3.9166 2.05646,10.00315 6.13578,1.22371 0.80787,3.30447 -4.68335,1.53409 1.61575,6.60893 8.59995,3.345 -5.2949,13.35684 -10.223806,-8.39551 4.715786,-7.76775 -1.43623,-5.87459 -5.507436,1.34644 -0.35094,-3.02706 3.598066,-4.38163 -2.880536,-10.19078 -3.84306,-1.39511"
       style="fill:none;stroke:#000000;stroke-width:0.264583px;stroke-linecap:butt;stroke-linejoin:miter;stroke-opacity:1" />
    <path
       style="fill:none;stroke:#000000;stroke-width:0.264583px;stroke-linecap:butt;stroke-linejoin:miter;stroke-opacity:1"
       d="m 93.715904,126.95162 -5.765426,2.43008 -0.762685,10.18381 5.565781,2.85786 -0.12833,3.39937 -4.924449,0.19234 -0.256648,6.79873 7.354517,5.57307 -8.751574,11.39524 -7.532611,-10.87523 6.663418,-6.17863 0.228132,-6.0433 -5.665596,-0.21389 0.491772,-3.0074 4.660806,-3.22826 0.02154,-10.59005 -3.313813,-2.39457"
       id="path2081" />
    <path
       style="fill:none;stroke:#000000;stroke-width:0.264583px;stroke-linecap:butt;stroke-linejoin:miter;stroke-opacity:1"
       d="m 69.801619,124.4855 -6.035006,-1.65047 -6.890585,7.53739 2.611551,5.6855 -2.200799,2.59397 -3.99136,-2.89069 -4.401587,5.18793 2.340917,8.9257 -13.921314,3.55506 0.794313,-13.20529 9.056776,-0.74267 3.912513,-4.6115 -4.323283,-3.66798 2.244487,-2.06121 5.659403,0.34042 6.55869,-8.31466 -1.12677,-3.93011"
       id="path2085" />
    <path
       id="path2087"
       d="m 59.416637,117.31658 -5.398387,-3.16273 -8.613255,5.48674 1.043595,6.16896 -2.799502,1.93259 -3.102578,-3.82899 -5.599003,3.86519 -0.06014,9.22738 -14.366843,-0.18653 4.200179,-12.54468 8.938409,1.63749 4.976889,-3.43572 -3.220991,-4.66584 2.703188,-1.40681 5.376299,1.80008 8.49483,-6.32357 -0.06626,-4.0879"
       style="fill:none;stroke:#000000;stroke-width:0.264583px;stroke-linecap:butt;stroke-linejoin:miter;stroke-opacity:1" />
    <path
       style="fill:none;stroke:#000000;stroke-width:0.264583px;stroke-linecap:butt;stroke-linejoin:miter;stroke-opacity:1"
       d="m 51.923065,107.79224 -4.821234,-3.98759 -9.381735,4.03425 0.04068,6.2565 -3.073225,1.45858 -2.448299,-4.27704 -6.146441,2.91716 -1.539289,9.09827 -14.150945,-2.48834 6.157788,-11.70864 8.560066,3.04989 5.463495,-2.59303 -2.430957,-5.12203 2.893826,-0.95505 5.017987,2.63905 9.399077,-4.87926 0.590234,-4.045611"
       id="path2089" />
    <path
       id="path2091"
       d="m 46.054089,97.189349 -3.451375,-5.21855 -10.149864,1.12796 -1.782712,5.99726 -3.364754,0.5006 -1.096957,-4.80457 -6.7295,1.00122 -4.121596,8.255941 -12.8133887,-6.500631 9.3000237,-9.408535 7.301226,5.410065 5.981764,-0.88998 -0.834326,-5.607912 3.046505,-0.0711 4.032225,3.985722 10.412474,-1.93129 1.74257,-3.698502"
       style="fill:none;stroke:#000000;stroke-width:0.264583px;stroke-linecap:butt;stroke-linejoin:miter;stroke-opacity:1" />
    <path
       style="fill:none;stroke:#000000;stroke-width:0.264583px;stroke-linecap:butt;stroke-linejoin:miter;stroke-opacity:1"
       d="m 43.526403,85.337037 -1.889654,-5.96445 -10.070538,-1.69586 -3.357528,5.27943 -3.373169,-0.44036 0.261279,-4.92128 -6.746329,-0.8807 -6.225709,6.81092 L 1.5824983,73.76244 13.10428,67.261719 l 5.539753,7.203315 5.996722,0.782847 0.733936,-5.621927 2.949441,0.76622 2.786022,4.9379 10.543206,0.995205 2.689131,-3.079594"
       id="path2093" />
    <path
       style="fill:none;stroke:#000000;stroke-width:0.264583px;stroke-linecap:butt;stroke-linejoin:miter;stroke-opacity:1"
       d="m 81.600738,127.25079 -6.191859,0.89783 -3.305852,9.66249 4.665376,4.16888 -0.981315,3.25717 -4.813836,-1.05554 -1.962629,6.51434 5.711667,7.2474 -11.342056,8.8204 -4.547081,-12.42317 8.006025,-4.29883 1.74456,-5.79053 -5.42862,-1.63553 1.234183,-2.78623 5.324213,-1.94876 2.691076,-10.24245 -2.602971,-3.15276"
       id="path2095" />
    <path
       style="fill:none;stroke:#000000;stroke-width:0.264583px;stroke-linecap:butt;stroke-linejoin:miter;stroke-opacity:1"
       d="m 44.342491,73.245685 1.091662,-6.160659 -8.135935,-6.172442 -5.422861,3.120534 -2.784352,-1.954354 2.51358,-4.238994 -5.568713,-3.908704 -8.674237,3.147343 -4.813234,-13.537863 13.222592,-0.416616 1.567787,8.950898 4.949962,3.474402 3.257257,-4.640594 2.25784,2.046583 0.178548,5.666833 8.879591,5.770837 3.810591,-1.481455"
       id="path2099" />
    <path
       id="path2101"
       d="m 50.672569,62.911434 2.065597,-5.9058 -7.040619,-7.39742 -5.853166,2.210403 -2.434866,-2.375625 3.160922,-3.78098 -4.869728,-4.751243 -9.066719,1.715384 -2.579657,-14.134584 13.118241,1.709486 0.111891,9.086475 4.328644,4.22332 3.959367,-4.058097 1.900373,2.382212 -0.732635,5.622101 7.839082,7.120297 3.998866,-0.851118"
       style="fill:none;stroke:#000000;stroke-width:0.264583px;stroke-linecap:butt;stroke-linejoin:miter;stroke-opacity:1" />
    <path
       style="fill:none;stroke:#000000;stroke-width:0.264583px;stroke-linecap:butt;stroke-linejoin:miter;stroke-opacity:1"
       d="m 58.578162,53.726245 3.695595,-5.048548 -4.581818,-9.126827 -6.243135,0.410435 -1.6377,-2.98163 4.124821,-2.69686 -3.275414,-5.963244 -9.173365,-0.998738 1.647432,-14.2733 12.05221,5.45484 -2.538534,8.7254 2.911481,5.300645 4.969381,-2.72949 1.124422,2.8323 -2.337796,5.165229 5.426362,9.094181 4.07344,0.350049"
       id="path2103" />
    <path
       id="path2105"
       d="M 68.815544,47.240687 73.752867,43.397732 71.846744,33.364868 65.730008,32.049222 64.971811,28.733001 69.677661,27.26936 68.16125,20.636933 59.612467,17.163266 65.1072,3.887363 l 10.096676,8.54798 -4.831812,7.696121 1.347919,5.895476 5.527009,-1.263649 0.305491,3.031991 -3.663415,4.327143 2.727306,10.232861 3.821678,1.452611"
       style="fill:none;stroke:#000000;stroke-width:0.264583px;stroke-linecap:butt;stroke-linejoin:miter;stroke-opacity:1" />
  </g>
</svg>
