999
"DXF R12 Output" (www.mydxf.blogspot.com)
 0 
SECTION
 2 
HEADER
 9 
$ACADVER
 1 
AC1009
 9 
$EXTMIN
 10 
 0 
 20 
 0 
 9 
$EXTMAX
 10 
 8.5 
 20 
 11 
 0 
ENDSEC
 0 
SECTION
 2 
ENTITIES
0
LINE
8
lotus1
10
21.733600
20
39.120500
11
12.662170
21
37.230620
0
LINE
8
lotus1
10
12.662170
20
37.230620
11
6.992530
21
30.805020
0
LINE
8
lotus1
10
6.992530
20
30.805020
11
1.700860
21
21.355620
0
LINE
8
lotus1
10
1.700860
20
21.355620
11
13.418160
21
23.623480
0
LINE
8
lotus1
10
13.418160
20
23.623480
11
19.465780
21
29.293120
0
LINE
8
lotus1
10
19.465780
20
29.293120
11
22.111610
21
33.072880
0
LINE
8
lotus1
10
22.111610
20
33.072880
11
13.418160
21
23.623480
0
LINE
8
lotus1
10
13.418160
20
23.623480
11
14.174112
21
15.308000
0
LINE
8
lotus1
10
14.174112
20
15.308000
11
17.197922
21
6.236570
0
LINE
8
lotus1
10
17.197922
20
6.236570
11
23.623522
21
11.528240
0
LINE
8
lotus1
10
23.623522
20
11.528240
11
30.049112
21
16.819910
0
LINE
8
lotus1
10
30.049112
20
16.819910
11
31.938992
21
26.269320
0
LINE
8
lotus1
10
31.938992
20
26.269320
11
30.805062
21
30.049080
0
LINE
8
lotus1
10
30.805062
20
30.049080
11
31.561016
21
24.379440
0
LINE
8
lotus1
10
31.561016
20
24.379440
11
30.427086
21
18.709800
0
LINE
8
lotus1
10
30.427086
20
18.709800
11
30.049110
21
16.819920
0
LINE
8
lotus1
10
30.049110
20
16.819920
11
25.135420
21
13.040160
0
LINE
8
lotus1
10
25.135420
20
13.040160
11
28.159230
21
7.748490
0
LINE
8
lotus1
10
28.159230
20
7.748490
11
30.049110
21
1.322890
0
LINE
8
lotus1
10
30.049110
20
1.322890
11
33.450890
21
5.858600
0
LINE
8
lotus1
10
33.450890
20
5.858600
11
36.852680
21
9.638360
0
LINE
8
lotus1
10
36.852680
20
9.638360
11
36.852680
21
12.284190
0
LINE
8
lotus1
10
36.852680
20
12.284190
11
33.828870
21
19.087760
0
LINE
8
lotus1
10
33.828870
20
19.087760
11
35.340780
21
24.757400
0
LINE
8
lotus1
10
35.340780
20
24.757400
11
37.230660
21
28.159180
0
LINE
8
lotus1
10
37.230660
20
28.159180
11
34.206850
21
21.355610
0
LINE
8
lotus1
10
34.206850
20
21.355610
11
34.319522
21
17.197870
0
LINE
8
lotus1
10
34.319522
20
17.197870
11
37.608632
21
11.150250
0
LINE
8
lotus1
10
37.608632
20
11.150250
11
39.120532
21
6.236560
0
LINE
8
lotus1
10
39.120532
20
6.236560
11
39.876486
21
0.944890
0
LINE
8
lotus1
10
39.876486
20
0.944890
11
44.034226
21
8.504410
0
LINE
8
lotus1
10
44.034226
20
8.504410
11
45.546136
21
13.796080
0
LINE
8
lotus1
10
45.546136
20
13.796080
11
44.389276
21
19.465720
0
LINE
8
lotus1
10
44.389276
20
19.465720
11
40.632436
21
27.403220
0
LINE
8
lotus1
10
40.632436
20
27.403220
11
45.078406
21
17.575840
0
LINE
8
lotus1
10
45.078406
20
17.575840
11
45.546128
21
11.150250
0
LINE
8
lotus1
10
45.546128
20
11.150250
11
48.191958
21
5.102630
0
LINE
8
lotus1
10
48.191958
20
5.102630
11
54.239578
21
1.700840
0
LINE
8
lotus1
10
54.239578
20
1.700840
11
53.861603
21
8.126440
0
LINE
8
lotus1
10
53.861603
20
8.126440
11
53.105651
21
12.284180
0
LINE
8
lotus1
10
53.105651
20
12.284180
11
49.255141
21
15.063650
0
LINE
8
lotus1
10
49.255141
20
15.063650
11
45.078411
21
17.575850
0
LINE
8
lotus1
10
45.078411
20
17.575850
11
40.766081
21
27.536870
0
LINE
8
lotus1
10
40.766081
20
27.536870
11
45.078411
21
17.575850
0
LINE
8
lotus1
10
45.078411
20
17.575850
11
49.388781
21
15.197290
0
LINE
8
lotus1
10
49.388781
20
15.197290
11
53.105661
21
12.284190
0
LINE
8
lotus1
10
53.105661
20
12.284190
11
56.696431
21
10.205320
0
LINE
8
lotus1
10
56.696431
20
10.205320
11
60.287201
21
8.126450
0
LINE
8
lotus1
10
60.287201
20
8.126450
11
65.578871
21
8.504426
0
LINE
8
lotus1
10
65.578871
20
8.504426
11
63.877981
21
15.496986
0
LINE
8
lotus1
10
63.877981
20
15.496986
11
63.268495
21
16.600498
0
LINE
8
lotus1
10
63.268495
20
16.600498
11
62.084957
21
17.769566
0
LINE
8
lotus1
10
62.084957
20
17.769566
11
60.529350
21
18.938635
0
LINE
8
lotus1
10
60.529350
20
18.938635
11
58.803653
21
20.042149
0
LINE
8
lotus1
10
58.803653
20
20.042149
11
55.649914
21
21.790289
0
LINE
8
lotus1
10
55.649914
20
21.790289
11
54.239591
21
22.489546
0
LINE
8
lotus1
10
54.239591
20
22.489546
11
47.058041
21
26.269306
0
LINE
8
lotus1
10
47.058041
20
26.269306
11
44.767094
21
28.349320
0
LINE
8
lotus1
10
44.767094
20
28.349320
11
41.724451
21
30.980576
0
LINE
8
lotus1
10
41.724451
20
30.980576
11
49.703871
21
24.379426
0
LINE
8
lotus1
10
49.703871
20
24.379426
11
58.775301
21
19.843716
0
LINE
8
lotus1
10
58.775301
20
19.843716
11
65.512051
21
18.652466
0
LINE
8
lotus1
10
65.512051
20
18.652466
11
71.046091
21
19.933466
0
LINE
8
lotus1
10
71.046091
20
19.933466
11
68.346871
21
24.524536
0
LINE
8
lotus1
10
68.346871
20
24.524536
11
64.044031
21
28.380616
0
LINE
8
lotus1
10
64.044031
20
28.380616
11
61.504155
21
29.876306
0
LINE
8
lotus1
10
61.504155
20
29.876306
11
59.279615
21
30.904593
0
LINE
8
lotus1
10
59.279615
20
30.904593
11
58.205868
21
31.243460
0
LINE
8
lotus1
10
58.205868
20
31.243460
11
57.263391
21
31.371996
0
LINE
8
lotus1
10
57.263391
20
31.371996
11
55.963607
21
31.557784
0
LINE
8
lotus1
10
55.963607
20
31.557784
11
53.947872
21
32.047590
0
LINE
8
lotus1
10
53.947872
20
32.047590
11
48.864894
21
33.533896
0
LINE
8
lotus1
10
48.864894
20
33.533896
11
42.167291
21
35.695796
0
LINE
8
lotus1
10
42.167291
20
35.695796
11
49.703891
21
33.828846
0
LINE
8
lotus1
10
49.703891
20
33.828846
11
59.531271
21
30.427066
0
LINE
8
lotus1
10
59.531271
20
30.427066
11
63.433201
21
31.270797
0
LINE
8
lotus1
10
63.433201
20
31.270797
11
67.468771
21
33.450877
0
LINE
8
lotus1
10
67.468771
20
33.450877
11
63.889461
21
35.808477
0
LINE
8
lotus1
10
63.889461
20
35.808477
11
59.909251
21
37.230637
0
LINE
8
lotus1
10
59.909251
20
37.230637
11
54.856196
21
38.006937
0
LINE
8
lotus1
10
54.856196
20
38.006937
11
48.753169
21
38.666328
0
LINE
8
lotus1
10
48.753169
20
38.666328
11
43.786958
21
39.080344
0
LINE
8
lotus1
10
43.786958
20
39.080344
11
42.413529
21
39.155190
0
LINE
8
lotus1
10
42.413529
20
39.155190
11
42.123825
21
39.152547
0
LINE
8
lotus1
10
42.123825
20
39.152547
11
42.144351
21
39.120517
0
LINE
8
lotus1
10
42.144351
20
39.120517
11
59.909200
21
37.230700
0
LINE
8
lotus1
10
59.909200
20
37.230700
11
42.144300
21
39.876500
0
LINE
8
lotus1
10
42.144300
20
39.876500
11
40.141800
21
34.808200
0
LINE
8
lotus1
10
40.141800
20
34.808200
11
38.318700
21
32.187300
0
LINE
8
lotus1
10
38.318700
20
32.187300
11
37.873300
21
32.724772
0
LINE
8
lotus1
10
37.873300
20
32.724772
11
37.404548
21
32.848355
0
LINE
8
lotus1
10
37.404548
20
32.848355
11
36.937947
21
32.663529
0
LINE
8
lotus1
10
36.937947
20
32.663529
11
36.498996
21
32.275776
0
LINE
8
lotus1
10
36.498996
20
32.275776
11
35.806056
21
31.313410
0
LINE
8
lotus1
10
35.806056
20
31.313410
11
35.529740
21
30.805100
0
LINE
8
lotus1
10
35.529740
20
30.805100
11
30.805040
21
30.049149
0
LINE
8
lotus1
10
30.805040
20
30.049149
11
26.080340
21
34.206889
0
LINE
8
lotus1
10
26.080340
20
34.206889
11
21.733600
21
39.120500
 0 
ENDSEC
 0 
EOF