<?xml version="1.0"?>
<!DOCTYPE svg PUBLIC "-//W3C//DTD SVG 1.1//EN" "http://www.w3.org/Graphics/SVG/1.1/DTD/svg11.dtd">
<svg width="135.762mm" height="135.762mm" viewBox="0 0 135.762 135.762" xmlns="http://www.w3.org/2000/svg" version="1.1">
<g id="Sketch001" transform="translate(67.881000,67.881000) scale(1,-1)">
<path id="Sketch001_w0000"  d="M 24.999999999999996 25.0 L 5.0 25.0 L 5.0 21.549999999999997 L -5.0 21.549999999999997 L -5.0 25.0 L -25.0 25.0 L -25.0 5.0 L -21.549999999999997 5.0 L -21.549999999999997 -5.0 L -25.0 -5.0 L -25.0 -25.0 L -5.0 -25.0 L -5.0 -21.55 L 5.0 -21.55 L 5.0 -25.0 L 24.999999999999996 -25.0 L 24.999999999999996 -5.0 L 21.549999999999997 -5.0 L 21.549999999999997 5.0 L 24.999999999999996 5.0 L 24.999999999999996 25.0 L 40.775 25.0 L 40.775 21.549999999999997 L 50.775 21.549999999999997 L 50.775 25.0 L 66.55 25.0 L 66.55 -25.0 L 50.775 -25.0 L 50.775 -21.55 L 40.775 -21.55 L 40.775 -25.0 L 24.999999999999996 -25.0 M -25.0 25.0 L -40.775 25.0 L -40.775 21.549999999999997 L -50.775 21.549999999999997 L -50.775 25.0 L -66.55 25.0 L -66.55 -25.0 L -50.775 -25.0 L -50.775 -21.55 L -40.775 -21.55 L -40.775 -25.0 L -25.0 -25.0 " stroke="#000000" stroke-width="0.7 px" style="stroke-width:0.7;stroke-miterlimit:4;stroke-dasharray:none;stroke-linecap:square;fill:none;fill-opacity:1;fill-rule: evenodd"/>
<path id="Sketch001_w0001"  d="M 21.55 25.0 L 21.55 40.775000000025614 L 25.0 40.775000000025614 L 25.0 50.775000000025614 L 21.55 50.775000000025614 L 21.55 66.55 L -21.55 66.55 L -21.55 50.775000000025614 L -25.0 50.775000000025614 L -25.0 40.775000000025614 L -21.55 40.775000000025614 L -21.55 25.0 " stroke="#000000" stroke-width="0.7 px" style="stroke-width:0.7;stroke-miterlimit:4;stroke-dasharray:none;stroke-linecap:square;fill:none;fill-opacity:1;fill-rule: evenodd"/>
<path id="Sketch001_w0002"  d="M -21.55 -25.0 L -21.55 -40.77499999997694 L -25.0 -40.77499999997694 L -25.0 -50.77499999997694 L -21.55 -50.77499999997694 L -21.55 -66.55 L 21.55 -66.55 L 21.55 -50.77499999997694 L 25.0 -50.77499999997694 L 25.0 -40.775 L 21.55 -40.775 L 21.55 -25.0 " stroke="#000000" stroke-width="0.7 px" style="stroke-width:0.7;stroke-miterlimit:4;stroke-dasharray:none;stroke-linecap:square;fill:none;fill-opacity:1;fill-rule: evenodd"/>
<title>b'Sketch001'</title>
</g>
</svg>