<?xml version="1.0"?>
<!DOCTYPE svg PUBLIC "-//W3C//DTD SVG 1.1//EN" "http://www.w3.org/Graphics/SVG/1.1/DTD/svg11.dtd">
<svg width="51.0mm" height="134.10000000000466mm" viewBox="0 0 51.0 134.10000000000466" xmlns="http://www.w3.org/2000/svg" version="1.1">
<g id="Sketch002" transform="translate(25.500000,67.050000) scale(1,-1)">
<path id="Sketch002_w0000"  d="M -21.55 25.000000000004658 L -5.0 25.000000000004658 L -5.0 21.55000000000466 L 5.0 21.55000000000466 L 5.0 25.000000000004658 L 21.5 25.000000000004658 L 21.5 40.77499999999185 L 25.0 40.77499999999185 L 25.0 50.775000000017464 L 21.5 50.775000000017464 L 21.5 66.55000000000466 L -21.5 66.55000000000466 L -21.5 50.775000000017464 L -25.0 50.775000000017464 L -25.0 40.77499999999185 L -21.5 40.77499999999185 L -21.5 25.000000000004658 " stroke="#000000" stroke-width="0.7 px" style="stroke-width:0.7;stroke-miterlimit:4;stroke-dasharray:none;stroke-linecap:square;fill:none;fill-opacity:1;fill-rule: evenodd"/>
<path id="Sketch002_w0001"  d="M -21.563856 -25.0 L -5.0 -25.0 L -5.0 -21.55 L 5.0 -21.55 L 5.0 -25.0 L 21.55 -25.0 L 21.55 -40.77499999998847 L 25.0 -40.77499999998847 L 25.0 -50.77499999997694 L 21.55 -50.77499999997694 L 21.55 -66.55 L -21.55 -66.55 L -21.55 -50.77499999997694 L -25.0 -50.77499999997694 L -25.0 -40.77499999998847 L -21.55 -40.77499999998847 L -21.55 -25.0 " stroke="#000000" stroke-width="0.7 px" style="stroke-width:0.7;stroke-miterlimit:4;stroke-dasharray:none;stroke-linecap:square;fill:none;fill-opacity:1;fill-rule: evenodd"/>
<title>b'Sketch002'</title>
</g>
</svg>