# FreeCAD v0.21 build1 Arch module
# http://www.freecad.org
mtllib pendant-cover-Body.mtl
o Body
usemtl color_f0efdd
v 45.0 0.0 0.0
v 42.286167 15.390906 0.0
v 45.0 0.0 200.0
v 42.286167 15.390906 200.0
v 34.472 28.925442 0.0
v 34.472 28.925442 200.0
v 22.5 38.971142 0.0
v 22.5 38.971142 200.0
v 7.814168 44.316349 200.0
v 7.814168 44.316349 0.0
v -7.814168 44.316349 0.0
v -7.814168 44.316349 200.0
v -22.5 38.971142 0.0
v -22.5 38.971142 200.0
v -34.472 28.925442 0.0
v -34.472 28.925442 200.0
v -42.286167 15.390906 0.0
v -42.286167 15.390906 200.0
v -45.0 0.0 200.0
v -45.0 0.0 0.0
v -42.286167 -15.390906 0.0
v -42.286167 -15.390906 200.0
v -34.472 -28.925442 0.0
v -34.472 -28.925442 200.0
v -22.5 -38.971142 0.0
v -22.5 -38.971142 200.0
v -7.814168 -44.316349 0.0
v -7.814168 -44.316349 200.0
v 7.814168 -44.316349 200.0
v 7.814168 -44.316349 0.0
v 22.5 -38.971142 0.0
v 22.5 -38.971142 200.0
v 34.472 -28.925442 0.0
v 34.472 -28.925442 200.0
v 42.286167 -15.390906 0.0
v 42.286167 -15.390906 200.0
v -21.903919 -37.938702 200.0
v -33.55875 -28.159136 200.0
v -41.165901 -14.983163 200.0
v -7.607151 -43.1423 200.0
v -43.807838 0.0 200.0
v 7.607151 -43.1423 200.0
v -41.165901 14.983163 200.0
v 21.903919 -37.938702 200.0
v -33.55875 28.159136 200.0
v 33.55875 -28.159136 200.0
v -21.903919 37.938702 200.0
v 41.165901 -14.983163 200.0
v -7.607151 43.1423 200.0
v 43.807838 0.0 200.0
v 7.607151 43.1423 200.0
v 41.165901 14.983163 200.0
v 21.903919 37.938702 200.0
v 33.55875 28.159136 200.0
v 43.807838 0.0 2.0
v 41.165901 14.983163 2.0
v 33.55875 28.159136 2.0
v 21.903919 37.938702 2.0
v 7.607151 43.1423 2.0
v -7.607151 43.1423 2.0
v -21.903919 37.938702 2.0
v -33.55875 28.159136 2.0
v -41.165901 14.983163 2.0
v -43.807838 0.0 2.0
v -41.165901 -14.983163 2.0
v -33.55875 -28.159136 2.0
v -21.903919 -37.938702 2.0
v -7.607151 -43.1423 2.0
v 7.607151 -43.1423 2.0
v 21.903919 -37.938702 2.0
v 33.55875 -28.159136 2.0
v 41.165901 -14.983163 2.0
vn 0.9848076701164246 0.17364823818206787 -0.0
vn 0.9848076701164246 0.17364823818206787 0.0
vn 0.8660253882408142 0.4999999701976776 0.0
vn 0.8660253882408142 0.4999999701976776 -0.0
vn 0.6427876353263855 0.7660444378852844 0.0
vn 0.3420202136039734 0.9396925568580627 0.0
vn 0.6427876353263855 0.7660444378852844 -0.0
vn 0.3420202136039734 0.9396925568580627 0.0
vn 0.0 1.0 0.0
vn 0.0 1.0 -0.0
vn -0.3420202136039734 0.9396925568580627 0.0
vn -0.3420202136039734 0.9396925568580627 0.0
vn -0.6427876353263855 0.7660444378852844 0.0
vn -0.6427876353263855 0.7660444378852844 0.0
vn -0.8660253882408142 0.4999999701976776 0.0
vn -0.9848076701164246 0.17364823818206787 0.0
vn -0.8660253882408142 0.4999999701976776 0.0
vn -0.9848076701164246 0.17364823818206787 0.0
vn -0.9848076701164246 -0.17364823818206787 0.0
vn -0.9848076701164246 -0.17364823818206787 0.0
vn -0.8660253882408142 -0.4999999701976776 0.0
vn -0.8660253882408142 -0.4999999701976776 0.0
vn -0.6427876353263855 -0.7660444378852844 0.0
vn -0.6427876353263855 -0.7660444378852844 0.0
vn -0.3420202136039734 -0.9396925568580627 0.0
vn 0.0 -1.0 0.0
vn -0.3420202136039734 -0.9396925568580627 0.0
vn 0.0 -1.0 0.0
vn 0.3420202136039734 -0.9396925568580627 0.0
vn 0.3420202136039734 -0.9396925568580627 0.0
vn 0.6427876353263855 -0.7660444378852844 0.0
vn 0.6427876353263855 -0.7660444378852844 0.0
vn 0.8660253882408142 -0.4999999701976776 0.0
vn 0.8660253882408142 -0.4999999701976776 0.0
vn 0.9848076701164246 -0.17364823818206787 0.0
vn 0.9848076701164246 -0.17364823818206787 0.0
vn 0.0 0.0 -1.0
vn 0.0 0.0 -1.0
vn 0.0 0.0 -1.0
vn 0.0 0.0 -1.0
vn 0.0 -0.0 -1.0
vn 0.0 0.0 -1.0
vn 0.0 0.0 -1.0
vn 0.0 0.0 -1.0
vn 0.0 0.0 -1.0
vn -0.0 -0.0 -1.0
vn 0.0 0.0 -1.0
vn 0.0 -0.0 -1.0
vn 0.0 -0.0 -1.0
vn 0.0 -0.0 -1.0
vn -0.0 -0.0 -1.0
vn 0.0 0.0 -1.0
vn 0.0 0.0 1.0
vn 0.0 0.0 1.0
vn 0.0 0.0 1.0
vn 0.0 0.0 1.0
vn 0.0 0.0 1.0
vn 0.0 0.0 1.0
vn 0.0 0.0 1.0
vn 0.0 0.0 1.0
vn 0.0 0.0 1.0
vn 0.0 0.0 1.0
vn 0.0 0.0 1.0
vn 0.0 0.0 1.0
vn 0.0 0.0 1.0
vn 0.0 0.0 1.0
vn 0.0 0.0 1.0
vn 0.0 0.0 1.0
vn 0.0 0.0 1.0
vn 0.0 0.0 1.0
vn 0.0 0.0 1.0
vn 0.0 0.0 1.0
vn 0.0 0.0 1.0
vn 0.0 0.0 1.0
vn 0.0 0.0 1.0
vn 0.0 0.0 1.0
vn 0.0 0.0 1.0
vn 0.0 0.0 1.0
vn 0.0 0.0 1.0
vn 0.0 0.0 1.0
vn 0.0 0.0 1.0
vn 0.0 0.0 1.0
vn 0.0 0.0 1.0
vn 0.0 0.0 1.0
vn 0.0 0.0 1.0
vn 0.0 0.0 1.0
vn 0.0 0.0 1.0
vn 0.0 0.0 1.0
vn -0.9848077297210693 -0.17364826798439026 -0.0
vn -0.9848077297210693 -0.17364826798439026 0.0
vn -0.8660253882408142 -0.5 0.0
vn -0.8660253882408142 -0.5 0.0
vn -0.6427876949310303 -0.7660444378852844 0.0
vn -0.3420201539993286 -0.9396926164627075 0.0
vn -0.6427876949310303 -0.7660444378852844 -0.0
vn -0.3420201539993286 -0.9396926164627075 0.0
vn 0.0 -1.0 0.0
vn -0.0 -1.0 -0.0
vn 0.3420201539993286 -0.9396926164627075 0.0
vn 0.3420201539993286 -0.9396926164627075 0.0
vn 0.6427876949310303 -0.7660444378852844 0.0
vn 0.8660253882408142 -0.5 0.0
vn 0.6427876949310303 -0.7660444378852844 0.0
vn 0.9848077297210693 -0.17364826798439026 0.0
vn 0.8660253882408142 -0.5 0.0
vn 0.9848077297210693 -0.17364826798439026 0.0
vn 0.9848077297210693 0.17364826798439026 0.0
vn 0.9848077297210693 0.17364826798439026 0.0
vn 0.8660253882408142 0.5 0.0
vn 0.8660253882408142 0.5 0.0
vn 0.6427876949310303 0.7660444378852844 0.0
vn 0.3420201539993286 0.9396926164627075 -0.0
vn 0.6427876949310303 0.7660444378852844 0.0
vn 0.3420201539993286 0.9396926164627075 0.0
vn 0.0 1.0 0.0
vn -0.0 1.0 0.0
vn -0.3420201539993286 0.9396926164627075 0.0
vn -0.3420201539993286 0.9396926164627075 0.0
vn -0.6427876949310303 0.7660444378852844 0.0
vn -0.6427876949310303 0.7660444378852844 0.0
vn -0.8660253882408142 0.5 0.0
vn -0.8660253882408142 0.5 0.0
vn -0.9848077297210693 0.17364826798439026 0.0
vn -0.9848077297210693 0.17364826798439026 0.0
vn 0.0 0.0 1.0
vn 0.0 0.0 1.0
vn 0.0 0.0 1.0
vn 0.0 0.0 1.0
vn 0.0 0.0 1.0
vn 0.0 0.0 1.0
vn 0.0 0.0 1.0
vn 0.0 0.0 1.0
vn 0.0 0.0 1.0
vn 0.0 0.0 1.0
vn 0.0 0.0 1.0
vn 0.0 0.0 1.0
vn 0.0 0.0 1.0
vn 0.0 0.0 1.0
vn 0.0 0.0 1.0
vn 0.0 0.0 1.0
f 1//1 2//1 3//1 
f 3//2 2//2 4//2 
f 4//3 5//3 6//3 
f 2//4 5//4 4//4 
f 6//5 7//5 8//5 
f 8//6 7//6 9//6 
f 5//7 7//7 6//7 
f 7//8 10//8 9//8 
f 9//9 11//9 12//9 
f 10//10 11//10 9//10 
f 12//11 13//11 14//11 
f 11//12 13//12 12//12 
f 14//13 15//13 16//13 
f 13//14 15//14 14//14 
f 16//15 17//15 18//15 
f 18//16 17//16 19//16 
f 15//17 17//17 16//17 
f 17//18 20//18 19//18 
f 19//19 21//19 22//19 
f 20//20 21//20 19//20 
f 22//21 23//21 24//21 
f 21//22 23//22 22//22 
f 24//23 25//23 26//23 
f 23//24 25//24 24//24 
f 26//25 27//25 28//25 
f 28//26 27//26 29//26 
f 25//27 27//27 26//27 
f 27//28 30//28 29//28 
f 30//29 31//29 29//29 
f 29//30 31//30 32//30 
f 31//31 33//31 32//31 
f 32//32 33//32 34//32 
f 33//33 35//33 34//33 
f 34//34 35//34 36//34 
f 35//35 1//35 36//35 
f 36//36 1//36 3//36 
f 23//37 27//37 25//37 
f 21//38 20//38 23//38 
f 27//39 31//39 30//39 
f 23//40 31//40 27//40 
f 17//41 15//41 20//41 
f 31//42 35//42 33//42 
f 20//43 1//43 23//43 
f 23//44 1//44 31//44 
f 31//45 1//45 35//45 
f 10//46 7//46 11//46 
f 1//47 5//47 2//47 
f 11//48 5//48 13//48 
f 13//49 5//49 15//49 
f 15//50 5//50 20//50 
f 7//51 5//51 11//51 
f 20//52 5//52 1//52 
f 37//53 24//53 26//53 
f 37//54 38//54 24//54 
f 22//55 24//55 38//55 
f 39//56 22//56 38//56 
f 28//57 37//57 26//57 
f 40//58 37//58 28//58 
f 41//59 19//59 22//59 
f 41//60 22//60 39//60 
f 42//61 28//61 29//61 
f 42//62 40//62 28//62 
f 43//63 18//63 19//63 
f 43//64 19//64 41//64 
f 44//65 29//65 32//65 
f 44//66 42//66 29//66 
f 45//67 16//67 18//67 
f 45//68 18//68 43//68 
f 34//69 46//69 44//69 
f 34//70 44//70 32//70 
f 14//71 45//71 47//71 
f 14//72 16//72 45//72 
f 48//73 46//73 34//73 
f 36//74 48//74 34//74 
f 49//75 14//75 47//75 
f 12//76 14//76 49//76 
f 50//77 48//77 36//77 
f 3//78 50//78 36//78 
f 51//79 12//79 49//79 
f 9//80 12//80 51//80 
f 4//81 52//81 50//81 
f 4//82 50//82 3//82 
f 8//83 51//83 53//83 
f 8//84 9//84 51//84 
f 6//85 8//85 53//85 
f 6//86 54//86 52//86 
f 6//87 53//87 54//87 
f 6//88 52//88 4//88 
f 50//89 52//89 55//89 
f 55//90 52//90 56//90 
f 56//91 52//91 57//91 
f 52//92 54//92 57//92 
f 57//93 53//93 58//93 
f 58//94 53//94 59//94 
f 54//95 53//95 57//95 
f 53//96 51//96 59//96 
f 59//97 49//97 60//97 
f 51//98 49//98 59//98 
f 60//99 47//99 61//99 
f 49//100 47//100 60//100 
f 61//101 45//101 62//101 
f 62//102 45//102 63//102 
f 47//103 45//103 61//103 
f 63//104 43//104 64//104 
f 45//105 43//105 63//105 
f 43//106 41//106 64//106 
f 64//107 39//107 65//107 
f 41//108 39//108 64//108 
f 65//109 38//109 66//109 
f 39//110 38//110 65//110 
f 66//111 37//111 67//111 
f 67//112 37//112 68//112 
f 38//113 37//113 66//113 
f 37//114 40//114 68//114 
f 68//115 42//115 69//115 
f 40//116 42//116 68//116 
f 42//117 44//117 69//117 
f 69//118 44//118 70//118 
f 44//119 46//119 70//119 
f 70//120 46//120 71//120 
f 46//121 48//121 71//121 
f 71//122 48//122 72//122 
f 48//123 50//123 72//123 
f 72//124 50//124 55//124 
f 64//125 65//125 66//125 
f 70//126 66//126 67//126 
f 70//127 67//127 68//127 
f 70//128 68//128 69//128 
f 72//129 70//129 71//129 
f 60//130 61//130 62//130 
f 60//131 62//131 63//131 
f 55//132 64//132 66//132 
f 55//133 66//133 70//133 
f 55//134 70//134 72//134 
f 57//135 55//135 56//135 
f 57//136 58//136 59//136 
f 57//137 59//137 60//137 
f 57//138 63//138 64//138 
f 57//139 60//139 63//139 
f 57//140 64//140 55//140 
