ISO-10303-21;
HEADER;
FILE_DESCRIPTION(('FreeCAD Model'),'2;1');
FILE_NAME('Open CASCADE Shape Model','2025-10-05T17:47:29',(''),(''),
  'Open CASCADE STEP processor 7.8','FreeCAD','Unknown');
FILE_SCHEMA(('AUTOMOTIVE_DESIGN { 1 0 10303 214 1 1 1 1 }'));
ENDSEC;
DATA;
#1 = APPLICATION_PROTOCOL_DEFINITION('international standard',
  'automotive_design',2000,#2);
#2 = APPLICATION_CONTEXT(
  'core data for automotive mechanical design processes');
#3 = SHAPE_DEFINITION_REPRESENTATION(#4,#10);
#4 = PRODUCT_DEFINITION_SHAPE('','',#5);
#5 = PRODUCT_DEFINITION('design','',#6,#9);
#6 = PRODUCT_DEFINITION_FORMATION('','',#7);
#7 = PRODUCT('corner-nub','corner-nub','',(#8));
#8 = PRODUCT_CONTEXT('',#2,'mechanical');
#9 = PRODUCT_DEFINITION_CONTEXT('part definition',#2,'design');
#10 = ADVANCED_BREP_SHAPE_REPRESENTATION('',(#11,#15),#1314);
#11 = AXIS2_PLACEMENT_3D('',#12,#13,#14);
#12 = CARTESIAN_POINT('',(0.,0.,0.));
#13 = DIRECTION('',(0.,0.,1.));
#14 = DIRECTION('',(1.,0.,-0.));
#15 = MANIFOLD_SOLID_BREP('',#16);
#16 = CLOSED_SHELL('',(#17,#224,#359,#408,#536,#644,#693,#789,#959,#1065
    ,#1071,#1169,#1196,#1203,#1209,#1285));
#17 = ADVANCED_FACE('',(#18,#193),#32,.F.);
#18 = FACE_BOUND('',#19,.F.);
#19 = EDGE_LOOP('',(#20,#55,#83,#111,#139,#167));
#20 = ORIENTED_EDGE('',*,*,#21,.F.);
#21 = EDGE_CURVE('',#22,#24,#26,.T.);
#22 = VERTEX_POINT('',#23);
#23 = CARTESIAN_POINT('',(157.,-1.7763568394E-15,-8.));
#24 = VERTEX_POINT('',#25);
#25 = CARTESIAN_POINT('',(157.,3.449511183295E-15,11.562742251701));
#26 = SURFACE_CURVE('',#27,(#31,#43),.PCURVE_S1.);
#27 = LINE('',#28,#29);
#28 = CARTESIAN_POINT('',(157.,-1.7763568394E-15,-8.));
#29 = VECTOR('',#30,1.);
#30 = DIRECTION('',(0.,2.22044604925E-16,1.));
#31 = PCURVE('',#32,#37);
#32 = PLANE('',#33);
#33 = AXIS2_PLACEMENT_3D('',#34,#35,#36);
#34 = CARTESIAN_POINT('',(157.,-1.7763568394E-15,-8.));
#35 = DIRECTION('',(-1.,0.,0.));
#36 = DIRECTION('',(0.,2.22044604925E-16,1.));
#37 = DEFINITIONAL_REPRESENTATION('',(#38),#42);
#38 = LINE('',#39,#40);
#39 = CARTESIAN_POINT('',(-8.75811540203E-47,-3.944304526105E-31));
#40 = VECTOR('',#41,1.);
#41 = DIRECTION('',(1.,4.930380657631E-32));
#42 = ( GEOMETRIC_REPRESENTATION_CONTEXT(2) 
PARAMETRIC_REPRESENTATION_CONTEXT() REPRESENTATION_CONTEXT('2D SPACE',''
  ) );
#43 = PCURVE('',#44,#49);
#44 = PLANE('',#45);
#45 = AXIS2_PLACEMENT_3D('',#46,#47,#48);
#46 = CARTESIAN_POINT('',(151.5,1.254227474461E-15,5.648538386622));
#47 = DIRECTION('',(0.,1.,-9.860761315263E-32));
#48 = DIRECTION('',(0.,9.860761315263E-32,1.));
#49 = DEFINITIONAL_REPRESENTATION('',(#50),#54);
#50 = LINE('',#51,#52);
#51 = CARTESIAN_POINT('',(-13.64853838662,5.5));
#52 = VECTOR('',#53,1.);
#53 = DIRECTION('',(1.,0.));
#54 = ( GEOMETRIC_REPRESENTATION_CONTEXT(2) 
PARAMETRIC_REPRESENTATION_CONTEXT() REPRESENTATION_CONTEXT('2D SPACE',''
  ) );
#55 = ORIENTED_EDGE('',*,*,#56,.T.);
#56 = EDGE_CURVE('',#22,#57,#59,.T.);
#57 = VERTEX_POINT('',#58);
#58 = CARTESIAN_POINT('',(157.,-10.,-8.));
#59 = SURFACE_CURVE('',#60,(#64,#71),.PCURVE_S1.);
#60 = LINE('',#61,#62);
#61 = CARTESIAN_POINT('',(157.,-1.7763568394E-15,-8.));
#62 = VECTOR('',#63,1.);
#63 = DIRECTION('',(0.,-1.,2.22044604925E-16));
#64 = PCURVE('',#32,#65);
#65 = DEFINITIONAL_REPRESENTATION('',(#66),#70);
#66 = LINE('',#67,#68);
#67 = CARTESIAN_POINT('',(0.,0.));
#68 = VECTOR('',#69,1.);
#69 = DIRECTION('',(0.,-1.));
#70 = ( GEOMETRIC_REPRESENTATION_CONTEXT(2) 
PARAMETRIC_REPRESENTATION_CONTEXT() REPRESENTATION_CONTEXT('2D SPACE',''
  ) );
#71 = PCURVE('',#72,#77);
#72 = PLANE('',#73);
#73 = AXIS2_PLACEMENT_3D('',#74,#75,#76);
#74 = CARTESIAN_POINT('',(146.,-1.7763568394E-15,-8.));
#75 = DIRECTION('',(0.,2.22044604925E-16,1.));
#76 = DIRECTION('',(1.,0.,0.));
#77 = DEFINITIONAL_REPRESENTATION('',(#78),#82);
#78 = LINE('',#79,#80);
#79 = CARTESIAN_POINT('',(11.,0.));
#80 = VECTOR('',#81,1.);
#81 = DIRECTION('',(0.,-1.));
#82 = ( GEOMETRIC_REPRESENTATION_CONTEXT(2) 
PARAMETRIC_REPRESENTATION_CONTEXT() REPRESENTATION_CONTEXT('2D SPACE',''
  ) );
#83 = ORIENTED_EDGE('',*,*,#84,.T.);
#84 = EDGE_CURVE('',#57,#85,#87,.T.);
#85 = VERTEX_POINT('',#86);
#86 = CARTESIAN_POINT('',(157.,-10.,11.562742251701));
#87 = SURFACE_CURVE('',#88,(#92,#99),.PCURVE_S1.);
#88 = LINE('',#89,#90);
#89 = CARTESIAN_POINT('',(157.,-10.,-8.));
#90 = VECTOR('',#91,1.);
#91 = DIRECTION('',(0.,2.22044604925E-16,1.));
#92 = PCURVE('',#32,#93);
#93 = DEFINITIONAL_REPRESENTATION('',(#94),#98);
#94 = LINE('',#95,#96);
#95 = CARTESIAN_POINT('',(1.33226762955E-15,-10.));
#96 = VECTOR('',#97,1.);
#97 = DIRECTION('',(1.,4.930380657631E-32));
#98 = ( GEOMETRIC_REPRESENTATION_CONTEXT(2) 
PARAMETRIC_REPRESENTATION_CONTEXT() REPRESENTATION_CONTEXT('2D SPACE',''
  ) );
#99 = PCURVE('',#100,#105);
#100 = PLANE('',#101);
#101 = AXIS2_PLACEMENT_3D('',#102,#103,#104);
#102 = CARTESIAN_POINT('',(151.5,-10.,5.648538386622));
#103 = DIRECTION('',(0.,1.,-9.860761315263E-32));
#104 = DIRECTION('',(0.,9.860761315263E-32,1.));
#105 = DEFINITIONAL_REPRESENTATION('',(#106),#110);
#106 = LINE('',#107,#108);
#107 = CARTESIAN_POINT('',(-13.64853838662,5.5));
#108 = VECTOR('',#109,1.);
#109 = DIRECTION('',(1.,0.));
#110 = ( GEOMETRIC_REPRESENTATION_CONTEXT(2) 
PARAMETRIC_REPRESENTATION_CONTEXT() REPRESENTATION_CONTEXT('2D SPACE',''
  ) );
#111 = ORIENTED_EDGE('',*,*,#112,.T.);
#112 = EDGE_CURVE('',#85,#113,#115,.T.);
#113 = VERTEX_POINT('',#114);
#114 = CARTESIAN_POINT('',(157.,-9.956611880994,12.));
#115 = SURFACE_CURVE('',#116,(#120,#127),.PCURVE_S1.);
#116 = LINE('',#117,#118);
#117 = CARTESIAN_POINT('',(157.,-10.41965652131,7.333518450944));
#118 = VECTOR('',#119,1.);
#119 = DIRECTION('',(0.,9.874285972226E-02,0.995112982356));
#120 = PCURVE('',#32,#121);
#121 = DEFINITIONAL_REPRESENTATION('',(#122),#126);
#122 = LINE('',#123,#124);
#123 = CARTESIAN_POINT('',(15.333518450944,-10.41965652131));
#124 = VECTOR('',#125,1.);
#125 = DIRECTION('',(0.995112982356,9.874285972226E-02));
#126 = ( GEOMETRIC_REPRESENTATION_CONTEXT(2) 
PARAMETRIC_REPRESENTATION_CONTEXT() REPRESENTATION_CONTEXT('2D SPACE',''
  ) );
#127 = PCURVE('',#128,#133);
#128 = PLANE('',#129);
#129 = AXIS2_PLACEMENT_3D('',#130,#131,#132);
#130 = CARTESIAN_POINT('',(155.81346899236,-9.,21.49224806112));
#131 = DIRECTION('',(-1.234191737941E-02,-0.99503719021,
    9.873533903527E-02));
#132 = DIRECTION('',(0.123419173794,-9.9503719021E-02,-0.987353390353));
#133 = DEFINITIONAL_REPRESENTATION('',(#134),#138);
#134 = LINE('',#135,#136);
#135 = CARTESIAN_POINT('',(14.267371463941,-0.578805800403));
#136 = VECTOR('',#137,1.);
#137 = DIRECTION('',(-0.992353458683,0.123428574653));
#138 = ( GEOMETRIC_REPRESENTATION_CONTEXT(2) 
PARAMETRIC_REPRESENTATION_CONTEXT() REPRESENTATION_CONTEXT('2D SPACE',''
  ) );
#139 = ORIENTED_EDGE('',*,*,#140,.F.);
#140 = EDGE_CURVE('',#141,#113,#143,.T.);
#141 = VERTEX_POINT('',#142);
#142 = CARTESIAN_POINT('',(157.,-4.338811900582E-02,12.));
#143 = SURFACE_CURVE('',#144,(#148,#155),.PCURVE_S1.);
#144 = LINE('',#145,#146);
#145 = CARTESIAN_POINT('',(157.,2.6645352591E-15,12.));
#146 = VECTOR('',#147,1.);
#147 = DIRECTION('',(0.,-1.,2.22044604925E-16));
#148 = PCURVE('',#32,#149);
#149 = DEFINITIONAL_REPRESENTATION('',(#150),#154);
#150 = LINE('',#151,#152);
#151 = CARTESIAN_POINT('',(20.,7.88860905221E-31));
#152 = VECTOR('',#153,1.);
#153 = DIRECTION('',(0.,-1.));
#154 = ( GEOMETRIC_REPRESENTATION_CONTEXT(2) 
PARAMETRIC_REPRESENTATION_CONTEXT() REPRESENTATION_CONTEXT('2D SPACE',''
  ) );
#155 = PCURVE('',#156,#161);
#156 = PLANE('',#157);
#157 = AXIS2_PLACEMENT_3D('',#158,#159,#160);
#158 = CARTESIAN_POINT('',(157.,2.6645352591E-15,12.));
#159 = DIRECTION('',(-0.992277876714,-2.754124363884E-17,-0.124034734589
    ));
#160 = DIRECTION('',(-0.124034734589,2.203299491107E-16,0.992277876714)
  );
#161 = DEFINITIONAL_REPRESENTATION('',(#162),#166);
#162 = LINE('',#163,#164);
#163 = CARTESIAN_POINT('',(0.,0.));
#164 = VECTOR('',#165,1.);
#165 = DIRECTION('',(0.,-1.));
#166 = ( GEOMETRIC_REPRESENTATION_CONTEXT(2) 
PARAMETRIC_REPRESENTATION_CONTEXT() REPRESENTATION_CONTEXT('2D SPACE',''
  ) );
#167 = ORIENTED_EDGE('',*,*,#168,.F.);
#168 = EDGE_CURVE('',#24,#141,#169,.T.);
#169 = SURFACE_CURVE('',#170,(#174,#181),.PCURVE_S1.);
#170 = LINE('',#171,#172);
#171 = CARTESIAN_POINT('',(157.,0.468407283047,6.842216942821));
#172 = VECTOR('',#173,1.);
#173 = DIRECTION('',(0.,-9.874285972226E-02,0.995112982356));
#174 = PCURVE('',#32,#175);
#175 = DEFINITIONAL_REPRESENTATION('',(#176),#180);
#176 = LINE('',#177,#178);
#177 = CARTESIAN_POINT('',(14.842216942821,0.468407283047));
#178 = VECTOR('',#179,1.);
#179 = DIRECTION('',(0.995112982356,-9.874285972226E-02));
#180 = ( GEOMETRIC_REPRESENTATION_CONTEXT(2) 
PARAMETRIC_REPRESENTATION_CONTEXT() REPRESENTATION_CONTEXT('2D SPACE',''
  ) );
#181 = PCURVE('',#182,#187);
#182 = PLANE('',#183);
#183 = AXIS2_PLACEMENT_3D('',#184,#185,#186);
#184 = CARTESIAN_POINT('',(155.81346899236,-1.,21.49224806112));
#185 = DIRECTION('',(1.234191737941E-02,-0.99503719021,
    -9.873533903527E-02));
#186 = DIRECTION('',(0.123419173794,9.9503719021E-02,-0.987353390353));
#187 = DEFINITIONAL_REPRESENTATION('',(#188),#192);
#188 = LINE('',#189,#190);
#189 = CARTESIAN_POINT('',(14.757310555769,-0.639744252566));
#190 = VECTOR('',#191,1.);
#191 = DIRECTION('',(-0.992353458683,0.123428574653));
#192 = ( GEOMETRIC_REPRESENTATION_CONTEXT(2) 
PARAMETRIC_REPRESENTATION_CONTEXT() REPRESENTATION_CONTEXT('2D SPACE',''
  ) );
#193 = FACE_BOUND('',#194,.F.);
#194 = EDGE_LOOP('',(#195));
#195 = ORIENTED_EDGE('',*,*,#196,.F.);
#196 = EDGE_CURVE('',#197,#197,#199,.T.);
#197 = VERTEX_POINT('',#198);
#198 = CARTESIAN_POINT('',(157.,-5.,3.6));
#199 = SURFACE_CURVE('',#200,(#205,#212),.PCURVE_S1.);
#200 = CIRCLE('',#201,1.8);
#201 = AXIS2_PLACEMENT_3D('',#202,#203,#204);
#202 = CARTESIAN_POINT('',(157.,-5.,5.4));
#203 = DIRECTION('',(-1.,-0.,2.22044604925E-16));
#204 = DIRECTION('',(-2.22044604925E-16,0.,-1.));
#205 = PCURVE('',#32,#206);
#206 = DEFINITIONAL_REPRESENTATION('',(#207),#211);
#207 = CIRCLE('',#208,1.8);
#208 = AXIS2_PLACEMENT_2D('',#209,#210);
#209 = CARTESIAN_POINT('',(13.4,-5.));
#210 = DIRECTION('',(-1.,2.22044604925E-16));
#211 = ( GEOMETRIC_REPRESENTATION_CONTEXT(2) 
PARAMETRIC_REPRESENTATION_CONTEXT() REPRESENTATION_CONTEXT('2D SPACE',''
  ) );
#212 = PCURVE('',#213,#218);
#213 = CYLINDRICAL_SURFACE('',#214,1.8);
#214 = AXIS2_PLACEMENT_3D('',#215,#216,#217);
#215 = CARTESIAN_POINT('',(143.,-5.,5.4));
#216 = DIRECTION('',(-1.,-0.,2.22044604925E-16));
#217 = DIRECTION('',(-2.22044604925E-16,0.,-1.));
#218 = DEFINITIONAL_REPRESENTATION('',(#219),#223);
#219 = LINE('',#220,#221);
#220 = CARTESIAN_POINT('',(-6.28318530718,-14.));
#221 = VECTOR('',#222,1.);
#222 = DIRECTION('',(1.,-0.));
#223 = ( GEOMETRIC_REPRESENTATION_CONTEXT(2) 
PARAMETRIC_REPRESENTATION_CONTEXT() REPRESENTATION_CONTEXT('2D SPACE',''
  ) );
#224 = ADVANCED_FACE('',(#225,#328),#44,.T.);
#225 = FACE_BOUND('',#226,.T.);
#226 = EDGE_LOOP('',(#227,#228,#251,#279,#307));
#227 = ORIENTED_EDGE('',*,*,#21,.F.);
#228 = ORIENTED_EDGE('',*,*,#229,.F.);
#229 = EDGE_CURVE('',#230,#22,#232,.T.);
#230 = VERTEX_POINT('',#231);
#231 = CARTESIAN_POINT('',(146.,-1.7763568394E-15,-8.));
#232 = SURFACE_CURVE('',#233,(#237,#244),.PCURVE_S1.);
#233 = LINE('',#234,#235);
#234 = CARTESIAN_POINT('',(146.,-1.7763568394E-15,-8.));
#235 = VECTOR('',#236,1.);
#236 = DIRECTION('',(1.,0.,0.));
#237 = PCURVE('',#44,#238);
#238 = DEFINITIONAL_REPRESENTATION('',(#239),#243);
#239 = LINE('',#240,#241);
#240 = CARTESIAN_POINT('',(-13.64853838662,-5.5));
#241 = VECTOR('',#242,1.);
#242 = DIRECTION('',(0.,1.));
#243 = ( GEOMETRIC_REPRESENTATION_CONTEXT(2) 
PARAMETRIC_REPRESENTATION_CONTEXT() REPRESENTATION_CONTEXT('2D SPACE',''
  ) );
#244 = PCURVE('',#72,#245);
#245 = DEFINITIONAL_REPRESENTATION('',(#246),#250);
#246 = LINE('',#247,#248);
#247 = CARTESIAN_POINT('',(0.,-3.944304526105E-31));
#248 = VECTOR('',#249,1.);
#249 = DIRECTION('',(1.,0.));
#250 = ( GEOMETRIC_REPRESENTATION_CONTEXT(2) 
PARAMETRIC_REPRESENTATION_CONTEXT() REPRESENTATION_CONTEXT('2D SPACE',''
  ) );
#251 = ORIENTED_EDGE('',*,*,#252,.F.);
#252 = EDGE_CURVE('',#253,#230,#255,.T.);
#253 = VERTEX_POINT('',#254);
#254 = CARTESIAN_POINT('',(146.,2.512471290731E-15,11.315164768716));
#255 = SURFACE_CURVE('',#256,(#260,#267),.PCURVE_S1.);
#256 = LINE('',#257,#258);
#257 = CARTESIAN_POINT('',(146.,2.6645352591E-15,12.));
#258 = VECTOR('',#259,1.);
#259 = DIRECTION('',(0.,-2.22044604925E-16,-1.));
#260 = PCURVE('',#44,#261);
#261 = DEFINITIONAL_REPRESENTATION('',(#262),#266);
#262 = LINE('',#263,#264);
#263 = CARTESIAN_POINT('',(6.351461613378,-5.5));
#264 = VECTOR('',#265,1.);
#265 = DIRECTION('',(-1.,0.));
#266 = ( GEOMETRIC_REPRESENTATION_CONTEXT(2) 
PARAMETRIC_REPRESENTATION_CONTEXT() REPRESENTATION_CONTEXT('2D SPACE',''
  ) );
#267 = PCURVE('',#268,#273);
#268 = PLANE('',#269);
#269 = AXIS2_PLACEMENT_3D('',#270,#271,#272);
#270 = CARTESIAN_POINT('',(146.,2.6645352591E-15,12.));
#271 = DIRECTION('',(1.,0.,0.));
#272 = DIRECTION('',(0.,-2.22044604925E-16,-1.));
#273 = DEFINITIONAL_REPRESENTATION('',(#274),#278);
#274 = LINE('',#275,#276);
#275 = CARTESIAN_POINT('',(-8.75811540203E-47,3.944304526105E-31));
#276 = VECTOR('',#277,1.);
#277 = DIRECTION('',(1.,-4.930380657631E-32));
#278 = ( GEOMETRIC_REPRESENTATION_CONTEXT(2) 
PARAMETRIC_REPRESENTATION_CONTEXT() REPRESENTATION_CONTEXT('2D SPACE',''
  ) );
#279 = ORIENTED_EDGE('',*,*,#280,.T.);
#280 = EDGE_CURVE('',#253,#281,#283,.T.);
#281 = VERTEX_POINT('',#282);
#282 = CARTESIAN_POINT('',(146.1387596944,4.331577831461E-15,
    10.205087213502));
#283 = SURFACE_CURVE('',#284,(#288,#295),.PCURVE_S1.);
#284 = LINE('',#285,#286);
#285 = CARTESIAN_POINT('',(146.13686330894,1.139845547876E-15,
    10.220258297193));
#286 = VECTOR('',#287,1.);
#287 = DIRECTION('',(0.124034734589,-9.860761315263E-32,-0.992277876714)
  );
#288 = PCURVE('',#44,#289);
#289 = DEFINITIONAL_REPRESENTATION('',(#290),#294);
#290 = LINE('',#291,#292);
#291 = CARTESIAN_POINT('',(4.571719910571,-5.36313669106));
#292 = VECTOR('',#293,1.);
#293 = DIRECTION('',(-0.992277876714,0.124034734589));
#294 = ( GEOMETRIC_REPRESENTATION_CONTEXT(2) 
PARAMETRIC_REPRESENTATION_CONTEXT() REPRESENTATION_CONTEXT('2D SPACE',''
  ) );
#295 = PCURVE('',#296,#301);
#296 = PLANE('',#297);
#297 = AXIS2_PLACEMENT_3D('',#298,#299,#300);
#298 = CARTESIAN_POINT('',(145.49168029393,-5.,15.38172241727));
#299 = DIRECTION('',(0.992277876714,6.162975822039E-33,0.124034734589));
#300 = DIRECTION('',(-0.124034734589,4.930380657631E-32,0.992277876714)
  );
#301 = DEFINITIONAL_REPRESENTATION('',(#302),#306);
#302 = LINE('',#303,#304);
#303 = CARTESIAN_POINT('',(-5.201631761832,-5.));
#304 = VECTOR('',#305,1.);
#305 = DIRECTION('',(-1.,4.930380657631E-32));
#306 = ( GEOMETRIC_REPRESENTATION_CONTEXT(2) 
PARAMETRIC_REPRESENTATION_CONTEXT() REPRESENTATION_CONTEXT('2D SPACE',''
  ) );
#307 = ORIENTED_EDGE('',*,*,#308,.F.);
#308 = EDGE_CURVE('',#24,#281,#309,.T.);
#309 = SURFACE_CURVE('',#310,(#314,#321),.PCURVE_S1.);
#310 = LINE('',#311,#312);
#311 = CARTESIAN_POINT('',(157.05381633825,4.331577831461E-15,
    11.569469293983));
#312 = VECTOR('',#313,1.);
#313 = DIRECTION('',(-0.992277876714,-6.162975822039E-33,-0.124034734589
    ));
#314 = PCURVE('',#44,#315);
#315 = DEFINITIONAL_REPRESENTATION('',(#316),#320);
#316 = LINE('',#317,#318);
#317 = CARTESIAN_POINT('',(5.920930907361,5.553816338252));
#318 = VECTOR('',#319,1.);
#319 = DIRECTION('',(-0.124034734589,-0.992277876714));
#320 = ( GEOMETRIC_REPRESENTATION_CONTEXT(2) 
PARAMETRIC_REPRESENTATION_CONTEXT() REPRESENTATION_CONTEXT('2D SPACE',''
  ) );
#321 = PCURVE('',#182,#322);
#322 = DEFINITIONAL_REPRESENTATION('',(#323),#327);
#323 = LINE('',#324,#325);
#324 = CARTESIAN_POINT('',(10.049875621121,-9.992007221626E-15));
#325 = VECTOR('',#326,1.);
#326 = DIRECTION('',(-1.110223024625E-16,-1.));
#327 = ( GEOMETRIC_REPRESENTATION_CONTEXT(2) 
PARAMETRIC_REPRESENTATION_CONTEXT() REPRESENTATION_CONTEXT('2D SPACE',''
  ) );
#328 = FACE_BOUND('',#329,.T.);
#329 = EDGE_LOOP('',(#330));
#330 = ORIENTED_EDGE('',*,*,#331,.F.);
#331 = EDGE_CURVE('',#332,#332,#334,.T.);
#332 = VERTEX_POINT('',#333);
#333 = CARTESIAN_POINT('',(152.8,1.33226762955E-15,5.4));
#334 = SURFACE_CURVE('',#335,(#340,#347),.PCURVE_S1.);
#335 = CIRCLE('',#336,1.8);
#336 = AXIS2_PLACEMENT_3D('',#337,#338,#339);
#337 = CARTESIAN_POINT('',(151.,1.33226762955E-15,5.4));
#338 = DIRECTION('',(-0.,1.,2.22044604925E-16));
#339 = DIRECTION('',(1.,0.,0.));
#340 = PCURVE('',#44,#341);
#341 = DEFINITIONAL_REPRESENTATION('',(#342),#346);
#342 = CIRCLE('',#343,1.8);
#343 = AXIS2_PLACEMENT_2D('',#344,#345);
#344 = CARTESIAN_POINT('',(-0.248538386622,-0.5));
#345 = DIRECTION('',(0.,1.));
#346 = ( GEOMETRIC_REPRESENTATION_CONTEXT(2) 
PARAMETRIC_REPRESENTATION_CONTEXT() REPRESENTATION_CONTEXT('2D SPACE',''
  ) );
#347 = PCURVE('',#348,#353);
#348 = CYLINDRICAL_SURFACE('',#349,1.8);
#349 = AXIS2_PLACEMENT_3D('',#350,#351,#352);
#350 = CARTESIAN_POINT('',(151.,4.,5.4));
#351 = DIRECTION('',(-0.,1.,2.22044604925E-16));
#352 = DIRECTION('',(1.,0.,0.));
#353 = DEFINITIONAL_REPRESENTATION('',(#354),#358);
#354 = LINE('',#355,#356);
#355 = CARTESIAN_POINT('',(-6.28318530718,-4.));
#356 = VECTOR('',#357,1.);
#357 = DIRECTION('',(1.,-0.));
#358 = ( GEOMETRIC_REPRESENTATION_CONTEXT(2) 
PARAMETRIC_REPRESENTATION_CONTEXT() REPRESENTATION_CONTEXT('2D SPACE',''
  ) );
#359 = ADVANCED_FACE('',(#360),#72,.F.);
#360 = FACE_BOUND('',#361,.F.);
#361 = EDGE_LOOP('',(#362,#385,#406,#407));
#362 = ORIENTED_EDGE('',*,*,#363,.T.);
#363 = EDGE_CURVE('',#230,#364,#366,.T.);
#364 = VERTEX_POINT('',#365);
#365 = CARTESIAN_POINT('',(146.,-10.,-8.));
#366 = SURFACE_CURVE('',#367,(#371,#378),.PCURVE_S1.);
#367 = LINE('',#368,#369);
#368 = CARTESIAN_POINT('',(146.,-1.7763568394E-15,-8.));
#369 = VECTOR('',#370,1.);
#370 = DIRECTION('',(0.,-1.,2.22044604925E-16));
#371 = PCURVE('',#72,#372);
#372 = DEFINITIONAL_REPRESENTATION('',(#373),#377);
#373 = LINE('',#374,#375);
#374 = CARTESIAN_POINT('',(0.,0.));
#375 = VECTOR('',#376,1.);
#376 = DIRECTION('',(0.,-1.));
#377 = ( GEOMETRIC_REPRESENTATION_CONTEXT(2) 
PARAMETRIC_REPRESENTATION_CONTEXT() REPRESENTATION_CONTEXT('2D SPACE',''
  ) );
#378 = PCURVE('',#268,#379);
#379 = DEFINITIONAL_REPRESENTATION('',(#380),#384);
#380 = LINE('',#381,#382);
#381 = CARTESIAN_POINT('',(20.,-7.88860905221E-31));
#382 = VECTOR('',#383,1.);
#383 = DIRECTION('',(0.,-1.));
#384 = ( GEOMETRIC_REPRESENTATION_CONTEXT(2) 
PARAMETRIC_REPRESENTATION_CONTEXT() REPRESENTATION_CONTEXT('2D SPACE',''
  ) );
#385 = ORIENTED_EDGE('',*,*,#386,.T.);
#386 = EDGE_CURVE('',#364,#57,#387,.T.);
#387 = SURFACE_CURVE('',#388,(#392,#399),.PCURVE_S1.);
#388 = LINE('',#389,#390);
#389 = CARTESIAN_POINT('',(146.,-10.,-8.));
#390 = VECTOR('',#391,1.);
#391 = DIRECTION('',(1.,0.,0.));
#392 = PCURVE('',#72,#393);
#393 = DEFINITIONAL_REPRESENTATION('',(#394),#398);
#394 = LINE('',#395,#396);
#395 = CARTESIAN_POINT('',(0.,-10.));
#396 = VECTOR('',#397,1.);
#397 = DIRECTION('',(1.,0.));
#398 = ( GEOMETRIC_REPRESENTATION_CONTEXT(2) 
PARAMETRIC_REPRESENTATION_CONTEXT() REPRESENTATION_CONTEXT('2D SPACE',''
  ) );
#399 = PCURVE('',#100,#400);
#400 = DEFINITIONAL_REPRESENTATION('',(#401),#405);
#401 = LINE('',#402,#403);
#402 = CARTESIAN_POINT('',(-13.64853838662,-5.5));
#403 = VECTOR('',#404,1.);
#404 = DIRECTION('',(0.,1.));
#405 = ( GEOMETRIC_REPRESENTATION_CONTEXT(2) 
PARAMETRIC_REPRESENTATION_CONTEXT() REPRESENTATION_CONTEXT('2D SPACE',''
  ) );
#406 = ORIENTED_EDGE('',*,*,#56,.F.);
#407 = ORIENTED_EDGE('',*,*,#229,.F.);
#408 = ADVANCED_FACE('',(#409),#182,.F.);
#409 = FACE_BOUND('',#410,.F.);
#410 = EDGE_LOOP('',(#411,#434,#462,#490,#513,#534,#535));
#411 = ORIENTED_EDGE('',*,*,#412,.F.);
#412 = EDGE_CURVE('',#413,#141,#415,.T.);
#413 = VERTEX_POINT('',#414);
#414 = CARTESIAN_POINT('',(156.,-0.849613893836,20.));
#415 = SURFACE_CURVE('',#416,(#420,#427),.PCURVE_S1.);
#416 = LINE('',#417,#418);
#417 = CARTESIAN_POINT('',(155.81346899236,-1.,21.49224806112));
#418 = VECTOR('',#419,1.);
#419 = DIRECTION('',(0.123419173794,9.9503719021E-02,-0.987353390353));
#420 = PCURVE('',#182,#421);
#421 = DEFINITIONAL_REPRESENTATION('',(#422),#426);
#422 = LINE('',#423,#424);
#423 = CARTESIAN_POINT('',(0.,0.));
#424 = VECTOR('',#425,1.);
#425 = DIRECTION('',(1.,1.387778780781E-17));
#426 = ( GEOMETRIC_REPRESENTATION_CONTEXT(2) 
PARAMETRIC_REPRESENTATION_CONTEXT() REPRESENTATION_CONTEXT('2D SPACE',''
  ) );
#427 = PCURVE('',#156,#428);
#428 = DEFINITIONAL_REPRESENTATION('',(#429),#433);
#429 = LINE('',#430,#431);
#430 = CARTESIAN_POINT('',(9.566118809942,-1.));
#431 = VECTOR('',#432,1.);
#432 = DIRECTION('',(-0.99503719021,9.9503719021E-02));
#433 = ( GEOMETRIC_REPRESENTATION_CONTEXT(2) 
PARAMETRIC_REPRESENTATION_CONTEXT() REPRESENTATION_CONTEXT('2D SPACE',''
  ) );
#434 = ORIENTED_EDGE('',*,*,#435,.T.);
#435 = EDGE_CURVE('',#413,#436,#438,.T.);
#436 = VERTEX_POINT('',#437);
#437 = CARTESIAN_POINT('',(147.,-0.961245154966,20.));
#438 = SURFACE_CURVE('',#439,(#443,#450),.PCURVE_S1.);
#439 = LINE('',#440,#441);
#440 = CARTESIAN_POINT('',(155.91108460212,-0.850716753613,20.));
#441 = VECTOR('',#442,1.);
#442 = DIRECTION('',(-0.999923085798,-1.240251945565E-02,
    2.753912532606E-18));
#443 = PCURVE('',#182,#444);
#444 = DEFINITIONAL_REPRESENTATION('',(#445),#449);
#445 = LINE('',#446,#447);
#446 = CARTESIAN_POINT('',(1.500278058503,-8.822878221054E-02));
#447 = VECTOR('',#448,1.);
#448 = DIRECTION('',(-0.124643777918,-0.992201556452));
#449 = ( GEOMETRIC_REPRESENTATION_CONTEXT(2) 
PARAMETRIC_REPRESENTATION_CONTEXT() REPRESENTATION_CONTEXT('2D SPACE',''
  ) );
#450 = PCURVE('',#451,#456);
#451 = PLANE('',#452);
#452 = AXIS2_PLACEMENT_3D('',#453,#454,#455);
#453 = CARTESIAN_POINT('',(156.,4.440892098501E-15,20.));
#454 = DIRECTION('',(0.,-2.22044604925E-16,-1.));
#455 = DIRECTION('',(-1.,0.,0.));
#456 = DEFINITIONAL_REPRESENTATION('',(#457),#461);
#457 = LINE('',#458,#459);
#458 = CARTESIAN_POINT('',(8.89153978749E-02,-0.850716753613));
#459 = VECTOR('',#460,1.);
#460 = DIRECTION('',(0.999923085798,-1.240251945565E-02));
#461 = ( GEOMETRIC_REPRESENTATION_CONTEXT(2) 
PARAMETRIC_REPRESENTATION_CONTEXT() REPRESENTATION_CONTEXT('2D SPACE',''
  ) );
#462 = ORIENTED_EDGE('',*,*,#463,.T.);
#463 = EDGE_CURVE('',#436,#464,#466,.T.);
#464 = VERTEX_POINT('',#465);
#465 = CARTESIAN_POINT('',(146.,-0.179826327054,12.));
#466 = SURFACE_CURVE('',#467,(#471,#478),.PCURVE_S1.);
#467 = LINE('',#468,#469);
#468 = CARTESIAN_POINT('',(147.15264757133,-1.080526841243,
    21.221180570684));
#469 = VECTOR('',#470,1.);
#470 = DIRECTION('',(-0.12345621115,9.647100781542E-02,-0.987649689201)
  );
#471 = PCURVE('',#182,#472);
#472 = DEFINITIONAL_REPRESENTATION('',(#473),#477);
#473 = LINE('',#474,#475);
#474 = CARTESIAN_POINT('',(-0.809284738649,-8.627563274483));
#475 = VECTOR('',#476,1.);
#476 = DIRECTION('',(0.969521629589,-0.245005734134));
#477 = ( GEOMETRIC_REPRESENTATION_CONTEXT(2) 
PARAMETRIC_REPRESENTATION_CONTEXT() REPRESENTATION_CONTEXT('2D SPACE',''
  ) );
#478 = PCURVE('',#479,#484);
#479 = PLANE('',#480);
#480 = AXIS2_PLACEMENT_3D('',#481,#482,#483);
#481 = CARTESIAN_POINT('',(147.,4.440892098501E-15,20.));
#482 = DIRECTION('',(0.992277876714,-2.754124363884E-17,-0.124034734589)
  );
#483 = DIRECTION('',(-0.124034734589,-2.203299491107E-16,-0.992277876714
    ));
#484 = DEFINITIONAL_REPRESENTATION('',(#485),#489);
#485 = LINE('',#486,#487);
#486 = CARTESIAN_POINT('',(-1.230684064758,-1.080526841243));
#487 = VECTOR('',#488,1.);
#488 = DIRECTION('',(0.995335794921,9.647100781542E-02));
#489 = ( GEOMETRIC_REPRESENTATION_CONTEXT(2) 
PARAMETRIC_REPRESENTATION_CONTEXT() REPRESENTATION_CONTEXT('2D SPACE',''
  ) );
#490 = ORIENTED_EDGE('',*,*,#491,.T.);
#491 = EDGE_CURVE('',#464,#492,#494,.T.);
#492 = VERTEX_POINT('',#493);
#493 = CARTESIAN_POINT('',(146.,-0.111871642134,11.315164768717));
#494 = SURFACE_CURVE('',#495,(#499,#506),.PCURVE_S1.);
#495 = LINE('',#496,#497);
#496 = CARTESIAN_POINT('',(146.,-0.649303647933,16.731308959884));
#497 = VECTOR('',#498,1.);
#498 = DIRECTION('',(0.,9.874285972226E-02,-0.995112982356));
#499 = PCURVE('',#182,#500);
#500 = DEFINITIONAL_REPRESENTATION('',(#501),#505);
#501 = LINE('',#502,#503);
#502 = CARTESIAN_POINT('',(3.524454719054,-10.32820999275));
#503 = VECTOR('',#504,1.);
#504 = DIRECTION('',(0.992353458683,-0.123428574653));
#505 = ( GEOMETRIC_REPRESENTATION_CONTEXT(2) 
PARAMETRIC_REPRESENTATION_CONTEXT() REPRESENTATION_CONTEXT('2D SPACE',''
  ) );
#506 = PCURVE('',#268,#507);
#507 = DEFINITIONAL_REPRESENTATION('',(#508),#512);
#508 = LINE('',#509,#510);
#509 = CARTESIAN_POINT('',(-4.731308959884,-0.649303647933));
#510 = VECTOR('',#511,1.);
#511 = DIRECTION('',(0.995112982356,9.874285972226E-02));
#512 = ( GEOMETRIC_REPRESENTATION_CONTEXT(2) 
PARAMETRIC_REPRESENTATION_CONTEXT() REPRESENTATION_CONTEXT('2D SPACE',''
  ) );
#513 = ORIENTED_EDGE('',*,*,#514,.T.);
#514 = EDGE_CURVE('',#492,#281,#515,.T.);
#515 = SURFACE_CURVE('',#516,(#520,#527),.PCURVE_S1.);
#516 = LINE('',#517,#518);
#517 = CARTESIAN_POINT('',(144.89841234851,-1.,20.127865980638));
#518 = VECTOR('',#519,1.);
#519 = DIRECTION('',(0.123419173794,9.9503719021E-02,-0.987353390353));
#520 = PCURVE('',#182,#521);
#521 = DEFINITIONAL_REPRESENTATION('',(#522),#526);
#522 = LINE('',#523,#524);
#523 = CARTESIAN_POINT('',(-4.440892098501E-15,-11.));
#524 = VECTOR('',#525,1.);
#525 = DIRECTION('',(1.,1.387778780781E-17));
#526 = ( GEOMETRIC_REPRESENTATION_CONTEXT(2) 
PARAMETRIC_REPRESENTATION_CONTEXT() REPRESENTATION_CONTEXT('2D SPACE',''
  ) );
#527 = PCURVE('',#296,#528);
#528 = DEFINITIONAL_REPRESENTATION('',(#529),#533);
#529 = LINE('',#530,#531);
#530 = CARTESIAN_POINT('',(4.783079089788,-4.));
#531 = VECTOR('',#532,1.);
#532 = DIRECTION('',(-0.99503719021,-9.9503719021E-02));
#533 = ( GEOMETRIC_REPRESENTATION_CONTEXT(2) 
PARAMETRIC_REPRESENTATION_CONTEXT() REPRESENTATION_CONTEXT('2D SPACE',''
  ) );
#534 = ORIENTED_EDGE('',*,*,#308,.F.);
#535 = ORIENTED_EDGE('',*,*,#168,.T.);
#536 = ADVANCED_FACE('',(#537,#613),#100,.F.);
#537 = FACE_BOUND('',#538,.F.);
#538 = EDGE_LOOP('',(#539,#540,#541,#564,#592));
#539 = ORIENTED_EDGE('',*,*,#84,.F.);
#540 = ORIENTED_EDGE('',*,*,#386,.F.);
#541 = ORIENTED_EDGE('',*,*,#542,.F.);
#542 = EDGE_CURVE('',#543,#364,#545,.T.);
#543 = VERTEX_POINT('',#544);
#544 = CARTESIAN_POINT('',(146.,-10.,11.315164768716));
#545 = SURFACE_CURVE('',#546,(#550,#557),.PCURVE_S1.);
#546 = LINE('',#547,#548);
#547 = CARTESIAN_POINT('',(146.,-10.,12.));
#548 = VECTOR('',#549,1.);
#549 = DIRECTION('',(0.,-2.22044604925E-16,-1.));
#550 = PCURVE('',#100,#551);
#551 = DEFINITIONAL_REPRESENTATION('',(#552),#556);
#552 = LINE('',#553,#554);
#553 = CARTESIAN_POINT('',(6.351461613378,-5.5));
#554 = VECTOR('',#555,1.);
#555 = DIRECTION('',(-1.,0.));
#556 = ( GEOMETRIC_REPRESENTATION_CONTEXT(2) 
PARAMETRIC_REPRESENTATION_CONTEXT() REPRESENTATION_CONTEXT('2D SPACE',''
  ) );
#557 = PCURVE('',#268,#558);
#558 = DEFINITIONAL_REPRESENTATION('',(#559),#563);
#559 = LINE('',#560,#561);
#560 = CARTESIAN_POINT('',(-1.33226762955E-15,-10.));
#561 = VECTOR('',#562,1.);
#562 = DIRECTION('',(1.,-4.930380657631E-32));
#563 = ( GEOMETRIC_REPRESENTATION_CONTEXT(2) 
PARAMETRIC_REPRESENTATION_CONTEXT() REPRESENTATION_CONTEXT('2D SPACE',''
  ) );
#564 = ORIENTED_EDGE('',*,*,#565,.T.);
#565 = EDGE_CURVE('',#543,#566,#568,.T.);
#566 = VERTEX_POINT('',#567);
#567 = CARTESIAN_POINT('',(146.1387596944,-10.,10.205087213502));
#568 = SURFACE_CURVE('',#569,(#573,#580),.PCURVE_S1.);
#569 = LINE('',#570,#571);
#570 = CARTESIAN_POINT('',(146.13686330894,-10.,10.220258297193));
#571 = VECTOR('',#572,1.);
#572 = DIRECTION('',(0.124034734589,-9.860761315263E-32,-0.992277876714)
  );
#573 = PCURVE('',#100,#574);
#574 = DEFINITIONAL_REPRESENTATION('',(#575),#579);
#575 = LINE('',#576,#577);
#576 = CARTESIAN_POINT('',(4.571719910571,-5.36313669106));
#577 = VECTOR('',#578,1.);
#578 = DIRECTION('',(-0.992277876714,0.124034734589));
#579 = ( GEOMETRIC_REPRESENTATION_CONTEXT(2) 
PARAMETRIC_REPRESENTATION_CONTEXT() REPRESENTATION_CONTEXT('2D SPACE',''
  ) );
#580 = PCURVE('',#581,#586);
#581 = PLANE('',#582);
#582 = AXIS2_PLACEMENT_3D('',#583,#584,#585);
#583 = CARTESIAN_POINT('',(145.49168029393,-5.,15.38172241727));
#584 = DIRECTION('',(0.992277876714,6.162975822039E-33,0.124034734589));
#585 = DIRECTION('',(-0.124034734589,4.930380657631E-32,0.992277876714)
  );
#586 = DEFINITIONAL_REPRESENTATION('',(#587),#591);
#587 = LINE('',#588,#589);
#588 = CARTESIAN_POINT('',(-5.201631761832,5.));
#589 = VECTOR('',#590,1.);
#590 = DIRECTION('',(-1.,4.930380657631E-32));
#591 = ( GEOMETRIC_REPRESENTATION_CONTEXT(2) 
PARAMETRIC_REPRESENTATION_CONTEXT() REPRESENTATION_CONTEXT('2D SPACE',''
  ) );
#592 = ORIENTED_EDGE('',*,*,#593,.F.);
#593 = EDGE_CURVE('',#85,#566,#594,.T.);
#594 = SURFACE_CURVE('',#595,(#599,#606),.PCURVE_S1.);
#595 = LINE('',#596,#597);
#596 = CARTESIAN_POINT('',(157.05381633825,-10.,11.569469293983));
#597 = VECTOR('',#598,1.);
#598 = DIRECTION('',(-0.992277876714,-6.162975822039E-33,-0.124034734589
    ));
#599 = PCURVE('',#100,#600);
#600 = DEFINITIONAL_REPRESENTATION('',(#601),#605);
#601 = LINE('',#602,#603);
#602 = CARTESIAN_POINT('',(5.920930907361,5.553816338252));
#603 = VECTOR('',#604,1.);
#604 = DIRECTION('',(-0.124034734589,-0.992277876714));
#605 = ( GEOMETRIC_REPRESENTATION_CONTEXT(2) 
PARAMETRIC_REPRESENTATION_CONTEXT() REPRESENTATION_CONTEXT('2D SPACE',''
  ) );
#606 = PCURVE('',#128,#607);
#607 = DEFINITIONAL_REPRESENTATION('',(#608),#612);
#608 = LINE('',#609,#610);
#609 = CARTESIAN_POINT('',(10.049875621121,-9.547918011776E-15));
#610 = VECTOR('',#611,1.);
#611 = DIRECTION('',(-1.110223024625E-16,-1.));
#612 = ( GEOMETRIC_REPRESENTATION_CONTEXT(2) 
PARAMETRIC_REPRESENTATION_CONTEXT() REPRESENTATION_CONTEXT('2D SPACE',''
  ) );
#613 = FACE_BOUND('',#614,.F.);
#614 = EDGE_LOOP('',(#615));
#615 = ORIENTED_EDGE('',*,*,#616,.F.);
#616 = EDGE_CURVE('',#617,#617,#619,.T.);
#617 = VERTEX_POINT('',#618);
#618 = CARTESIAN_POINT('',(152.8,-10.,5.4));
#619 = SURFACE_CURVE('',#620,(#625,#632),.PCURVE_S1.);
#620 = CIRCLE('',#621,1.8);
#621 = AXIS2_PLACEMENT_3D('',#622,#623,#624);
#622 = CARTESIAN_POINT('',(151.,-10.,5.4));
#623 = DIRECTION('',(-0.,1.,2.22044604925E-16));
#624 = DIRECTION('',(1.,0.,0.));
#625 = PCURVE('',#100,#626);
#626 = DEFINITIONAL_REPRESENTATION('',(#627),#631);
#627 = CIRCLE('',#628,1.8);
#628 = AXIS2_PLACEMENT_2D('',#629,#630);
#629 = CARTESIAN_POINT('',(-0.248538386622,-0.5));
#630 = DIRECTION('',(0.,1.));
#631 = ( GEOMETRIC_REPRESENTATION_CONTEXT(2) 
PARAMETRIC_REPRESENTATION_CONTEXT() REPRESENTATION_CONTEXT('2D SPACE',''
  ) );
#632 = PCURVE('',#633,#638);
#633 = CYLINDRICAL_SURFACE('',#634,1.8);
#634 = AXIS2_PLACEMENT_3D('',#635,#636,#637);
#635 = CARTESIAN_POINT('',(151.,4.,5.4));
#636 = DIRECTION('',(-0.,1.,2.22044604925E-16));
#637 = DIRECTION('',(1.,0.,0.));
#638 = DEFINITIONAL_REPRESENTATION('',(#639),#643);
#639 = LINE('',#640,#641);
#640 = CARTESIAN_POINT('',(-6.28318530718,-14.));
#641 = VECTOR('',#642,1.);
#642 = DIRECTION('',(1.,-0.));
#643 = ( GEOMETRIC_REPRESENTATION_CONTEXT(2) 
PARAMETRIC_REPRESENTATION_CONTEXT() REPRESENTATION_CONTEXT('2D SPACE',''
  ) );
#644 = ADVANCED_FACE('',(#645),#156,.F.);
#645 = FACE_BOUND('',#646,.F.);
#646 = EDGE_LOOP('',(#647,#648,#649,#672));
#647 = ORIENTED_EDGE('',*,*,#412,.T.);
#648 = ORIENTED_EDGE('',*,*,#140,.T.);
#649 = ORIENTED_EDGE('',*,*,#650,.F.);
#650 = EDGE_CURVE('',#651,#113,#653,.T.);
#651 = VERTEX_POINT('',#652);
#652 = CARTESIAN_POINT('',(156.,-9.150386106164,20.));
#653 = SURFACE_CURVE('',#654,(#658,#665),.PCURVE_S1.);
#654 = LINE('',#655,#656);
#655 = CARTESIAN_POINT('',(155.81346899236,-9.,21.49224806112));
#656 = VECTOR('',#657,1.);
#657 = DIRECTION('',(0.123419173794,-9.9503719021E-02,-0.987353390353));
#658 = PCURVE('',#156,#659);
#659 = DEFINITIONAL_REPRESENTATION('',(#660),#664);
#660 = LINE('',#661,#662);
#661 = CARTESIAN_POINT('',(9.566118809942,-9.));
#662 = VECTOR('',#663,1.);
#663 = DIRECTION('',(-0.99503719021,-9.9503719021E-02));
#664 = ( GEOMETRIC_REPRESENTATION_CONTEXT(2) 
PARAMETRIC_REPRESENTATION_CONTEXT() REPRESENTATION_CONTEXT('2D SPACE',''
  ) );
#665 = PCURVE('',#128,#666);
#666 = DEFINITIONAL_REPRESENTATION('',(#667),#671);
#667 = LINE('',#668,#669);
#668 = CARTESIAN_POINT('',(-3.507783895716E-15,4.406598982215E-16));
#669 = VECTOR('',#670,1.);
#670 = DIRECTION('',(1.,4.163336342344E-17));
#671 = ( GEOMETRIC_REPRESENTATION_CONTEXT(2) 
PARAMETRIC_REPRESENTATION_CONTEXT() REPRESENTATION_CONTEXT('2D SPACE',''
  ) );
#672 = ORIENTED_EDGE('',*,*,#673,.F.);
#673 = EDGE_CURVE('',#413,#651,#674,.T.);
#674 = SURFACE_CURVE('',#675,(#679,#686),.PCURVE_S1.);
#675 = LINE('',#676,#677);
#676 = CARTESIAN_POINT('',(156.,4.440892098501E-15,20.));
#677 = VECTOR('',#678,1.);
#678 = DIRECTION('',(0.,-1.,2.22044604925E-16));
#679 = PCURVE('',#156,#680);
#680 = DEFINITIONAL_REPRESENTATION('',(#681),#685);
#681 = LINE('',#682,#683);
#682 = CARTESIAN_POINT('',(8.062257748299,-3.944304526105E-31));
#683 = VECTOR('',#684,1.);
#684 = DIRECTION('',(0.,-1.));
#685 = ( GEOMETRIC_REPRESENTATION_CONTEXT(2) 
PARAMETRIC_REPRESENTATION_CONTEXT() REPRESENTATION_CONTEXT('2D SPACE',''
  ) );
#686 = PCURVE('',#451,#687);
#687 = DEFINITIONAL_REPRESENTATION('',(#688),#692);
#688 = LINE('',#689,#690);
#689 = CARTESIAN_POINT('',(0.,0.));
#690 = VECTOR('',#691,1.);
#691 = DIRECTION('',(0.,-1.));
#692 = ( GEOMETRIC_REPRESENTATION_CONTEXT(2) 
PARAMETRIC_REPRESENTATION_CONTEXT() REPRESENTATION_CONTEXT('2D SPACE',''
  ) );
#693 = ADVANCED_FACE('',(#694),#128,.T.);
#694 = FACE_BOUND('',#695,.T.);
#695 = EDGE_LOOP('',(#696,#697,#720,#743,#766,#787,#788));
#696 = ORIENTED_EDGE('',*,*,#650,.F.);
#697 = ORIENTED_EDGE('',*,*,#698,.T.);
#698 = EDGE_CURVE('',#651,#699,#701,.T.);
#699 = VERTEX_POINT('',#700);
#700 = CARTESIAN_POINT('',(147.,-9.038754845034,20.));
#701 = SURFACE_CURVE('',#702,(#706,#713),.PCURVE_S1.);
#702 = LINE('',#703,#704);
#703 = CARTESIAN_POINT('',(155.84907677449,-9.148514133942,20.));
#704 = VECTOR('',#705,1.);
#705 = DIRECTION('',(-0.999923085798,1.240251945565E-02,
    -2.753912532606E-18));
#706 = PCURVE('',#128,#707);
#707 = DEFINITIONAL_REPRESENTATION('',(#708),#712);
#708 = LINE('',#709,#710);
#709 = CARTESIAN_POINT('',(1.4925485741,-0.14975777775));
#710 = VECTOR('',#711,1.);
#711 = DIRECTION('',(-0.124643777918,-0.992201556452));
#712 = ( GEOMETRIC_REPRESENTATION_CONTEXT(2) 
PARAMETRIC_REPRESENTATION_CONTEXT() REPRESENTATION_CONTEXT('2D SPACE',''
  ) );
#713 = PCURVE('',#451,#714);
#714 = DEFINITIONAL_REPRESENTATION('',(#715),#719);
#715 = LINE('',#716,#717);
#716 = CARTESIAN_POINT('',(0.150923225504,-9.148514133942));
#717 = VECTOR('',#718,1.);
#718 = DIRECTION('',(0.999923085798,1.240251945565E-02));
#719 = ( GEOMETRIC_REPRESENTATION_CONTEXT(2) 
PARAMETRIC_REPRESENTATION_CONTEXT() REPRESENTATION_CONTEXT('2D SPACE',''
  ) );
#720 = ORIENTED_EDGE('',*,*,#721,.T.);
#721 = EDGE_CURVE('',#699,#722,#724,.T.);
#722 = VERTEX_POINT('',#723);
#723 = CARTESIAN_POINT('',(146.,-9.820173672946,12.));
#724 = SURFACE_CURVE('',#725,(#729,#736),.PCURVE_S1.);
#725 = LINE('',#726,#727);
#726 = CARTESIAN_POINT('',(147.21219729688,-8.872939882013,
    21.697578375113));
#727 = VECTOR('',#728,1.);
#728 = DIRECTION('',(-0.12345621115,-9.647100781542E-02,-0.987649689201)
  );
#729 = PCURVE('',#128,#730);
#730 = DEFINITIONAL_REPRESENTATION('',(#731),#735);
#731 = LINE('',#732,#733);
#732 = CARTESIAN_POINT('',(-1.276938382176,-8.50938352402));
#733 = VECTOR('',#734,1.);
#734 = DIRECTION('',(0.969521629589,-0.245005734134));
#735 = ( GEOMETRIC_REPRESENTATION_CONTEXT(2) 
PARAMETRIC_REPRESENTATION_CONTEXT() REPRESENTATION_CONTEXT('2D SPACE',''
  ) );
#736 = PCURVE('',#479,#737);
#737 = DEFINITIONAL_REPRESENTATION('',(#738),#742);
#738 = LINE('',#739,#740);
#739 = CARTESIAN_POINT('',(-1.710789301012,-8.872939882013));
#740 = VECTOR('',#741,1.);
#741 = DIRECTION('',(0.995335794921,-9.647100781542E-02));
#742 = ( GEOMETRIC_REPRESENTATION_CONTEXT(2) 
PARAMETRIC_REPRESENTATION_CONTEXT() REPRESENTATION_CONTEXT('2D SPACE',''
  ) );
#743 = ORIENTED_EDGE('',*,*,#744,.T.);
#744 = EDGE_CURVE('',#722,#745,#747,.T.);
#745 = VERTEX_POINT('',#746);
#746 = CARTESIAN_POINT('',(146.,-9.888128357866,11.315164768717));
#747 = SURFACE_CURVE('',#748,(#752,#759),.PCURVE_S1.);
#748 = LINE('',#749,#750);
#749 = CARTESIAN_POINT('',(146.,-9.301945590336,17.222610468007));
#750 = VECTOR('',#751,1.);
#751 = DIRECTION('',(0.,-9.874285972226E-02,-0.995112982356));
#752 = PCURVE('',#128,#753);
#753 = DEFINITIONAL_REPRESENTATION('',(#754),#758);
#754 = LINE('',#755,#756);
#755 = CARTESIAN_POINT('',(3.034515627226,-10.26727154058));
#756 = VECTOR('',#757,1.);
#757 = DIRECTION('',(0.992353458683,-0.123428574653));
#758 = ( GEOMETRIC_REPRESENTATION_CONTEXT(2) 
PARAMETRIC_REPRESENTATION_CONTEXT() REPRESENTATION_CONTEXT('2D SPACE',''
  ) );
#759 = PCURVE('',#268,#760);
#760 = DEFINITIONAL_REPRESENTATION('',(#761),#765);
#761 = LINE('',#762,#763);
#762 = CARTESIAN_POINT('',(-5.222610468007,-9.301945590336));
#763 = VECTOR('',#764,1.);
#764 = DIRECTION('',(0.995112982356,-9.874285972226E-02));
#765 = ( GEOMETRIC_REPRESENTATION_CONTEXT(2) 
PARAMETRIC_REPRESENTATION_CONTEXT() REPRESENTATION_CONTEXT('2D SPACE',''
  ) );
#766 = ORIENTED_EDGE('',*,*,#767,.T.);
#767 = EDGE_CURVE('',#745,#566,#768,.T.);
#768 = SURFACE_CURVE('',#769,(#773,#780),.PCURVE_S1.);
#769 = LINE('',#770,#771);
#770 = CARTESIAN_POINT('',(144.89841234851,-9.,20.127865980638));
#771 = VECTOR('',#772,1.);
#772 = DIRECTION('',(0.123419173794,-9.9503719021E-02,-0.987353390353));
#773 = PCURVE('',#128,#774);
#774 = DEFINITIONAL_REPRESENTATION('',(#775),#779);
#775 = LINE('',#776,#777);
#776 = CARTESIAN_POINT('',(-7.993605777301E-15,-11.));
#777 = VECTOR('',#778,1.);
#778 = DIRECTION('',(1.,4.163336342344E-17));
#779 = ( GEOMETRIC_REPRESENTATION_CONTEXT(2) 
PARAMETRIC_REPRESENTATION_CONTEXT() REPRESENTATION_CONTEXT('2D SPACE',''
  ) );
#780 = PCURVE('',#581,#781);
#781 = DEFINITIONAL_REPRESENTATION('',(#782),#786);
#782 = LINE('',#783,#784);
#783 = CARTESIAN_POINT('',(4.783079089788,4.));
#784 = VECTOR('',#785,1.);
#785 = DIRECTION('',(-0.99503719021,9.9503719021E-02));
#786 = ( GEOMETRIC_REPRESENTATION_CONTEXT(2) 
PARAMETRIC_REPRESENTATION_CONTEXT() REPRESENTATION_CONTEXT('2D SPACE',''
  ) );
#787 = ORIENTED_EDGE('',*,*,#593,.F.);
#788 = ORIENTED_EDGE('',*,*,#112,.T.);
#789 = ADVANCED_FACE('',(#790),#213,.F.);
#790 = FACE_BOUND('',#791,.T.);
#791 = EDGE_LOOP('',(#792,#830,#866,#887,#888,#889,#925));
#792 = ORIENTED_EDGE('',*,*,#793,.T.);
#793 = EDGE_CURVE('',#794,#796,#798,.T.);
#794 = VERTEX_POINT('',#795);
#795 = CARTESIAN_POINT('',(151.,-5.,7.2));
#796 = VERTEX_POINT('',#797);
#797 = CARTESIAN_POINT('',(152.8,-3.2,5.4));
#798 = SURFACE_CURVE('',#799,(#804,#817),.PCURVE_S1.);
#799 = ELLIPSE('',#800,2.545584412272,1.8);
#800 = AXIS2_PLACEMENT_3D('',#801,#802,#803);
#801 = CARTESIAN_POINT('',(151.,-5.,5.4));
#802 = DIRECTION('',(-0.707106781187,0.707106781187,3.140184917368E-16)
  );
#803 = DIRECTION('',(0.707106781187,0.707106781187,0.));
#804 = PCURVE('',#213,#805);
#805 = DEFINITIONAL_REPRESENTATION('',(#806),#816);
#806 = B_SPLINE_CURVE_WITH_KNOTS('',8,(#807,#808,#809,#810,#811,#812,
    #813,#814,#815),.UNSPECIFIED.,.F.,.F.,(9,9),(4.712388980385,
    6.28318530718),.PIECEWISE_BEZIER_KNOTS.);
#807 = CARTESIAN_POINT('',(-3.14159265359,-8.));
#808 = CARTESIAN_POINT('',(-2.94524311274,-8.353429173529));
#809 = CARTESIAN_POINT('',(-2.74889357189,-8.706858430971));
#810 = CARTESIAN_POINT('',(-2.552544031047,-9.039523870157));
#811 = CARTESIAN_POINT('',(-2.356194490181,-9.330665751069));
#812 = CARTESIAN_POINT('',(-2.159844949344,-9.562072483383));
#813 = CARTESIAN_POINT('',(-1.963495408492,-9.720690603226));
#814 = CARTESIAN_POINT('',(-1.767145867644,-9.8));
#815 = CARTESIAN_POINT('',(-1.570796326795,-9.8));
#816 = ( GEOMETRIC_REPRESENTATION_CONTEXT(2) 
PARAMETRIC_REPRESENTATION_CONTEXT() REPRESENTATION_CONTEXT('2D SPACE',''
  ) );
#817 = PCURVE('',#348,#818);
#818 = DEFINITIONAL_REPRESENTATION('',(#819),#829);
#819 = B_SPLINE_CURVE_WITH_KNOTS('',8,(#820,#821,#822,#823,#824,#825,
    #826,#827,#828),.UNSPECIFIED.,.F.,.F.,(9,9),(4.712388980385,
    6.28318530718),.PIECEWISE_BEZIER_KNOTS.);
#820 = CARTESIAN_POINT('',(-1.570796326795,-9.));
#821 = CARTESIAN_POINT('',(-1.374446785946,-8.646570826471));
#822 = CARTESIAN_POINT('',(-1.178097245096,-8.293141569029));
#823 = CARTESIAN_POINT('',(-0.981747704244,-7.960476129792));
#824 = CARTESIAN_POINT('',(-0.7853981634,-7.669334248982));
#825 = CARTESIAN_POINT('',(-0.589048622545,-7.437927516548));
#826 = CARTESIAN_POINT('',(-0.392699081699,-7.279309396775));
#827 = CARTESIAN_POINT('',(-0.196349540849,-7.2));
#828 = CARTESIAN_POINT('',(-1.13310777953E-15,-7.2));
#829 = ( GEOMETRIC_REPRESENTATION_CONTEXT(2) 
PARAMETRIC_REPRESENTATION_CONTEXT() REPRESENTATION_CONTEXT('2D SPACE',''
  ) );
#830 = ORIENTED_EDGE('',*,*,#831,.T.);
#831 = EDGE_CURVE('',#796,#832,#834,.T.);
#832 = VERTEX_POINT('',#833);
#833 = CARTESIAN_POINT('',(151.,-5.,3.6));
#834 = SURFACE_CURVE('',#835,(#840,#853),.PCURVE_S1.);
#835 = ELLIPSE('',#836,2.545584412272,1.8);
#836 = AXIS2_PLACEMENT_3D('',#837,#838,#839);
#837 = CARTESIAN_POINT('',(151.,-5.,5.4));
#838 = DIRECTION('',(-0.707106781187,0.707106781187,3.140184917368E-16)
  );
#839 = DIRECTION('',(0.707106781187,0.707106781187,0.));
#840 = PCURVE('',#213,#841);
#841 = DEFINITIONAL_REPRESENTATION('',(#842),#852);
#842 = B_SPLINE_CURVE_WITH_KNOTS('',8,(#843,#844,#845,#846,#847,#848,
    #849,#850,#851),.UNSPECIFIED.,.F.,.F.,(9,9),(0.,1.570796326795),
  .PIECEWISE_BEZIER_KNOTS.);
#843 = CARTESIAN_POINT('',(-1.570796326795,-9.8));
#844 = CARTESIAN_POINT('',(-1.374446785946,-9.8));
#845 = CARTESIAN_POINT('',(-1.178097245097,-9.720690603211));
#846 = CARTESIAN_POINT('',(-0.981747704245,-9.56207248343));
#847 = CARTESIAN_POINT('',(-0.785398163395,-9.330665750982));
#848 = CARTESIAN_POINT('',(-0.589048622548,-9.039523870193));
#849 = CARTESIAN_POINT('',(-0.392699081699,-8.706858430958));
#850 = CARTESIAN_POINT('',(-0.196349540849,-8.353429173529));
#851 = CARTESIAN_POINT('',(0.,-8.));
#852 = ( GEOMETRIC_REPRESENTATION_CONTEXT(2) 
PARAMETRIC_REPRESENTATION_CONTEXT() REPRESENTATION_CONTEXT('2D SPACE',''
  ) );
#853 = PCURVE('',#348,#854);
#854 = DEFINITIONAL_REPRESENTATION('',(#855),#865);
#855 = B_SPLINE_CURVE_WITH_KNOTS('',8,(#856,#857,#858,#859,#860,#861,
    #862,#863,#864),.UNSPECIFIED.,.F.,.F.,(9,9),(0.,1.570796326795),
  .PIECEWISE_BEZIER_KNOTS.);
#856 = CARTESIAN_POINT('',(-6.28318530718,-7.2));
#857 = CARTESIAN_POINT('',(-6.08683576633,-7.2));
#858 = CARTESIAN_POINT('',(-5.890486225482,-7.27930939678));
#859 = CARTESIAN_POINT('',(-5.694136684629,-7.437927516537));
#860 = CARTESIAN_POINT('',(-5.497787143785,-7.669334248996));
#861 = CARTESIAN_POINT('',(-5.30143760293,-7.960476129774));
#862 = CARTESIAN_POINT('',(-5.105088062085,-8.29314156903));
#863 = CARTESIAN_POINT('',(-4.908738521234,-8.646570826471));
#864 = CARTESIAN_POINT('',(-4.712388980385,-9.));
#865 = ( GEOMETRIC_REPRESENTATION_CONTEXT(2) 
PARAMETRIC_REPRESENTATION_CONTEXT() REPRESENTATION_CONTEXT('2D SPACE',''
  ) );
#866 = ORIENTED_EDGE('',*,*,#867,.T.);
#867 = EDGE_CURVE('',#832,#197,#868,.T.);
#868 = SEAM_CURVE('',#869,(#873,#880),.PCURVE_S1.);
#869 = LINE('',#870,#871);
#870 = CARTESIAN_POINT('',(143.,-5.,3.6));
#871 = VECTOR('',#872,1.);
#872 = DIRECTION('',(1.,0.,-2.22044604925E-16));
#873 = PCURVE('',#213,#874);
#874 = DEFINITIONAL_REPRESENTATION('',(#875),#879);
#875 = LINE('',#876,#877);
#876 = CARTESIAN_POINT('',(-6.28318530718,0.));
#877 = VECTOR('',#878,1.);
#878 = DIRECTION('',(-0.,-1.));
#879 = ( GEOMETRIC_REPRESENTATION_CONTEXT(2) 
PARAMETRIC_REPRESENTATION_CONTEXT() REPRESENTATION_CONTEXT('2D SPACE',''
  ) );
#880 = PCURVE('',#213,#881);
#881 = DEFINITIONAL_REPRESENTATION('',(#882),#886);
#882 = LINE('',#883,#884);
#883 = CARTESIAN_POINT('',(-0.,0.));
#884 = VECTOR('',#885,1.);
#885 = DIRECTION('',(-0.,-1.));
#886 = ( GEOMETRIC_REPRESENTATION_CONTEXT(2) 
PARAMETRIC_REPRESENTATION_CONTEXT() REPRESENTATION_CONTEXT('2D SPACE',''
  ) );
#887 = ORIENTED_EDGE('',*,*,#196,.F.);
#888 = ORIENTED_EDGE('',*,*,#867,.F.);
#889 = ORIENTED_EDGE('',*,*,#890,.F.);
#890 = EDGE_CURVE('',#891,#832,#893,.T.);
#891 = VERTEX_POINT('',#892);
#892 = CARTESIAN_POINT('',(152.8,-6.8,5.4));
#893 = SURFACE_CURVE('',#894,(#899,#912),.PCURVE_S1.);
#894 = ELLIPSE('',#895,2.545584412272,1.8);
#895 = AXIS2_PLACEMENT_3D('',#896,#897,#898);
#896 = CARTESIAN_POINT('',(151.,-5.,5.4));
#897 = DIRECTION('',(0.707106781187,0.707106781187,0.));
#898 = DIRECTION('',(-0.707106781187,0.707106781187,3.140184917368E-16)
  );
#899 = PCURVE('',#213,#900);
#900 = DEFINITIONAL_REPRESENTATION('',(#901),#911);
#901 = B_SPLINE_CURVE_WITH_KNOTS('',8,(#902,#903,#904,#905,#906,#907,
    #908,#909,#910),.UNSPECIFIED.,.F.,.F.,(9,9),(3.14159265359,
    4.712388980385),.PIECEWISE_BEZIER_KNOTS.);
#902 = CARTESIAN_POINT('',(-4.712388980385,-9.8));
#903 = CARTESIAN_POINT('',(-4.908738521234,-9.8));
#904 = CARTESIAN_POINT('',(-5.105088062083,-9.720690603211));
#905 = CARTESIAN_POINT('',(-5.301437602934,-9.56207248343));
#906 = CARTESIAN_POINT('',(-5.497787143784,-9.330665750982));
#907 = CARTESIAN_POINT('',(-5.694136684635,-9.039523870193));
#908 = CARTESIAN_POINT('',(-5.890486225481,-8.706858430958));
#909 = CARTESIAN_POINT('',(-6.08683576633,-8.353429173529));
#910 = CARTESIAN_POINT('',(-6.28318530718,-8.));
#911 = ( GEOMETRIC_REPRESENTATION_CONTEXT(2) 
PARAMETRIC_REPRESENTATION_CONTEXT() REPRESENTATION_CONTEXT('2D SPACE',''
  ) );
#912 = PCURVE('',#633,#913);
#913 = DEFINITIONAL_REPRESENTATION('',(#914),#924);
#914 = B_SPLINE_CURVE_WITH_KNOTS('',8,(#915,#916,#917,#918,#919,#920,
    #921,#922,#923),.UNSPECIFIED.,.F.,.F.,(9,9),(3.14159265359,
    4.712388980385),.PIECEWISE_BEZIER_KNOTS.);
#915 = CARTESIAN_POINT('',(-6.28318530718,-10.8));
#916 = CARTESIAN_POINT('',(-6.08683576633,-10.8));
#917 = CARTESIAN_POINT('',(-5.890486225481,-10.72069060322));
#918 = CARTESIAN_POINT('',(-5.694136684632,-10.56207248339));
#919 = CARTESIAN_POINT('',(-5.497787143784,-10.33066575103));
#920 = CARTESIAN_POINT('',(-5.301437602933,-10.03952387015));
#921 = CARTESIAN_POINT('',(-5.105088062084,-9.706858430971));
#922 = CARTESIAN_POINT('',(-4.908738521234,-9.353429173529));
#923 = CARTESIAN_POINT('',(-4.712388980385,-9.));
#924 = ( GEOMETRIC_REPRESENTATION_CONTEXT(2) 
PARAMETRIC_REPRESENTATION_CONTEXT() REPRESENTATION_CONTEXT('2D SPACE',''
  ) );
#925 = ORIENTED_EDGE('',*,*,#926,.F.);
#926 = EDGE_CURVE('',#794,#891,#927,.T.);
#927 = SURFACE_CURVE('',#928,(#933,#946),.PCURVE_S1.);
#928 = ELLIPSE('',#929,2.545584412272,1.8);
#929 = AXIS2_PLACEMENT_3D('',#930,#931,#932);
#930 = CARTESIAN_POINT('',(151.,-5.,5.4));
#931 = DIRECTION('',(0.707106781187,0.707106781187,0.));
#932 = DIRECTION('',(-0.707106781187,0.707106781187,3.140184917368E-16)
  );
#933 = PCURVE('',#213,#934);
#934 = DEFINITIONAL_REPRESENTATION('',(#935),#945);
#935 = B_SPLINE_CURVE_WITH_KNOTS('',8,(#936,#937,#938,#939,#940,#941,
    #942,#943,#944),.UNSPECIFIED.,.F.,.F.,(9,9),(1.570796326795,
    3.14159265359),.PIECEWISE_BEZIER_KNOTS.);
#936 = CARTESIAN_POINT('',(-3.14159265359,-8.));
#937 = CARTESIAN_POINT('',(-3.337942194439,-8.353429173529));
#938 = CARTESIAN_POINT('',(-3.534291735288,-8.70685843096));
#939 = CARTESIAN_POINT('',(-3.730641276132,-9.039523870186));
#940 = CARTESIAN_POINT('',(-3.926990816974,-9.330665751011));
#941 = CARTESIAN_POINT('',(-4.123340357835,-9.562072483426));
#942 = CARTESIAN_POINT('',(-4.319689898687,-9.720690603215));
#943 = CARTESIAN_POINT('',(-4.516039439535,-9.8));
#944 = CARTESIAN_POINT('',(-4.712388980385,-9.8));
#945 = ( GEOMETRIC_REPRESENTATION_CONTEXT(2) 
PARAMETRIC_REPRESENTATION_CONTEXT() REPRESENTATION_CONTEXT('2D SPACE',''
  ) );
#946 = PCURVE('',#633,#947);
#947 = DEFINITIONAL_REPRESENTATION('',(#948),#958);
#948 = B_SPLINE_CURVE_WITH_KNOTS('',8,(#949,#950,#951,#952,#953,#954,
    #955,#956,#957),.UNSPECIFIED.,.F.,.F.,(9,9),(1.570796326795,
    3.14159265359),.PIECEWISE_BEZIER_KNOTS.);
#949 = CARTESIAN_POINT('',(-1.570796326795,-9.));
#950 = CARTESIAN_POINT('',(-1.374446785946,-9.353429173529));
#951 = CARTESIAN_POINT('',(-1.178097245096,-9.706858430972));
#952 = CARTESIAN_POINT('',(-0.981747704246,-10.03952387017));
#953 = CARTESIAN_POINT('',(-0.785398163397,-10.33066575101));
#954 = CARTESIAN_POINT('',(-0.589048622547,-10.56207248336));
#955 = CARTESIAN_POINT('',(-0.392699081699,-10.72069060322));
#956 = CARTESIAN_POINT('',(-0.196349540849,-10.8));
#957 = CARTESIAN_POINT('',(-1.224646799147E-16,-10.8));
#958 = ( GEOMETRIC_REPRESENTATION_CONTEXT(2) 
PARAMETRIC_REPRESENTATION_CONTEXT() REPRESENTATION_CONTEXT('2D SPACE',''
  ) );
#959 = ADVANCED_FACE('',(#960,#1030),#268,.F.);
#960 = FACE_BOUND('',#961,.F.);
#961 = EDGE_LOOP('',(#962,#963,#984,#985,#1006,#1007,#1008,#1009));
#962 = ORIENTED_EDGE('',*,*,#491,.F.);
#963 = ORIENTED_EDGE('',*,*,#964,.T.);
#964 = EDGE_CURVE('',#464,#722,#965,.T.);
#965 = SURFACE_CURVE('',#966,(#970,#977),.PCURVE_S1.);
#966 = LINE('',#967,#968);
#967 = CARTESIAN_POINT('',(146.,2.6645352591E-15,12.));
#968 = VECTOR('',#969,1.);
#969 = DIRECTION('',(0.,-1.,2.22044604925E-16));
#970 = PCURVE('',#268,#971);
#971 = DEFINITIONAL_REPRESENTATION('',(#972),#976);
#972 = LINE('',#973,#974);
#973 = CARTESIAN_POINT('',(0.,0.));
#974 = VECTOR('',#975,1.);
#975 = DIRECTION('',(0.,-1.));
#976 = ( GEOMETRIC_REPRESENTATION_CONTEXT(2) 
PARAMETRIC_REPRESENTATION_CONTEXT() REPRESENTATION_CONTEXT('2D SPACE',''
  ) );
#977 = PCURVE('',#479,#978);
#978 = DEFINITIONAL_REPRESENTATION('',(#979),#983);
#979 = LINE('',#980,#981);
#980 = CARTESIAN_POINT('',(8.062257748299,3.944304526105E-31));
#981 = VECTOR('',#982,1.);
#982 = DIRECTION('',(0.,-1.));
#983 = ( GEOMETRIC_REPRESENTATION_CONTEXT(2) 
PARAMETRIC_REPRESENTATION_CONTEXT() REPRESENTATION_CONTEXT('2D SPACE',''
  ) );
#984 = ORIENTED_EDGE('',*,*,#744,.T.);
#985 = ORIENTED_EDGE('',*,*,#986,.T.);
#986 = EDGE_CURVE('',#745,#543,#987,.T.);
#987 = SURFACE_CURVE('',#988,(#992,#999),.PCURVE_S1.);
#988 = LINE('',#989,#990);
#989 = CARTESIAN_POINT('',(146.,-2.5,11.315164768716));
#990 = VECTOR('',#991,1.);
#991 = DIRECTION('',(0.,-1.,4.930380657631E-32));
#992 = PCURVE('',#268,#993);
#993 = DEFINITIONAL_REPRESENTATION('',(#994),#998);
#994 = LINE('',#995,#996);
#995 = CARTESIAN_POINT('',(0.684835231284,-2.5));
#996 = VECTOR('',#997,1.);
#997 = DIRECTION('',(2.22044604925E-16,-1.));
#998 = ( GEOMETRIC_REPRESENTATION_CONTEXT(2) 
PARAMETRIC_REPRESENTATION_CONTEXT() REPRESENTATION_CONTEXT('2D SPACE',''
  ) );
#999 = PCURVE('',#581,#1000);
#1000 = DEFINITIONAL_REPRESENTATION('',(#1001),#1005);
#1001 = LINE('',#1002,#1003);
#1002 = CARTESIAN_POINT('',(-4.098204488869,-2.5));
#1003 = VECTOR('',#1004,1.);
#1004 = DIRECTION('',(0.,1.));
#1005 = ( GEOMETRIC_REPRESENTATION_CONTEXT(2) 
PARAMETRIC_REPRESENTATION_CONTEXT() REPRESENTATION_CONTEXT('2D SPACE',''
  ) );
#1006 = ORIENTED_EDGE('',*,*,#542,.T.);
#1007 = ORIENTED_EDGE('',*,*,#363,.F.);
#1008 = ORIENTED_EDGE('',*,*,#252,.F.);
#1009 = ORIENTED_EDGE('',*,*,#1010,.T.);
#1010 = EDGE_CURVE('',#253,#492,#1011,.T.);
#1011 = SURFACE_CURVE('',#1012,(#1016,#1023),.PCURVE_S1.);
#1012 = LINE('',#1013,#1014);
#1013 = CARTESIAN_POINT('',(146.,-2.5,11.315164768716));
#1014 = VECTOR('',#1015,1.);
#1015 = DIRECTION('',(0.,-1.,4.930380657631E-32));
#1016 = PCURVE('',#268,#1017);
#1017 = DEFINITIONAL_REPRESENTATION('',(#1018),#1022);
#1018 = LINE('',#1019,#1020);
#1019 = CARTESIAN_POINT('',(0.684835231284,-2.5));
#1020 = VECTOR('',#1021,1.);
#1021 = DIRECTION('',(2.22044604925E-16,-1.));
#1022 = ( GEOMETRIC_REPRESENTATION_CONTEXT(2) 
PARAMETRIC_REPRESENTATION_CONTEXT() REPRESENTATION_CONTEXT('2D SPACE',''
  ) );
#1023 = PCURVE('',#296,#1024);
#1024 = DEFINITIONAL_REPRESENTATION('',(#1025),#1029);
#1025 = LINE('',#1026,#1027);
#1026 = CARTESIAN_POINT('',(-4.098204488869,-2.5));
#1027 = VECTOR('',#1028,1.);
#1028 = DIRECTION('',(0.,1.));
#1029 = ( GEOMETRIC_REPRESENTATION_CONTEXT(2) 
PARAMETRIC_REPRESENTATION_CONTEXT() REPRESENTATION_CONTEXT('2D SPACE',''
  ) );
#1030 = FACE_BOUND('',#1031,.F.);
#1031 = EDGE_LOOP('',(#1032));
#1032 = ORIENTED_EDGE('',*,*,#1033,.T.);
#1033 = EDGE_CURVE('',#1034,#1034,#1036,.T.);
#1034 = VERTEX_POINT('',#1035);
#1035 = CARTESIAN_POINT('',(146.,-5.,3.6));
#1036 = SURFACE_CURVE('',#1037,(#1042,#1053),.PCURVE_S1.);
#1037 = CIRCLE('',#1038,1.8);
#1038 = AXIS2_PLACEMENT_3D('',#1039,#1040,#1041);
#1039 = CARTESIAN_POINT('',(146.,-5.,5.4));
#1040 = DIRECTION('',(-1.,-0.,2.22044604925E-16));
#1041 = DIRECTION('',(-2.22044604925E-16,0.,-1.));
#1042 = PCURVE('',#268,#1043);
#1043 = DEFINITIONAL_REPRESENTATION('',(#1044),#1052);
#1044 = ( BOUNDED_CURVE() B_SPLINE_CURVE(2,(#1045,#1046,#1047,#1048,
#1049,#1050,#1051),.UNSPECIFIED.,.T.,.F.) B_SPLINE_CURVE_WITH_KNOTS((1,2
    ,2,2,2,1),(-2.094395102393,0.,2.094395102393,4.188790204786,
6.28318530718,8.377580409573),.UNSPECIFIED.) CURVE() 
GEOMETRIC_REPRESENTATION_ITEM() RATIONAL_B_SPLINE_CURVE((1.,0.5,1.,0.5,
1.,0.5,1.)) REPRESENTATION_ITEM('') );
#1045 = CARTESIAN_POINT('',(8.4,-5.));
#1046 = CARTESIAN_POINT('',(8.4,-8.117691453624));
#1047 = CARTESIAN_POINT('',(5.7,-6.558845726812));
#1048 = CARTESIAN_POINT('',(3.,-5.));
#1049 = CARTESIAN_POINT('',(5.7,-3.441154273188));
#1050 = CARTESIAN_POINT('',(8.4,-1.882308546376));
#1051 = CARTESIAN_POINT('',(8.4,-5.));
#1052 = ( GEOMETRIC_REPRESENTATION_CONTEXT(2) 
PARAMETRIC_REPRESENTATION_CONTEXT() REPRESENTATION_CONTEXT('2D SPACE',''
  ) );
#1053 = PCURVE('',#1054,#1059);
#1054 = CYLINDRICAL_SURFACE('',#1055,1.8);
#1055 = AXIS2_PLACEMENT_3D('',#1056,#1057,#1058);
#1056 = CARTESIAN_POINT('',(143.,-5.,5.4));
#1057 = DIRECTION('',(-1.,-0.,2.22044604925E-16));
#1058 = DIRECTION('',(-2.22044604925E-16,0.,-1.));
#1059 = DEFINITIONAL_REPRESENTATION('',(#1060),#1064);
#1060 = LINE('',#1061,#1062);
#1061 = CARTESIAN_POINT('',(-6.28318530718,-3.));
#1062 = VECTOR('',#1063,1.);
#1063 = DIRECTION('',(1.,-0.));
#1064 = ( GEOMETRIC_REPRESENTATION_CONTEXT(2) 
PARAMETRIC_REPRESENTATION_CONTEXT() REPRESENTATION_CONTEXT('2D SPACE',''
  ) );
#1065 = ADVANCED_FACE('',(#1066),#296,.T.);
#1066 = FACE_BOUND('',#1067,.T.);
#1067 = EDGE_LOOP('',(#1068,#1069,#1070));
#1068 = ORIENTED_EDGE('',*,*,#514,.T.);
#1069 = ORIENTED_EDGE('',*,*,#280,.F.);
#1070 = ORIENTED_EDGE('',*,*,#1010,.T.);
#1071 = ADVANCED_FACE('',(#1072),#348,.F.);
#1072 = FACE_BOUND('',#1073,.T.);
#1073 = EDGE_LOOP('',(#1074,#1075,#1096,#1097,#1133,#1167,#1168));
#1074 = ORIENTED_EDGE('',*,*,#331,.T.);
#1075 = ORIENTED_EDGE('',*,*,#1076,.T.);
#1076 = EDGE_CURVE('',#332,#796,#1077,.T.);
#1077 = SEAM_CURVE('',#1078,(#1082,#1089),.PCURVE_S1.);
#1078 = LINE('',#1079,#1080);
#1079 = CARTESIAN_POINT('',(152.8,4.,5.4));
#1080 = VECTOR('',#1081,1.);
#1081 = DIRECTION('',(0.,-1.,-2.22044604925E-16));
#1082 = PCURVE('',#348,#1083);
#1083 = DEFINITIONAL_REPRESENTATION('',(#1084),#1088);
#1084 = LINE('',#1085,#1086);
#1085 = CARTESIAN_POINT('',(-6.28318530718,0.));
#1086 = VECTOR('',#1087,1.);
#1087 = DIRECTION('',(-0.,-1.));
#1088 = ( GEOMETRIC_REPRESENTATION_CONTEXT(2) 
PARAMETRIC_REPRESENTATION_CONTEXT() REPRESENTATION_CONTEXT('2D SPACE',''
  ) );
#1089 = PCURVE('',#348,#1090);
#1090 = DEFINITIONAL_REPRESENTATION('',(#1091),#1095);
#1091 = LINE('',#1092,#1093);
#1092 = CARTESIAN_POINT('',(-0.,0.));
#1093 = VECTOR('',#1094,1.);
#1094 = DIRECTION('',(-0.,-1.));
#1095 = ( GEOMETRIC_REPRESENTATION_CONTEXT(2) 
PARAMETRIC_REPRESENTATION_CONTEXT() REPRESENTATION_CONTEXT('2D SPACE',''
  ) );
#1096 = ORIENTED_EDGE('',*,*,#793,.F.);
#1097 = ORIENTED_EDGE('',*,*,#1098,.F.);
#1098 = EDGE_CURVE('',#1099,#794,#1101,.T.);
#1099 = VERTEX_POINT('',#1100);
#1100 = CARTESIAN_POINT('',(149.2,-3.2,5.4));
#1101 = SURFACE_CURVE('',#1102,(#1107,#1120),.PCURVE_S1.);
#1102 = ELLIPSE('',#1103,2.545584412272,1.8);
#1103 = AXIS2_PLACEMENT_3D('',#1104,#1105,#1106);
#1104 = CARTESIAN_POINT('',(151.,-5.,5.4));
#1105 = DIRECTION('',(0.707106781187,0.707106781187,0.));
#1106 = DIRECTION('',(-0.707106781187,0.707106781187,3.140184917368E-16)
  );
#1107 = PCURVE('',#348,#1108);
#1108 = DEFINITIONAL_REPRESENTATION('',(#1109),#1119);
#1109 = B_SPLINE_CURVE_WITH_KNOTS('',8,(#1110,#1111,#1112,#1113,#1114,
    #1115,#1116,#1117,#1118),.UNSPECIFIED.,.F.,.F.,(9,9),(0.,
    1.570796326795),.PIECEWISE_BEZIER_KNOTS.);
#1110 = CARTESIAN_POINT('',(-3.14159265359,-7.2));
#1111 = CARTESIAN_POINT('',(-2.94524311274,-7.2));
#1112 = CARTESIAN_POINT('',(-2.748893571889,-7.279309396774));
#1113 = CARTESIAN_POINT('',(-2.552544031043,-7.437927516563));
#1114 = CARTESIAN_POINT('',(-2.356194490192,-7.669334248974));
#1115 = CARTESIAN_POINT('',(-2.159844949349,-7.960476129796));
#1116 = CARTESIAN_POINT('',(-1.963495408491,-8.293141569025));
#1117 = CARTESIAN_POINT('',(-1.767145867644,-8.646570826471));
#1118 = CARTESIAN_POINT('',(-1.570796326795,-9.));
#1119 = ( GEOMETRIC_REPRESENTATION_CONTEXT(2) 
PARAMETRIC_REPRESENTATION_CONTEXT() REPRESENTATION_CONTEXT('2D SPACE',''
  ) );
#1120 = PCURVE('',#1054,#1121);
#1121 = DEFINITIONAL_REPRESENTATION('',(#1122),#1132);
#1122 = B_SPLINE_CURVE_WITH_KNOTS('',8,(#1123,#1124,#1125,#1126,#1127,
    #1128,#1129,#1130,#1131),.UNSPECIFIED.,.F.,.F.,(9,9),(0.,
    1.570796326795),.PIECEWISE_BEZIER_KNOTS.);
#1123 = CARTESIAN_POINT('',(-1.570796326795,-6.2));
#1124 = CARTESIAN_POINT('',(-1.767145867644,-6.2));
#1125 = CARTESIAN_POINT('',(-1.963495408488,-6.279309396767));
#1126 = CARTESIAN_POINT('',(-2.159844949353,-6.437927516614));
#1127 = CARTESIAN_POINT('',(-2.356194490179,-6.669334248927));
#1128 = CARTESIAN_POINT('',(-2.55254403105,-6.960476129821));
#1129 = CARTESIAN_POINT('',(-2.748893571886,-7.293141569016));
#1130 = CARTESIAN_POINT('',(-2.94524311274,-7.646570826471));
#1131 = CARTESIAN_POINT('',(-3.14159265359,-8.));
#1132 = ( GEOMETRIC_REPRESENTATION_CONTEXT(2) 
PARAMETRIC_REPRESENTATION_CONTEXT() REPRESENTATION_CONTEXT('2D SPACE',''
  ) );
#1133 = ORIENTED_EDGE('',*,*,#1134,.F.);
#1134 = EDGE_CURVE('',#832,#1099,#1135,.T.);
#1135 = SURFACE_CURVE('',#1136,(#1141,#1154),.PCURVE_S1.);
#1136 = ELLIPSE('',#1137,2.545584412272,1.8);
#1137 = AXIS2_PLACEMENT_3D('',#1138,#1139,#1140);
#1138 = CARTESIAN_POINT('',(151.,-5.,5.4));
#1139 = DIRECTION('',(0.707106781187,0.707106781187,0.));
#1140 = DIRECTION('',(-0.707106781187,0.707106781187,3.140184917368E-16)
  );
#1141 = PCURVE('',#348,#1142);
#1142 = DEFINITIONAL_REPRESENTATION('',(#1143),#1153);
#1143 = B_SPLINE_CURVE_WITH_KNOTS('',8,(#1144,#1145,#1146,#1147,#1148,
    #1149,#1150,#1151,#1152),.UNSPECIFIED.,.F.,.F.,(9,9),(4.712388980385
    ,6.28318530718),.PIECEWISE_BEZIER_KNOTS.);
#1144 = CARTESIAN_POINT('',(-4.712388980385,-9.));
#1145 = CARTESIAN_POINT('',(-4.516039439535,-8.646570826471));
#1146 = CARTESIAN_POINT('',(-4.319689898681,-8.293141569025));
#1147 = CARTESIAN_POINT('',(-4.123340357843,-7.960476129811));
#1148 = CARTESIAN_POINT('',(-3.926990816955,-7.669334248945));
#1149 = CARTESIAN_POINT('',(-3.730641276141,-7.437927516581));
#1150 = CARTESIAN_POINT('',(-3.534291735285,-7.27930939677));
#1151 = CARTESIAN_POINT('',(-3.337942194439,-7.2));
#1152 = CARTESIAN_POINT('',(-3.14159265359,-7.2));
#1153 = ( GEOMETRIC_REPRESENTATION_CONTEXT(2) 
PARAMETRIC_REPRESENTATION_CONTEXT() REPRESENTATION_CONTEXT('2D SPACE',''
  ) );
#1154 = PCURVE('',#1054,#1155);
#1155 = DEFINITIONAL_REPRESENTATION('',(#1156),#1166);
#1156 = B_SPLINE_CURVE_WITH_KNOTS('',8,(#1157,#1158,#1159,#1160,#1161,
    #1162,#1163,#1164,#1165),.UNSPECIFIED.,.F.,.F.,(9,9),(4.712388980385
    ,6.28318530718),.PIECEWISE_BEZIER_KNOTS.);
#1157 = CARTESIAN_POINT('',(0.,-8.));
#1158 = CARTESIAN_POINT('',(-0.196349540849,-7.646570826471));
#1159 = CARTESIAN_POINT('',(-0.392699081699,-7.293141569025));
#1160 = CARTESIAN_POINT('',(-0.589048622548,-6.9604761298));
#1161 = CARTESIAN_POINT('',(-0.785398163394,-6.669334248963));
#1162 = CARTESIAN_POINT('',(-0.981747704247,-6.437927516574));
#1163 = CARTESIAN_POINT('',(-1.178097245096,-6.279309396775));
#1164 = CARTESIAN_POINT('',(-1.374446785946,-6.2));
#1165 = CARTESIAN_POINT('',(-1.570796326795,-6.2));
#1166 = ( GEOMETRIC_REPRESENTATION_CONTEXT(2) 
PARAMETRIC_REPRESENTATION_CONTEXT() REPRESENTATION_CONTEXT('2D SPACE',''
  ) );
#1167 = ORIENTED_EDGE('',*,*,#831,.F.);
#1168 = ORIENTED_EDGE('',*,*,#1076,.F.);
#1169 = ADVANCED_FACE('',(#1170),#479,.F.);
#1170 = FACE_BOUND('',#1171,.F.);
#1171 = EDGE_LOOP('',(#1172,#1173,#1194,#1195));
#1172 = ORIENTED_EDGE('',*,*,#463,.F.);
#1173 = ORIENTED_EDGE('',*,*,#1174,.T.);
#1174 = EDGE_CURVE('',#436,#699,#1175,.T.);
#1175 = SURFACE_CURVE('',#1176,(#1180,#1187),.PCURVE_S1.);
#1176 = LINE('',#1177,#1178);
#1177 = CARTESIAN_POINT('',(147.,4.440892098501E-15,20.));
#1178 = VECTOR('',#1179,1.);
#1179 = DIRECTION('',(0.,-1.,2.22044604925E-16));
#1180 = PCURVE('',#479,#1181);
#1181 = DEFINITIONAL_REPRESENTATION('',(#1182),#1186);
#1182 = LINE('',#1183,#1184);
#1183 = CARTESIAN_POINT('',(-0.,0.));
#1184 = VECTOR('',#1185,1.);
#1185 = DIRECTION('',(0.,-1.));
#1186 = ( GEOMETRIC_REPRESENTATION_CONTEXT(2) 
PARAMETRIC_REPRESENTATION_CONTEXT() REPRESENTATION_CONTEXT('2D SPACE',''
  ) );
#1187 = PCURVE('',#451,#1188);
#1188 = DEFINITIONAL_REPRESENTATION('',(#1189),#1193);
#1189 = LINE('',#1190,#1191);
#1190 = CARTESIAN_POINT('',(9.,0.));
#1191 = VECTOR('',#1192,1.);
#1192 = DIRECTION('',(0.,-1.));
#1193 = ( GEOMETRIC_REPRESENTATION_CONTEXT(2) 
PARAMETRIC_REPRESENTATION_CONTEXT() REPRESENTATION_CONTEXT('2D SPACE',''
  ) );
#1194 = ORIENTED_EDGE('',*,*,#721,.T.);
#1195 = ORIENTED_EDGE('',*,*,#964,.F.);
#1196 = ADVANCED_FACE('',(#1197),#451,.F.);
#1197 = FACE_BOUND('',#1198,.F.);
#1198 = EDGE_LOOP('',(#1199,#1200,#1201,#1202));
#1199 = ORIENTED_EDGE('',*,*,#435,.F.);
#1200 = ORIENTED_EDGE('',*,*,#673,.T.);
#1201 = ORIENTED_EDGE('',*,*,#698,.T.);
#1202 = ORIENTED_EDGE('',*,*,#1174,.F.);
#1203 = ADVANCED_FACE('',(#1204),#581,.T.);
#1204 = FACE_BOUND('',#1205,.T.);
#1205 = EDGE_LOOP('',(#1206,#1207,#1208));
#1206 = ORIENTED_EDGE('',*,*,#565,.T.);
#1207 = ORIENTED_EDGE('',*,*,#767,.F.);
#1208 = ORIENTED_EDGE('',*,*,#986,.T.);
#1209 = ADVANCED_FACE('',(#1210),#633,.F.);
#1210 = FACE_BOUND('',#1211,.T.);
#1211 = EDGE_LOOP('',(#1212,#1260,#1261,#1282,#1283,#1284));
#1212 = ORIENTED_EDGE('',*,*,#1213,.T.);
#1213 = EDGE_CURVE('',#832,#794,#1214,.T.);
#1214 = SURFACE_CURVE('',#1215,(#1220,#1240),.PCURVE_S1.);
#1215 = ELLIPSE('',#1216,2.545584412272,1.8);
#1216 = AXIS2_PLACEMENT_3D('',#1217,#1218,#1219);
#1217 = CARTESIAN_POINT('',(151.,-5.,5.4));
#1218 = DIRECTION('',(-0.707106781187,0.707106781187,3.140184917368E-16)
  );
#1219 = DIRECTION('',(0.707106781187,0.707106781187,0.));
#1220 = PCURVE('',#633,#1221);
#1221 = DEFINITIONAL_REPRESENTATION('',(#1222),#1239);
#1222 = B_SPLINE_CURVE_WITH_KNOTS('',8,(#1223,#1224,#1225,#1226,#1227,
    #1228,#1229,#1230,#1231,#1232,#1233,#1234,#1235,#1236,#1237,#1238),
  .UNSPECIFIED.,.F.,.F.,(9,7,9),(1.570796326795,3.14159265359,
    4.712388980385),.UNSPECIFIED.);
#1223 = CARTESIAN_POINT('',(-4.712388980385,-9.));
#1224 = CARTESIAN_POINT('',(-4.516039439535,-9.353429173529));
#1225 = CARTESIAN_POINT('',(-4.319689898687,-9.706858430983));
#1226 = CARTESIAN_POINT('',(-4.123340357823,-10.03952387011));
#1227 = CARTESIAN_POINT('',(-3.926990816995,-10.3306657511));
#1228 = CARTESIAN_POINT('',(-3.730641276128,-10.56207248335));
#1229 = CARTESIAN_POINT('',(-3.53429173529,-10.72069060323));
#1230 = CARTESIAN_POINT('',(-3.337942194439,-10.8));
#1231 = CARTESIAN_POINT('',(-2.94524311274,-10.8));
#1232 = CARTESIAN_POINT('',(-2.74889357189,-10.7206906032));
#1233 = CARTESIAN_POINT('',(-2.552544031044,-10.56207248342));
#1234 = CARTESIAN_POINT('',(-2.356194490183,-10.33066575094));
#1235 = CARTESIAN_POINT('',(-2.159844949342,-10.03952387021));
#1236 = CARTESIAN_POINT('',(-1.963495408492,-9.706858430956));
#1237 = CARTESIAN_POINT('',(-1.767145867644,-9.353429173529));
#1238 = CARTESIAN_POINT('',(-1.570796326795,-9.));
#1239 = ( GEOMETRIC_REPRESENTATION_CONTEXT(2) 
PARAMETRIC_REPRESENTATION_CONTEXT() REPRESENTATION_CONTEXT('2D SPACE',''
  ) );
#1240 = PCURVE('',#1054,#1241);
#1241 = DEFINITIONAL_REPRESENTATION('',(#1242),#1259);
#1242 = B_SPLINE_CURVE_WITH_KNOTS('',8,(#1243,#1244,#1245,#1246,#1247,
    #1248,#1249,#1250,#1251,#1252,#1253,#1254,#1255,#1256,#1257,#1258),
  .UNSPECIFIED.,.F.,.F.,(9,7,9),(1.570796326795,3.14159265359,
    4.712388980385),.UNSPECIFIED.);
#1243 = CARTESIAN_POINT('',(-6.28318530718,-8.));
#1244 = CARTESIAN_POINT('',(-6.08683576633,-7.646570826471));
#1245 = CARTESIAN_POINT('',(-5.890486225481,-7.293141569022));
#1246 = CARTESIAN_POINT('',(-5.694136684632,-6.960476129814));
#1247 = CARTESIAN_POINT('',(-5.497787143783,-6.669334248949));
#1248 = CARTESIAN_POINT('',(-5.301437602934,-6.437927516588));
#1249 = CARTESIAN_POINT('',(-5.105088062084,-6.279309396771));
#1250 = CARTESIAN_POINT('',(-4.908738521234,-6.2));
#1251 = CARTESIAN_POINT('',(-4.516039439535,-6.2));
#1252 = CARTESIAN_POINT('',(-4.31968989869,-6.279309396767));
#1253 = CARTESIAN_POINT('',(-4.123340357831,-6.437927516614));
#1254 = CARTESIAN_POINT('',(-3.926990817006,-6.669334248927));
#1255 = CARTESIAN_POINT('',(-3.730641276135,-6.960476129821));
#1256 = CARTESIAN_POINT('',(-3.534291735292,-7.293141569016));
#1257 = CARTESIAN_POINT('',(-3.337942194439,-7.646570826471));
#1258 = CARTESIAN_POINT('',(-3.14159265359,-8.));
#1259 = ( GEOMETRIC_REPRESENTATION_CONTEXT(2) 
PARAMETRIC_REPRESENTATION_CONTEXT() REPRESENTATION_CONTEXT('2D SPACE',''
  ) );
#1260 = ORIENTED_EDGE('',*,*,#926,.T.);
#1261 = ORIENTED_EDGE('',*,*,#1262,.T.);
#1262 = EDGE_CURVE('',#891,#617,#1263,.T.);
#1263 = SEAM_CURVE('',#1264,(#1268,#1275),.PCURVE_S1.);
#1264 = LINE('',#1265,#1266);
#1265 = CARTESIAN_POINT('',(152.8,4.,5.4));
#1266 = VECTOR('',#1267,1.);
#1267 = DIRECTION('',(0.,-1.,-2.22044604925E-16));
#1268 = PCURVE('',#633,#1269);
#1269 = DEFINITIONAL_REPRESENTATION('',(#1270),#1274);
#1270 = LINE('',#1271,#1272);
#1271 = CARTESIAN_POINT('',(-6.28318530718,0.));
#1272 = VECTOR('',#1273,1.);
#1273 = DIRECTION('',(-0.,-1.));
#1274 = ( GEOMETRIC_REPRESENTATION_CONTEXT(2) 
PARAMETRIC_REPRESENTATION_CONTEXT() REPRESENTATION_CONTEXT('2D SPACE',''
  ) );
#1275 = PCURVE('',#633,#1276);
#1276 = DEFINITIONAL_REPRESENTATION('',(#1277),#1281);
#1277 = LINE('',#1278,#1279);
#1278 = CARTESIAN_POINT('',(-0.,0.));
#1279 = VECTOR('',#1280,1.);
#1280 = DIRECTION('',(-0.,-1.));
#1281 = ( GEOMETRIC_REPRESENTATION_CONTEXT(2) 
PARAMETRIC_REPRESENTATION_CONTEXT() REPRESENTATION_CONTEXT('2D SPACE',''
  ) );
#1282 = ORIENTED_EDGE('',*,*,#616,.F.);
#1283 = ORIENTED_EDGE('',*,*,#1262,.F.);
#1284 = ORIENTED_EDGE('',*,*,#890,.T.);
#1285 = ADVANCED_FACE('',(#1286),#1054,.F.);
#1286 = FACE_BOUND('',#1287,.T.);
#1287 = EDGE_LOOP('',(#1288,#1289,#1310,#1311,#1312,#1313));
#1288 = ORIENTED_EDGE('',*,*,#1033,.T.);
#1289 = ORIENTED_EDGE('',*,*,#1290,.T.);
#1290 = EDGE_CURVE('',#1034,#832,#1291,.T.);
#1291 = SEAM_CURVE('',#1292,(#1296,#1303),.PCURVE_S1.);
#1292 = LINE('',#1293,#1294);
#1293 = CARTESIAN_POINT('',(143.,-5.,3.6));
#1294 = VECTOR('',#1295,1.);
#1295 = DIRECTION('',(1.,0.,-2.22044604925E-16));
#1296 = PCURVE('',#1054,#1297);
#1297 = DEFINITIONAL_REPRESENTATION('',(#1298),#1302);
#1298 = LINE('',#1299,#1300);
#1299 = CARTESIAN_POINT('',(-6.28318530718,0.));
#1300 = VECTOR('',#1301,1.);
#1301 = DIRECTION('',(-0.,-1.));
#1302 = ( GEOMETRIC_REPRESENTATION_CONTEXT(2) 
PARAMETRIC_REPRESENTATION_CONTEXT() REPRESENTATION_CONTEXT('2D SPACE',''
  ) );
#1303 = PCURVE('',#1054,#1304);
#1304 = DEFINITIONAL_REPRESENTATION('',(#1305),#1309);
#1305 = LINE('',#1306,#1307);
#1306 = CARTESIAN_POINT('',(-0.,0.));
#1307 = VECTOR('',#1308,1.);
#1308 = DIRECTION('',(-0.,-1.));
#1309 = ( GEOMETRIC_REPRESENTATION_CONTEXT(2) 
PARAMETRIC_REPRESENTATION_CONTEXT() REPRESENTATION_CONTEXT('2D SPACE',''
  ) );
#1310 = ORIENTED_EDGE('',*,*,#1134,.T.);
#1311 = ORIENTED_EDGE('',*,*,#1098,.T.);
#1312 = ORIENTED_EDGE('',*,*,#1213,.F.);
#1313 = ORIENTED_EDGE('',*,*,#1290,.F.);
#1314 = ( GEOMETRIC_REPRESENTATION_CONTEXT(3) 
GLOBAL_UNCERTAINTY_ASSIGNED_CONTEXT((#1318)) 
GLOBAL_UNIT_ASSIGNED_CONTEXT((#1315,#1316,#1317)) REPRESENTATION_CONTEXT
('Context #1','3D Context with UNIT and UNCERTAINTY') );
#1315 = ( LENGTH_UNIT() NAMED_UNIT(*) SI_UNIT(.MILLI.,.METRE.) );
#1316 = ( NAMED_UNIT(*) PLANE_ANGLE_UNIT() SI_UNIT($,.RADIAN.) );
#1317 = ( NAMED_UNIT(*) SI_UNIT($,.STERADIAN.) SOLID_ANGLE_UNIT() );
#1318 = UNCERTAINTY_MEASURE_WITH_UNIT(LENGTH_MEASURE(1.E-05),#1315,
  'distance_accuracy_value','confusion accuracy');
#1319 = PRODUCT_RELATED_PRODUCT_CATEGORY('part',$,(#7));
#1320 = MECHANICAL_DESIGN_GEOMETRIC_PRESENTATION_REPRESENTATION('',(
    #1321),#1314);
#1321 = STYLED_ITEM('color',(#1322),#15);
#1322 = PRESENTATION_STYLE_ASSIGNMENT((#1323,#1331));
#1323 = SURFACE_STYLE_USAGE(.BOTH.,#1324);
#1324 = SURFACE_SIDE_STYLE('',(#1325,#1329));
#1325 = SURFACE_STYLE_FILL_AREA(#1326);
#1326 = FILL_AREA_STYLE('',(#1327));
#1327 = FILL_AREA_STYLE_COLOUR('',#1328);
#1328 = COLOUR_RGB('',0.89019602593,0.53333300172,0.686275001135);
#1329 = SURFACE_STYLE_RENDERING_WITH_PROPERTIES(.NORMAL_SHADING.,#1328,(
    #1330));
#1330 = SURFACE_STYLE_TRANSPARENT(0.899999976158);
#1331 = CURVE_STYLE('',#1332,POSITIVE_LENGTH_MEASURE(0.1),#1333);
#1332 = DRAUGHTING_PRE_DEFINED_CURVE_FONT('continuous');
#1333 = COLOUR_RGB('',9.803921802644E-02,9.803921802644E-02,
  9.803921802644E-02);
ENDSEC;
END-ISO-10303-21;
