<?xml version="1.0"?>
<!DOCTYPE svg PUBLIC "-//W3C//DTD SVG 1.1//EN" "http://www.w3.org/Graphics/SVG/1.1/DTD/svg11.dtd">
<svg width="300.0843131310228mm" height="232.74795476298675mm" viewBox="0 0 300.0843131310228 232.74795476298675" xmlns="http://www.w3.org/2000/svg" version="1.1">
<g id="Part__Part2DObjectPython" transform="translate(150.079755,-18.995308) scale(1,-1)">
<path id="Part__Part2DObjectPython_w0000"  d="M -45.0 -40.0 L -10.0 -40.0 L -10.0 -21.937311 L 10.0 -21.937311 L 10.0 -40.0 L 45.0 -40.0 L 45.0 -80.0 C 45.0 -100.0 71.73670000000001 -117.5 93.69281666666669 -126.29733333333334 C 115.64893333333333 -135.09466666666668 132.82446666666667 -135.18933333333334 141.41223333333335 -149.0353333333333 C 150.0 -162.88133333333332 150.0 -190.47866666666664 133.33333333333331 -209.767 C 116.66666666666663 -229.05533333333335 83.33333333333329 -240.03466666666668 49.99999999999996 -245.35533333333333 C 16.66666666666666 -250.67600000000002 -16.666666666666632 -250.33800000000002 -49.999999999999915 -244.74933333333337 C -83.33333333333329 -239.16066666666669 -116.66666666666664 -228.32133333333334 -133.33333333333331 -209.15266666666668 C -150.0 -189.984 -150.0 -162.486 -141.66666666666669 -148.73899999999998 C -133.33333333333334 -134.992 -116.66666666666667 -134.99599999999998 -94.58333333333334 -126.612 C -72.5 -118.22800000000001 -45.0 -101.456 -45.0 -80.0 L -45.0 -40.0 " stroke="#000000" stroke-width="0.7 px" style="stroke-width:0.7;stroke-miterlimit:4;stroke-dasharray:none;stroke-linecap:square;fill:none;fill-opacity:1;fill-rule: evenodd"/>
<title>b'Part__Part2DObjectPython'</title>
</g>
</svg>