ISO-10303-21;
HEADER;
FILE_DESCRIPTION(('FreeCAD Model'),'2;1');
FILE_NAME('Open CASCADE Shape Model','2025-11-30T09:18:19',(''),(''),
  'Open CASCADE STEP processor 7.8','FreeCAD','Unknown');
FILE_SCHEMA(('AUTOMOTIVE_DESIGN { 1 0 10303 214 1 1 1 1 }'));
ENDSEC;
DATA;
#1 = APPLICATION_PROTOCOL_DEFINITION('international standard',
  'automotive_design',2000,#2);
#2 = APPLICATION_CONTEXT(
  'core data for automotive mechanical design processes');
#3 = SHAPE_DEFINITION_REPRESENTATION(#4,#10);
#4 = PRODUCT_DEFINITION_SHAPE('','',#5);
#5 = PRODUCT_DEFINITION('design','',#6,#9);
#6 = PRODUCT_DEFINITION_FORMATION('','',#7);
#7 = PRODUCT('1-5mm','1-5mm','',(#8));
#8 = PRODUCT_CONTEXT('',#2,'mechanical');
#9 = PRODUCT_DEFINITION_CONTEXT('part definition',#2,'design');
#10 = ADVANCED_BREP_SHAPE_REPRESENTATION('',(#11,#15),#864);
#11 = AXIS2_PLACEMENT_3D('',#12,#13,#14);
#12 = CARTESIAN_POINT('',(0.,0.,0.));
#13 = DIRECTION('',(0.,0.,1.));
#14 = DIRECTION('',(1.,0.,-0.));
#15 = MANIFOLD_SOLID_BREP('',#16);
#16 = CLOSED_SHELL('',(#17,#57,#88,#119,#158,#198,#229,#268,#299,#330,
    #369,#400,#431,#470,#501,#523,#540,#616,#638,#650,#667,#684,#709,
    #718,#763,#786,#803,#815,#833,#851));
#17 = ADVANCED_FACE('',(#18),#52,.F.);
#18 = FACE_BOUND('',#19,.F.);
#19 = EDGE_LOOP('',(#20,#30,#38,#46));
#20 = ORIENTED_EDGE('',*,*,#21,.T.);
#21 = EDGE_CURVE('',#22,#24,#26,.T.);
#22 = VERTEX_POINT('',#23);
#23 = CARTESIAN_POINT('',(24.052731,-5.056715,0.));
#24 = VERTEX_POINT('',#25);
#25 = CARTESIAN_POINT('',(24.052731,-5.056715,1.));
#26 = LINE('',#27,#28);
#27 = CARTESIAN_POINT('',(24.052731,-5.056715,0.));
#28 = VECTOR('',#29,1.);
#29 = DIRECTION('',(0.,0.,1.));
#30 = ORIENTED_EDGE('',*,*,#31,.T.);
#31 = EDGE_CURVE('',#24,#32,#34,.T.);
#32 = VERTEX_POINT('',#33);
#33 = CARTESIAN_POINT('',(9.842439,0.,1.));
#34 = LINE('',#35,#36);
#35 = CARTESIAN_POINT('',(24.052731,-5.056715,1.));
#36 = VECTOR('',#37,1.);
#37 = DIRECTION('',(-0.942127459749,0.335254902406,0.));
#38 = ORIENTED_EDGE('',*,*,#39,.F.);
#39 = EDGE_CURVE('',#40,#32,#42,.T.);
#40 = VERTEX_POINT('',#41);
#41 = CARTESIAN_POINT('',(9.842439,-1.403881445127E-15,0.));
#42 = LINE('',#43,#44);
#43 = CARTESIAN_POINT('',(9.842439,0.,0.));
#44 = VECTOR('',#45,1.);
#45 = DIRECTION('',(0.,0.,1.));
#46 = ORIENTED_EDGE('',*,*,#47,.F.);
#47 = EDGE_CURVE('',#22,#40,#48,.T.);
#48 = LINE('',#49,#50);
#49 = CARTESIAN_POINT('',(24.052731,-5.056715,0.));
#50 = VECTOR('',#51,1.);
#51 = DIRECTION('',(-0.942127459749,0.335254902406,0.));
#52 = PLANE('',#53);
#53 = AXIS2_PLACEMENT_3D('',#54,#55,#56);
#54 = CARTESIAN_POINT('',(24.052731,-5.056715,0.));
#55 = DIRECTION('',(-0.335254902406,-0.942127459749,0.));
#56 = DIRECTION('',(-0.942127459749,0.335254902406,0.));
#57 = ADVANCED_FACE('',(#58),#83,.F.);
#58 = FACE_BOUND('',#59,.F.);
#59 = EDGE_LOOP('',(#60,#70,#76,#77));
#60 = ORIENTED_EDGE('',*,*,#61,.T.);
#61 = EDGE_CURVE('',#62,#64,#66,.T.);
#62 = VERTEX_POINT('',#63);
#63 = CARTESIAN_POINT('',(20.,-13.557146,0.));
#64 = VERTEX_POINT('',#65);
#65 = CARTESIAN_POINT('',(20.,-13.557146,1.));
#66 = LINE('',#67,#68);
#67 = CARTESIAN_POINT('',(20.,-13.557146,0.));
#68 = VECTOR('',#69,1.);
#69 = DIRECTION('',(0.,0.,1.));
#70 = ORIENTED_EDGE('',*,*,#71,.T.);
#71 = EDGE_CURVE('',#64,#24,#72,.T.);
#72 = LINE('',#73,#74);
#73 = CARTESIAN_POINT('',(20.,-13.557146,1.));
#74 = VECTOR('',#75,1.);
#75 = DIRECTION('',(0.430358264312,0.90265816583,0.));
#76 = ORIENTED_EDGE('',*,*,#21,.F.);
#77 = ORIENTED_EDGE('',*,*,#78,.F.);
#78 = EDGE_CURVE('',#62,#22,#79,.T.);
#79 = LINE('',#80,#81);
#80 = CARTESIAN_POINT('',(20.,-13.557146,0.));
#81 = VECTOR('',#82,1.);
#82 = DIRECTION('',(0.430358264312,0.90265816583,0.));
#83 = PLANE('',#84);
#84 = AXIS2_PLACEMENT_3D('',#85,#86,#87);
#85 = CARTESIAN_POINT('',(20.,-13.557146,0.));
#86 = DIRECTION('',(-0.90265816583,0.430358264312,0.));
#87 = DIRECTION('',(0.430358264312,0.90265816583,0.));
#88 = ADVANCED_FACE('',(#89),#114,.F.);
#89 = FACE_BOUND('',#90,.F.);
#90 = EDGE_LOOP('',(#91,#101,#107,#108));
#91 = ORIENTED_EDGE('',*,*,#92,.T.);
#92 = EDGE_CURVE('',#93,#95,#97,.T.);
#93 = VERTEX_POINT('',#94);
#94 = CARTESIAN_POINT('',(6.959655360315,-6.959655360315,0.));
#95 = VERTEX_POINT('',#96);
#96 = CARTESIAN_POINT('',(6.959655360315,-6.959655360315,1.));
#97 = LINE('',#98,#99);
#98 = CARTESIAN_POINT('',(6.959655360315,-6.959655360315,0.));
#99 = VECTOR('',#100,1.);
#100 = DIRECTION('',(0.,0.,1.));
#101 = ORIENTED_EDGE('',*,*,#102,.T.);
#102 = EDGE_CURVE('',#95,#64,#103,.T.);
#103 = LINE('',#104,#105);
#104 = CARTESIAN_POINT('',(6.959655360315,-6.959655360315,1.));
#105 = VECTOR('',#106,1.);
#106 = DIRECTION('',(0.892300937954,-0.451441066061,0.));
#107 = ORIENTED_EDGE('',*,*,#61,.F.);
#108 = ORIENTED_EDGE('',*,*,#109,.F.);
#109 = EDGE_CURVE('',#93,#62,#110,.T.);
#110 = LINE('',#111,#112);
#111 = CARTESIAN_POINT('',(6.959655360315,-6.959655360315,0.));
#112 = VECTOR('',#113,1.);
#113 = DIRECTION('',(0.892300937954,-0.451441066061,0.));
#114 = PLANE('',#115);
#115 = AXIS2_PLACEMENT_3D('',#116,#117,#118);
#116 = CARTESIAN_POINT('',(6.959655360315,-6.959655360315,0.));
#117 = DIRECTION('',(0.451441066061,0.892300937954,0.));
#118 = DIRECTION('',(0.892300937954,-0.451441066061,0.));
#119 = ADVANCED_FACE('',(#120),#153,.F.);
#120 = FACE_BOUND('',#121,.F.);
#121 = EDGE_LOOP('',(#122,#123,#131,#139,#147));
#122 = ORIENTED_EDGE('',*,*,#39,.T.);
#123 = ORIENTED_EDGE('',*,*,#124,.T.);
#124 = EDGE_CURVE('',#32,#125,#127,.T.);
#125 = VERTEX_POINT('',#126);
#126 = CARTESIAN_POINT('',(9.842439,-1.7763568394E-15,2.));
#127 = LINE('',#128,#129);
#128 = CARTESIAN_POINT('',(9.842439,-1.7763568394E-15,0.));
#129 = VECTOR('',#130,1.);
#130 = DIRECTION('',(0.,0.,1.));
#131 = ORIENTED_EDGE('',*,*,#132,.T.);
#132 = EDGE_CURVE('',#125,#133,#135,.T.);
#133 = VERTEX_POINT('',#134);
#134 = CARTESIAN_POINT('',(23.728485493867,4.555785753595,2.));
#135 = LINE('',#136,#137);
#136 = CARTESIAN_POINT('',(9.842439,-1.7763568394E-15,2.));
#137 = VECTOR('',#138,1.);
#138 = DIRECTION('',(0.950169083204,0.311735004969,0.));
#139 = ORIENTED_EDGE('',*,*,#140,.F.);
#140 = EDGE_CURVE('',#141,#133,#143,.T.);
#141 = VERTEX_POINT('',#142);
#142 = CARTESIAN_POINT('',(23.728485493867,4.555785753595,0.));
#143 = LINE('',#144,#145);
#144 = CARTESIAN_POINT('',(23.728485493867,4.555785753595,0.));
#145 = VECTOR('',#146,1.);
#146 = DIRECTION('',(0.,0.,1.));
#147 = ORIENTED_EDGE('',*,*,#148,.F.);
#148 = EDGE_CURVE('',#40,#141,#149,.T.);
#149 = LINE('',#150,#151);
#150 = CARTESIAN_POINT('',(9.842439,-1.7763568394E-15,0.));
#151 = VECTOR('',#152,1.);
#152 = DIRECTION('',(0.950169083204,0.311735004969,0.));
#153 = PLANE('',#154);
#154 = AXIS2_PLACEMENT_3D('',#155,#156,#157);
#155 = CARTESIAN_POINT('',(9.842439,-1.7763568394E-15,0.));
#156 = DIRECTION('',(-0.311735004969,0.950169083204,0.));
#157 = DIRECTION('',(0.950169083204,0.311735004969,0.));
#158 = ADVANCED_FACE('',(#159),#193,.F.);
#159 = FACE_BOUND('',#160,.F.);
#160 = EDGE_LOOP('',(#161,#171,#179,#187));
#161 = ORIENTED_EDGE('',*,*,#162,.T.);
#162 = EDGE_CURVE('',#163,#165,#167,.T.);
#163 = VERTEX_POINT('',#164);
#164 = CARTESIAN_POINT('',(-24.052731,5.056715,0.));
#165 = VERTEX_POINT('',#166);
#166 = CARTESIAN_POINT('',(-24.052731,5.056715,5.));
#167 = LINE('',#168,#169);
#168 = CARTESIAN_POINT('',(-24.052731,5.056715,0.));
#169 = VECTOR('',#170,1.);
#170 = DIRECTION('',(0.,0.,1.));
#171 = ORIENTED_EDGE('',*,*,#172,.T.);
#172 = EDGE_CURVE('',#165,#173,#175,.T.);
#173 = VERTEX_POINT('',#174);
#174 = CARTESIAN_POINT('',(-9.842439,1.205351141715E-15,5.));
#175 = LINE('',#176,#177);
#176 = CARTESIAN_POINT('',(-24.052731,5.056715,5.));
#177 = VECTOR('',#178,1.);
#178 = DIRECTION('',(0.942127459749,-0.335254902406,0.));
#179 = ORIENTED_EDGE('',*,*,#180,.F.);
#180 = EDGE_CURVE('',#181,#173,#183,.T.);
#181 = VERTEX_POINT('',#182);
#182 = CARTESIAN_POINT('',(-9.842439,5.157030254265E-16,0.));
#183 = LINE('',#184,#185);
#184 = CARTESIAN_POINT('',(-9.842439,8.881784197001E-16,0.));
#185 = VECTOR('',#186,1.);
#186 = DIRECTION('',(0.,0.,1.));
#187 = ORIENTED_EDGE('',*,*,#188,.F.);
#188 = EDGE_CURVE('',#163,#181,#189,.T.);
#189 = LINE('',#190,#191);
#190 = CARTESIAN_POINT('',(-24.052731,5.056715,0.));
#191 = VECTOR('',#192,1.);
#192 = DIRECTION('',(0.942127459749,-0.335254902406,0.));
#193 = PLANE('',#194);
#194 = AXIS2_PLACEMENT_3D('',#195,#196,#197);
#195 = CARTESIAN_POINT('',(-24.052731,5.056715,0.));
#196 = DIRECTION('',(0.335254902406,0.942127459749,0.));
#197 = DIRECTION('',(0.942127459749,-0.335254902406,0.));
#198 = ADVANCED_FACE('',(#199),#224,.F.);
#199 = FACE_BOUND('',#200,.F.);
#200 = EDGE_LOOP('',(#201,#211,#217,#218));
#201 = ORIENTED_EDGE('',*,*,#202,.T.);
#202 = EDGE_CURVE('',#203,#205,#207,.T.);
#203 = VERTEX_POINT('',#204);
#204 = CARTESIAN_POINT('',(-20.,13.557146,0.));
#205 = VERTEX_POINT('',#206);
#206 = CARTESIAN_POINT('',(-20.,13.557146,5.));
#207 = LINE('',#208,#209);
#208 = CARTESIAN_POINT('',(-20.,13.557146,0.));
#209 = VECTOR('',#210,1.);
#210 = DIRECTION('',(0.,0.,1.));
#211 = ORIENTED_EDGE('',*,*,#212,.T.);
#212 = EDGE_CURVE('',#205,#165,#213,.T.);
#213 = LINE('',#214,#215);
#214 = CARTESIAN_POINT('',(-20.,13.557146,5.));
#215 = VECTOR('',#216,1.);
#216 = DIRECTION('',(-0.430358264312,-0.90265816583,0.));
#217 = ORIENTED_EDGE('',*,*,#162,.F.);
#218 = ORIENTED_EDGE('',*,*,#219,.F.);
#219 = EDGE_CURVE('',#203,#163,#220,.T.);
#220 = LINE('',#221,#222);
#221 = CARTESIAN_POINT('',(-20.,13.557146,0.));
#222 = VECTOR('',#223,1.);
#223 = DIRECTION('',(-0.430358264312,-0.90265816583,0.));
#224 = PLANE('',#225);
#225 = AXIS2_PLACEMENT_3D('',#226,#227,#228);
#226 = CARTESIAN_POINT('',(-20.,13.557146,0.));
#227 = DIRECTION('',(0.90265816583,-0.430358264312,0.));
#228 = DIRECTION('',(-0.430358264312,-0.90265816583,0.));
#229 = ADVANCED_FACE('',(#230),#263,.F.);
#230 = FACE_BOUND('',#231,.F.);
#231 = EDGE_LOOP('',(#232,#242,#250,#256,#257));
#232 = ORIENTED_EDGE('',*,*,#233,.T.);
#233 = EDGE_CURVE('',#234,#236,#238,.T.);
#234 = VERTEX_POINT('',#235);
#235 = CARTESIAN_POINT('',(-6.959655360315,6.959655360315,0.));
#236 = VERTEX_POINT('',#237);
#237 = CARTESIAN_POINT('',(-6.959655360315,6.959655360315,4.));
#238 = LINE('',#239,#240);
#239 = CARTESIAN_POINT('',(-6.959655360315,6.959655360315,0.));
#240 = VECTOR('',#241,1.);
#241 = DIRECTION('',(0.,0.,1.));
#242 = ORIENTED_EDGE('',*,*,#243,.T.);
#243 = EDGE_CURVE('',#236,#244,#246,.T.);
#244 = VERTEX_POINT('',#245);
#245 = CARTESIAN_POINT('',(-6.959655360315,6.959655360315,5.));
#246 = LINE('',#247,#248);
#247 = CARTESIAN_POINT('',(-6.959655360315,6.959655360315,0.));
#248 = VECTOR('',#249,1.);
#249 = DIRECTION('',(0.,0.,1.));
#250 = ORIENTED_EDGE('',*,*,#251,.T.);
#251 = EDGE_CURVE('',#244,#205,#252,.T.);
#252 = LINE('',#253,#254);
#253 = CARTESIAN_POINT('',(-6.959655360315,6.959655360315,5.));
#254 = VECTOR('',#255,1.);
#255 = DIRECTION('',(-0.892300937954,0.451441066061,0.));
#256 = ORIENTED_EDGE('',*,*,#202,.F.);
#257 = ORIENTED_EDGE('',*,*,#258,.F.);
#258 = EDGE_CURVE('',#234,#203,#259,.T.);
#259 = LINE('',#260,#261);
#260 = CARTESIAN_POINT('',(-6.959655360315,6.959655360315,0.));
#261 = VECTOR('',#262,1.);
#262 = DIRECTION('',(-0.892300937954,0.451441066061,0.));
#263 = PLANE('',#264);
#264 = AXIS2_PLACEMENT_3D('',#265,#266,#267);
#265 = CARTESIAN_POINT('',(-6.959655360315,6.959655360315,0.));
#266 = DIRECTION('',(-0.451441066061,-0.892300937954,0.));
#267 = DIRECTION('',(-0.892300937954,0.451441066061,0.));
#268 = ADVANCED_FACE('',(#269),#294,.F.);
#269 = FACE_BOUND('',#270,.F.);
#270 = EDGE_LOOP('',(#271,#281,#287,#288));
#271 = ORIENTED_EDGE('',*,*,#272,.T.);
#272 = EDGE_CURVE('',#273,#275,#277,.T.);
#273 = VERTEX_POINT('',#274);
#274 = CARTESIAN_POINT('',(-13.43221172912,20.583486663184,0.));
#275 = VERTEX_POINT('',#276);
#276 = CARTESIAN_POINT('',(-13.43221172912,20.583486663184,4.));
#277 = LINE('',#278,#279);
#278 = CARTESIAN_POINT('',(-13.43221172912,20.583486663184,0.));
#279 = VECTOR('',#280,1.);
#280 = DIRECTION('',(0.,0.,1.));
#281 = ORIENTED_EDGE('',*,*,#282,.T.);
#282 = EDGE_CURVE('',#275,#236,#283,.T.);
#283 = LINE('',#284,#285);
#284 = CARTESIAN_POINT('',(-13.43221172912,20.583486663184,4.));
#285 = VECTOR('',#286,1.);
#286 = DIRECTION('',(0.429123700613,-0.903245730448,0.));
#287 = ORIENTED_EDGE('',*,*,#233,.F.);
#288 = ORIENTED_EDGE('',*,*,#289,.F.);
#289 = EDGE_CURVE('',#273,#234,#290,.T.);
#290 = LINE('',#291,#292);
#291 = CARTESIAN_POINT('',(-13.43221172912,20.583486663184,0.));
#292 = VECTOR('',#293,1.);
#293 = DIRECTION('',(0.429123700613,-0.903245730448,0.));
#294 = PLANE('',#295);
#295 = AXIS2_PLACEMENT_3D('',#296,#297,#298);
#296 = CARTESIAN_POINT('',(-13.43221172912,20.583486663184,0.));
#297 = DIRECTION('',(0.903245730448,0.429123700613,0.));
#298 = DIRECTION('',(0.429123700613,-0.903245730448,0.));
#299 = ADVANCED_FACE('',(#300),#325,.F.);
#300 = FACE_BOUND('',#301,.F.);
#301 = EDGE_LOOP('',(#302,#312,#318,#319));
#302 = ORIENTED_EDGE('',*,*,#303,.T.);
#303 = EDGE_CURVE('',#304,#306,#308,.T.);
#304 = VERTEX_POINT('',#305);
#305 = CARTESIAN_POINT('',(-4.555785753595,23.728485493867,0.));
#306 = VERTEX_POINT('',#307);
#307 = CARTESIAN_POINT('',(-4.555785753595,23.728485493867,4.));
#308 = LINE('',#309,#310);
#309 = CARTESIAN_POINT('',(-4.555785753595,23.728485493867,0.));
#310 = VECTOR('',#311,1.);
#311 = DIRECTION('',(0.,0.,1.));
#312 = ORIENTED_EDGE('',*,*,#313,.T.);
#313 = EDGE_CURVE('',#306,#275,#314,.T.);
#314 = LINE('',#315,#316);
#315 = CARTESIAN_POINT('',(-4.555785753595,23.728485493867,4.));
#316 = VECTOR('',#317,1.);
#317 = DIRECTION('',(-0.942584957186,-0.333966463117,0.));
#318 = ORIENTED_EDGE('',*,*,#272,.F.);
#319 = ORIENTED_EDGE('',*,*,#320,.F.);
#320 = EDGE_CURVE('',#304,#273,#321,.T.);
#321 = LINE('',#322,#323);
#322 = CARTESIAN_POINT('',(-4.555785753595,23.728485493867,0.));
#323 = VECTOR('',#324,1.);
#324 = DIRECTION('',(-0.942584957186,-0.333966463117,0.));
#325 = PLANE('',#326);
#326 = AXIS2_PLACEMENT_3D('',#327,#328,#329);
#327 = CARTESIAN_POINT('',(-4.555785753595,23.728485493867,0.));
#328 = DIRECTION('',(0.333966463117,-0.942584957186,0.));
#329 = DIRECTION('',(-0.942584957186,-0.333966463117,0.));
#330 = ADVANCED_FACE('',(#331),#364,.F.);
#331 = FACE_BOUND('',#332,.F.);
#332 = EDGE_LOOP('',(#333,#343,#351,#357,#358));
#333 = ORIENTED_EDGE('',*,*,#334,.T.);
#334 = EDGE_CURVE('',#335,#337,#339,.T.);
#335 = VERTEX_POINT('',#336);
#336 = CARTESIAN_POINT('',(1.047427920072E-15,9.842439,0.));
#337 = VERTEX_POINT('',#338);
#338 = CARTESIAN_POINT('',(-2.185460479254E-15,9.842439,3.));
#339 = LINE('',#340,#341);
#340 = CARTESIAN_POINT('',(-2.185460479254E-15,9.842439,0.));
#341 = VECTOR('',#342,1.);
#342 = DIRECTION('',(0.,0.,1.));
#343 = ORIENTED_EDGE('',*,*,#344,.T.);
#344 = EDGE_CURVE('',#337,#345,#347,.T.);
#345 = VERTEX_POINT('',#346);
#346 = CARTESIAN_POINT('',(4.440892098501E-15,9.842439,4.));
#347 = LINE('',#348,#349);
#348 = CARTESIAN_POINT('',(4.440892098501E-15,9.842439,0.));
#349 = VECTOR('',#350,1.);
#350 = DIRECTION('',(0.,0.,1.));
#351 = ORIENTED_EDGE('',*,*,#352,.T.);
#352 = EDGE_CURVE('',#345,#306,#353,.T.);
#353 = LINE('',#354,#355);
#354 = CARTESIAN_POINT('',(4.440892098501E-15,9.842439,4.));
#355 = VECTOR('',#356,1.);
#356 = DIRECTION('',(-0.311735004969,0.950169083204,0.));
#357 = ORIENTED_EDGE('',*,*,#303,.F.);
#358 = ORIENTED_EDGE('',*,*,#359,.F.);
#359 = EDGE_CURVE('',#335,#304,#360,.T.);
#360 = LINE('',#361,#362);
#361 = CARTESIAN_POINT('',(4.440892098501E-15,9.842439,0.));
#362 = VECTOR('',#363,1.);
#363 = DIRECTION('',(-0.311735004969,0.950169083204,0.));
#364 = PLANE('',#365);
#365 = AXIS2_PLACEMENT_3D('',#366,#367,#368);
#366 = CARTESIAN_POINT('',(4.440892098501E-15,9.842439,0.));
#367 = DIRECTION('',(-0.950169083204,-0.311735004969,0.));
#368 = DIRECTION('',(-0.311735004969,0.950169083204,0.));
#369 = ADVANCED_FACE('',(#370),#395,.F.);
#370 = FACE_BOUND('',#371,.F.);
#371 = EDGE_LOOP('',(#372,#382,#388,#389));
#372 = ORIENTED_EDGE('',*,*,#373,.T.);
#373 = EDGE_CURVE('',#374,#376,#378,.T.);
#374 = VERTEX_POINT('',#375);
#375 = CARTESIAN_POINT('',(5.056715,24.052731,0.));
#376 = VERTEX_POINT('',#377);
#377 = CARTESIAN_POINT('',(5.056715,24.052731,3.));
#378 = LINE('',#379,#380);
#379 = CARTESIAN_POINT('',(5.056715,24.052731,0.));
#380 = VECTOR('',#381,1.);
#381 = DIRECTION('',(0.,0.,1.));
#382 = ORIENTED_EDGE('',*,*,#383,.T.);
#383 = EDGE_CURVE('',#376,#337,#384,.T.);
#384 = LINE('',#385,#386);
#385 = CARTESIAN_POINT('',(5.056715,24.052731,3.));
#386 = VECTOR('',#387,1.);
#387 = DIRECTION('',(-0.335254902406,-0.942127459749,0.));
#388 = ORIENTED_EDGE('',*,*,#334,.F.);
#389 = ORIENTED_EDGE('',*,*,#390,.F.);
#390 = EDGE_CURVE('',#374,#335,#391,.T.);
#391 = LINE('',#392,#393);
#392 = CARTESIAN_POINT('',(5.056715,24.052731,0.));
#393 = VECTOR('',#394,1.);
#394 = DIRECTION('',(-0.335254902406,-0.942127459749,0.));
#395 = PLANE('',#396);
#396 = AXIS2_PLACEMENT_3D('',#397,#398,#399);
#397 = CARTESIAN_POINT('',(5.056715,24.052731,0.));
#398 = DIRECTION('',(0.942127459749,-0.335254902406,0.));
#399 = DIRECTION('',(-0.335254902406,-0.942127459749,0.));
#400 = ADVANCED_FACE('',(#401),#426,.F.);
#401 = FACE_BOUND('',#402,.F.);
#402 = EDGE_LOOP('',(#403,#413,#419,#420));
#403 = ORIENTED_EDGE('',*,*,#404,.T.);
#404 = EDGE_CURVE('',#405,#407,#409,.T.);
#405 = VERTEX_POINT('',#406);
#406 = CARTESIAN_POINT('',(13.557146,20.,0.));
#407 = VERTEX_POINT('',#408);
#408 = CARTESIAN_POINT('',(13.557146,20.,3.));
#409 = LINE('',#410,#411);
#410 = CARTESIAN_POINT('',(13.557146,20.,0.));
#411 = VECTOR('',#412,1.);
#412 = DIRECTION('',(0.,0.,1.));
#413 = ORIENTED_EDGE('',*,*,#414,.T.);
#414 = EDGE_CURVE('',#407,#376,#415,.T.);
#415 = LINE('',#416,#417);
#416 = CARTESIAN_POINT('',(13.557146,20.,3.));
#417 = VECTOR('',#418,1.);
#418 = DIRECTION('',(-0.90265816583,0.430358264312,0.));
#419 = ORIENTED_EDGE('',*,*,#373,.F.);
#420 = ORIENTED_EDGE('',*,*,#421,.F.);
#421 = EDGE_CURVE('',#405,#374,#422,.T.);
#422 = LINE('',#423,#424);
#423 = CARTESIAN_POINT('',(13.557146,20.,0.));
#424 = VECTOR('',#425,1.);
#425 = DIRECTION('',(-0.90265816583,0.430358264312,0.));
#426 = PLANE('',#427);
#427 = AXIS2_PLACEMENT_3D('',#428,#429,#430);
#428 = CARTESIAN_POINT('',(13.557146,20.,0.));
#429 = DIRECTION('',(-0.430358264312,-0.90265816583,0.));
#430 = DIRECTION('',(-0.90265816583,0.430358264312,0.));
#431 = ADVANCED_FACE('',(#432),#465,.F.);
#432 = FACE_BOUND('',#433,.F.);
#433 = EDGE_LOOP('',(#434,#444,#452,#458,#459));
#434 = ORIENTED_EDGE('',*,*,#435,.T.);
#435 = EDGE_CURVE('',#436,#438,#440,.T.);
#436 = VERTEX_POINT('',#437);
#437 = CARTESIAN_POINT('',(6.959655360315,6.959655360315,0.));
#438 = VERTEX_POINT('',#439);
#439 = CARTESIAN_POINT('',(6.959655360315,6.959655360315,2.));
#440 = LINE('',#441,#442);
#441 = CARTESIAN_POINT('',(6.959655360315,6.959655360315,0.));
#442 = VECTOR('',#443,1.);
#443 = DIRECTION('',(0.,0.,1.));
#444 = ORIENTED_EDGE('',*,*,#445,.T.);
#445 = EDGE_CURVE('',#438,#446,#448,.T.);
#446 = VERTEX_POINT('',#447);
#447 = CARTESIAN_POINT('',(6.959655360315,6.959655360315,3.));
#448 = LINE('',#449,#450);
#449 = CARTESIAN_POINT('',(6.959655360315,6.959655360315,0.));
#450 = VECTOR('',#451,1.);
#451 = DIRECTION('',(0.,0.,1.));
#452 = ORIENTED_EDGE('',*,*,#453,.T.);
#453 = EDGE_CURVE('',#446,#407,#454,.T.);
#454 = LINE('',#455,#456);
#455 = CARTESIAN_POINT('',(6.959655360315,6.959655360315,3.));
#456 = VECTOR('',#457,1.);
#457 = DIRECTION('',(0.451441066061,0.892300937954,0.));
#458 = ORIENTED_EDGE('',*,*,#404,.F.);
#459 = ORIENTED_EDGE('',*,*,#460,.F.);
#460 = EDGE_CURVE('',#436,#405,#461,.T.);
#461 = LINE('',#462,#463);
#462 = CARTESIAN_POINT('',(6.959655360315,6.959655360315,0.));
#463 = VECTOR('',#464,1.);
#464 = DIRECTION('',(0.451441066061,0.892300937954,0.));
#465 = PLANE('',#466);
#466 = AXIS2_PLACEMENT_3D('',#467,#468,#469);
#467 = CARTESIAN_POINT('',(6.959655360315,6.959655360315,0.));
#468 = DIRECTION('',(-0.892300937954,0.451441066061,0.));
#469 = DIRECTION('',(0.451441066061,0.892300937954,0.));
#470 = ADVANCED_FACE('',(#471),#496,.F.);
#471 = FACE_BOUND('',#472,.F.);
#472 = EDGE_LOOP('',(#473,#483,#489,#490));
#473 = ORIENTED_EDGE('',*,*,#474,.T.);
#474 = EDGE_CURVE('',#475,#477,#479,.T.);
#475 = VERTEX_POINT('',#476);
#476 = CARTESIAN_POINT('',(20.583486663184,13.432211729128,0.));
#477 = VERTEX_POINT('',#478);
#478 = CARTESIAN_POINT('',(20.583486663184,13.432211729128,2.));
#479 = LINE('',#480,#481);
#480 = CARTESIAN_POINT('',(20.583486663184,13.432211729128,0.));
#481 = VECTOR('',#482,1.);
#482 = DIRECTION('',(0.,0.,1.));
#483 = ORIENTED_EDGE('',*,*,#484,.T.);
#484 = EDGE_CURVE('',#477,#438,#485,.T.);
#485 = LINE('',#486,#487);
#486 = CARTESIAN_POINT('',(20.583486663184,13.432211729128,2.));
#487 = VECTOR('',#488,1.);
#488 = DIRECTION('',(-0.903245730448,-0.429123700613,0.));
#489 = ORIENTED_EDGE('',*,*,#435,.F.);
#490 = ORIENTED_EDGE('',*,*,#491,.F.);
#491 = EDGE_CURVE('',#475,#436,#492,.T.);
#492 = LINE('',#493,#494);
#493 = CARTESIAN_POINT('',(20.583486663184,13.432211729128,0.));
#494 = VECTOR('',#495,1.);
#495 = DIRECTION('',(-0.903245730448,-0.429123700613,0.));
#496 = PLANE('',#497);
#497 = AXIS2_PLACEMENT_3D('',#498,#499,#500);
#498 = CARTESIAN_POINT('',(20.583486663184,13.432211729128,0.));
#499 = DIRECTION('',(0.429123700613,-0.903245730448,0.));
#500 = DIRECTION('',(-0.903245730448,-0.429123700613,0.));
#501 = ADVANCED_FACE('',(#502),#518,.F.);
#502 = FACE_BOUND('',#503,.F.);
#503 = EDGE_LOOP('',(#504,#505,#511,#512));
#504 = ORIENTED_EDGE('',*,*,#140,.T.);
#505 = ORIENTED_EDGE('',*,*,#506,.T.);
#506 = EDGE_CURVE('',#133,#477,#507,.T.);
#507 = LINE('',#508,#509);
#508 = CARTESIAN_POINT('',(23.728485493867,4.555785753595,2.));
#509 = VECTOR('',#510,1.);
#510 = DIRECTION('',(-0.333966463117,0.942584957186,0.));
#511 = ORIENTED_EDGE('',*,*,#474,.F.);
#512 = ORIENTED_EDGE('',*,*,#513,.F.);
#513 = EDGE_CURVE('',#141,#475,#514,.T.);
#514 = LINE('',#515,#516);
#515 = CARTESIAN_POINT('',(23.728485493867,4.555785753595,0.));
#516 = VECTOR('',#517,1.);
#517 = DIRECTION('',(-0.333966463117,0.942584957186,0.));
#518 = PLANE('',#519);
#519 = AXIS2_PLACEMENT_3D('',#520,#521,#522);
#520 = CARTESIAN_POINT('',(23.728485493867,4.555785753595,0.));
#521 = DIRECTION('',(-0.942584957186,-0.333966463117,0.));
#522 = DIRECTION('',(-0.333966463117,0.942584957186,0.));
#523 = ADVANCED_FACE('',(#524),#535,.T.);
#524 = FACE_BOUND('',#525,.T.);
#525 = EDGE_LOOP('',(#526,#527,#533,#534));
#526 = ORIENTED_EDGE('',*,*,#31,.T.);
#527 = ORIENTED_EDGE('',*,*,#528,.T.);
#528 = EDGE_CURVE('',#32,#95,#529,.T.);
#529 = LINE('',#530,#531);
#530 = CARTESIAN_POINT('',(7.675926163845,-5.2304246721,1.));
#531 = VECTOR('',#532,1.);
#532 = DIRECTION('',(-0.382683432365,-0.923879532511,0.));
#533 = ORIENTED_EDGE('',*,*,#102,.T.);
#534 = ORIENTED_EDGE('',*,*,#71,.T.);
#535 = PLANE('',#536);
#536 = AXIS2_PLACEMENT_3D('',#537,#538,#539);
#537 = CARTESIAN_POINT('',(6.497397294108,-2.716342261237,1.));
#538 = DIRECTION('',(0.,0.,1.));
#539 = DIRECTION('',(1.,0.,0.));
#540 = ADVANCED_FACE('',(#541,#600),#611,.T.);
#541 = FACE_BOUND('',#542,.T.);
#542 = EDGE_LOOP('',(#543,#551,#559,#567,#575,#583,#591,#597,#598,#599)
  );
#543 = ORIENTED_EDGE('',*,*,#544,.T.);
#544 = EDGE_CURVE('',#173,#545,#547,.T.);
#545 = VERTEX_POINT('',#546);
#546 = CARTESIAN_POINT('',(-6.959655360315,-6.959655360315,5.));
#547 = LINE('',#548,#549);
#548 = CARTESIAN_POINT('',(-9.842439,1.205351141715E-15,5.));
#549 = VECTOR('',#550,1.);
#550 = DIRECTION('',(0.382683432365,-0.923879532511,0.));
#551 = ORIENTED_EDGE('',*,*,#552,.T.);
#552 = EDGE_CURVE('',#545,#553,#555,.T.);
#553 = VERTEX_POINT('',#554);
#554 = CARTESIAN_POINT('',(-2.099440347286E-15,-9.842439,5.));
#555 = LINE('',#556,#557);
#556 = CARTESIAN_POINT('',(-6.959655360315,-6.959655360315,5.));
#557 = VECTOR('',#558,1.);
#558 = DIRECTION('',(0.923879532511,-0.382683432365,0.));
#559 = ORIENTED_EDGE('',*,*,#560,.T.);
#560 = EDGE_CURVE('',#553,#561,#563,.T.);
#561 = VERTEX_POINT('',#562);
#562 = CARTESIAN_POINT('',(6.959655360315,-6.959655360315,5.));
#563 = LINE('',#564,#565);
#564 = CARTESIAN_POINT('',(-2.105351141715E-15,-9.842439,5.));
#565 = VECTOR('',#566,1.);
#566 = DIRECTION('',(0.923879532511,0.382683432365,0.));
#567 = ORIENTED_EDGE('',*,*,#568,.T.);
#568 = EDGE_CURVE('',#561,#569,#571,.T.);
#569 = VERTEX_POINT('',#570);
#570 = CARTESIAN_POINT('',(9.842439,-2.099440347286E-15,5.));
#571 = LINE('',#572,#573);
#572 = CARTESIAN_POINT('',(6.959655360315,-6.959655360315,5.));
#573 = VECTOR('',#574,1.);
#574 = DIRECTION('',(0.382683432365,0.923879532511,0.));
#575 = ORIENTED_EDGE('',*,*,#576,.T.);
#576 = EDGE_CURVE('',#569,#577,#579,.T.);
#577 = VERTEX_POINT('',#578);
#578 = CARTESIAN_POINT('',(6.959655360315,6.959655360315,5.));
#579 = LINE('',#580,#581);
#580 = CARTESIAN_POINT('',(9.842439,-2.105351141715E-15,5.));
#581 = VECTOR('',#582,1.);
#582 = DIRECTION('',(-0.382683432365,0.923879532511,0.));
#583 = ORIENTED_EDGE('',*,*,#584,.T.);
#584 = EDGE_CURVE('',#577,#585,#587,.T.);
#585 = VERTEX_POINT('',#586);
#586 = CARTESIAN_POINT('',(2.981707981116E-15,9.842439,5.));
#587 = LINE('',#588,#589);
#588 = CARTESIAN_POINT('',(6.959655360315,6.959655360315,5.));
#589 = VECTOR('',#590,1.);
#590 = DIRECTION('',(-0.923879532511,0.382683432365,0.));
#591 = ORIENTED_EDGE('',*,*,#592,.T.);
#592 = EDGE_CURVE('',#585,#244,#593,.T.);
#593 = LINE('',#594,#595);
#594 = CARTESIAN_POINT('',(2.981707981116E-15,9.842439,5.));
#595 = VECTOR('',#596,1.);
#596 = DIRECTION('',(-0.923879532511,-0.382683432365,0.));
#597 = ORIENTED_EDGE('',*,*,#251,.T.);
#598 = ORIENTED_EDGE('',*,*,#212,.T.);
#599 = ORIENTED_EDGE('',*,*,#172,.T.);
#600 = FACE_BOUND('',#601,.T.);
#601 = EDGE_LOOP('',(#602));
#602 = ORIENTED_EDGE('',*,*,#603,.T.);
#603 = EDGE_CURVE('',#604,#604,#606,.T.);
#604 = VERTEX_POINT('',#605);
#605 = CARTESIAN_POINT('',(4.,-9.797174393179E-16,5.));
#606 = CIRCLE('',#607,4.);
#607 = AXIS2_PLACEMENT_3D('',#608,#609,#610);
#608 = CARTESIAN_POINT('',(0.,0.,5.));
#609 = DIRECTION('',(0.,0.,-1.));
#610 = DIRECTION('',(1.,0.,0.));
#611 = PLANE('',#612);
#612 = AXIS2_PLACEMENT_3D('',#613,#614,#615);
#613 = CARTESIAN_POINT('',(-6.497397294108,2.716342261237,5.));
#614 = DIRECTION('',(0.,0.,1.));
#615 = DIRECTION('',(-1.,1.224646799147E-16,0.));
#616 = ADVANCED_FACE('',(#617),#633,.F.);
#617 = FACE_BOUND('',#618,.F.);
#618 = EDGE_LOOP('',(#619,#625,#631,#632));
#619 = ORIENTED_EDGE('',*,*,#620,.T.);
#620 = EDGE_CURVE('',#236,#345,#621,.T.);
#621 = LINE('',#622,#623);
#622 = CARTESIAN_POINT('',(-1.729230688215,9.12616819647,4.));
#623 = VECTOR('',#624,1.);
#624 = DIRECTION('',(0.923879532511,0.382683432365,-0.));
#625 = ORIENTED_EDGE('',*,*,#626,.T.);
#626 = EDGE_CURVE('',#345,#585,#627,.T.);
#627 = LINE('',#628,#629);
#628 = CARTESIAN_POINT('',(2.981707981116E-15,9.842439,0.));
#629 = VECTOR('',#630,1.);
#630 = DIRECTION('',(0.,0.,1.));
#631 = ORIENTED_EDGE('',*,*,#592,.T.);
#632 = ORIENTED_EDGE('',*,*,#243,.F.);
#633 = PLANE('',#634);
#634 = AXIS2_PLACEMENT_3D('',#635,#636,#637);
#635 = CARTESIAN_POINT('',(2.981707981116E-15,9.842439,0.));
#636 = DIRECTION('',(0.382683432365,-0.923879532511,0.));
#637 = DIRECTION('',(-0.923879532511,-0.382683432365,0.));
#638 = ADVANCED_FACE('',(#639),#645,.T.);
#639 = FACE_BOUND('',#640,.T.);
#640 = EDGE_LOOP('',(#641,#642,#643,#644));
#641 = ORIENTED_EDGE('',*,*,#282,.T.);
#642 = ORIENTED_EDGE('',*,*,#620,.T.);
#643 = ORIENTED_EDGE('',*,*,#352,.T.);
#644 = ORIENTED_EDGE('',*,*,#313,.T.);
#645 = PLANE('',#646);
#646 = AXIS2_PLACEMENT_3D('',#647,#648,#649);
#647 = CARTESIAN_POINT('',(-2.673609653782,6.515097719671,4.));
#648 = DIRECTION('',(0.,0.,1.));
#649 = DIRECTION('',(-0.707106781187,0.707106781187,0.));
#650 = ADVANCED_FACE('',(#651),#662,.T.);
#651 = FACE_BOUND('',#652,.T.);
#652 = EDGE_LOOP('',(#653,#654,#660,#661));
#653 = ORIENTED_EDGE('',*,*,#383,.T.);
#654 = ORIENTED_EDGE('',*,*,#655,.T.);
#655 = EDGE_CURVE('',#337,#446,#656,.T.);
#656 = LINE('',#657,#658);
#657 = CARTESIAN_POINT('',(5.2304246721,7.675926163845,3.));
#658 = VECTOR('',#659,1.);
#659 = DIRECTION('',(0.923879532511,-0.382683432365,0.));
#660 = ORIENTED_EDGE('',*,*,#453,.T.);
#661 = ORIENTED_EDGE('',*,*,#414,.T.);
#662 = PLANE('',#663);
#663 = AXIS2_PLACEMENT_3D('',#664,#665,#666);
#664 = CARTESIAN_POINT('',(2.716342261237,6.497397294108,3.));
#665 = DIRECTION('',(0.,0.,1.));
#666 = DIRECTION('',(-2.22044604925E-16,1.,0.));
#667 = ADVANCED_FACE('',(#668),#679,.T.);
#668 = FACE_BOUND('',#669,.T.);
#669 = EDGE_LOOP('',(#670,#671,#677,#678));
#670 = ORIENTED_EDGE('',*,*,#484,.T.);
#671 = ORIENTED_EDGE('',*,*,#672,.T.);
#672 = EDGE_CURVE('',#438,#125,#673,.T.);
#673 = LINE('',#674,#675);
#674 = CARTESIAN_POINT('',(9.12616819647,1.729230688215,2.));
#675 = VECTOR('',#676,1.);
#676 = DIRECTION('',(0.382683432365,-0.923879532511,0.));
#677 = ORIENTED_EDGE('',*,*,#132,.T.);
#678 = ORIENTED_EDGE('',*,*,#506,.T.);
#679 = PLANE('',#680);
#680 = AXIS2_PLACEMENT_3D('',#681,#682,#683);
#681 = CARTESIAN_POINT('',(6.515097719671,2.673609653782,2.));
#682 = DIRECTION('',(0.,0.,1.));
#683 = DIRECTION('',(0.707106781187,0.707106781187,0.));
#684 = ADVANCED_FACE('',(#685),#704,.T.);
#685 = FACE_BOUND('',#686,.F.);
#686 = EDGE_LOOP('',(#687,#688,#696,#703));
#687 = ORIENTED_EDGE('',*,*,#603,.T.);
#688 = ORIENTED_EDGE('',*,*,#689,.T.);
#689 = EDGE_CURVE('',#604,#690,#692,.T.);
#690 = VERTEX_POINT('',#691);
#691 = CARTESIAN_POINT('',(4.,-9.797174393179E-16,38.));
#692 = LINE('',#693,#694);
#693 = CARTESIAN_POINT('',(4.,-9.797174393179E-16,0.));
#694 = VECTOR('',#695,1.);
#695 = DIRECTION('',(0.,0.,1.));
#696 = ORIENTED_EDGE('',*,*,#697,.T.);
#697 = EDGE_CURVE('',#690,#690,#698,.T.);
#698 = CIRCLE('',#699,4.);
#699 = AXIS2_PLACEMENT_3D('',#700,#701,#702);
#700 = CARTESIAN_POINT('',(0.,0.,38.));
#701 = DIRECTION('',(0.,0.,1.));
#702 = DIRECTION('',(1.,0.,0.));
#703 = ORIENTED_EDGE('',*,*,#689,.F.);
#704 = CYLINDRICAL_SURFACE('',#705,4.);
#705 = AXIS2_PLACEMENT_3D('',#706,#707,#708);
#706 = CARTESIAN_POINT('',(0.,0.,0.));
#707 = DIRECTION('',(-0.,-0.,-1.));
#708 = DIRECTION('',(1.,0.,0.));
#709 = ADVANCED_FACE('',(#710),#713,.T.);
#710 = FACE_BOUND('',#711,.F.);
#711 = EDGE_LOOP('',(#712));
#712 = ORIENTED_EDGE('',*,*,#697,.F.);
#713 = PLANE('',#714);
#714 = AXIS2_PLACEMENT_3D('',#715,#716,#717);
#715 = CARTESIAN_POINT('',(0.,0.,38.));
#716 = DIRECTION('',(0.,0.,1.));
#717 = DIRECTION('',(1.,0.,0.));
#718 = ADVANCED_FACE('',(#719),#758,.T.);
#719 = FACE_BOUND('',#720,.T.);
#720 = EDGE_LOOP('',(#721,#729,#737,#743,#744,#745,#746,#747,#748,#749,
    #750,#751,#752,#753,#754,#755,#756,#757));
#721 = ORIENTED_EDGE('',*,*,#722,.F.);
#722 = EDGE_CURVE('',#723,#93,#725,.T.);
#723 = VERTEX_POINT('',#724);
#724 = CARTESIAN_POINT('',(-1.226245761187E-15,-9.842439,0.));
#725 = LINE('',#726,#727);
#726 = CARTESIAN_POINT('',(-1.7763568394E-15,-9.842439,0.));
#727 = VECTOR('',#728,1.);
#728 = DIRECTION('',(0.923879532511,0.382683432365,0.));
#729 = ORIENTED_EDGE('',*,*,#730,.F.);
#730 = EDGE_CURVE('',#731,#723,#733,.T.);
#731 = VERTEX_POINT('',#732);
#732 = CARTESIAN_POINT('',(-6.959655360315,-6.959655360315,0.));
#733 = LINE('',#734,#735);
#734 = CARTESIAN_POINT('',(-6.959655360315,-6.959655360315,0.));
#735 = VECTOR('',#736,1.);
#736 = DIRECTION('',(0.923879532511,-0.382683432365,0.));
#737 = ORIENTED_EDGE('',*,*,#738,.F.);
#738 = EDGE_CURVE('',#181,#731,#739,.T.);
#739 = LINE('',#740,#741);
#740 = CARTESIAN_POINT('',(-9.842439,8.881784197001E-16,0.));
#741 = VECTOR('',#742,1.);
#742 = DIRECTION('',(0.382683432365,-0.923879532511,0.));
#743 = ORIENTED_EDGE('',*,*,#188,.F.);
#744 = ORIENTED_EDGE('',*,*,#219,.F.);
#745 = ORIENTED_EDGE('',*,*,#258,.F.);
#746 = ORIENTED_EDGE('',*,*,#289,.F.);
#747 = ORIENTED_EDGE('',*,*,#320,.F.);
#748 = ORIENTED_EDGE('',*,*,#359,.F.);
#749 = ORIENTED_EDGE('',*,*,#390,.F.);
#750 = ORIENTED_EDGE('',*,*,#421,.F.);
#751 = ORIENTED_EDGE('',*,*,#460,.F.);
#752 = ORIENTED_EDGE('',*,*,#491,.F.);
#753 = ORIENTED_EDGE('',*,*,#513,.F.);
#754 = ORIENTED_EDGE('',*,*,#148,.F.);
#755 = ORIENTED_EDGE('',*,*,#47,.F.);
#756 = ORIENTED_EDGE('',*,*,#78,.F.);
#757 = ORIENTED_EDGE('',*,*,#109,.F.);
#758 = PLANE('',#759);
#759 = AXIS2_PLACEMENT_3D('',#760,#761,#762);
#760 = CARTESIAN_POINT('',(2.760715334015,6.603536158534,0.));
#761 = DIRECTION('',(-0.,-0.,-1.));
#762 = DIRECTION('',(-1.,0.,0.));
#763 = ADVANCED_FACE('',(#764),#781,.T.);
#764 = FACE_BOUND('',#765,.T.);
#765 = EDGE_LOOP('',(#766,#767,#768,#774,#775));
#766 = ORIENTED_EDGE('',*,*,#722,.T.);
#767 = ORIENTED_EDGE('',*,*,#92,.T.);
#768 = ORIENTED_EDGE('',*,*,#769,.T.);
#769 = EDGE_CURVE('',#95,#561,#770,.T.);
#770 = LINE('',#771,#772);
#771 = CARTESIAN_POINT('',(6.959655360315,-6.959655360315,0.));
#772 = VECTOR('',#773,1.);
#773 = DIRECTION('',(0.,0.,1.));
#774 = ORIENTED_EDGE('',*,*,#560,.F.);
#775 = ORIENTED_EDGE('',*,*,#776,.F.);
#776 = EDGE_CURVE('',#723,#553,#777,.T.);
#777 = LINE('',#778,#779);
#778 = CARTESIAN_POINT('',(-2.099440347286E-15,-9.842439,0.));
#779 = VECTOR('',#780,1.);
#780 = DIRECTION('',(0.,0.,1.));
#781 = PLANE('',#782);
#782 = AXIS2_PLACEMENT_3D('',#783,#784,#785);
#783 = CARTESIAN_POINT('',(3.479827680157,-8.401047180157,2.5));
#784 = DIRECTION('',(0.382683432365,-0.923879532511,-0.));
#785 = DIRECTION('',(-0.923879532511,-0.382683432365,0.));
#786 = ADVANCED_FACE('',(#787),#798,.T.);
#787 = FACE_BOUND('',#788,.T.);
#788 = EDGE_LOOP('',(#789,#790,#791,#792));
#789 = ORIENTED_EDGE('',*,*,#730,.T.);
#790 = ORIENTED_EDGE('',*,*,#776,.T.);
#791 = ORIENTED_EDGE('',*,*,#552,.F.);
#792 = ORIENTED_EDGE('',*,*,#793,.F.);
#793 = EDGE_CURVE('',#731,#545,#794,.T.);
#794 = LINE('',#795,#796);
#795 = CARTESIAN_POINT('',(-6.959655360315,-6.959655360315,0.));
#796 = VECTOR('',#797,1.);
#797 = DIRECTION('',(0.,0.,1.));
#798 = PLANE('',#799);
#799 = AXIS2_PLACEMENT_3D('',#800,#801,#802);
#800 = CARTESIAN_POINT('',(-3.479827680157,-8.401047180157,2.5));
#801 = DIRECTION('',(-0.382683432365,-0.923879532511,-0.));
#802 = DIRECTION('',(-0.923879532511,0.382683432365,0.));
#803 = ADVANCED_FACE('',(#804),#810,.T.);
#804 = FACE_BOUND('',#805,.T.);
#805 = EDGE_LOOP('',(#806,#807,#808,#809));
#806 = ORIENTED_EDGE('',*,*,#180,.F.);
#807 = ORIENTED_EDGE('',*,*,#738,.T.);
#808 = ORIENTED_EDGE('',*,*,#793,.T.);
#809 = ORIENTED_EDGE('',*,*,#544,.F.);
#810 = PLANE('',#811);
#811 = AXIS2_PLACEMENT_3D('',#812,#813,#814);
#812 = CARTESIAN_POINT('',(-8.401047180157,-3.479827680157,2.5));
#813 = DIRECTION('',(-0.923879532511,-0.382683432365,-0.));
#814 = DIRECTION('',(0.382683432365,-0.923879532511,0.));
#815 = ADVANCED_FACE('',(#816),#828,.T.);
#816 = FACE_BOUND('',#817,.T.);
#817 = EDGE_LOOP('',(#818,#819,#820,#826,#827));
#818 = ORIENTED_EDGE('',*,*,#528,.F.);
#819 = ORIENTED_EDGE('',*,*,#124,.T.);
#820 = ORIENTED_EDGE('',*,*,#821,.T.);
#821 = EDGE_CURVE('',#125,#569,#822,.T.);
#822 = LINE('',#823,#824);
#823 = CARTESIAN_POINT('',(9.842439,4.091036398535E-16,0.));
#824 = VECTOR('',#825,1.);
#825 = DIRECTION('',(0.,0.,1.));
#826 = ORIENTED_EDGE('',*,*,#568,.F.);
#827 = ORIENTED_EDGE('',*,*,#769,.F.);
#828 = PLANE('',#829);
#829 = AXIS2_PLACEMENT_3D('',#830,#831,#832);
#830 = CARTESIAN_POINT('',(8.401047180157,-3.479827680157,3.));
#831 = DIRECTION('',(0.923879532511,-0.382683432365,3.003417898225E-16)
  );
#832 = DIRECTION('',(0.382683432365,0.923879532511,1.232595164408E-32));
#833 = ADVANCED_FACE('',(#834),#846,.T.);
#834 = FACE_BOUND('',#835,.T.);
#835 = EDGE_LOOP('',(#836,#837,#838,#839,#840));
#836 = ORIENTED_EDGE('',*,*,#655,.F.);
#837 = ORIENTED_EDGE('',*,*,#344,.T.);
#838 = ORIENTED_EDGE('',*,*,#626,.T.);
#839 = ORIENTED_EDGE('',*,*,#584,.F.);
#840 = ORIENTED_EDGE('',*,*,#841,.F.);
#841 = EDGE_CURVE('',#446,#577,#842,.T.);
#842 = LINE('',#843,#844);
#843 = CARTESIAN_POINT('',(6.959655360315,6.959655360315,0.));
#844 = VECTOR('',#845,1.);
#845 = DIRECTION('',(0.,0.,1.));
#846 = PLANE('',#847);
#847 = AXIS2_PLACEMENT_3D('',#848,#849,#850);
#848 = CARTESIAN_POINT('',(3.479827680157,8.401047180157,4.));
#849 = DIRECTION('',(0.382683432365,0.923879532511,6.77993435755E-16));
#850 = DIRECTION('',(0.923879532511,-0.382683432365,0.));
#851 = ADVANCED_FACE('',(#852),#859,.T.);
#852 = FACE_BOUND('',#853,.T.);
#853 = EDGE_LOOP('',(#854,#855,#856,#857,#858));
#854 = ORIENTED_EDGE('',*,*,#672,.F.);
#855 = ORIENTED_EDGE('',*,*,#445,.T.);
#856 = ORIENTED_EDGE('',*,*,#841,.T.);
#857 = ORIENTED_EDGE('',*,*,#576,.F.);
#858 = ORIENTED_EDGE('',*,*,#821,.F.);
#859 = PLANE('',#860);
#860 = AXIS2_PLACEMENT_3D('',#861,#862,#863);
#861 = CARTESIAN_POINT('',(8.401047180157,3.479827680157,3.5));
#862 = DIRECTION('',(0.923879532511,0.382683432365,0.));
#863 = DIRECTION('',(-0.382683432365,0.923879532511,0.));
#864 = ( GEOMETRIC_REPRESENTATION_CONTEXT(3) 
GLOBAL_UNCERTAINTY_ASSIGNED_CONTEXT((#868)) GLOBAL_UNIT_ASSIGNED_CONTEXT
((#865,#866,#867)) REPRESENTATION_CONTEXT('Context #1',
  '3D Context with UNIT and UNCERTAINTY') );
#865 = ( LENGTH_UNIT() NAMED_UNIT(*) SI_UNIT(.MILLI.,.METRE.) );
#866 = ( NAMED_UNIT(*) PLANE_ANGLE_UNIT() SI_UNIT($,.RADIAN.) );
#867 = ( NAMED_UNIT(*) SI_UNIT($,.STERADIAN.) SOLID_ANGLE_UNIT() );
#868 = UNCERTAINTY_MEASURE_WITH_UNIT(LENGTH_MEASURE(1.E-05),#865,
  'distance_accuracy_value','confusion accuracy');
#869 = PRODUCT_RELATED_PRODUCT_CATEGORY('part',$,(#7));
#870 = MECHANICAL_DESIGN_GEOMETRIC_PRESENTATION_REPRESENTATION('',(#871)
  ,#864);
#871 = STYLED_ITEM('color',(#872),#15);
#872 = PRESENTATION_STYLE_ASSIGNMENT((#873,#879));
#873 = SURFACE_STYLE_USAGE(.BOTH.,#874);
#874 = SURFACE_SIDE_STYLE('',(#875));
#875 = SURFACE_STYLE_FILL_AREA(#876);
#876 = FILL_AREA_STYLE('',(#877));
#877 = FILL_AREA_STYLE_COLOUR('',#878);
#878 = DRAUGHTING_PRE_DEFINED_COLOUR('white');
#879 = CURVE_STYLE('',#880,POSITIVE_LENGTH_MEASURE(0.1),#881);
#880 = DRAUGHTING_PRE_DEFINED_CURVE_FONT('continuous');
#881 = DRAUGHTING_PRE_DEFINED_COLOUR('black');
ENDSEC;
END-ISO-10303-21;
