solid OpenSCAD_Model
  facet normal 0.866025 0.500001 0
    outer loop
      vertex 44 22 50
      vertex 39.5 29.7942 46
      vertex 39.5 29.7942 50
    endloop
  endfacet
  facet normal 0.866025 0.500001 0
    outer loop
      vertex 39.5 29.7942 46
      vertex 44 22 50
      vertex 44 22 46
    endloop
  endfacet
  facet normal -0.866025 0.500001 0
    outer loop
      vertex 26 22 46
      vertex 30.5 29.7942 50
      vertex 30.5 29.7942 46
    endloop
  endfacet
  facet normal -0.866025 0.500001 0
    outer loop
      vertex 30.5 29.7942 50
      vertex 26 22 46
      vertex 26 22 50
    endloop
  endfacet
  facet normal 0 1 -0
    outer loop
      vertex 39.5 29.7942 46
      vertex 30.5 29.7942 50
      vertex 39.5 29.7942 50
    endloop
  endfacet
  facet normal 0 1 0
    outer loop
      vertex 30.5 29.7942 50
      vertex 39.5 29.7942 46
      vertex 30.5 29.7942 46
    endloop
  endfacet
  facet normal 0 0 1
    outer loop
      vertex -30.5 29.7942 50
      vertex -28.6 22 50
      vertex -26 22 50
    endloop
  endfacet
  facet normal 0 0 1
    outer loop
      vertex -30.5 29.7942 50
      vertex -31.8 27.5426 50
      vertex -28.6 22 50
    endloop
  endfacet
  facet normal 0 0 1
    outer loop
      vertex -30.5 29.7942 50
      vertex -38.2 27.5426 50
      vertex -31.8 27.5426 50
    endloop
  endfacet
  facet normal -0 0 1
    outer loop
      vertex -39.5 29.7942 50
      vertex -38.2 27.5426 50
      vertex -30.5 29.7942 50
    endloop
  endfacet
  facet normal 0 0 1
    outer loop
      vertex -39.5 29.7942 50
      vertex -41.4 22 50
      vertex -38.2 27.5426 50
    endloop
  endfacet
  facet normal 0 -0 1
    outer loop
      vertex -41.4 22 50
      vertex -39.5 29.7942 50
      vertex -44 22 50
    endloop
  endfacet
  facet normal -0 0 1
    outer loop
      vertex -28.6 22 50
      vertex -29.1754 16.5 50
      vertex -26 22 50
    endloop
  endfacet
  facet normal -0 0 1
    outer loop
      vertex -39.5 14.2058 50
      vertex -25 0 50
      vertex -31.7754 16.5 50
    endloop
  endfacet
  facet normal 0 0 1
    outer loop
      vertex -31.7754 16.5 50
      vertex -29.1754 16.5 50
      vertex -28.6 22 50
    endloop
  endfacet
  facet normal -0 0 1
    outer loop
      vertex -29.1754 16.5 50
      vertex -15 11 50
      vertex -15 16.5 50
    endloop
  endfacet
  facet normal 0 0 1
    outer loop
      vertex -15 11 50
      vertex -29.1754 16.5 50
      vertex -25 0 50
    endloop
  endfacet
  facet normal 0 0 1
    outer loop
      vertex -29.1754 -16.5 50
      vertex -15 -11 50
      vertex -25 0 50
    endloop
  endfacet
  facet normal 0 0 1
    outer loop
      vertex -15 -11 50
      vertex -29.1754 -16.5 50
      vertex -15 -16.5 50
    endloop
  endfacet
  facet normal -0 0 1
    outer loop
      vertex -31.7754 16.5 50
      vertex -25 0 50
      vertex -29.1754 16.5 50
    endloop
  endfacet
  facet normal 0 0 1
    outer loop
      vertex -29.1754 -16.5 50
      vertex -28.6 -22 50
      vertex -26 -22 50
    endloop
  endfacet
  facet normal 0 0 1
    outer loop
      vertex -29.1754 -16.5 50
      vertex -31.7754 -16.5 50
      vertex -28.6 -22 50
    endloop
  endfacet
  facet normal 0 0 1
    outer loop
      vertex -25 0 50
      vertex -31.7754 -16.5 50
      vertex -29.1754 -16.5 50
    endloop
  endfacet
  facet normal 0 0 1
    outer loop
      vertex -39.5 14.2058 50
      vertex -31.7754 16.5 50
      vertex -38.2246 16.5 50
    endloop
  endfacet
  facet normal 0 0 1
    outer loop
      vertex -39.5 -14.2058 50
      vertex -25 0 50
      vertex -39.5 14.2058 50
    endloop
  endfacet
  facet normal 0 0 1
    outer loop
      vertex -25 0 50
      vertex -39.5 -14.2058 50
      vertex -31.7754 -16.5 50
    endloop
  endfacet
  facet normal -0 0 1
    outer loop
      vertex -44 22 50
      vertex -38.2246 16.5 50
      vertex -41.4 22 50
    endloop
  endfacet
  facet normal 0 0 1
    outer loop
      vertex -38.2246 16.5 50
      vertex -44 22 50
      vertex -39.5 14.2058 50
    endloop
  endfacet
  facet normal -0 0 1
    outer loop
      vertex -28.6 -22 50
      vertex -30.5 -29.7942 50
      vertex -26 -22 50
    endloop
  endfacet
  facet normal -0 0 1
    outer loop
      vertex -31.8 -27.5426 50
      vertex -30.5 -29.7942 50
      vertex -28.6 -22 50
    endloop
  endfacet
  facet normal -0 0 1
    outer loop
      vertex -38.2 -27.5426 50
      vertex -30.5 -29.7942 50
      vertex -31.8 -27.5426 50
    endloop
  endfacet
  facet normal 0 0 1
    outer loop
      vertex -38.2 -27.5426 50
      vertex -39.5 -29.7942 50
      vertex -30.5 -29.7942 50
    endloop
  endfacet
  facet normal 0 0 1
    outer loop
      vertex -41.4 -22 50
      vertex -39.5 -29.7942 50
      vertex -38.2 -27.5426 50
    endloop
  endfacet
  facet normal 0 0 1
    outer loop
      vertex -39.5 -29.7942 50
      vertex -41.4 -22 50
      vertex -44 -22 50
    endloop
  endfacet
  facet normal 0 0 1
    outer loop
      vertex -31.7754 -16.5 50
      vertex -39.5 -14.2058 50
      vertex -38.2246 -16.5 50
    endloop
  endfacet
  facet normal 0 0 1
    outer loop
      vertex -44 -22 50
      vertex -38.2246 -16.5 50
      vertex -39.5 -14.2058 50
    endloop
  endfacet
  facet normal 0 0 1
    outer loop
      vertex -38.2246 -16.5 50
      vertex -44 -22 50
      vertex -41.4 -22 50
    endloop
  endfacet
  facet normal 0 0 1
    outer loop
      vertex 39.5 29.7942 50
      vertex 41.4 22 50
      vertex 44 22 50
    endloop
  endfacet
  facet normal 0 0 1
    outer loop
      vertex 39.5 29.7942 50
      vertex 38.2 27.5426 50
      vertex 41.4 22 50
    endloop
  endfacet
  facet normal 0 0 1
    outer loop
      vertex 39.5 29.7942 50
      vertex 31.8 27.5426 50
      vertex 38.2 27.5426 50
    endloop
  endfacet
  facet normal -0 0 1
    outer loop
      vertex 30.5 29.7942 50
      vertex 31.8 27.5426 50
      vertex 39.5 29.7942 50
    endloop
  endfacet
  facet normal 0 0 1
    outer loop
      vertex 30.5 29.7942 50
      vertex 28.6 22 50
      vertex 31.8 27.5426 50
    endloop
  endfacet
  facet normal 0 -0 1
    outer loop
      vertex 28.6 22 50
      vertex 30.5 29.7942 50
      vertex 26 22 50
    endloop
  endfacet
  facet normal 0 0 1
    outer loop
      vertex 38.2246 16.5 50
      vertex 44 22 50
      vertex 41.4 22 50
    endloop
  endfacet
  facet normal -0 0 1
    outer loop
      vertex 31.7754 16.5 50
      vertex 39.5 14.2058 50
      vertex 38.2246 16.5 50
    endloop
  endfacet
  facet normal 0 0 1
    outer loop
      vertex 44 22 50
      vertex 38.2246 16.5 50
      vertex 39.5 14.2058 50
    endloop
  endfacet
  facet normal -0 0 1
    outer loop
      vertex 38.2246 -16.5 50
      vertex 44 -22 50
      vertex 39.5 -14.2058 50
    endloop
  endfacet
  facet normal 0 0 1
    outer loop
      vertex 44 -22 50
      vertex 38.2246 -16.5 50
      vertex 41.4 -22 50
    endloop
  endfacet
  facet normal 0 0 1
    outer loop
      vertex 39.5 14.2058 50
      vertex 25 0 50
      vertex 39.5 -14.2058 50
    endloop
  endfacet
  facet normal 0 0 1
    outer loop
      vertex 39.5 14.2058 50
      vertex 31.7754 16.5 50
      vertex 25 0 50
    endloop
  endfacet
  facet normal 0 -0 1
    outer loop
      vertex 31.7754 -16.5 50
      vertex 39.5 -14.2058 50
      vertex 25 0 50
    endloop
  endfacet
  facet normal 0 0 1
    outer loop
      vertex 25 0 50
      vertex 31.7754 16.5 50
      vertex 29.1754 16.5 50
    endloop
  endfacet
  facet normal 0 0 1
    outer loop
      vertex 28.6 22 50
      vertex 29.1754 16.5 50
      vertex 31.7754 16.5 50
    endloop
  endfacet
  facet normal 0 0 1
    outer loop
      vertex 29.1754 16.5 50
      vertex 28.6 22 50
      vertex 26 22 50
    endloop
  endfacet
  facet normal -0 0 1
    outer loop
      vertex 41.4 -22 50
      vertex 39.5 -29.7942 50
      vertex 44 -22 50
    endloop
  endfacet
  facet normal -0 0 1
    outer loop
      vertex 38.2 -27.5426 50
      vertex 39.5 -29.7942 50
      vertex 41.4 -22 50
    endloop
  endfacet
  facet normal -0 0 1
    outer loop
      vertex 31.8 -27.5426 50
      vertex 39.5 -29.7942 50
      vertex 38.2 -27.5426 50
    endloop
  endfacet
  facet normal 0 0 1
    outer loop
      vertex 31.8 -27.5426 50
      vertex 30.5 -29.7942 50
      vertex 39.5 -29.7942 50
    endloop
  endfacet
  facet normal 0 0 1
    outer loop
      vertex 28.6 -22 50
      vertex 30.5 -29.7942 50
      vertex 31.8 -27.5426 50
    endloop
  endfacet
  facet normal 0 0 1
    outer loop
      vertex 30.5 -29.7942 50
      vertex 28.6 -22 50
      vertex 26 -22 50
    endloop
  endfacet
  facet normal -0 0 1
    outer loop
      vertex 15 -11 50
      vertex 29.1754 -16.5 50
      vertex 25 0 50
    endloop
  endfacet
  facet normal 0 0 1
    outer loop
      vertex 29.1754 -16.5 50
      vertex 15 -11 50
      vertex 15 -16.5 50
    endloop
  endfacet
  facet normal 0 0 1
    outer loop
      vertex 31.7754 -16.5 50
      vertex 25 0 50
      vertex 29.1754 -16.5 50
    endloop
  endfacet
  facet normal 0 0 1
    outer loop
      vertex 15 11 50
      vertex 29.1754 16.5 50
      vertex 15 16.5 50
    endloop
  endfacet
  facet normal 0 0 1
    outer loop
      vertex 29.1754 16.5 50
      vertex 15 11 50
      vertex 25 0 50
    endloop
  endfacet
  facet normal 0 0 1
    outer loop
      vertex 39.5 -14.2058 50
      vertex 31.7754 -16.5 50
      vertex 38.2246 -16.5 50
    endloop
  endfacet
  facet normal -0 0 1
    outer loop
      vertex 29.1754 -16.5 50
      vertex 28.6 -22 50
      vertex 31.7754 -16.5 50
    endloop
  endfacet
  facet normal 0 -0 1
    outer loop
      vertex 28.6 -22 50
      vertex 29.1754 -16.5 50
      vertex 26 -22 50
    endloop
  endfacet
  facet normal 0.866025 -0.500001 0
    outer loop
      vertex 39.5 14.2058 50
      vertex 44 22 46
      vertex 44 22 50
    endloop
  endfacet
  facet normal 0.866025 -0.500001 0
    outer loop
      vertex 44 22 46
      vertex 39.5 14.2058 50
      vertex 39.5 14.2058 46
    endloop
  endfacet
  facet normal 0 0 -1
    outer loop
      vertex -30.5 -29.7942 46
      vertex -28.6 -22 46
      vertex -26 -22 46
    endloop
  endfacet
  facet normal 0 0 -1
    outer loop
      vertex -30.5 -29.7942 46
      vertex -31.8 -27.5426 46
      vertex -28.6 -22 46
    endloop
  endfacet
  facet normal 0 0 -1
    outer loop
      vertex -30.5 -29.7942 46
      vertex -38.2 -27.5426 46
      vertex -31.8 -27.5426 46
    endloop
  endfacet
  facet normal 0 0 -1
    outer loop
      vertex -39.5 -29.7942 46
      vertex -38.2 -27.5426 46
      vertex -30.5 -29.7942 46
    endloop
  endfacet
  facet normal 0 0 -1
    outer loop
      vertex -39.5 -29.7942 46
      vertex -41.4 -22 46
      vertex -38.2 -27.5426 46
    endloop
  endfacet
  facet normal -0 -0 -1
    outer loop
      vertex -41.4 -22 46
      vertex -39.5 -29.7942 46
      vertex -44 -22 46
    endloop
  endfacet
  facet normal 0 0 -1
    outer loop
      vertex -28.6 -22 46
      vertex -29.1754 -16.5 46
      vertex -26 -22 46
    endloop
  endfacet
  facet normal 0 0 -1
    outer loop
      vertex -29.1754 -16.5 46
      vertex -31.7754 -16.5 46
      vertex -29.1754 16.5 46
    endloop
  endfacet
  facet normal 0 0 -1
    outer loop
      vertex -31.7754 -16.5 46
      vertex -29.1754 -16.5 46
      vertex -28.6 -22 46
    endloop
  endfacet
  facet normal 0 0 -1
    outer loop
      vertex -29.1754 -16.5 46
      vertex -15 16.5 46
      vertex -15 -16.5 46
    endloop
  endfacet
  facet normal -0 0 -1
    outer loop
      vertex -15 16.5 46
      vertex -29.1754 -16.5 46
      vertex -29.1754 16.5 46
    endloop
  endfacet
  facet normal 0 0 -1
    outer loop
      vertex -29.1754 16.5 46
      vertex -28.6 22 46
      vertex -26 22 46
    endloop
  endfacet
  facet normal 0 0 -1
    outer loop
      vertex -29.1754 16.5 46
      vertex -31.7754 16.5 46
      vertex -28.6 22 46
    endloop
  endfacet
  facet normal 0 0 -1
    outer loop
      vertex -31.7754 -16.5 46
      vertex -31.7754 16.5 46
      vertex -29.1754 16.5 46
    endloop
  endfacet
  facet normal 0 0 -1
    outer loop
      vertex -39.5 -14.2058 46
      vertex -31.7754 -16.5 46
      vertex -38.2246 -16.5 46
    endloop
  endfacet
  facet normal 0 0 -1
    outer loop
      vertex -31.7754 -16.5 46
      vertex -39.5 -14.2058 46
      vertex -31.7754 16.5 46
    endloop
  endfacet
  facet normal 0 0 -1
    outer loop
      vertex -39.5 14.2058 46
      vertex -31.7754 16.5 46
      vertex -39.5 -14.2058 46
    endloop
  endfacet
  facet normal 0 0 -1
    outer loop
      vertex -44 -22 46
      vertex -38.2246 -16.5 46
      vertex -41.4 -22 46
    endloop
  endfacet
  facet normal -0 0 -1
    outer loop
      vertex -38.2246 -16.5 46
      vertex -44 -22 46
      vertex -39.5 -14.2058 46
    endloop
  endfacet
  facet normal 0 0 -1
    outer loop
      vertex -28.6 22 46
      vertex -30.5 29.7942 46
      vertex -26 22 46
    endloop
  endfacet
  facet normal 0 0 -1
    outer loop
      vertex -31.8 27.5426 46
      vertex -30.5 29.7942 46
      vertex -28.6 22 46
    endloop
  endfacet
  facet normal 0 0 -1
    outer loop
      vertex -38.2 27.5426 46
      vertex -30.5 29.7942 46
      vertex -31.8 27.5426 46
    endloop
  endfacet
  facet normal 0 0 -1
    outer loop
      vertex -38.2 27.5426 46
      vertex -39.5 29.7942 46
      vertex -30.5 29.7942 46
    endloop
  endfacet
  facet normal 0 0 -1
    outer loop
      vertex -41.4 22 46
      vertex -39.5 29.7942 46
      vertex -38.2 27.5426 46
    endloop
  endfacet
  facet normal 0 0 -1
    outer loop
      vertex -39.5 29.7942 46
      vertex -41.4 22 46
      vertex -44 22 46
    endloop
  endfacet
  facet normal -0 0 -1
    outer loop
      vertex -31.7754 16.5 46
      vertex -39.5 14.2058 46
      vertex -38.2246 16.5 46
    endloop
  endfacet
  facet normal 0 0 -1
    outer loop
      vertex -44 22 46
      vertex -38.2246 16.5 46
      vertex -39.5 14.2058 46
    endloop
  endfacet
  facet normal 0 0 -1
    outer loop
      vertex -38.2246 16.5 46
      vertex -44 22 46
      vertex -41.4 22 46
    endloop
  endfacet
  facet normal 0 0 -1
    outer loop
      vertex 39.5 -29.7942 46
      vertex 41.4 -22 46
      vertex 44 -22 46
    endloop
  endfacet
  facet normal 0 0 -1
    outer loop
      vertex 39.5 -29.7942 46
      vertex 38.2 -27.5426 46
      vertex 41.4 -22 46
    endloop
  endfacet
  facet normal 0 0 -1
    outer loop
      vertex 39.5 -29.7942 46
      vertex 31.8 -27.5426 46
      vertex 38.2 -27.5426 46
    endloop
  endfacet
  facet normal 0 0 -1
    outer loop
      vertex 30.5 -29.7942 46
      vertex 31.8 -27.5426 46
      vertex 39.5 -29.7942 46
    endloop
  endfacet
  facet normal 0 0 -1
    outer loop
      vertex 30.5 -29.7942 46
      vertex 28.6 -22 46
      vertex 31.8 -27.5426 46
    endloop
  endfacet
  facet normal -0 -0 -1
    outer loop
      vertex 28.6 -22 46
      vertex 30.5 -29.7942 46
      vertex 26 -22 46
    endloop
  endfacet
  facet normal 0 0 -1
    outer loop
      vertex 38.2246 -16.5 46
      vertex 44 -22 46
      vertex 41.4 -22 46
    endloop
  endfacet
  facet normal 0 0 -1
    outer loop
      vertex 31.7754 -16.5 46
      vertex 39.5 -14.2058 46
      vertex 38.2246 -16.5 46
    endloop
  endfacet
  facet normal 0 0 -1
    outer loop
      vertex 44 -22 46
      vertex 38.2246 -16.5 46
      vertex 39.5 -14.2058 46
    endloop
  endfacet
  facet normal 0 0 -1
    outer loop
      vertex 38.2246 16.5 46
      vertex 44 22 46
      vertex 39.5 14.2058 46
    endloop
  endfacet
  facet normal -0 0 -1
    outer loop
      vertex 44 22 46
      vertex 38.2246 16.5 46
      vertex 41.4 22 46
    endloop
  endfacet
  facet normal -0 0 -1
    outer loop
      vertex 39.5 -14.2058 46
      vertex 31.7754 -16.5 46
      vertex 39.5 14.2058 46
    endloop
  endfacet
  facet normal 0 0 -1
    outer loop
      vertex 31.7754 16.5 46
      vertex 39.5 14.2058 46
      vertex 31.7754 -16.5 46
    endloop
  endfacet
  facet normal 0 0 -1
    outer loop
      vertex 39.5 14.2058 46
      vertex 31.7754 16.5 46
      vertex 38.2246 16.5 46
    endloop
  endfacet
  facet normal 0 0 -1
    outer loop
      vertex 31.7754 -16.5 46
      vertex 29.1754 -16.5 46
      vertex 31.7754 16.5 46
    endloop
  endfacet
  facet normal 0 0 -1
    outer loop
      vertex 28.6 -22 46
      vertex 29.1754 -16.5 46
      vertex 31.7754 -16.5 46
    endloop
  endfacet
  facet normal 0 0 -1
    outer loop
      vertex 29.1754 -16.5 46
      vertex 28.6 -22 46
      vertex 26 -22 46
    endloop
  endfacet
  facet normal 0 0 -1
    outer loop
      vertex 41.4 22 46
      vertex 39.5 29.7942 46
      vertex 44 22 46
    endloop
  endfacet
  facet normal 0 0 -1
    outer loop
      vertex 38.2 27.5426 46
      vertex 39.5 29.7942 46
      vertex 41.4 22 46
    endloop
  endfacet
  facet normal 0 0 -1
    outer loop
      vertex 31.8 27.5426 46
      vertex 39.5 29.7942 46
      vertex 38.2 27.5426 46
    endloop
  endfacet
  facet normal 0 0 -1
    outer loop
      vertex 31.8 27.5426 46
      vertex 30.5 29.7942 46
      vertex 39.5 29.7942 46
    endloop
  endfacet
  facet normal 0 0 -1
    outer loop
      vertex 28.6 22 46
      vertex 30.5 29.7942 46
      vertex 31.8 27.5426 46
    endloop
  endfacet
  facet normal 0 0 -1
    outer loop
      vertex 30.5 29.7942 46
      vertex 28.6 22 46
      vertex 26 22 46
    endloop
  endfacet
  facet normal 0 0 -1
    outer loop
      vertex 15 -16.5 46
      vertex 29.1754 16.5 46
      vertex 29.1754 -16.5 46
    endloop
  endfacet
  facet normal -0 0 -1
    outer loop
      vertex 29.1754 16.5 46
      vertex 15 -16.5 46
      vertex 15 16.5 46
    endloop
  endfacet
  facet normal 0 0 -1
    outer loop
      vertex 29.1754 16.5 46
      vertex 31.7754 16.5 46
      vertex 29.1754 -16.5 46
    endloop
  endfacet
  facet normal 0 0 -1
    outer loop
      vertex 29.1754 16.5 46
      vertex 28.6 22 46
      vertex 31.7754 16.5 46
    endloop
  endfacet
  facet normal -0 -0 -1
    outer loop
      vertex 28.6 22 46
      vertex 29.1754 16.5 46
      vertex 26 22 46
    endloop
  endfacet
  facet normal -0.866027 -0.499997 0
    outer loop
      vertex 29.1754 16.5 46
      vertex 26 22 50
      vertex 26 22 46
    endloop
  endfacet
  facet normal -0.866027 -0.499997 0
    outer loop
      vertex 26 22 50
      vertex 29.1754 16.5 46
      vertex 29.1754 16.5 50
    endloop
  endfacet
  facet normal -0.866027 -0.499997 0
    outer loop
      vertex 41.4 22 46
      vertex 38.2 27.5426 50
      vertex 38.2 27.5426 46
    endloop
  endfacet
  facet normal -0.866027 -0.499997 0
    outer loop
      vertex 38.2 27.5426 50
      vertex 41.4 22 46
      vertex 41.4 22 50
    endloop
  endfacet
  facet normal 0.866027 -0.499997 0
    outer loop
      vertex 28.6 22 50
      vertex 31.8 27.5426 46
      vertex 31.8 27.5426 50
    endloop
  endfacet
  facet normal 0.866027 -0.499997 0
    outer loop
      vertex 31.8 27.5426 46
      vertex 28.6 22 50
      vertex 28.6 22 46
    endloop
  endfacet
  facet normal 0 -1 0
    outer loop
      vertex 31.8 27.5426 46
      vertex 38.2 27.5426 50
      vertex 31.8 27.5426 50
    endloop
  endfacet
  facet normal 0 -1 -0
    outer loop
      vertex 38.2 27.5426 50
      vertex 31.8 27.5426 46
      vertex 38.2 27.5426 46
    endloop
  endfacet
  facet normal 0.866027 0.499997 0
    outer loop
      vertex 31.7754 16.5 50
      vertex 28.6 22 46
      vertex 28.6 22 50
    endloop
  endfacet
  facet normal 0.866027 0.499997 0
    outer loop
      vertex 28.6 22 46
      vertex 31.7754 16.5 50
      vertex 31.7754 16.5 46
    endloop
  endfacet
  facet normal -0.866027 0.499997 0
    outer loop
      vertex 38.2246 16.5 46
      vertex 41.4 22 50
      vertex 41.4 22 46
    endloop
  endfacet
  facet normal -0.866027 0.499997 0
    outer loop
      vertex 41.4 22 50
      vertex 38.2246 16.5 46
      vertex 38.2246 16.5 50
    endloop
  endfacet
  facet normal 0.866025 0.500001 0
    outer loop
      vertex 44 -22 50
      vertex 39.5 -14.2058 46
      vertex 39.5 -14.2058 50
    endloop
  endfacet
  facet normal 0.866025 0.500001 0
    outer loop
      vertex 39.5 -14.2058 46
      vertex 44 -22 50
      vertex 44 -22 46
    endloop
  endfacet
  facet normal -0.866027 0.499997 0
    outer loop
      vertex 26 -22 46
      vertex 29.1754 -16.5 50
      vertex 29.1754 -16.5 46
    endloop
  endfacet
  facet normal -0.866027 0.499997 0
    outer loop
      vertex 29.1754 -16.5 50
      vertex 26 -22 46
      vertex 26 -22 50
    endloop
  endfacet
  facet normal 0.866025 -0.500001 0
    outer loop
      vertex 39.5 -29.7942 50
      vertex 44 -22 46
      vertex 44 -22 50
    endloop
  endfacet
  facet normal 0.866025 -0.500001 0
    outer loop
      vertex 44 -22 46
      vertex 39.5 -29.7942 50
      vertex 39.5 -29.7942 46
    endloop
  endfacet
  facet normal 0 -1 0
    outer loop
      vertex 30.5 -29.7942 46
      vertex 39.5 -29.7942 50
      vertex 30.5 -29.7942 50
    endloop
  endfacet
  facet normal 0 -1 -0
    outer loop
      vertex 39.5 -29.7942 50
      vertex 30.5 -29.7942 46
      vertex 39.5 -29.7942 46
    endloop
  endfacet
  facet normal -0.866025 -0.500001 0
    outer loop
      vertex 30.5 -29.7942 46
      vertex 26 -22 50
      vertex 26 -22 46
    endloop
  endfacet
  facet normal -0.866025 -0.500001 0
    outer loop
      vertex 26 -22 50
      vertex 30.5 -29.7942 46
      vertex 30.5 -29.7942 50
    endloop
  endfacet
  facet normal -0.866027 -0.499997 0
    outer loop
      vertex 41.4 -22 46
      vertex 38.2246 -16.5 50
      vertex 38.2246 -16.5 46
    endloop
  endfacet
  facet normal -0.866027 -0.499997 0
    outer loop
      vertex 38.2246 -16.5 50
      vertex 41.4 -22 46
      vertex 41.4 -22 50
    endloop
  endfacet
  facet normal 0.866027 -0.499997 0
    outer loop
      vertex 28.6 -22 50
      vertex 31.7754 -16.5 46
      vertex 31.7754 -16.5 50
    endloop
  endfacet
  facet normal 0.866027 -0.499997 0
    outer loop
      vertex 31.7754 -16.5 46
      vertex 28.6 -22 50
      vertex 28.6 -22 46
    endloop
  endfacet
  facet normal 0.866027 0.499997 0
    outer loop
      vertex 31.8 -27.5426 50
      vertex 28.6 -22 46
      vertex 28.6 -22 50
    endloop
  endfacet
  facet normal 0.866027 0.499997 0
    outer loop
      vertex 28.6 -22 46
      vertex 31.8 -27.5426 50
      vertex 31.8 -27.5426 46
    endloop
  endfacet
  facet normal -0.866027 0.499997 0
    outer loop
      vertex 38.2 -27.5426 46
      vertex 41.4 -22 50
      vertex 41.4 -22 46
    endloop
  endfacet
  facet normal -0.866027 0.499997 0
    outer loop
      vertex 41.4 -22 50
      vertex 38.2 -27.5426 46
      vertex 38.2 -27.5426 50
    endloop
  endfacet
  facet normal 0 1 -0
    outer loop
      vertex 38.2 -27.5426 46
      vertex 31.8 -27.5426 50
      vertex 38.2 -27.5426 50
    endloop
  endfacet
  facet normal 0 1 0
    outer loop
      vertex 31.8 -27.5426 50
      vertex 38.2 -27.5426 46
      vertex 31.8 -27.5426 46
    endloop
  endfacet
  facet normal 0.866025 0.500001 0
    outer loop
      vertex -26 22 50
      vertex -30.5 29.7942 46
      vertex -30.5 29.7942 50
    endloop
  endfacet
  facet normal 0.866025 0.500001 0
    outer loop
      vertex -30.5 29.7942 46
      vertex -26 22 50
      vertex -26 22 46
    endloop
  endfacet
  facet normal -0.866025 0.500001 0
    outer loop
      vertex -44 22 46
      vertex -39.5 29.7942 50
      vertex -39.5 29.7942 46
    endloop
  endfacet
  facet normal -0.866025 0.500001 0
    outer loop
      vertex -39.5 29.7942 50
      vertex -44 22 46
      vertex -44 22 50
    endloop
  endfacet
  facet normal 0 1 -0
    outer loop
      vertex -30.5 29.7942 46
      vertex -39.5 29.7942 50
      vertex -30.5 29.7942 50
    endloop
  endfacet
  facet normal 0 1 0
    outer loop
      vertex -39.5 29.7942 50
      vertex -30.5 29.7942 46
      vertex -39.5 29.7942 46
    endloop
  endfacet
  facet normal 0.866027 -0.499997 0
    outer loop
      vertex -29.1754 16.5 50
      vertex -26 22 46
      vertex -26 22 50
    endloop
  endfacet
  facet normal 0.866027 -0.499997 0
    outer loop
      vertex -26 22 46
      vertex -29.1754 16.5 50
      vertex -29.1754 16.5 46
    endloop
  endfacet
  facet normal -0.866025 -0.500001 0
    outer loop
      vertex -39.5 14.2058 46
      vertex -44 22 50
      vertex -44 22 46
    endloop
  endfacet
  facet normal -0.866025 -0.500001 0
    outer loop
      vertex -44 22 50
      vertex -39.5 14.2058 46
      vertex -39.5 14.2058 50
    endloop
  endfacet
  facet normal -0.866027 -0.499997 0
    outer loop
      vertex -28.6 22 46
      vertex -31.8 27.5426 50
      vertex -31.8 27.5426 46
    endloop
  endfacet
  facet normal -0.866027 -0.499997 0
    outer loop
      vertex -31.8 27.5426 50
      vertex -28.6 22 46
      vertex -28.6 22 50
    endloop
  endfacet
  facet normal 0.866027 -0.499997 0
    outer loop
      vertex -41.4 22 50
      vertex -38.2 27.5426 46
      vertex -38.2 27.5426 50
    endloop
  endfacet
  facet normal 0.866027 -0.499997 0
    outer loop
      vertex -38.2 27.5426 46
      vertex -41.4 22 50
      vertex -41.4 22 46
    endloop
  endfacet
  facet normal 0 -1 0
    outer loop
      vertex -38.2 27.5426 46
      vertex -31.8 27.5426 50
      vertex -38.2 27.5426 50
    endloop
  endfacet
  facet normal 0 -1 -0
    outer loop
      vertex -31.8 27.5426 50
      vertex -38.2 27.5426 46
      vertex -31.8 27.5426 46
    endloop
  endfacet
  facet normal 0.866027 0.499997 0
    outer loop
      vertex -38.2246 16.5 50
      vertex -41.4 22 46
      vertex -41.4 22 50
    endloop
  endfacet
  facet normal 0.866027 0.499997 0
    outer loop
      vertex -41.4 22 46
      vertex -38.2246 16.5 50
      vertex -38.2246 16.5 46
    endloop
  endfacet
  facet normal -0.866027 0.499997 0
    outer loop
      vertex -31.7754 16.5 46
      vertex -28.6 22 50
      vertex -28.6 22 46
    endloop
  endfacet
  facet normal -0.866027 0.499997 0
    outer loop
      vertex -28.6 22 50
      vertex -31.7754 16.5 46
      vertex -31.7754 16.5 50
    endloop
  endfacet
  facet normal 0.866027 0.499997 0
    outer loop
      vertex -26 -22 50
      vertex -29.1754 -16.5 46
      vertex -29.1754 -16.5 50
    endloop
  endfacet
  facet normal 0.866027 0.499997 0
    outer loop
      vertex -29.1754 -16.5 46
      vertex -26 -22 50
      vertex -26 -22 46
    endloop
  endfacet
  facet normal -0.866025 0.500001 0
    outer loop
      vertex -44 -22 46
      vertex -39.5 -14.2058 50
      vertex -39.5 -14.2058 46
    endloop
  endfacet
  facet normal -0.866025 0.500001 0
    outer loop
      vertex -39.5 -14.2058 50
      vertex -44 -22 46
      vertex -44 -22 50
    endloop
  endfacet
  facet normal 0.866025 -0.500001 0
    outer loop
      vertex -30.5 -29.7942 50
      vertex -26 -22 46
      vertex -26 -22 50
    endloop
  endfacet
  facet normal 0.866025 -0.500001 0
    outer loop
      vertex -26 -22 46
      vertex -30.5 -29.7942 50
      vertex -30.5 -29.7942 46
    endloop
  endfacet
  facet normal 0 -1 0
    outer loop
      vertex -39.5 -29.7942 46
      vertex -30.5 -29.7942 50
      vertex -39.5 -29.7942 50
    endloop
  endfacet
  facet normal 0 -1 -0
    outer loop
      vertex -30.5 -29.7942 50
      vertex -39.5 -29.7942 46
      vertex -30.5 -29.7942 46
    endloop
  endfacet
  facet normal -0.866025 -0.500001 0
    outer loop
      vertex -39.5 -29.7942 46
      vertex -44 -22 50
      vertex -44 -22 46
    endloop
  endfacet
  facet normal -0.866025 -0.500001 0
    outer loop
      vertex -44 -22 50
      vertex -39.5 -29.7942 46
      vertex -39.5 -29.7942 50
    endloop
  endfacet
  facet normal -0.866027 -0.499997 0
    outer loop
      vertex -28.6 -22 46
      vertex -31.7754 -16.5 50
      vertex -31.7754 -16.5 46
    endloop
  endfacet
  facet normal -0.866027 -0.499997 0
    outer loop
      vertex -31.7754 -16.5 50
      vertex -28.6 -22 46
      vertex -28.6 -22 50
    endloop
  endfacet
  facet normal 0.866027 -0.499997 0
    outer loop
      vertex -41.4 -22 50
      vertex -38.2246 -16.5 46
      vertex -38.2246 -16.5 50
    endloop
  endfacet
  facet normal 0.866027 -0.499997 0
    outer loop
      vertex -38.2246 -16.5 46
      vertex -41.4 -22 50
      vertex -41.4 -22 46
    endloop
  endfacet
  facet normal 0.866027 0.499997 0
    outer loop
      vertex -38.2 -27.5426 50
      vertex -41.4 -22 46
      vertex -41.4 -22 50
    endloop
  endfacet
  facet normal 0.866027 0.499997 0
    outer loop
      vertex -41.4 -22 46
      vertex -38.2 -27.5426 50
      vertex -38.2 -27.5426 46
    endloop
  endfacet
  facet normal -0.866027 0.499997 0
    outer loop
      vertex -31.8 -27.5426 46
      vertex -28.6 -22 50
      vertex -28.6 -22 46
    endloop
  endfacet
  facet normal -0.866027 0.499997 0
    outer loop
      vertex -28.6 -22 50
      vertex -31.8 -27.5426 46
      vertex -31.8 -27.5426 50
    endloop
  endfacet
  facet normal 0 1 -0
    outer loop
      vertex -31.8 -27.5426 46
      vertex -38.2 -27.5426 50
      vertex -31.8 -27.5426 50
    endloop
  endfacet
  facet normal 0 1 0
    outer loop
      vertex -38.2 -27.5426 50
      vertex -31.8 -27.5426 46
      vertex -38.2 -27.5426 46
    endloop
  endfacet
  facet normal -0.706976 0.707238 0
    outer loop
      vertex -9.86485 14 63.25
      vertex -9.86485 14 61.7
      vertex -10 13.8649 63.25
    endloop
  endfacet
  facet normal -0.70711 0.707103 0
    outer loop
      vertex -15 8.86485 61.7
      vertex -10 13.8649 71.75
      vertex -10 13.8649 63.25
    endloop
  endfacet
  facet normal -0.707107 0.707107 -2.28099e-05
    outer loop
      vertex -15 8.86485 61.7
      vertex -10 13.8649 63.25
      vertex -9.86485 14 61.7
    endloop
  endfacet
  facet normal -0.707107 0.707107 -3.51794e-06
    outer loop
      vertex -10 13.8649 71.75
      vertex -15 8.86485 61.7
      vertex -23.8649 0 71.75
    endloop
  endfacet
  facet normal -0.707105 0.707109 0
    outer loop
      vertex -23.8649 0 61.5
      vertex -15 8.86485 61.7
      vertex -15 8.86485 61.5
    endloop
  endfacet
  facet normal -0.707105 0.707109 0
    outer loop
      vertex -15 8.86485 61.7
      vertex -23.8649 0 61.5
      vertex -23.8649 0 71.75
    endloop
  endfacet
  facet normal 0 0 1
    outer loop
      vertex -10 13.8649 71.75
      vertex -22.6274 0 71.75
      vertex -10 12.6274 71.75
    endloop
  endfacet
  facet normal 0 -0 1
    outer loop
      vertex -22.6274 0 71.75
      vertex -10 13.8649 71.75
      vertex -23.8649 0 71.75
    endloop
  endfacet
  facet normal 0 0 1
    outer loop
      vertex 10 13.8649 71.75
      vertex 22.6274 0 71.75
      vertex 23.8649 0 71.75
    endloop
  endfacet
  facet normal 0 0 1
    outer loop
      vertex 22.6274 0 71.75
      vertex 10 13.8649 71.75
      vertex 10 12.6274 71.75
    endloop
  endfacet
  facet normal 0 0 1
    outer loop
      vertex 0 -22.6274 71.75
      vertex 23.8649 0 71.75
      vertex 22.6274 0 71.75
    endloop
  endfacet
  facet normal -0 0 1
    outer loop
      vertex 0 -22.6274 71.75
      vertex 0 -23.8649 71.75
      vertex 23.8649 0 71.75
    endloop
  endfacet
  facet normal 0 0 1
    outer loop
      vertex -22.6274 0 71.75
      vertex 0 -23.8649 71.75
      vertex 0 -22.6274 71.75
    endloop
  endfacet
  facet normal 0 0 1
    outer loop
      vertex 0 -23.8649 71.75
      vertex -22.6274 0 71.75
      vertex -23.8649 0 71.75
    endloop
  endfacet
  facet normal 0.707105 -0.707109 0
    outer loop
      vertex 23.8649 0 71.75
      vertex 15 -8.86485 61.7
      vertex 23.8649 0 61.5
    endloop
  endfacet
  facet normal 0.707107 -0.707107 -3.51794e-06
    outer loop
      vertex 0 -23.8649 71.75
      vertex 15 -8.86485 61.7
      vertex 23.8649 0 71.75
    endloop
  endfacet
  facet normal 0.707107 -0.707107 -3.51794e-06
    outer loop
      vertex 15 -8.86485 61.7
      vertex 0 -23.8649 71.75
      vertex 3.86485 -20 61.7
    endloop
  endfacet
  facet normal 0.707111 -0.707102 0
    outer loop
      vertex 0 -23.8649 61.5
      vertex 3.86485 -20 61.7
      vertex 0 -23.8649 71.75
    endloop
  endfacet
  facet normal 0.707111 -0.707102 0
    outer loop
      vertex 3.86485 -20 61.7
      vertex 0 -23.8649 61.5
      vertex 3.86485 -20 61.5
    endloop
  endfacet
  facet normal 0.707105 -0.707109 0
    outer loop
      vertex 23.8649 0 61.5
      vertex 15 -8.86485 61.7
      vertex 15 -8.86485 61.5
    endloop
  endfacet
  facet normal -0 0 1
    outer loop
      vertex 15 8.86485 61.5
      vertex 25 0 61.5
      vertex 15 11 61.5
    endloop
  endfacet
  facet normal 0 0 1
    outer loop
      vertex 25 0 61.5
      vertex 15 8.86485 61.5
      vertex 23.8649 0 61.5
    endloop
  endfacet
  facet normal 0 0 1
    outer loop
      vertex 15 -8.86485 61.5
      vertex 25 0 61.5
      vertex 23.8649 0 61.5
    endloop
  endfacet
  facet normal 0 0 1
    outer loop
      vertex 25 0 61.5
      vertex 15 -8.86485 61.5
      vertex 15 -11 61.5
    endloop
  endfacet
  facet normal 0 0 1
    outer loop
      vertex -25 0 61.5
      vertex -15 8.86485 61.5
      vertex -15 11 61.5
    endloop
  endfacet
  facet normal 0 0 1
    outer loop
      vertex -15 8.86485 61.5
      vertex -25 0 61.5
      vertex -23.8649 0 61.5
    endloop
  endfacet
  facet normal -0 0 1
    outer loop
      vertex -25 0 61.5
      vertex -15 -8.86485 61.5
      vertex -23.8649 0 61.5
    endloop
  endfacet
  facet normal 0 0 1
    outer loop
      vertex -15 -8.86485 61.5
      vertex -25 0 61.5
      vertex -15 -11 61.5
    endloop
  endfacet
  facet normal 0 0 -1
    outer loop
      vertex 0 -23.8649 61.5
      vertex -3.86485 -20 61.5
      vertex 3.86485 -20 61.5
    endloop
  endfacet
  facet normal -0.707111 -0.707102 0
    outer loop
      vertex -3.86485 -20 61.5
      vertex 0 -23.8649 61.5
      vertex -3.86485 -20 61.7
    endloop
  endfacet
  facet normal -0.707105 -0.707109 -0
    outer loop
      vertex -15 -8.86485 61.7
      vertex -23.8649 0 61.5
      vertex -15 -8.86485 61.5
    endloop
  endfacet
  facet normal -0.707105 -0.707109 0
    outer loop
      vertex -23.8649 0 61.5
      vertex -15 -8.86485 61.7
      vertex -23.8649 0 71.75
    endloop
  endfacet
  facet normal -0.707107 -0.707107 -3.51794e-06
    outer loop
      vertex 0 -23.8649 71.75
      vertex -15 -8.86485 61.7
      vertex -3.86485 -20 61.7
    endloop
  endfacet
  facet normal -0.707111 -0.707102 -0
    outer loop
      vertex 0 -23.8649 71.75
      vertex -3.86485 -20 61.7
      vertex 0 -23.8649 61.5
    endloop
  endfacet
  facet normal -0.707107 -0.707107 -3.51794e-06
    outer loop
      vertex -15 -8.86485 61.7
      vertex 0 -23.8649 71.75
      vertex -23.8649 0 71.75
    endloop
  endfacet
  facet normal 0.707107 0.707107 -3.51794e-06
    outer loop
      vertex 15 8.86485 61.7
      vertex 10 13.8649 71.75
      vertex 23.8649 0 71.75
    endloop
  endfacet
  facet normal 0.707107 0.707107 -2.28099e-05
    outer loop
      vertex 9.86485 14 61.7
      vertex 10 13.8649 63.25
      vertex 15 8.86485 61.7
    endloop
  endfacet
  facet normal 0.70711 0.707103 0
    outer loop
      vertex 10 13.8649 71.75
      vertex 15 8.86485 61.7
      vertex 10 13.8649 63.25
    endloop
  endfacet
  facet normal 0.707105 0.707109 -0
    outer loop
      vertex 23.8649 0 61.5
      vertex 15 8.86485 61.7
      vertex 23.8649 0 71.75
    endloop
  endfacet
  facet normal 0.707105 0.707109 0
    outer loop
      vertex 15 8.86485 61.7
      vertex 23.8649 0 61.5
      vertex 15 8.86485 61.5
    endloop
  endfacet
  facet normal 0.706976 0.707238 0
    outer loop
      vertex 10 13.8649 63.25
      vertex 9.86485 14 61.7
      vertex 9.86485 14 63.25
    endloop
  endfacet
  facet normal 0.707107 -0.707107 0
    outer loop
      vertex -22.6274 0 71.75
      vertex -10 12.6274 66.75
      vertex -10 12.6274 71.75
    endloop
  endfacet
  facet normal 0.707107 -0.707107 0
    outer loop
      vertex -10 12.6274 66.75
      vertex -22.6274 0 71.75
      vertex -22.6274 0 66.75
    endloop
  endfacet
  facet normal -0.707107 0.707107 0
    outer loop
      vertex 0 -22.6274 66.75
      vertex 22.6274 0 71.75
      vertex 22.6274 0 66.75
    endloop
  endfacet
  facet normal -0.707107 0.707107 0
    outer loop
      vertex 22.6274 0 71.75
      vertex 0 -22.6274 66.75
      vertex 0 -22.6274 71.75
    endloop
  endfacet
  facet normal 0 0 1
    outer loop
      vertex -10 12.6274 66.75
      vertex -21.9203 0 66.75
      vertex -10 11.9203 66.75
    endloop
  endfacet
  facet normal 0 -0 1
    outer loop
      vertex -21.9203 0 66.75
      vertex -10 12.6274 66.75
      vertex -22.6274 0 66.75
    endloop
  endfacet
  facet normal 0 0 1
    outer loop
      vertex 10 12.6274 66.75
      vertex 21.9203 0 66.75
      vertex 22.6274 0 66.75
    endloop
  endfacet
  facet normal 0 0 1
    outer loop
      vertex 21.9203 0 66.75
      vertex 10 12.6274 66.75
      vertex 10 11.9203 66.75
    endloop
  endfacet
  facet normal 0 0 1
    outer loop
      vertex 0 -21.9203 66.75
      vertex 22.6274 0 66.75
      vertex 21.9203 0 66.75
    endloop
  endfacet
  facet normal -0 0 1
    outer loop
      vertex 0 -21.9203 66.75
      vertex 0 -22.6274 66.75
      vertex 22.6274 0 66.75
    endloop
  endfacet
  facet normal 0 0 1
    outer loop
      vertex -21.9203 0 66.75
      vertex 0 -22.6274 66.75
      vertex 0 -21.9203 66.75
    endloop
  endfacet
  facet normal 0 0 1
    outer loop
      vertex 0 -22.6274 66.75
      vertex -21.9203 0 66.75
      vertex -22.6274 0 66.75
    endloop
  endfacet
  facet normal 0.707107 0.707107 0
    outer loop
      vertex 0 -22.6274 71.75
      vertex -22.6274 0 66.75
      vertex -22.6274 0 71.75
    endloop
  endfacet
  facet normal 0.707107 0.707107 0
    outer loop
      vertex -22.6274 0 66.75
      vertex 0 -22.6274 71.75
      vertex 0 -22.6274 66.75
    endloop
  endfacet
  facet normal -0.707107 -0.707107 0
    outer loop
      vertex 22.6274 0 66.75
      vertex 10 12.6274 71.75
      vertex 10 12.6274 66.75
    endloop
  endfacet
  facet normal -0.707107 -0.707107 0
    outer loop
      vertex 10 12.6274 71.75
      vertex 22.6274 0 66.75
      vertex 22.6274 0 71.75
    endloop
  endfacet
  facet normal 0.707107 -0.707107 0
    outer loop
      vertex -21.9203 0 63.25
      vertex -10 11.9203 66.75
      vertex -21.9203 0 66.75
    endloop
  endfacet
  facet normal 0.707107 -0.707107 0
    outer loop
      vertex -10 11.9203 66.75
      vertex -21.9203 0 63.25
      vertex -10 11.9203 63.25
    endloop
  endfacet
  facet normal -0.707107 0.707107 0
    outer loop
      vertex 0 -21.9203 63.25
      vertex 21.9203 0 66.75
      vertex 21.9203 0 63.25
    endloop
  endfacet
  facet normal -0.707107 0.707107 0
    outer loop
      vertex 21.9203 0 66.75
      vertex 0 -21.9203 63.25
      vertex 0 -21.9203 66.75
    endloop
  endfacet
  facet normal 0 0 1
    outer loop
      vertex 10 13.8649 63.25
      vertex 9.86485 14 63.25
      vertex 10 11.9203 63.25
    endloop
  endfacet
  facet normal 0 0 1
    outer loop
      vertex 10 11.9203 63.25
      vertex 0 -21.9203 63.25
      vertex 21.9203 0 63.25
    endloop
  endfacet
  facet normal 0 0 1
    outer loop
      vertex -10 11.9203 63.25
      vertex 10 11.9203 63.25
      vertex 9.86485 14 63.25
    endloop
  endfacet
  facet normal 0 0 1
    outer loop
      vertex -10 11.9203 63.25
      vertex 9.86485 14 63.25
      vertex -9.86485 14 63.25
    endloop
  endfacet
  facet normal 0 0 1
    outer loop
      vertex -10 11.9203 63.25
      vertex -9.86485 14 63.25
      vertex -10 13.8649 63.25
    endloop
  endfacet
  facet normal 0 0 1
    outer loop
      vertex 10 11.9203 63.25
      vertex -10 11.9203 63.25
      vertex 0 -21.9203 63.25
    endloop
  endfacet
  facet normal 0 0 1
    outer loop
      vertex 0 -21.9203 63.25
      vertex -10 11.9203 63.25
      vertex -21.9203 0 63.25
    endloop
  endfacet
  facet normal 0.707107 0.707107 0
    outer loop
      vertex 0 -21.9203 66.75
      vertex -21.9203 0 63.25
      vertex -21.9203 0 66.75
    endloop
  endfacet
  facet normal 0.707107 0.707107 0
    outer loop
      vertex -21.9203 0 63.25
      vertex 0 -21.9203 66.75
      vertex 0 -21.9203 63.25
    endloop
  endfacet
  facet normal -0.707107 -0.707107 0
    outer loop
      vertex 10 11.9203 63.25
      vertex 21.9203 0 66.75
      vertex 10 11.9203 66.75
    endloop
  endfacet
  facet normal -0.707107 -0.707107 -0
    outer loop
      vertex 21.9203 0 66.75
      vertex 10 11.9203 63.25
      vertex 21.9203 0 63.25
    endloop
  endfacet
  facet normal 1 0 0
    outer loop
      vertex -10 12.6274 66.75
      vertex -10 13.8649 71.75
      vertex -10 12.6274 71.75
    endloop
  endfacet
  facet normal 1 0 0
    outer loop
      vertex -10 13.8649 71.75
      vertex -10 12.6274 66.75
      vertex -10 13.8649 63.25
    endloop
  endfacet
  facet normal 1 0 0
    outer loop
      vertex -10 11.9203 63.25
      vertex -10 12.6274 66.75
      vertex -10 11.9203 66.75
    endloop
  endfacet
  facet normal 1 0 0
    outer loop
      vertex -10 12.6274 66.75
      vertex -10 11.9203 63.25
      vertex -10 13.8649 63.25
    endloop
  endfacet
  facet normal -1 0 0
    outer loop
      vertex 10 13.8649 63.25
      vertex 10 12.6274 66.75
      vertex 10 13.8649 71.75
    endloop
  endfacet
  facet normal -1 0 0
    outer loop
      vertex 10 11.9203 63.25
      vertex 10 12.6274 66.75
      vertex 10 13.8649 63.25
    endloop
  endfacet
  facet normal -1 -0 0
    outer loop
      vertex 10 12.6274 66.75
      vertex 10 11.9203 63.25
      vertex 10 11.9203 66.75
    endloop
  endfacet
  facet normal -1 -0 0
    outer loop
      vertex 10 13.8649 71.75
      vertex 10 12.6274 66.75
      vertex 10 12.6274 71.75
    endloop
  endfacet
  facet normal 0 1 -0
    outer loop
      vertex 9.86485 14 61.7
      vertex -9.86485 14 63.25
      vertex 9.86485 14 63.25
    endloop
  endfacet
  facet normal 0 1 0
    outer loop
      vertex -9.86485 14 63.25
      vertex 9.86485 14 61.7
      vertex -9.86485 14 61.7
    endloop
  endfacet
  facet normal -1 0 0
    outer loop
      vertex -39.5 -14.2058 46
      vertex -39.5 14.2058 50
      vertex -39.5 14.2058 46
    endloop
  endfacet
  facet normal -1 -0 0
    outer loop
      vertex -39.5 14.2058 50
      vertex -39.5 -14.2058 46
      vertex -39.5 -14.2058 50
    endloop
  endfacet
  facet normal 1 -0 0
    outer loop
      vertex 39.5 -14.2058 50
      vertex 39.5 14.2058 46
      vertex 39.5 14.2058 50
    endloop
  endfacet
  facet normal 1 0 0
    outer loop
      vertex 39.5 14.2058 46
      vertex 39.5 -14.2058 50
      vertex 39.5 -14.2058 46
    endloop
  endfacet
  facet normal 0 -1 0
    outer loop
      vertex -38.2246 -16.5 46
      vertex -31.7754 -16.5 50
      vertex -38.2246 -16.5 50
    endloop
  endfacet
  facet normal 0 -1 -0
    outer loop
      vertex -31.7754 -16.5 50
      vertex -38.2246 -16.5 46
      vertex -31.7754 -16.5 46
    endloop
  endfacet
  facet normal 0 -1 0
    outer loop
      vertex -29.1754 -16.5 46
      vertex -15 -16.5 50
      vertex -29.1754 -16.5 50
    endloop
  endfacet
  facet normal 0 -1 -0
    outer loop
      vertex -15 -16.5 50
      vertex -29.1754 -16.5 46
      vertex -15 -16.5 46
    endloop
  endfacet
  facet normal 0 -1 0
    outer loop
      vertex 15 -16.5 46
      vertex 29.1754 -16.5 50
      vertex 15 -16.5 50
    endloop
  endfacet
  facet normal 0 -1 -0
    outer loop
      vertex 29.1754 -16.5 50
      vertex 15 -16.5 46
      vertex 29.1754 -16.5 46
    endloop
  endfacet
  facet normal 0 -1 0
    outer loop
      vertex 31.7754 -16.5 46
      vertex 38.2246 -16.5 50
      vertex 31.7754 -16.5 50
    endloop
  endfacet
  facet normal 0 -1 -0
    outer loop
      vertex 38.2246 -16.5 50
      vertex 31.7754 -16.5 46
      vertex 38.2246 -16.5 46
    endloop
  endfacet
  facet normal 0 1 -0
    outer loop
      vertex -31.7754 16.5 46
      vertex -38.2246 16.5 50
      vertex -31.7754 16.5 50
    endloop
  endfacet
  facet normal 0 1 0
    outer loop
      vertex -38.2246 16.5 50
      vertex -31.7754 16.5 46
      vertex -38.2246 16.5 46
    endloop
  endfacet
  facet normal 0 1 -0
    outer loop
      vertex -15 16.5 46
      vertex -29.1754 16.5 50
      vertex -15 16.5 50
    endloop
  endfacet
  facet normal 0 1 0
    outer loop
      vertex -29.1754 16.5 50
      vertex -15 16.5 46
      vertex -29.1754 16.5 46
    endloop
  endfacet
  facet normal 0 1 -0
    outer loop
      vertex 29.1754 16.5 46
      vertex 15 16.5 50
      vertex 29.1754 16.5 50
    endloop
  endfacet
  facet normal 0 1 0
    outer loop
      vertex 15 16.5 50
      vertex 29.1754 16.5 46
      vertex 15 16.5 46
    endloop
  endfacet
  facet normal 0 1 -0
    outer loop
      vertex 38.2246 16.5 46
      vertex 31.7754 16.5 50
      vertex 38.2246 16.5 50
    endloop
  endfacet
  facet normal 0 1 0
    outer loop
      vertex 31.7754 16.5 50
      vertex 38.2246 16.5 46
      vertex 31.7754 16.5 46
    endloop
  endfacet
  facet normal 0.73994 -0.672673 0
    outer loop
      vertex 15 -11 61.5
      vertex 25 0 50
      vertex 25 0 61.5
    endloop
  endfacet
  facet normal 0.73994 -0.672673 0
    outer loop
      vertex 25 0 50
      vertex 15 -11 61.5
      vertex 15 -11 50
    endloop
  endfacet
  facet normal -0.73994 -0.672673 0
    outer loop
      vertex -15 -11 50
      vertex -25 0 61.5
      vertex -25 0 50
    endloop
  endfacet
  facet normal -0.73994 -0.672673 0
    outer loop
      vertex -25 0 61.5
      vertex -15 -11 50
      vertex -15 -11 61.5
    endloop
  endfacet
  facet normal -0.73994 0.672673 0
    outer loop
      vertex -25 0 50
      vertex -15 11 61.5
      vertex -15 11 50
    endloop
  endfacet
  facet normal -0.73994 0.672673 0
    outer loop
      vertex -15 11 61.5
      vertex -25 0 50
      vertex -25 0 61.5
    endloop
  endfacet
  facet normal 0.73994 0.672673 0
    outer loop
      vertex 25 0 61.5
      vertex 15 11 50
      vertex 15 11 61.5
    endloop
  endfacet
  facet normal 0.73994 0.672673 0
    outer loop
      vertex 15 11 50
      vertex 25 0 61.5
      vertex 25 0 50
    endloop
  endfacet
  facet normal 1 0 0
    outer loop
      vertex -15 8.86485 61.7
      vertex -15 -8.86485 61.7
      vertex -15 8.86485 61.5
    endloop
  endfacet
  facet normal 1 0 0
    outer loop
      vertex -15 11 61.5
      vertex -15 8.86485 61.5
      vertex -15 11 50
    endloop
  endfacet
  facet normal 1 -0 0
    outer loop
      vertex -15 11 50
      vertex -15 16.5 46
      vertex -15 16.5 50
    endloop
  endfacet
  facet normal 1 0 0
    outer loop
      vertex -15 -8.86485 61.5
      vertex -15 8.86485 61.5
      vertex -15 -8.86485 61.7
    endloop
  endfacet
  facet normal 1 0 0
    outer loop
      vertex -15 8.86485 61.5
      vertex -15 -8.86485 61.5
      vertex -15 11 50
    endloop
  endfacet
  facet normal 1 0 0
    outer loop
      vertex -15 -11 50
      vertex -15 11 50
      vertex -15 -8.86485 61.5
    endloop
  endfacet
  facet normal 1 0 0
    outer loop
      vertex -15 -11 50
      vertex -15 -8.86485 61.5
      vertex -15 -11 61.5
    endloop
  endfacet
  facet normal 1 0 0
    outer loop
      vertex -15 11 50
      vertex -15 -11 50
      vertex -15 16.5 46
    endloop
  endfacet
  facet normal 1 0 0
    outer loop
      vertex -15 -16.5 46
      vertex -15 -11 50
      vertex -15 -16.5 50
    endloop
  endfacet
  facet normal 1 0 0
    outer loop
      vertex -15 -11 50
      vertex -15 -16.5 46
      vertex -15 16.5 46
    endloop
  endfacet
  facet normal 0 0 -1
    outer loop
      vertex 15 -8.86485 61.7
      vertex 9.86485 14 61.7
      vertex 15 8.86485 61.7
    endloop
  endfacet
  facet normal 0 0 -1
    outer loop
      vertex -15 -8.86485 61.7
      vertex 15 -8.86485 61.7
      vertex 3.86485 -20 61.7
    endloop
  endfacet
  facet normal 0 0 -1
    outer loop
      vertex -15 -8.86485 61.7
      vertex 3.86485 -20 61.7
      vertex -3.86485 -20 61.7
    endloop
  endfacet
  facet normal 0 0 -1
    outer loop
      vertex 15 -8.86485 61.7
      vertex -15 -8.86485 61.7
      vertex 9.86485 14 61.7
    endloop
  endfacet
  facet normal -0 0 -1
    outer loop
      vertex 9.86485 14 61.7
      vertex -15 -8.86485 61.7
      vertex -9.86485 14 61.7
    endloop
  endfacet
  facet normal 0 0 -1
    outer loop
      vertex -9.86485 14 61.7
      vertex -15 -8.86485 61.7
      vertex -15 8.86485 61.7
    endloop
  endfacet
  facet normal -1 0 0
    outer loop
      vertex 15 16.5 46
      vertex 15 11 50
      vertex 15 16.5 50
    endloop
  endfacet
  facet normal -1 0 0
    outer loop
      vertex 15 11 50
      vertex 15 8.86485 61.5
      vertex 15 11 61.5
    endloop
  endfacet
  facet normal -1 0 0
    outer loop
      vertex 15 8.86485 61.5
      vertex 15 -8.86485 61.5
      vertex 15 8.86485 61.7
    endloop
  endfacet
  facet normal -1 0 0
    outer loop
      vertex 15 11 50
      vertex 15 -8.86485 61.5
      vertex 15 8.86485 61.5
    endloop
  endfacet
  facet normal -1 0 0
    outer loop
      vertex 15 -11 50
      vertex 15 11 50
      vertex 15 16.5 46
    endloop
  endfacet
  facet normal -1 0 0
    outer loop
      vertex 15 11 50
      vertex 15 -11 50
      vertex 15 -8.86485 61.5
    endloop
  endfacet
  facet normal -1 0 0
    outer loop
      vertex 15 -16.5 46
      vertex 15 -11 50
      vertex 15 16.5 46
    endloop
  endfacet
  facet normal -1 -0 0
    outer loop
      vertex 15 -11 50
      vertex 15 -16.5 46
      vertex 15 -16.5 50
    endloop
  endfacet
  facet normal -1 -0 0
    outer loop
      vertex 15 8.86485 61.7
      vertex 15 -8.86485 61.5
      vertex 15 -8.86485 61.7
    endloop
  endfacet
  facet normal -1 -0 0
    outer loop
      vertex 15 -8.86485 61.5
      vertex 15 -11 50
      vertex 15 -11 61.5
    endloop
  endfacet
  facet normal 0 1 -0
    outer loop
      vertex 3.86485 -20 61.5
      vertex -3.86485 -20 61.7
      vertex 3.86485 -20 61.7
    endloop
  endfacet
  facet normal 0 1 0
    outer loop
      vertex -3.86485 -20 61.7
      vertex 3.86485 -20 61.5
      vertex -3.86485 -20 61.5
    endloop
  endfacet
endsolid OpenSCAD_Model
