solid OpenSCAD_Model
  facet normal 0.866025 0.500001 0
    outer loop
      vertex 44 22 37
      vertex 39.5 29.7942 17.5
      vertex 39.5 29.7942 37
    endloop
  endfacet
  facet normal 0.866025 0.500001 0
    outer loop
      vertex 39.5 29.7942 17.5
      vertex 44 22 37
      vertex 44 22 17.5
    endloop
  endfacet
  facet normal -0.866019 0.500011 0
    outer loop
      vertex 29 27.1962 20
      vertex 30.5 29.7942 17.5
      vertex 29 27.1962 17.5
    endloop
  endfacet
  facet normal -0.866019 0.500011 0
    outer loop
      vertex 30.5 29.7942 17.5
      vertex 29 27.1962 20
      vertex 30.5 29.7942 37
    endloop
  endfacet
  facet normal -0.866027 0.499997 0
    outer loop
      vertex 26 22 37
      vertex 29 27.1962 20
      vertex 26 22 20
    endloop
  endfacet
  facet normal -0.866025 0.500001 1.96079e-06
    outer loop
      vertex 29 27.1962 20
      vertex 26 22 37
      vertex 30.5 29.7942 37
    endloop
  endfacet
  facet normal 0 1 -0
    outer loop
      vertex 39.5 29.7942 17.5
      vertex 30.5 29.7942 37
      vertex 39.5 29.7942 37
    endloop
  endfacet
  facet normal 0 1 0
    outer loop
      vertex 30.5 29.7942 37
      vertex 39.5 29.7942 17.5
      vertex 30.5 29.7942 17.5
    endloop
  endfacet
  facet normal -0.866019 -0.500011 0
    outer loop
      vertex 29 16.8038 17.5
      vertex 30.5 14.2058 17.5
      vertex 29 16.8038 20
    endloop
  endfacet
  facet normal -0.866027 -0.499997 0
    outer loop
      vertex 29 16.8038 20
      vertex 26 22 37
      vertex 26 22 20
    endloop
  endfacet
  facet normal -0.866019 -0.500011 -0
    outer loop
      vertex 30.5 14.2058 37
      vertex 29 16.8038 20
      vertex 30.5 14.2058 17.5
    endloop
  endfacet
  facet normal -0.866025 -0.500001 1.96079e-06
    outer loop
      vertex 29 16.8038 20
      vertex 30.5 14.2058 37
      vertex 26 22 37
    endloop
  endfacet
  facet normal 0 0 1
    outer loop
      vertex 39.5 29.7942 37
      vertex 41.4 22 37
      vertex 44 22 37
    endloop
  endfacet
  facet normal 0 0 1
    outer loop
      vertex 39.5 29.7942 37
      vertex 38.2 27.5426 37
      vertex 41.4 22 37
    endloop
  endfacet
  facet normal 0 0 1
    outer loop
      vertex 39.5 29.7942 37
      vertex 31.8 27.5426 37
      vertex 38.2 27.5426 37
    endloop
  endfacet
  facet normal -0 0 1
    outer loop
      vertex 30.5 29.7942 37
      vertex 31.8 27.5426 37
      vertex 39.5 29.7942 37
    endloop
  endfacet
  facet normal 0 0 1
    outer loop
      vertex 30.5 29.7942 37
      vertex 28.6 22 37
      vertex 31.8 27.5426 37
    endloop
  endfacet
  facet normal 0 -0 1
    outer loop
      vertex 28.6 22 37
      vertex 30.5 29.7942 37
      vertex 26 22 37
    endloop
  endfacet
  facet normal -0 0 1
    outer loop
      vertex 41.4 22 37
      vertex 39.5 14.2058 37
      vertex 44 22 37
    endloop
  endfacet
  facet normal -0 0 1
    outer loop
      vertex 38.2 16.4574 37
      vertex 39.5 14.2058 37
      vertex 41.4 22 37
    endloop
  endfacet
  facet normal -0 0 1
    outer loop
      vertex 31.8 16.4574 37
      vertex 39.5 14.2058 37
      vertex 38.2 16.4574 37
    endloop
  endfacet
  facet normal 0 0 1
    outer loop
      vertex 31.8 16.4574 37
      vertex 30.5 14.2058 37
      vertex 39.5 14.2058 37
    endloop
  endfacet
  facet normal 0 0 1
    outer loop
      vertex 28.6 22 37
      vertex 30.5 14.2058 37
      vertex 31.8 16.4574 37
    endloop
  endfacet
  facet normal 0 0 1
    outer loop
      vertex 30.5 14.2058 37
      vertex 28.6 22 37
      vertex 26 22 37
    endloop
  endfacet
  facet normal 0 0 -1
    outer loop
      vertex -31.8 27.5426 17.5
      vertex -29 27.1962 17.5
      vertex -29 22.6928 17.5
    endloop
  endfacet
  facet normal 0 0 -1
    outer loop
      vertex -29 27.1962 17.5
      vertex -31.8 27.5426 17.5
      vertex -30.5 29.7942 17.5
    endloop
  endfacet
  facet normal 0 0 -1
    outer loop
      vertex -38.2 27.5426 17.5
      vertex -30.5 29.7942 17.5
      vertex -31.8 27.5426 17.5
    endloop
  endfacet
  facet normal 0 0 -1
    outer loop
      vertex -38.2 27.5426 17.5
      vertex -39.5 29.7942 17.5
      vertex -30.5 29.7942 17.5
    endloop
  endfacet
  facet normal 0 0 -1
    outer loop
      vertex -41.4 22 17.5
      vertex -39.5 29.7942 17.5
      vertex -38.2 27.5426 17.5
    endloop
  endfacet
  facet normal 0 0 -1
    outer loop
      vertex -39.5 29.7942 17.5
      vertex -41.4 22 17.5
      vertex -44 22 17.5
    endloop
  endfacet
  facet normal 0 0 -1
    outer loop
      vertex -31.8 16.4574 17.5
      vertex -29 16.8038 17.5
      vertex -30.5 14.2058 17.5
    endloop
  endfacet
  facet normal -0 0 -1
    outer loop
      vertex -29 16.8038 17.5
      vertex -31.8 16.4574 17.5
      vertex -29 21.3072 17.5
    endloop
  endfacet
  facet normal 0 0 -1
    outer loop
      vertex -30.5 14.2058 17.5
      vertex -38.2 16.4574 17.5
      vertex -31.8 16.4574 17.5
    endloop
  endfacet
  facet normal 0 0 -1
    outer loop
      vertex -39.5 14.2058 17.5
      vertex -38.2 16.4574 17.5
      vertex -30.5 14.2058 17.5
    endloop
  endfacet
  facet normal 0 0 -1
    outer loop
      vertex -39.5 14.2058 17.5
      vertex -41.4 22 17.5
      vertex -38.2 16.4574 17.5
    endloop
  endfacet
  facet normal -0 -0 -1
    outer loop
      vertex -41.4 22 17.5
      vertex -39.5 14.2058 17.5
      vertex -44 22 17.5
    endloop
  endfacet
  facet normal 0 0 -1
    outer loop
      vertex -31.8 -16.4574 17.5
      vertex -29 -16.8038 17.5
      vertex -29 -21.3072 17.5
    endloop
  endfacet
  facet normal 0 0 -1
    outer loop
      vertex -29 -16.8038 17.5
      vertex -31.8 -16.4574 17.5
      vertex -30.5 -14.2058 17.5
    endloop
  endfacet
  facet normal 0 0 -1
    outer loop
      vertex -38.2 -16.4574 17.5
      vertex -30.5 -14.2058 17.5
      vertex -31.8 -16.4574 17.5
    endloop
  endfacet
  facet normal 0 0 -1
    outer loop
      vertex -38.2 -16.4574 17.5
      vertex -39.5 -14.2058 17.5
      vertex -30.5 -14.2058 17.5
    endloop
  endfacet
  facet normal 0 0 -1
    outer loop
      vertex -41.4 -22 17.5
      vertex -39.5 -14.2058 17.5
      vertex -38.2 -16.4574 17.5
    endloop
  endfacet
  facet normal 0 0 -1
    outer loop
      vertex -39.5 -14.2058 17.5
      vertex -41.4 -22 17.5
      vertex -44 -22 17.5
    endloop
  endfacet
  facet normal 0 0 -1
    outer loop
      vertex -31.8 -27.5426 17.5
      vertex -29 -27.1962 17.5
      vertex -30.5 -29.7942 17.5
    endloop
  endfacet
  facet normal -0 0 -1
    outer loop
      vertex -29 -27.1962 17.5
      vertex -31.8 -27.5426 17.5
      vertex -29 -22.6928 17.5
    endloop
  endfacet
  facet normal 0 0 -1
    outer loop
      vertex -30.5 -29.7942 17.5
      vertex -38.2 -27.5426 17.5
      vertex -31.8 -27.5426 17.5
    endloop
  endfacet
  facet normal 0 0 -1
    outer loop
      vertex -39.5 -29.7942 17.5
      vertex -38.2 -27.5426 17.5
      vertex -30.5 -29.7942 17.5
    endloop
  endfacet
  facet normal 0 0 -1
    outer loop
      vertex -39.5 -29.7942 17.5
      vertex -41.4 -22 17.5
      vertex -38.2 -27.5426 17.5
    endloop
  endfacet
  facet normal -0 -0 -1
    outer loop
      vertex -41.4 -22 17.5
      vertex -39.5 -29.7942 17.5
      vertex -44 -22 17.5
    endloop
  endfacet
  facet normal 0 0 -1
    outer loop
      vertex 20 -42 17.5
      vertex 29 -27.1962 17.5
      vertex 29 -36 17.5
    endloop
  endfacet
  facet normal -0 0 -1
    outer loop
      vertex 29 -27.1962 17.5
      vertex 20 -42 17.5
      vertex 29 -22.6928 17.5
    endloop
  endfacet
  facet normal -0 0 -1
    outer loop
      vertex 29 -22.6928 17.5
      vertex 20 -42 17.5
      vertex 29 -21.3072 17.5
    endloop
  endfacet
  facet normal 0 0 -1
    outer loop
      vertex -29 -21.3072 17.5
      vertex 29 -21.3072 17.5
      vertex 20 -42 17.5
    endloop
  endfacet
  facet normal 0 0 -1
    outer loop
      vertex 29 -16.8038 17.5
      vertex -29 -16.8038 17.5
      vertex 29 16.8038 17.5
    endloop
  endfacet
  facet normal 0 0 -1
    outer loop
      vertex -29 16.8038 17.5
      vertex 29 16.8038 17.5
      vertex -29 -16.8038 17.5
    endloop
  endfacet
  facet normal 0 0 -1
    outer loop
      vertex 29 16.8038 17.5
      vertex -29 16.8038 17.5
      vertex 29 21.3072 17.5
    endloop
  endfacet
  facet normal 0 0 -1
    outer loop
      vertex -29 21.3072 17.5
      vertex 29 21.3072 17.5
      vertex -29 16.8038 17.5
    endloop
  endfacet
  facet normal 0 0 -1
    outer loop
      vertex 29 -21.3072 17.5
      vertex -29 -21.3072 17.5
      vertex 29 -16.8038 17.5
    endloop
  endfacet
  facet normal 0 -0 -1
    outer loop
      vertex 20 42 17.5
      vertex 29 21.3072 17.5
      vertex -29 21.3072 17.5
    endloop
  endfacet
  facet normal 0 0 -1
    outer loop
      vertex -29 -21.3072 17.5
      vertex 20 -42 17.5
      vertex -20 -42 17.5
    endloop
  endfacet
  facet normal 0 0 -1
    outer loop
      vertex 29 21.3072 17.5
      vertex 20 42 17.5
      vertex 29 22.6928 17.5
    endloop
  endfacet
  facet normal 0 0 -1
    outer loop
      vertex -29 -27.1962 17.5
      vertex -20 -42 17.5
      vertex -29 -36 17.5
    endloop
  endfacet
  facet normal 0 0 -1
    outer loop
      vertex -29 -22.6928 17.5
      vertex -20 -42 17.5
      vertex -29 -27.1962 17.5
    endloop
  endfacet
  facet normal 0 0 -1
    outer loop
      vertex -29 -21.3072 17.5
      vertex -20 -42 17.5
      vertex -29 -22.6928 17.5
    endloop
  endfacet
  facet normal -0 0 -1
    outer loop
      vertex 29 -16.8038 17.5
      vertex -29 -21.3072 17.5
      vertex -29 -16.8038 17.5
    endloop
  endfacet
  facet normal 0 0 -1
    outer loop
      vertex 29 27.1962 17.5
      vertex 20 42 17.5
      vertex 29 36 17.5
    endloop
  endfacet
  facet normal 0 0 -1
    outer loop
      vertex 29 22.6928 17.5
      vertex 20 42 17.5
      vertex 29 27.1962 17.5
    endloop
  endfacet
  facet normal -0 0 -1
    outer loop
      vertex 20 42 17.5
      vertex -29 21.3072 17.5
      vertex -20 42 17.5
    endloop
  endfacet
  facet normal 0 0 -1
    outer loop
      vertex -29 22.6928 17.5
      vertex -20 42 17.5
      vertex -29 21.3072 17.5
    endloop
  endfacet
  facet normal 0 0 -1
    outer loop
      vertex -29 27.1962 17.5
      vertex -20 42 17.5
      vertex -29 22.6928 17.5
    endloop
  endfacet
  facet normal 0 0 -1
    outer loop
      vertex -20 42 17.5
      vertex -29 27.1962 17.5
      vertex -29 36 17.5
    endloop
  endfacet
  facet normal 0 0 -1
    outer loop
      vertex 39.5 -29.7942 17.5
      vertex 41.4 -22 17.5
      vertex 44 -22 17.5
    endloop
  endfacet
  facet normal 0 0 -1
    outer loop
      vertex 39.5 -29.7942 17.5
      vertex 38.2 -27.5426 17.5
      vertex 41.4 -22 17.5
    endloop
  endfacet
  facet normal 0 0 -1
    outer loop
      vertex 39.5 -29.7942 17.5
      vertex 31.8 -27.5426 17.5
      vertex 38.2 -27.5426 17.5
    endloop
  endfacet
  facet normal 0 0 -1
    outer loop
      vertex 30.5 -29.7942 17.5
      vertex 31.8 -27.5426 17.5
      vertex 39.5 -29.7942 17.5
    endloop
  endfacet
  facet normal 0 0 -1
    outer loop
      vertex 29 -27.1962 17.5
      vertex 31.8 -27.5426 17.5
      vertex 30.5 -29.7942 17.5
    endloop
  endfacet
  facet normal 0 0 -1
    outer loop
      vertex 31.8 -27.5426 17.5
      vertex 29 -27.1962 17.5
      vertex 29 -22.6928 17.5
    endloop
  endfacet
  facet normal 0 0 -1
    outer loop
      vertex 41.4 -22 17.5
      vertex 39.5 -14.2058 17.5
      vertex 44 -22 17.5
    endloop
  endfacet
  facet normal 0 0 -1
    outer loop
      vertex 38.2 -16.4574 17.5
      vertex 39.5 -14.2058 17.5
      vertex 41.4 -22 17.5
    endloop
  endfacet
  facet normal 0 0 -1
    outer loop
      vertex 31.8 -16.4574 17.5
      vertex 39.5 -14.2058 17.5
      vertex 38.2 -16.4574 17.5
    endloop
  endfacet
  facet normal 0 0 -1
    outer loop
      vertex 31.8 -16.4574 17.5
      vertex 30.5 -14.2058 17.5
      vertex 39.5 -14.2058 17.5
    endloop
  endfacet
  facet normal 0 0 -1
    outer loop
      vertex 29 -16.8038 17.5
      vertex 31.8 -16.4574 17.5
      vertex 29 -21.3072 17.5
    endloop
  endfacet
  facet normal -0 0 -1
    outer loop
      vertex 31.8 -16.4574 17.5
      vertex 29 -16.8038 17.5
      vertex 30.5 -14.2058 17.5
    endloop
  endfacet
  facet normal 0 0 -1
    outer loop
      vertex 39.5 14.2058 17.5
      vertex 41.4 22 17.5
      vertex 44 22 17.5
    endloop
  endfacet
  facet normal 0 0 -1
    outer loop
      vertex 39.5 14.2058 17.5
      vertex 38.2 16.4574 17.5
      vertex 41.4 22 17.5
    endloop
  endfacet
  facet normal 0 0 -1
    outer loop
      vertex 39.5 14.2058 17.5
      vertex 31.8 16.4574 17.5
      vertex 38.2 16.4574 17.5
    endloop
  endfacet
  facet normal 0 0 -1
    outer loop
      vertex 30.5 14.2058 17.5
      vertex 31.8 16.4574 17.5
      vertex 39.5 14.2058 17.5
    endloop
  endfacet
  facet normal 0 0 -1
    outer loop
      vertex 29 16.8038 17.5
      vertex 31.8 16.4574 17.5
      vertex 30.5 14.2058 17.5
    endloop
  endfacet
  facet normal 0 0 -1
    outer loop
      vertex 31.8 16.4574 17.5
      vertex 29 16.8038 17.5
      vertex 29 21.3072 17.5
    endloop
  endfacet
  facet normal 0 0 -1
    outer loop
      vertex 41.4 22 17.5
      vertex 39.5 29.7942 17.5
      vertex 44 22 17.5
    endloop
  endfacet
  facet normal 0 0 -1
    outer loop
      vertex 38.2 27.5426 17.5
      vertex 39.5 29.7942 17.5
      vertex 41.4 22 17.5
    endloop
  endfacet
  facet normal 0 0 -1
    outer loop
      vertex 31.8 27.5426 17.5
      vertex 39.5 29.7942 17.5
      vertex 38.2 27.5426 17.5
    endloop
  endfacet
  facet normal 0 0 -1
    outer loop
      vertex 31.8 27.5426 17.5
      vertex 30.5 29.7942 17.5
      vertex 39.5 29.7942 17.5
    endloop
  endfacet
  facet normal 0 0 -1
    outer loop
      vertex 29 27.1962 17.5
      vertex 31.8 27.5426 17.5
      vertex 29 22.6928 17.5
    endloop
  endfacet
  facet normal -0 0 -1
    outer loop
      vertex 31.8 27.5426 17.5
      vertex 29 27.1962 17.5
      vertex 30.5 29.7942 17.5
    endloop
  endfacet
  facet normal 0 -1 0
    outer loop
      vertex 30.5 14.2058 17.5
      vertex 39.5 14.2058 37
      vertex 30.5 14.2058 37
    endloop
  endfacet
  facet normal 0 -1 -0
    outer loop
      vertex 39.5 14.2058 37
      vertex 30.5 14.2058 17.5
      vertex 39.5 14.2058 17.5
    endloop
  endfacet
  facet normal 0.866025 -0.500001 0
    outer loop
      vertex 39.5 14.2058 37
      vertex 44 22 17.5
      vertex 44 22 37
    endloop
  endfacet
  facet normal 0.866025 -0.500001 0
    outer loop
      vertex 44 22 17.5
      vertex 39.5 14.2058 37
      vertex 39.5 14.2058 17.5
    endloop
  endfacet
  facet normal -0.866027 -0.499997 0
    outer loop
      vertex 41.4 22 17.5
      vertex 38.2 27.5426 37
      vertex 38.2 27.5426 17.5
    endloop
  endfacet
  facet normal -0.866027 -0.499997 0
    outer loop
      vertex 38.2 27.5426 37
      vertex 41.4 22 17.5
      vertex 41.4 22 37
    endloop
  endfacet
  facet normal 0.866028 -0.499996 0
    outer loop
      vertex 31.8 27.5426 37
      vertex 29 22.6928 20
      vertex 31.8 27.5426 17.5
    endloop
  endfacet
  facet normal 0.866027 -0.499997 7.3529e-07
    outer loop
      vertex 28.6 22 37
      vertex 29 22.6928 20
      vertex 31.8 27.5426 37
    endloop
  endfacet
  facet normal 0.866019 -0.500011 0
    outer loop
      vertex 29 22.6928 20
      vertex 28.6 22 37
      vertex 28.6 22 20
    endloop
  endfacet
  facet normal 0.866028 -0.499996 0
    outer loop
      vertex 31.8 27.5426 17.5
      vertex 29 22.6928 20
      vertex 29 22.6928 17.5
    endloop
  endfacet
  facet normal 0 -1 0
    outer loop
      vertex 31.8 27.5426 17.5
      vertex 38.2 27.5426 37
      vertex 31.8 27.5426 37
    endloop
  endfacet
  facet normal 0 -1 -0
    outer loop
      vertex 38.2 27.5426 37
      vertex 31.8 27.5426 17.5
      vertex 38.2 27.5426 17.5
    endloop
  endfacet
  facet normal 0.866019 0.500011 0
    outer loop
      vertex 28.6 22 37
      vertex 29 21.3072 20
      vertex 28.6 22 20
    endloop
  endfacet
  facet normal 0.866027 0.499997 7.3529e-07
    outer loop
      vertex 31.8 16.4574 37
      vertex 29 21.3072 20
      vertex 28.6 22 37
    endloop
  endfacet
  facet normal 0.866028 0.499996 -0
    outer loop
      vertex 31.8 16.4574 17.5
      vertex 29 21.3072 20
      vertex 31.8 16.4574 37
    endloop
  endfacet
  facet normal 0.866028 0.499996 0
    outer loop
      vertex 29 21.3072 20
      vertex 31.8 16.4574 17.5
      vertex 29 21.3072 17.5
    endloop
  endfacet
  facet normal 0 1 -0
    outer loop
      vertex 38.2 16.4574 17.5
      vertex 31.8 16.4574 37
      vertex 38.2 16.4574 37
    endloop
  endfacet
  facet normal 0 1 0
    outer loop
      vertex 31.8 16.4574 37
      vertex 38.2 16.4574 17.5
      vertex 31.8 16.4574 17.5
    endloop
  endfacet
  facet normal -0.866027 0.499997 0
    outer loop
      vertex 38.2 16.4574 17.5
      vertex 41.4 22 37
      vertex 41.4 22 17.5
    endloop
  endfacet
  facet normal -0.866027 0.499997 0
    outer loop
      vertex 41.4 22 37
      vertex 38.2 16.4574 17.5
      vertex 38.2 16.4574 37
    endloop
  endfacet
  facet normal 0.866019 0.500011 0
    outer loop
      vertex -30.5 29.7942 37
      vertex -29 27.1962 20
      vertex -30.5 29.7942 17.5
    endloop
  endfacet
  facet normal 0.866025 0.500001 1.96079e-06
    outer loop
      vertex -26 22 37
      vertex -29 27.1962 20
      vertex -30.5 29.7942 37
    endloop
  endfacet
  facet normal 0.866027 0.499997 0
    outer loop
      vertex -29 27.1962 20
      vertex -26 22 37
      vertex -26 22 20
    endloop
  endfacet
  facet normal 0.866019 0.500011 0
    outer loop
      vertex -30.5 29.7942 17.5
      vertex -29 27.1962 20
      vertex -29 27.1962 17.5
    endloop
  endfacet
  facet normal -0.866025 0.500001 0
    outer loop
      vertex -44 22 17.5
      vertex -39.5 29.7942 37
      vertex -39.5 29.7942 17.5
    endloop
  endfacet
  facet normal -0.866025 0.500001 0
    outer loop
      vertex -39.5 29.7942 37
      vertex -44 22 17.5
      vertex -44 22 37
    endloop
  endfacet
  facet normal 0 1 -0
    outer loop
      vertex -30.5 29.7942 17.5
      vertex -39.5 29.7942 37
      vertex -30.5 29.7942 37
    endloop
  endfacet
  facet normal 0 1 0
    outer loop
      vertex -39.5 29.7942 37
      vertex -30.5 29.7942 17.5
      vertex -39.5 29.7942 17.5
    endloop
  endfacet
  facet normal -0.866025 -0.500001 0
    outer loop
      vertex -39.5 14.2058 17.5
      vertex -44 22 37
      vertex -44 22 17.5
    endloop
  endfacet
  facet normal -0.866025 -0.500001 0
    outer loop
      vertex -44 22 37
      vertex -39.5 14.2058 17.5
      vertex -39.5 14.2058 37
    endloop
  endfacet
  facet normal 0 0 1
    outer loop
      vertex -30.5 29.7942 37
      vertex -28.6 22 37
      vertex -26 22 37
    endloop
  endfacet
  facet normal 0 0 1
    outer loop
      vertex -30.5 29.7942 37
      vertex -31.8 27.5426 37
      vertex -28.6 22 37
    endloop
  endfacet
  facet normal 0 0 1
    outer loop
      vertex -30.5 29.7942 37
      vertex -38.2 27.5426 37
      vertex -31.8 27.5426 37
    endloop
  endfacet
  facet normal -0 0 1
    outer loop
      vertex -39.5 29.7942 37
      vertex -38.2 27.5426 37
      vertex -30.5 29.7942 37
    endloop
  endfacet
  facet normal 0 0 1
    outer loop
      vertex -39.5 29.7942 37
      vertex -41.4 22 37
      vertex -38.2 27.5426 37
    endloop
  endfacet
  facet normal 0 -0 1
    outer loop
      vertex -41.4 22 37
      vertex -39.5 29.7942 37
      vertex -44 22 37
    endloop
  endfacet
  facet normal -0 0 1
    outer loop
      vertex -28.6 22 37
      vertex -30.5 14.2058 37
      vertex -26 22 37
    endloop
  endfacet
  facet normal -0 0 1
    outer loop
      vertex -31.8 16.4574 37
      vertex -30.5 14.2058 37
      vertex -28.6 22 37
    endloop
  endfacet
  facet normal -0 0 1
    outer loop
      vertex -38.2 16.4574 37
      vertex -30.5 14.2058 37
      vertex -31.8 16.4574 37
    endloop
  endfacet
  facet normal 0 0 1
    outer loop
      vertex -38.2 16.4574 37
      vertex -39.5 14.2058 37
      vertex -30.5 14.2058 37
    endloop
  endfacet
  facet normal 0 0 1
    outer loop
      vertex -41.4 22 37
      vertex -39.5 14.2058 37
      vertex -38.2 16.4574 37
    endloop
  endfacet
  facet normal 0 0 1
    outer loop
      vertex -39.5 14.2058 37
      vertex -41.4 22 37
      vertex -44 22 37
    endloop
  endfacet
  facet normal 0 -1 0
    outer loop
      vertex -39.5 14.2058 17.5
      vertex -30.5 14.2058 37
      vertex -39.5 14.2058 37
    endloop
  endfacet
  facet normal 0 -1 -0
    outer loop
      vertex -30.5 14.2058 37
      vertex -39.5 14.2058 17.5
      vertex -30.5 14.2058 17.5
    endloop
  endfacet
  facet normal 0.866027 -0.499997 0
    outer loop
      vertex -26 22 37
      vertex -29 16.8038 20
      vertex -26 22 20
    endloop
  endfacet
  facet normal 0.866025 -0.500001 1.96079e-06
    outer loop
      vertex -30.5 14.2058 37
      vertex -29 16.8038 20
      vertex -26 22 37
    endloop
  endfacet
  facet normal 0.866019 -0.500011 0
    outer loop
      vertex -30.5 14.2058 17.5
      vertex -29 16.8038 20
      vertex -30.5 14.2058 37
    endloop
  endfacet
  facet normal 0.866019 -0.500011 0
    outer loop
      vertex -29 16.8038 20
      vertex -30.5 14.2058 17.5
      vertex -29 16.8038 17.5
    endloop
  endfacet
  facet normal -0.866028 -0.499996 -0
    outer loop
      vertex -29 22.6928 20
      vertex -31.8 27.5426 17.5
      vertex -29 22.6928 17.5
    endloop
  endfacet
  facet normal -0.866028 -0.499996 0
    outer loop
      vertex -31.8 27.5426 17.5
      vertex -29 22.6928 20
      vertex -31.8 27.5426 37
    endloop
  endfacet
  facet normal -0.866019 -0.500011 -0
    outer loop
      vertex -28.6 22 37
      vertex -29 22.6928 20
      vertex -28.6 22 20
    endloop
  endfacet
  facet normal -0.866027 -0.499997 7.3529e-07
    outer loop
      vertex -29 22.6928 20
      vertex -28.6 22 37
      vertex -31.8 27.5426 37
    endloop
  endfacet
  facet normal 0.866027 -0.499997 0
    outer loop
      vertex -41.4 22 37
      vertex -38.2 27.5426 17.5
      vertex -38.2 27.5426 37
    endloop
  endfacet
  facet normal 0.866027 -0.499997 0
    outer loop
      vertex -38.2 27.5426 17.5
      vertex -41.4 22 37
      vertex -41.4 22 17.5
    endloop
  endfacet
  facet normal 0 -1 0
    outer loop
      vertex -38.2 27.5426 17.5
      vertex -31.8 27.5426 37
      vertex -38.2 27.5426 37
    endloop
  endfacet
  facet normal 0 -1 -0
    outer loop
      vertex -31.8 27.5426 37
      vertex -38.2 27.5426 17.5
      vertex -31.8 27.5426 17.5
    endloop
  endfacet
  facet normal 0.866027 0.499997 0
    outer loop
      vertex -38.2 16.4574 37
      vertex -41.4 22 17.5
      vertex -41.4 22 37
    endloop
  endfacet
  facet normal 0.866027 0.499997 0
    outer loop
      vertex -41.4 22 17.5
      vertex -38.2 16.4574 37
      vertex -38.2 16.4574 17.5
    endloop
  endfacet
  facet normal 0 1 -0
    outer loop
      vertex -31.8 16.4574 17.5
      vertex -38.2 16.4574 37
      vertex -31.8 16.4574 37
    endloop
  endfacet
  facet normal 0 1 0
    outer loop
      vertex -38.2 16.4574 37
      vertex -31.8 16.4574 17.5
      vertex -38.2 16.4574 17.5
    endloop
  endfacet
  facet normal -0.866028 0.499996 0
    outer loop
      vertex -29 21.3072 17.5
      vertex -31.8 16.4574 17.5
      vertex -29 21.3072 20
    endloop
  endfacet
  facet normal -0.866019 0.500011 0
    outer loop
      vertex -29 21.3072 20
      vertex -28.6 22 37
      vertex -28.6 22 20
    endloop
  endfacet
  facet normal -0.866028 0.499996 0
    outer loop
      vertex -31.8 16.4574 37
      vertex -29 21.3072 20
      vertex -31.8 16.4574 17.5
    endloop
  endfacet
  facet normal -0.866027 0.499997 7.3529e-07
    outer loop
      vertex -29 21.3072 20
      vertex -31.8 16.4574 37
      vertex -28.6 22 37
    endloop
  endfacet
  facet normal 0.866025 0.500001 0
    outer loop
      vertex 44 -22 37
      vertex 39.5 -14.2058 17.5
      vertex 39.5 -14.2058 37
    endloop
  endfacet
  facet normal 0.866025 0.500001 0
    outer loop
      vertex 39.5 -14.2058 17.5
      vertex 44 -22 37
      vertex 44 -22 17.5
    endloop
  endfacet
  facet normal -0.866019 0.500011 0
    outer loop
      vertex 29 -16.8038 20
      vertex 30.5 -14.2058 17.5
      vertex 29 -16.8038 17.5
    endloop
  endfacet
  facet normal -0.866019 0.500011 0
    outer loop
      vertex 30.5 -14.2058 17.5
      vertex 29 -16.8038 20
      vertex 30.5 -14.2058 37
    endloop
  endfacet
  facet normal -0.866027 0.499997 0
    outer loop
      vertex 26 -22 37
      vertex 29 -16.8038 20
      vertex 26 -22 20
    endloop
  endfacet
  facet normal -0.866025 0.500001 1.96079e-06
    outer loop
      vertex 29 -16.8038 20
      vertex 26 -22 37
      vertex 30.5 -14.2058 37
    endloop
  endfacet
  facet normal 0 1 -0
    outer loop
      vertex 39.5 -14.2058 17.5
      vertex 30.5 -14.2058 37
      vertex 39.5 -14.2058 37
    endloop
  endfacet
  facet normal 0 1 0
    outer loop
      vertex 30.5 -14.2058 37
      vertex 39.5 -14.2058 17.5
      vertex 30.5 -14.2058 17.5
    endloop
  endfacet
  facet normal -0.866019 -0.500011 0
    outer loop
      vertex 29 -27.1962 17.5
      vertex 30.5 -29.7942 17.5
      vertex 29 -27.1962 20
    endloop
  endfacet
  facet normal -0.866027 -0.499997 0
    outer loop
      vertex 29 -27.1962 20
      vertex 26 -22 37
      vertex 26 -22 20
    endloop
  endfacet
  facet normal -0.866019 -0.500011 -0
    outer loop
      vertex 30.5 -29.7942 37
      vertex 29 -27.1962 20
      vertex 30.5 -29.7942 17.5
    endloop
  endfacet
  facet normal -0.866025 -0.500001 1.96079e-06
    outer loop
      vertex 29 -27.1962 20
      vertex 30.5 -29.7942 37
      vertex 26 -22 37
    endloop
  endfacet
  facet normal 0 0 1
    outer loop
      vertex 39.5 -14.2058 37
      vertex 41.4 -22 37
      vertex 44 -22 37
    endloop
  endfacet
  facet normal 0 0 1
    outer loop
      vertex 39.5 -14.2058 37
      vertex 38.2 -16.4574 37
      vertex 41.4 -22 37
    endloop
  endfacet
  facet normal 0 0 1
    outer loop
      vertex 39.5 -14.2058 37
      vertex 31.8 -16.4574 37
      vertex 38.2 -16.4574 37
    endloop
  endfacet
  facet normal -0 0 1
    outer loop
      vertex 30.5 -14.2058 37
      vertex 31.8 -16.4574 37
      vertex 39.5 -14.2058 37
    endloop
  endfacet
  facet normal 0 0 1
    outer loop
      vertex 30.5 -14.2058 37
      vertex 28.6 -22 37
      vertex 31.8 -16.4574 37
    endloop
  endfacet
  facet normal 0 -0 1
    outer loop
      vertex 28.6 -22 37
      vertex 30.5 -14.2058 37
      vertex 26 -22 37
    endloop
  endfacet
  facet normal -0 0 1
    outer loop
      vertex 41.4 -22 37
      vertex 39.5 -29.7942 37
      vertex 44 -22 37
    endloop
  endfacet
  facet normal -0 0 1
    outer loop
      vertex 38.2 -27.5426 37
      vertex 39.5 -29.7942 37
      vertex 41.4 -22 37
    endloop
  endfacet
  facet normal -0 0 1
    outer loop
      vertex 31.8 -27.5426 37
      vertex 39.5 -29.7942 37
      vertex 38.2 -27.5426 37
    endloop
  endfacet
  facet normal 0 0 1
    outer loop
      vertex 31.8 -27.5426 37
      vertex 30.5 -29.7942 37
      vertex 39.5 -29.7942 37
    endloop
  endfacet
  facet normal 0 0 1
    outer loop
      vertex 28.6 -22 37
      vertex 30.5 -29.7942 37
      vertex 31.8 -27.5426 37
    endloop
  endfacet
  facet normal 0 0 1
    outer loop
      vertex 30.5 -29.7942 37
      vertex 28.6 -22 37
      vertex 26 -22 37
    endloop
  endfacet
  facet normal 0 -1 0
    outer loop
      vertex 30.5 -29.7942 17.5
      vertex 39.5 -29.7942 37
      vertex 30.5 -29.7942 37
    endloop
  endfacet
  facet normal 0 -1 -0
    outer loop
      vertex 39.5 -29.7942 37
      vertex 30.5 -29.7942 17.5
      vertex 39.5 -29.7942 17.5
    endloop
  endfacet
  facet normal 0.866025 -0.500001 0
    outer loop
      vertex 39.5 -29.7942 37
      vertex 44 -22 17.5
      vertex 44 -22 37
    endloop
  endfacet
  facet normal 0.866025 -0.500001 0
    outer loop
      vertex 44 -22 17.5
      vertex 39.5 -29.7942 37
      vertex 39.5 -29.7942 17.5
    endloop
  endfacet
  facet normal -0.866027 -0.499997 0
    outer loop
      vertex 41.4 -22 17.5
      vertex 38.2 -16.4574 37
      vertex 38.2 -16.4574 17.5
    endloop
  endfacet
  facet normal -0.866027 -0.499997 0
    outer loop
      vertex 38.2 -16.4574 37
      vertex 41.4 -22 17.5
      vertex 41.4 -22 37
    endloop
  endfacet
  facet normal 0.866028 -0.499996 0
    outer loop
      vertex 31.8 -16.4574 37
      vertex 29 -21.3072 20
      vertex 31.8 -16.4574 17.5
    endloop
  endfacet
  facet normal 0.866027 -0.499997 7.3529e-07
    outer loop
      vertex 28.6 -22 37
      vertex 29 -21.3072 20
      vertex 31.8 -16.4574 37
    endloop
  endfacet
  facet normal 0.866019 -0.500011 0
    outer loop
      vertex 29 -21.3072 20
      vertex 28.6 -22 37
      vertex 28.6 -22 20
    endloop
  endfacet
  facet normal 0.866028 -0.499996 0
    outer loop
      vertex 31.8 -16.4574 17.5
      vertex 29 -21.3072 20
      vertex 29 -21.3072 17.5
    endloop
  endfacet
  facet normal 0 -1 0
    outer loop
      vertex 31.8 -16.4574 17.5
      vertex 38.2 -16.4574 37
      vertex 31.8 -16.4574 37
    endloop
  endfacet
  facet normal 0 -1 -0
    outer loop
      vertex 38.2 -16.4574 37
      vertex 31.8 -16.4574 17.5
      vertex 38.2 -16.4574 17.5
    endloop
  endfacet
  facet normal 0.866019 0.500011 0
    outer loop
      vertex 28.6 -22 37
      vertex 29 -22.6928 20
      vertex 28.6 -22 20
    endloop
  endfacet
  facet normal 0.866027 0.499997 7.3529e-07
    outer loop
      vertex 31.8 -27.5426 37
      vertex 29 -22.6928 20
      vertex 28.6 -22 37
    endloop
  endfacet
  facet normal 0.866028 0.499996 -0
    outer loop
      vertex 31.8 -27.5426 17.5
      vertex 29 -22.6928 20
      vertex 31.8 -27.5426 37
    endloop
  endfacet
  facet normal 0.866028 0.499996 0
    outer loop
      vertex 29 -22.6928 20
      vertex 31.8 -27.5426 17.5
      vertex 29 -22.6928 17.5
    endloop
  endfacet
  facet normal 0 1 -0
    outer loop
      vertex 38.2 -27.5426 17.5
      vertex 31.8 -27.5426 37
      vertex 38.2 -27.5426 37
    endloop
  endfacet
  facet normal 0 1 0
    outer loop
      vertex 31.8 -27.5426 37
      vertex 38.2 -27.5426 17.5
      vertex 31.8 -27.5426 17.5
    endloop
  endfacet
  facet normal -0.866027 0.499997 0
    outer loop
      vertex 38.2 -27.5426 17.5
      vertex 41.4 -22 37
      vertex 41.4 -22 17.5
    endloop
  endfacet
  facet normal -0.866027 0.499997 0
    outer loop
      vertex 41.4 -22 37
      vertex 38.2 -27.5426 17.5
      vertex 38.2 -27.5426 37
    endloop
  endfacet
  facet normal 0.866019 0.500011 0
    outer loop
      vertex -30.5 -14.2058 37
      vertex -29 -16.8038 20
      vertex -30.5 -14.2058 17.5
    endloop
  endfacet
  facet normal 0.866025 0.500001 1.96079e-06
    outer loop
      vertex -26 -22 37
      vertex -29 -16.8038 20
      vertex -30.5 -14.2058 37
    endloop
  endfacet
  facet normal 0.866027 0.499997 0
    outer loop
      vertex -29 -16.8038 20
      vertex -26 -22 37
      vertex -26 -22 20
    endloop
  endfacet
  facet normal 0.866019 0.500011 0
    outer loop
      vertex -30.5 -14.2058 17.5
      vertex -29 -16.8038 20
      vertex -29 -16.8038 17.5
    endloop
  endfacet
  facet normal -0.866025 0.500001 0
    outer loop
      vertex -44 -22 17.5
      vertex -39.5 -14.2058 37
      vertex -39.5 -14.2058 17.5
    endloop
  endfacet
  facet normal -0.866025 0.500001 0
    outer loop
      vertex -39.5 -14.2058 37
      vertex -44 -22 17.5
      vertex -44 -22 37
    endloop
  endfacet
  facet normal 0 1 -0
    outer loop
      vertex -30.5 -14.2058 17.5
      vertex -39.5 -14.2058 37
      vertex -30.5 -14.2058 37
    endloop
  endfacet
  facet normal 0 1 0
    outer loop
      vertex -39.5 -14.2058 37
      vertex -30.5 -14.2058 17.5
      vertex -39.5 -14.2058 17.5
    endloop
  endfacet
  facet normal -0.866025 -0.500001 0
    outer loop
      vertex -39.5 -29.7942 17.5
      vertex -44 -22 37
      vertex -44 -22 17.5
    endloop
  endfacet
  facet normal -0.866025 -0.500001 0
    outer loop
      vertex -44 -22 37
      vertex -39.5 -29.7942 17.5
      vertex -39.5 -29.7942 37
    endloop
  endfacet
  facet normal 0 0 1
    outer loop
      vertex -30.5 -14.2058 37
      vertex -28.6 -22 37
      vertex -26 -22 37
    endloop
  endfacet
  facet normal 0 0 1
    outer loop
      vertex -30.5 -14.2058 37
      vertex -31.8 -16.4574 37
      vertex -28.6 -22 37
    endloop
  endfacet
  facet normal 0 0 1
    outer loop
      vertex -30.5 -14.2058 37
      vertex -38.2 -16.4574 37
      vertex -31.8 -16.4574 37
    endloop
  endfacet
  facet normal -0 0 1
    outer loop
      vertex -39.5 -14.2058 37
      vertex -38.2 -16.4574 37
      vertex -30.5 -14.2058 37
    endloop
  endfacet
  facet normal 0 0 1
    outer loop
      vertex -39.5 -14.2058 37
      vertex -41.4 -22 37
      vertex -38.2 -16.4574 37
    endloop
  endfacet
  facet normal 0 -0 1
    outer loop
      vertex -41.4 -22 37
      vertex -39.5 -14.2058 37
      vertex -44 -22 37
    endloop
  endfacet
  facet normal -0 0 1
    outer loop
      vertex -28.6 -22 37
      vertex -30.5 -29.7942 37
      vertex -26 -22 37
    endloop
  endfacet
  facet normal -0 0 1
    outer loop
      vertex -31.8 -27.5426 37
      vertex -30.5 -29.7942 37
      vertex -28.6 -22 37
    endloop
  endfacet
  facet normal -0 0 1
    outer loop
      vertex -38.2 -27.5426 37
      vertex -30.5 -29.7942 37
      vertex -31.8 -27.5426 37
    endloop
  endfacet
  facet normal 0 0 1
    outer loop
      vertex -38.2 -27.5426 37
      vertex -39.5 -29.7942 37
      vertex -30.5 -29.7942 37
    endloop
  endfacet
  facet normal 0 0 1
    outer loop
      vertex -41.4 -22 37
      vertex -39.5 -29.7942 37
      vertex -38.2 -27.5426 37
    endloop
  endfacet
  facet normal 0 0 1
    outer loop
      vertex -39.5 -29.7942 37
      vertex -41.4 -22 37
      vertex -44 -22 37
    endloop
  endfacet
  facet normal 0 -1 0
    outer loop
      vertex -39.5 -29.7942 17.5
      vertex -30.5 -29.7942 37
      vertex -39.5 -29.7942 37
    endloop
  endfacet
  facet normal 0 -1 -0
    outer loop
      vertex -30.5 -29.7942 37
      vertex -39.5 -29.7942 17.5
      vertex -30.5 -29.7942 17.5
    endloop
  endfacet
  facet normal 0.866027 -0.499997 0
    outer loop
      vertex -26 -22 37
      vertex -29 -27.1962 20
      vertex -26 -22 20
    endloop
  endfacet
  facet normal 0.866025 -0.500001 1.96079e-06
    outer loop
      vertex -30.5 -29.7942 37
      vertex -29 -27.1962 20
      vertex -26 -22 37
    endloop
  endfacet
  facet normal 0.866019 -0.500011 0
    outer loop
      vertex -30.5 -29.7942 17.5
      vertex -29 -27.1962 20
      vertex -30.5 -29.7942 37
    endloop
  endfacet
  facet normal 0.866019 -0.500011 0
    outer loop
      vertex -29 -27.1962 20
      vertex -30.5 -29.7942 17.5
      vertex -29 -27.1962 17.5
    endloop
  endfacet
  facet normal -0.866028 -0.499996 -0
    outer loop
      vertex -29 -21.3072 20
      vertex -31.8 -16.4574 17.5
      vertex -29 -21.3072 17.5
    endloop
  endfacet
  facet normal -0.866028 -0.499996 0
    outer loop
      vertex -31.8 -16.4574 17.5
      vertex -29 -21.3072 20
      vertex -31.8 -16.4574 37
    endloop
  endfacet
  facet normal -0.866019 -0.500011 -0
    outer loop
      vertex -28.6 -22 37
      vertex -29 -21.3072 20
      vertex -28.6 -22 20
    endloop
  endfacet
  facet normal -0.866027 -0.499997 7.3529e-07
    outer loop
      vertex -29 -21.3072 20
      vertex -28.6 -22 37
      vertex -31.8 -16.4574 37
    endloop
  endfacet
  facet normal 0.866027 -0.499997 0
    outer loop
      vertex -41.4 -22 37
      vertex -38.2 -16.4574 17.5
      vertex -38.2 -16.4574 37
    endloop
  endfacet
  facet normal 0.866027 -0.499997 0
    outer loop
      vertex -38.2 -16.4574 17.5
      vertex -41.4 -22 37
      vertex -41.4 -22 17.5
    endloop
  endfacet
  facet normal 0 -1 0
    outer loop
      vertex -38.2 -16.4574 17.5
      vertex -31.8 -16.4574 37
      vertex -38.2 -16.4574 37
    endloop
  endfacet
  facet normal 0 -1 -0
    outer loop
      vertex -31.8 -16.4574 37
      vertex -38.2 -16.4574 17.5
      vertex -31.8 -16.4574 17.5
    endloop
  endfacet
  facet normal 0.866027 0.499997 0
    outer loop
      vertex -38.2 -27.5426 37
      vertex -41.4 -22 17.5
      vertex -41.4 -22 37
    endloop
  endfacet
  facet normal 0.866027 0.499997 0
    outer loop
      vertex -41.4 -22 17.5
      vertex -38.2 -27.5426 37
      vertex -38.2 -27.5426 17.5
    endloop
  endfacet
  facet normal 0 1 -0
    outer loop
      vertex -31.8 -27.5426 17.5
      vertex -38.2 -27.5426 37
      vertex -31.8 -27.5426 37
    endloop
  endfacet
  facet normal 0 1 0
    outer loop
      vertex -38.2 -27.5426 37
      vertex -31.8 -27.5426 17.5
      vertex -38.2 -27.5426 17.5
    endloop
  endfacet
  facet normal -0.866028 0.499996 0
    outer loop
      vertex -29 -22.6928 17.5
      vertex -31.8 -27.5426 17.5
      vertex -29 -22.6928 20
    endloop
  endfacet
  facet normal -0.866019 0.500011 0
    outer loop
      vertex -29 -22.6928 20
      vertex -28.6 -22 37
      vertex -28.6 -22 20
    endloop
  endfacet
  facet normal -0.866028 0.499996 0
    outer loop
      vertex -31.8 -27.5426 37
      vertex -29 -22.6928 20
      vertex -31.8 -27.5426 17.5
    endloop
  endfacet
  facet normal -0.866027 0.499997 7.3529e-07
    outer loop
      vertex -29 -22.6928 20
      vertex -31.8 -27.5426 37
      vertex -28.6 -22 37
    endloop
  endfacet
  facet normal -1 0 0
    outer loop
      vertex -25.25 -32 20
      vertex -25.25 10 24
      vertex -25.25 10 20
    endloop
  endfacet
  facet normal -1 -0 0
    outer loop
      vertex -25.25 10 24
      vertex -25.25 -32 20
      vertex -25.25 -32 24
    endloop
  endfacet
  facet normal 1 -0 0
    outer loop
      vertex -22.25 -32 24
      vertex -22.25 10 20
      vertex -22.25 10 24
    endloop
  endfacet
  facet normal 1 0 0
    outer loop
      vertex -22.25 10 20
      vertex -22.25 -32 24
      vertex -22.25 -32 20
    endloop
  endfacet
  facet normal 0 0 1
    outer loop
      vertex -29 -16.8038 20
      vertex -25.25 10 20
      vertex -29 16.8038 20
    endloop
  endfacet
  facet normal 0 0 1
    outer loop
      vertex -25.25 10 20
      vertex -29 -16.8038 20
      vertex -26 -22 20
    endloop
  endfacet
  facet normal 0 0 1
    outer loop
      vertex 20 42 20
      vertex 0.199997 41.8 20
      vertex 2.59999 39.12 20
    endloop
  endfacet
  facet normal 0 0 1
    outer loop
      vertex 20 42 20
      vertex -0.199997 41.8 20
      vertex 0.199997 41.8 20
    endloop
  endfacet
  facet normal 0 0 1
    outer loop
      vertex -0.199997 41.8 20
      vertex -20 42 20
      vertex -2.59999 39.12 20
    endloop
  endfacet
  facet normal -0 0 1
    outer loop
      vertex -20 42 20
      vertex -0.199997 41.8 20
      vertex 20 42 20
    endloop
  endfacet
  facet normal -0 0 1
    outer loop
      vertex 22.25 31 20
      vertex 29 27.1962 20
      vertex 29 36 20
    endloop
  endfacet
  facet normal 0 0 1
    outer loop
      vertex 29 -16.8038 20
      vertex 25.25 10 20
      vertex 26 -22 20
    endloop
  endfacet
  facet normal 0 0 1
    outer loop
      vertex 29 27.1962 20
      vertex 22.25 31 20
      vertex 26 22 20
    endloop
  endfacet
  facet normal 0 0 1
    outer loop
      vertex 22.25 31 20
      vertex 29 36 20
      vertex 22.25 34 20
    endloop
  endfacet
  facet normal 0 0 1
    outer loop
      vertex 20 42 20
      vertex 22.25 34 20
      vertex 29 36 20
    endloop
  endfacet
  facet normal -0 0 1
    outer loop
      vertex 2.59999 39.12 20
      vertex 22.25 34 20
      vertex 20 42 20
    endloop
  endfacet
  facet normal 0 0 1
    outer loop
      vertex 0.399994 34 20
      vertex 2.59999 39.12 20
      vertex 2 39 20
    endloop
  endfacet
  facet normal 0 0 1
    outer loop
      vertex 2.59999 39.12 20
      vertex 0.399994 34 20
      vertex 22.25 34 20
    endloop
  endfacet
  facet normal 0 0 1
    outer loop
      vertex 0.399994 34 20
      vertex 2 39 20
      vertex 0.399994 40.94 20
    endloop
  endfacet
  facet normal 0 0 1
    outer loop
      vertex 22.25 10 20
      vertex 29 16.8038 20
      vertex 26 22 20
    endloop
  endfacet
  facet normal 0 0 1
    outer loop
      vertex 29 16.8038 20
      vertex 25.25 10 20
      vertex 29 -16.8038 20
    endloop
  endfacet
  facet normal 0 0 1
    outer loop
      vertex 25.25 -32 20
      vertex 29 -27.1962 20
      vertex 26 -22 20
    endloop
  endfacet
  facet normal 0 0 1
    outer loop
      vertex 25.25 -32 20
      vertex 26 -22 20
      vertex 25.25 10 20
    endloop
  endfacet
  facet normal 0 0 1
    outer loop
      vertex 29 -27.1962 20
      vertex 25.25 -32 20
      vertex 29 -36 20
    endloop
  endfacet
  facet normal -0 0 1
    outer loop
      vertex 22.25 -32 20
      vertex 29 -36 20
      vertex 25.25 -32 20
    endloop
  endfacet
  facet normal 0 0 1
    outer loop
      vertex 29 -36 20
      vertex 22.25 -32 20
      vertex 20 -42 20
    endloop
  endfacet
  facet normal 0 0 1
    outer loop
      vertex 22.25 10 20
      vertex 26 22 20
      vertex 22.25 31 20
    endloop
  endfacet
  facet normal 0 0 1
    outer loop
      vertex 29 16.8038 20
      vertex 22.25 10 20
      vertex 25.25 10 20
    endloop
  endfacet
  facet normal 0 0 1
    outer loop
      vertex -22.25 10 20
      vertex 22.25 10 20
      vertex 22.25 31 20
    endloop
  endfacet
  facet normal 0 0 1
    outer loop
      vertex 22.25 10 20
      vertex -22.25 10 20
      vertex 22.25 -32 20
    endloop
  endfacet
  facet normal 0 0 1
    outer loop
      vertex -22.25 -32 20
      vertex 22.25 -32 20
      vertex -22.25 10 20
    endloop
  endfacet
  facet normal 0 0 1
    outer loop
      vertex -22.25 10 20
      vertex 22.25 31 20
      vertex -22.25 31 20
    endloop
  endfacet
  facet normal 0 0 1
    outer loop
      vertex 22.25 -32 20
      vertex -22.25 -32 20
      vertex 20 -42 20
    endloop
  endfacet
  facet normal 0 0 1
    outer loop
      vertex 20 -42 20
      vertex -22.25 -32 20
      vertex -20 -42 20
    endloop
  endfacet
  facet normal 0 0 1
    outer loop
      vertex -29 -36 20
      vertex -22.25 -32 20
      vertex -25.25 -32 20
    endloop
  endfacet
  facet normal 0 0 1
    outer loop
      vertex -25.25 10 20
      vertex -26 -22 20
      vertex -25.25 -32 20
    endloop
  endfacet
  facet normal -0 0 1
    outer loop
      vertex -29 -27.1962 20
      vertex -25.25 -32 20
      vertex -26 -22 20
    endloop
  endfacet
  facet normal 0 0 1
    outer loop
      vertex -29 -36 20
      vertex -25.25 -32 20
      vertex -29 -27.1962 20
    endloop
  endfacet
  facet normal 0 0 1
    outer loop
      vertex -22.25 -32 20
      vertex -29 -36 20
      vertex -20 -42 20
    endloop
  endfacet
  facet normal -0 0 1
    outer loop
      vertex -2 39 20
      vertex -0.399994 34 20
      vertex -0.399994 40.94 20
    endloop
  endfacet
  facet normal 0 0 1
    outer loop
      vertex -2.59999 39.12 20
      vertex -0.399994 34 20
      vertex -2 39 20
    endloop
  endfacet
  facet normal 0 0 1
    outer loop
      vertex -22.25 34 20
      vertex -2.59999 39.12 20
      vertex -20 42 20
    endloop
  endfacet
  facet normal 0 0 1
    outer loop
      vertex -2.59999 39.12 20
      vertex -22.25 34 20
      vertex -0.399994 34 20
    endloop
  endfacet
  facet normal 0 0 1
    outer loop
      vertex -29 36 20
      vertex -22.25 31 20
      vertex -22.25 34 20
    endloop
  endfacet
  facet normal 0 0 1
    outer loop
      vertex -22.25 31 20
      vertex -26 22 20
      vertex -22.25 10 20
    endloop
  endfacet
  facet normal 0 0 1
    outer loop
      vertex -22.25 10 20
      vertex -29 16.8038 20
      vertex -25.25 10 20
    endloop
  endfacet
  facet normal -0 0 1
    outer loop
      vertex -29 16.8038 20
      vertex -22.25 10 20
      vertex -26 22 20
    endloop
  endfacet
  facet normal -0 0 1
    outer loop
      vertex -29 36 20
      vertex -22.25 34 20
      vertex -20 42 20
    endloop
  endfacet
  facet normal 0 0 1
    outer loop
      vertex -22.25 31 20
      vertex -29 36 20
      vertex -29 27.1962 20
    endloop
  endfacet
  facet normal 0 0 1
    outer loop
      vertex -22.25 31 20
      vertex -29 27.1962 20
      vertex -26 22 20
    endloop
  endfacet
  facet normal 0 0 1
    outer loop
      vertex -28.6 22 20
      vertex -29 22.6928 20
      vertex -29 21.3072 20
    endloop
  endfacet
  facet normal 0 0 1
    outer loop
      vertex -28.6 -22 20
      vertex -29 -21.3072 20
      vertex -29 -22.6928 20
    endloop
  endfacet
  facet normal 0 -0 1
    outer loop
      vertex 29 21.3072 20
      vertex 29 22.6928 20
      vertex 28.6 22 20
    endloop
  endfacet
  facet normal 0 -0 1
    outer loop
      vertex 29 -22.6928 20
      vertex 29 -21.3072 20
      vertex 28.6 -22 20
    endloop
  endfacet
  facet normal 0 -1 0
    outer loop
      vertex -25.25 -32 20
      vertex -22.25 -32 24
      vertex -25.25 -32 24
    endloop
  endfacet
  facet normal 0 -1 -0
    outer loop
      vertex -22.25 -32 24
      vertex -25.25 -32 20
      vertex -22.25 -32 20
    endloop
  endfacet
  facet normal -0 0 1
    outer loop
      vertex -25.25 10 24
      vertex -22.25 -32 24
      vertex -22.25 10 24
    endloop
  endfacet
  facet normal 0 0 1
    outer loop
      vertex -22.25 -32 24
      vertex -25.25 10 24
      vertex -25.25 -32 24
    endloop
  endfacet
  facet normal 0 1 -0
    outer loop
      vertex -22.25 10 20
      vertex -25.25 10 24
      vertex -22.25 10 24
    endloop
  endfacet
  facet normal 0 1 0
    outer loop
      vertex -25.25 10 24
      vertex -22.25 10 20
      vertex -25.25 10 20
    endloop
  endfacet
  facet normal -1 0 0
    outer loop
      vertex 22.25 -32 20
      vertex 22.25 10 24
      vertex 22.25 10 20
    endloop
  endfacet
  facet normal -1 -0 0
    outer loop
      vertex 22.25 10 24
      vertex 22.25 -32 20
      vertex 22.25 -32 24
    endloop
  endfacet
  facet normal 1 -0 0
    outer loop
      vertex 25.25 -32 24
      vertex 25.25 10 20
      vertex 25.25 10 24
    endloop
  endfacet
  facet normal 1 0 0
    outer loop
      vertex 25.25 10 20
      vertex 25.25 -32 24
      vertex 25.25 -32 20
    endloop
  endfacet
  facet normal -0 0 1
    outer loop
      vertex 22.25 10 24
      vertex 25.25 -32 24
      vertex 25.25 10 24
    endloop
  endfacet
  facet normal 0 0 1
    outer loop
      vertex 25.25 -32 24
      vertex 22.25 10 24
      vertex 22.25 -32 24
    endloop
  endfacet
  facet normal 0 1 -0
    outer loop
      vertex 25.25 10 20
      vertex 22.25 10 24
      vertex 25.25 10 24
    endloop
  endfacet
  facet normal 0 1 0
    outer loop
      vertex 22.25 10 24
      vertex 25.25 10 20
      vertex 22.25 10 20
    endloop
  endfacet
  facet normal 0 -1 0
    outer loop
      vertex 22.25 -32 20
      vertex 25.25 -32 24
      vertex 22.25 -32 24
    endloop
  endfacet
  facet normal 0 -1 -0
    outer loop
      vertex 25.25 -32 24
      vertex 22.25 -32 20
      vertex 25.25 -32 20
    endloop
  endfacet
  facet normal -1 0 0
    outer loop
      vertex -22.25 31 20
      vertex -22.25 34 24
      vertex -22.25 34 20
    endloop
  endfacet
  facet normal -1 -0 0
    outer loop
      vertex -22.25 34 24
      vertex -22.25 31 20
      vertex -22.25 31 24
    endloop
  endfacet
  facet normal 1 -0 0
    outer loop
      vertex 22.25 31 24
      vertex 22.25 34 20
      vertex 22.25 34 24
    endloop
  endfacet
  facet normal 1 0 0
    outer loop
      vertex 22.25 34 20
      vertex 22.25 31 24
      vertex 22.25 31 20
    endloop
  endfacet
  facet normal 0 1 0
    outer loop
      vertex 22.25 34 24
      vertex 0.399994 34 21
      vertex -22.25 34 24
    endloop
  endfacet
  facet normal 0 1 -0
    outer loop
      vertex 22.25 34 20
      vertex 0.399994 34 21
      vertex 22.25 34 24
    endloop
  endfacet
  facet normal 0 1 0
    outer loop
      vertex 0.399994 34 21
      vertex 22.25 34 20
      vertex 0.399994 34 20
    endloop
  endfacet
  facet normal 0 1 -0
    outer loop
      vertex -0.399994 34 21
      vertex -22.25 34 24
      vertex 0.399994 34 21
    endloop
  endfacet
  facet normal 0 1 0
    outer loop
      vertex -22.25 34 20
      vertex -0.399994 34 21
      vertex -0.399994 34 20
    endloop
  endfacet
  facet normal 0 1 0
    outer loop
      vertex -0.399994 34 21
      vertex -22.25 34 20
      vertex -22.25 34 24
    endloop
  endfacet
  facet normal -0 0 1
    outer loop
      vertex -22.25 34 24
      vertex 22.25 31 24
      vertex 22.25 34 24
    endloop
  endfacet
  facet normal 0 0 1
    outer loop
      vertex 22.25 31 24
      vertex -22.25 34 24
      vertex -22.25 31 24
    endloop
  endfacet
  facet normal 0 -1 0
    outer loop
      vertex -22.25 31 20
      vertex 22.25 31 24
      vertex -22.25 31 24
    endloop
  endfacet
  facet normal 0 -1 -0
    outer loop
      vertex 22.25 31 24
      vertex -22.25 31 20
      vertex 22.25 31 20
    endloop
  endfacet
  facet normal 0 0 1
    outer loop
      vertex -2.59999 39.12 21
      vertex -0.399994 40.94 21
      vertex -0.199997 41.8 21
    endloop
  endfacet
  facet normal 0 0 1
    outer loop
      vertex -0.399994 40.94 21
      vertex -2.59999 39.12 21
      vertex -2 39 21
    endloop
  endfacet
  facet normal 0 0 1
    outer loop
      vertex 2.59999 39.12 21
      vertex 0.399994 40.94 21
      vertex 2 39 21
    endloop
  endfacet
  facet normal 0 0 1
    outer loop
      vertex 0.199997 41.8 21
      vertex 0.399994 40.94 21
      vertex 2.59999 39.12 21
    endloop
  endfacet
  facet normal 0 0 1
    outer loop
      vertex -0.399994 40.94 21
      vertex 0.399994 40.94 21
      vertex 0.199997 41.8 21
    endloop
  endfacet
  facet normal 0 0 1
    outer loop
      vertex -0.399994 40.94 21
      vertex 0.199997 41.8 21
      vertex -0.199997 41.8 21
    endloop
  endfacet
  facet normal 0 0 1
    outer loop
      vertex 0.399994 40.94 21
      vertex -0.399994 40.94 21
      vertex 0.399994 34 21
    endloop
  endfacet
  facet normal 0 0 1
    outer loop
      vertex 0.399994 34 21
      vertex -0.399994 40.94 21
      vertex -0.399994 34 21
    endloop
  endfacet
  facet normal -0.77147 -0.636266 0
    outer loop
      vertex 2 39 20
      vertex 0.399994 40.94 21
      vertex 0.399994 40.94 20
    endloop
  endfacet
  facet normal -0.77147 -0.636266 0
    outer loop
      vertex 0.399994 40.94 21
      vertex 2 39 20
      vertex 2 39 21
    endloop
  endfacet
  facet normal 0.196119 -0.98058 0
    outer loop
      vertex 2 39 20
      vertex 2.59999 39.12 21
      vertex 2 39 21
    endloop
  endfacet
  facet normal 0.196119 -0.98058 0
    outer loop
      vertex 2.59999 39.12 21
      vertex 2 39 20
      vertex 2.59999 39.12 20
    endloop
  endfacet
  facet normal 0.744951 0.667119 0
    outer loop
      vertex 2.59999 39.12 21
      vertex 0.199997 41.8 20
      vertex 0.199997 41.8 21
    endloop
  endfacet
  facet normal 0.744951 0.667119 0
    outer loop
      vertex 0.199997 41.8 20
      vertex 2.59999 39.12 21
      vertex 2.59999 39.12 20
    endloop
  endfacet
  facet normal 0 1 -0
    outer loop
      vertex 0.199997 41.8 20
      vertex -0.199997 41.8 21
      vertex 0.199997 41.8 21
    endloop
  endfacet
  facet normal 0 1 0
    outer loop
      vertex -0.199997 41.8 21
      vertex 0.199997 41.8 20
      vertex -0.199997 41.8 20
    endloop
  endfacet
  facet normal -0.744951 0.667119 0
    outer loop
      vertex -2.59999 39.12 20
      vertex -0.199997 41.8 21
      vertex -0.199997 41.8 20
    endloop
  endfacet
  facet normal -0.744951 0.667119 0
    outer loop
      vertex -0.199997 41.8 21
      vertex -2.59999 39.12 20
      vertex -2.59999 39.12 21
    endloop
  endfacet
  facet normal -0.196119 -0.98058 0
    outer loop
      vertex -2.59999 39.12 20
      vertex -2 39 21
      vertex -2.59999 39.12 21
    endloop
  endfacet
  facet normal -0.196119 -0.98058 -0
    outer loop
      vertex -2 39 21
      vertex -2.59999 39.12 20
      vertex -2 39 20
    endloop
  endfacet
  facet normal 0.77147 -0.636266 0
    outer loop
      vertex -2 39 21
      vertex -0.399994 40.94 20
      vertex -0.399994 40.94 21
    endloop
  endfacet
  facet normal 0.77147 -0.636266 0
    outer loop
      vertex -0.399994 40.94 20
      vertex -2 39 21
      vertex -2 39 20
    endloop
  endfacet
  facet normal -1 0 0
    outer loop
      vertex -0.399994 34 20
      vertex -0.399994 40.94 21
      vertex -0.399994 40.94 20
    endloop
  endfacet
  facet normal -1 -0 0
    outer loop
      vertex -0.399994 40.94 21
      vertex -0.399994 34 20
      vertex -0.399994 34 21
    endloop
  endfacet
  facet normal 1 -0 0
    outer loop
      vertex 0.399994 34 21
      vertex 0.399994 40.94 20
      vertex 0.399994 40.94 21
    endloop
  endfacet
  facet normal 1 0 0
    outer loop
      vertex 0.399994 40.94 20
      vertex 0.399994 34 21
      vertex 0.399994 34 20
    endloop
  endfacet
  facet normal 0.5547 0.83205 -0
    outer loop
      vertex 29 36 17.5
      vertex 20 42 20
      vertex 29 36 20
    endloop
  endfacet
  facet normal 0.5547 0.83205 0
    outer loop
      vertex 20 42 20
      vertex 29 36 17.5
      vertex 20 42 17.5
    endloop
  endfacet
  facet normal 0 1 -0
    outer loop
      vertex 20 42 17.5
      vertex -20 42 20
      vertex 20 42 20
    endloop
  endfacet
  facet normal 0 1 0
    outer loop
      vertex -20 42 20
      vertex 20 42 17.5
      vertex -20 42 17.5
    endloop
  endfacet
  facet normal -0.5547 0.83205 0
    outer loop
      vertex -20 42 17.5
      vertex -29 36 20
      vertex -20 42 20
    endloop
  endfacet
  facet normal -0.5547 0.83205 0
    outer loop
      vertex -29 36 20
      vertex -20 42 17.5
      vertex -29 36 17.5
    endloop
  endfacet
  facet normal 0.5547 -0.83205 0
    outer loop
      vertex 20 -42 17.5
      vertex 29 -36 20
      vertex 20 -42 20
    endloop
  endfacet
  facet normal 0.5547 -0.83205 0
    outer loop
      vertex 29 -36 20
      vertex 20 -42 17.5
      vertex 29 -36 17.5
    endloop
  endfacet
  facet normal 1 -0 0
    outer loop
      vertex 29 27.1962 20
      vertex 29 36 17.5
      vertex 29 36 20
    endloop
  endfacet
  facet normal 1 0 0
    outer loop
      vertex 29 36 17.5
      vertex 29 27.1962 20
      vertex 29 27.1962 17.5
    endloop
  endfacet
  facet normal 1 -0 0
    outer loop
      vertex 29 -36 20
      vertex 29 -27.1962 17.5
      vertex 29 -27.1962 20
    endloop
  endfacet
  facet normal 1 0 0
    outer loop
      vertex 29 -27.1962 17.5
      vertex 29 -36 20
      vertex 29 -36 17.5
    endloop
  endfacet
  facet normal 1 -0 0
    outer loop
      vertex 29 -16.8038 20
      vertex 29 16.8038 17.5
      vertex 29 16.8038 20
    endloop
  endfacet
  facet normal 1 0 0
    outer loop
      vertex 29 16.8038 17.5
      vertex 29 -16.8038 20
      vertex 29 -16.8038 17.5
    endloop
  endfacet
  facet normal 1 -0 0
    outer loop
      vertex 29 -22.6928 20
      vertex 29 -21.3072 17.5
      vertex 29 -21.3072 20
    endloop
  endfacet
  facet normal 1 0 0
    outer loop
      vertex 29 -21.3072 17.5
      vertex 29 -22.6928 20
      vertex 29 -22.6928 17.5
    endloop
  endfacet
  facet normal 1 -0 0
    outer loop
      vertex 29 21.3072 20
      vertex 29 22.6928 17.5
      vertex 29 22.6928 20
    endloop
  endfacet
  facet normal 1 0 0
    outer loop
      vertex 29 22.6928 17.5
      vertex 29 21.3072 20
      vertex 29 21.3072 17.5
    endloop
  endfacet
  facet normal -1 0 0
    outer loop
      vertex -29 -36 17.5
      vertex -29 -27.1962 20
      vertex -29 -27.1962 17.5
    endloop
  endfacet
  facet normal -1 -0 0
    outer loop
      vertex -29 -27.1962 20
      vertex -29 -36 17.5
      vertex -29 -36 20
    endloop
  endfacet
  facet normal -1 0 0
    outer loop
      vertex -29 27.1962 17.5
      vertex -29 36 20
      vertex -29 36 17.5
    endloop
  endfacet
  facet normal -1 -0 0
    outer loop
      vertex -29 36 20
      vertex -29 27.1962 17.5
      vertex -29 27.1962 20
    endloop
  endfacet
  facet normal -1 0 0
    outer loop
      vertex -29 -22.6928 17.5
      vertex -29 -21.3072 20
      vertex -29 -21.3072 17.5
    endloop
  endfacet
  facet normal -1 -0 0
    outer loop
      vertex -29 -21.3072 20
      vertex -29 -22.6928 17.5
      vertex -29 -22.6928 20
    endloop
  endfacet
  facet normal -1 0 0
    outer loop
      vertex -29 21.3072 17.5
      vertex -29 22.6928 20
      vertex -29 22.6928 17.5
    endloop
  endfacet
  facet normal -1 -0 0
    outer loop
      vertex -29 22.6928 20
      vertex -29 21.3072 17.5
      vertex -29 21.3072 20
    endloop
  endfacet
  facet normal -1 0 0
    outer loop
      vertex -29 -16.8038 17.5
      vertex -29 16.8038 20
      vertex -29 16.8038 17.5
    endloop
  endfacet
  facet normal -1 -0 0
    outer loop
      vertex -29 16.8038 20
      vertex -29 -16.8038 17.5
      vertex -29 -16.8038 20
    endloop
  endfacet
  facet normal -0.5547 -0.83205 0
    outer loop
      vertex -29 -36 17.5
      vertex -20 -42 20
      vertex -29 -36 20
    endloop
  endfacet
  facet normal -0.5547 -0.83205 -0
    outer loop
      vertex -20 -42 20
      vertex -29 -36 17.5
      vertex -20 -42 17.5
    endloop
  endfacet
  facet normal 0 -1 0
    outer loop
      vertex -20 -42 17.5
      vertex 20 -42 20
      vertex -20 -42 20
    endloop
  endfacet
  facet normal 0 -1 -0
    outer loop
      vertex 20 -42 20
      vertex -20 -42 17.5
      vertex 20 -42 17.5
    endloop
  endfacet
endsolid OpenSCAD_Model
