<?xml version="1.0"?>
<!DOCTYPE svg PUBLIC "-//W3C//DTD SVG 1.1//EN" "http://www.w3.org/Graphics/SVG/1.1/DTD/svg11.dtd">
<svg width="18.360000000000056mm" height="45.36000000000003mm" viewBox="0 0 18.360000000000056 45.36000000000003" xmlns="http://www.w3.org/2000/svg" version="1.1">
<g id="Body009" transform="translate(-90.820000,45.180000) scale(1,-1)">
<path id="Body009_f0000"  d="M 92.99999999999999 -6.661338147750943e-16 L 92.99999999999999 -1.3145040611561857e-15 L 106.01279499999998 1.3020640121652654e-16 L 106.01279499999998 7.785766475976179e-16 L 92.99999999999996 -9.396927680427328e-15 Z " stroke="#191919" stroke-width="0.7 px" style="stroke-width:0.7;stroke-miterlimit:4;stroke-dasharray:none;stroke-linecap:square;fill:#900d0b;fill-opacity:1.0;fill-rule: evenodd"/>
<path id="Body009_f0001"  d="M 106.01279499999998 7.78576647597618e-16 L 106.01279499999998 1.3020640121652654e-16 Q 108.99703799999999 -1.892543788351021e-14 108.99999999999999 4.999999999999989 L 108.99999999999999 5.000000000000003 Q 108.99703799999999 -1.8277067637129114e-14 106.01279499999998 -1.662047999229089e-14 Z " stroke="#191919" stroke-width="0.7 px" style="stroke-width:0.7;stroke-miterlimit:4;stroke-dasharray:none;stroke-linecap:square;fill:#900d0b;fill-opacity:1.0;fill-rule: evenodd"/>
<path id="Body009_f0002"  d="M 108.99999999999999 5.000000000000003 L 108.99999999999999 5.000000000000002 L 108.99999999999997 45.000000000000014 L 108.99999999999997 45.000000000000014 L 108.99999999999999 4.999999999999989 Z " stroke="#191919" stroke-width="0.7 px" style="stroke-width:0.7;stroke-miterlimit:4;stroke-dasharray:none;stroke-linecap:square;fill:#900d0b;fill-opacity:1.0;fill-rule: evenodd"/>
<path id="Body009_f0003"  d="M 108.99999999999997 45.000000000000014 L 108.99999999999997 45.000000000000014 L 90.99999999999997 45.000000000000014 L 90.99999999999997 45.000000000000014 L 108.99999999999994 45.000000000000064 Z " stroke="#191919" stroke-width="0.7 px" style="stroke-width:0.7;stroke-miterlimit:4;stroke-dasharray:none;stroke-linecap:square;fill:#900d0b;fill-opacity:1.0;fill-rule: evenodd"/>
<path id="Body009_f0004"  d="M 90.99999999999997 45.000000000000014 L 90.99999999999997 45.000000000000014 L 90.99999999999997 41.000000000000014 L 90.99999999999997 41.000000000000014 L 90.99999999999991 45.000000000000064 Z " stroke="#191919" stroke-width="0.7 px" style="stroke-width:0.7;stroke-miterlimit:4;stroke-dasharray:none;stroke-linecap:square;fill:#900d0b;fill-opacity:1.0;fill-rule: evenodd"/>
<path id="Body009_f0005"  d="M 90.99999999999991 41.000000000000064 Q 90.99999999999991 39.00000000000004 92.99999999999991 39.00000000000004 L 92.99999999999997 39.000000000000014 Q 90.99999999999991 39.00000000000004 90.99999999999991 41.000000000000064 L 90.99999999999997 41.000000000000014 Z " stroke="#191919" stroke-width="0.7 px" style="stroke-width:0.7;stroke-miterlimit:4;stroke-dasharray:none;stroke-linecap:square;fill:#900d0b;fill-opacity:1.0;fill-rule: evenodd"/>
<path id="Body009_f0006"  d="M 92.99999999999997 39.000000000000014 L 92.99999999999997 39.000000000000014 L 92.99999999999997 11.500000000000005 L 92.99999999999997 11.500000000000004 L 92.99999999999991 39.00000000000004 Z " stroke="#191919" stroke-width="0.7 px" style="stroke-width:0.7;stroke-miterlimit:4;stroke-dasharray:none;stroke-linecap:square;fill:#900d0b;fill-opacity:1.0;fill-rule: evenodd"/>
<path id="Body009_f0007"  d="M 92.99999999999994 11.50000000000001 Q 90.99999999999994 11.50000000000001 90.99999999999996 6.500000000000003 L 90.99999999999997 6.500000000000002 Q 90.99999999999994 11.500000000000009 92.99999999999994 11.500000000000009 L 92.99999999999997 11.500000000000004 Z " stroke="#191919" stroke-width="0.7 px" style="stroke-width:0.7;stroke-miterlimit:4;stroke-dasharray:none;stroke-linecap:square;fill:#900d0b;fill-opacity:1.0;fill-rule: evenodd"/>
<path id="Body009_f0008"  d="M 90.99999999999997 6.500000000000003 L 90.99999999999997 6.500000000000002 L 90.99999999999999 2.4999999999999996 L 90.99999999999999 2.5 L 90.99999999999996 6.500000000000003 Z " stroke="#191919" stroke-width="0.7 px" style="stroke-width:0.7;stroke-miterlimit:4;stroke-dasharray:none;stroke-linecap:square;fill:#900d0b;fill-opacity:1.0;fill-rule: evenodd"/>
<path id="Body009_f0009"  d="M 90.99999999999996 2.499999999999996 Q 91.00086999999996 -8.287187602817882e-15 92.99999999999996 -9.396927680427328e-15 L 92.99999999999999 -1.3145040611561857e-15 Q 91.00086999999996 -8.935557849198976e-15 90.99999999999996 2.499999999999995 L 90.99999999999999 2.5 Z " stroke="#191919" stroke-width="0.7 px" style="stroke-width:0.7;stroke-miterlimit:4;stroke-dasharray:none;stroke-linecap:square;fill:#900d0b;fill-opacity:1.0;fill-rule: evenodd"/>
<path id="Body009_f0010"  d="M 92.99999999999999 -6.661338147750943e-16 L 106.01279499999998 7.78576647597618e-16 Q 108.99703799999999 -1.8277067637129114e-14 108.99999999999999 4.999999999999989 L 108.99999999999997 45.000000000000014 L 90.99999999999997 45.000000000000014 L 90.99999999999997 41.000000000000014 Q 90.99999999999991 39.00000000000004 92.99999999999991 39.00000000000004 L 92.99999999999997 11.500000000000004 Q 90.99999999999994 11.50000000000001 90.99999999999996 6.500000000000003 L 90.99999999999999 2.5 Q 91.00086999999996 -8.287187602817882e-15 92.99999999999996 -9.396927680427328e-15 Z " stroke="#191919" stroke-width="0.7 px" style="stroke-width:0.7;stroke-miterlimit:4;stroke-dasharray:none;stroke-linecap:square;fill:#900d0b;fill-opacity:1.0;fill-rule: evenodd"/>
<path id="Body009_f0011"  d="M 92.99999999999999 -1.3145040611561857e-15 Q 91.00086999999996 -8.935557849198976e-15 90.99999999999996 2.499999999999995 L 90.99999999999996 6.500000000000003 Q 90.99999999999994 11.500000000000009 92.99999999999994 11.500000000000009 L 92.99999999999991 39.00000000000004 Q 90.99999999999991 39.00000000000004 90.99999999999991 41.000000000000064 L 90.99999999999991 45.000000000000064 L 108.99999999999994 45.000000000000064 L 108.99999999999999 4.999999999999989 Q 108.99703799999999 -1.892543788351021e-14 106.01279499999998 -1.726885023867198e-14 L 92.99999999999996 -1.0045297926808423e-14 Z " stroke="#191919" stroke-width="0.7 px" style="stroke-width:0.7;stroke-miterlimit:4;stroke-dasharray:none;stroke-linecap:square;fill:#900d0b;fill-opacity:1.0;fill-rule: evenodd"/>
<title>b'left-side-smooth-flat'</title>
</g>
</svg>