<?xml version="1.0"?>
<!DOCTYPE svg PUBLIC "-//W3C//DTD SVG 1.1//EN" "http://www.w3.org/Graphics/SVG/1.1/DTD/svg11.dtd">
<svg width="18.360000000000056mm" height="48.360000000000056mm" viewBox="0 0 18.360000000000056 48.360000000000056" xmlns="http://www.w3.org/2000/svg" version="1.1">
<g id="Body005" transform="translate(-67.820000,48.180000) scale(1,-1)">
<path id="Body005_f0000"  d="M 70.0 -1.332267629550189e-15 L 70.0 -2.629008122312372e-15 L 83.01279500000001 2.6041280243305383e-16 L 83.01279500000003 4.183320356787598e-15 L 69.99999999999999 9.698908343125369e-15 Z " stroke="#191919" stroke-width="0.7 px" style="stroke-width:0.7;stroke-miterlimit:4;stroke-dasharray:none;stroke-linecap:square;fill:#7014d4;fill-opacity:0.09999999999999998;fill-rule: evenodd"/>
<path id="Body005_f0001"  d="M 67.99999999999999 2.5000000000000178 Q 68.00086999999999 1.0142804374169146e-14 69.99999999999999 9.698908343125369e-15 L 70.0 -2.629008122312372e-15 Q 68.00086999999998 8.846063881406948e-15 67.99999999999997 2.500000000000017 L 67.99999999999999 2.500000000000009 Z " stroke="#191919" stroke-width="0.7 px" style="stroke-width:0.7;stroke-miterlimit:4;stroke-dasharray:none;stroke-linecap:square;fill:#7014d4;fill-opacity:0.09999999999999998;fill-rule: evenodd"/>
<path id="Body005_f0002"  d="M 83.01279500000001 1.5571532951952366e-15 L 83.01279500000001 2.6041280243305383e-16 Q 85.99703800000003 4.850111867682477e-15 86.00000000000003 5.00000000000002 L 86.00000000000001 5.000000000000014 Q 85.99703800000005 6.146852360444672e-15 83.01279500000004 6.80948741837996e-15 Z " stroke="#191919" stroke-width="0.7 px" style="stroke-width:0.7;stroke-miterlimit:4;stroke-dasharray:none;stroke-linecap:square;fill:#7014d4;fill-opacity:0.09999999999999998;fill-rule: evenodd"/>
<path id="Body005_f0003"  d="M 71.99999999999997 45.00000000000002 L 67.99999999999996 45.00000000000002 L 67.99999999999997 41.00000000000002 Q 67.99999999999994 39.00000000000013 69.99999999999994 39.00000000000013 L 69.99999999999999 11.500000000000004 Q 67.99999999999997 11.50000000000005 67.99999999999997 6.500000000000031 L 67.99999999999999 2.499999999999999 Q 68.00086999999999 1.0142804374169146e-14 69.99999999999999 9.698908343125369e-15 L 83.01279500000001 1.5571532951952366e-15 Q 85.99703800000005 6.146852360444672e-15 86.00000000000004 5.000000000000022 L 85.99999999999997 45.00000000000002 L 77.99999999999997 45.00000000000002 L 77.99999999999997 48.00000000000002 L 71.99999999999996 48.00000000000002 L 71.99999999999997 45.00000000000002 Z M 75.99999999999999 33.00000000000001 L 73.07999999999998 33.00000000000001 L 73.07999999999998 39.00000000000001 L 75.99999999999999 39.00000000000001 L 75.99999999999999 33.00000000000001 Z M 76.0 12.000000000000004 L 76.0 6.000000000000002 L 73.08 6.000000000000002 L 73.08 12.000000000000004 L 76.0 12.000000000000004 Z " stroke="#191919" stroke-width="0.7 px" style="stroke-width:0.7;stroke-miterlimit:4;stroke-dasharray:none;stroke-linecap:square;fill:#7014d4;fill-opacity:0.09999999999999998;fill-rule: evenodd"/>
<path id="Body005_f0004"  d="M 86.0 5.0000000000000036 L 85.99999999999997 45.00000000000002 L 77.99999999999997 45.00000000000002 L 77.99999999999997 48.00000000000002 L 71.99999999999997 48.00000000000002 L 71.99999999999997 45.00000000000002 L 67.99999999999997 45.00000000000002 L 67.99999999999997 41.00000000000002 Q 67.99999999999994 39.00000000000013 69.99999999999994 39.000000000000135 L 69.99999999999999 11.500000000000004 Q 67.99999999999997 11.500000000000048 67.99999999999997 6.500000000000029 L 68.0 2.499999999999998 Q 68.00086999999998 8.846063881406948e-15 69.99999999999999 8.402167850363171e-15 L 83.01279500000001 2.6041280243305383e-16 Q 85.99703800000003 4.850111867682477e-15 86.00000000000003 5.00000000000002 Z M 73.07999999999998 39.00000000000001 L 73.07999999999998 33.00000000000001 L 75.99999999999999 33.00000000000001 L 75.99999999999999 39.00000000000001 L 73.07999999999998 39.00000000000001 Z M 73.08 6.000000000000002 L 76.0 6.000000000000001 L 76.0 12.000000000000004 L 73.08 12.000000000000004 L 73.08 6.000000000000002 Z " stroke="#191919" stroke-width="0.7 px" style="stroke-width:0.7;stroke-miterlimit:4;stroke-dasharray:none;stroke-linecap:square;fill:#7014d4;fill-opacity:0.09999999999999998;fill-rule: evenodd"/>
<path id="Body005_f0005"  d="M 67.99999999999999 6.500000000000001 L 67.99999999999999 6.5 L 68.0 2.499999999999998 L 67.99999999999999 2.500000000000009 L 67.99999999999997 6.500000000000031 Z " stroke="#191919" stroke-width="0.7 px" style="stroke-width:0.7;stroke-miterlimit:4;stroke-dasharray:none;stroke-linecap:square;fill:#7014d4;fill-opacity:0.09999999999999998;fill-rule: evenodd"/>
<path id="Body005_f0006"  d="M 86.0 5.000000000000004 L 86.0 5.0000000000000036 L 85.99999999999997 45.00000000000002 L 85.99999999999997 45.000000000000085 L 86.00000000000004 5.000000000000022 Z " stroke="#191919" stroke-width="0.7 px" style="stroke-width:0.7;stroke-miterlimit:4;stroke-dasharray:none;stroke-linecap:square;fill:#7014d4;fill-opacity:0.09999999999999998;fill-rule: evenodd"/>
<path id="Body005_f0007"  d="M 69.99999999999997 11.500000000000048 Q 67.99999999999997 11.50000000000005 67.99999999999997 6.500000000000031 L 67.99999999999999 6.5 Q 67.99999999999997 11.500000000000048 69.99999999999997 11.500000000000044 L 69.99999999999999 11.500000000000023 Z " stroke="#191919" stroke-width="0.7 px" style="stroke-width:0.7;stroke-miterlimit:4;stroke-dasharray:none;stroke-linecap:square;fill:#7014d4;fill-opacity:0.09999999999999998;fill-rule: evenodd"/>
<path id="Body005_f0008"  d="M 85.99999999999997 45.00000000000002 L 85.99999999999997 45.00000000000002 L 77.99999999999997 45.00000000000002 L 77.99999999999997 45.000000000000085 L 86.0 45.000000000000156 Z " stroke="#191919" stroke-width="0.7 px" style="stroke-width:0.7;stroke-miterlimit:4;stroke-dasharray:none;stroke-linecap:square;fill:#7014d4;fill-opacity:0.09999999999999998;fill-rule: evenodd"/>
<path id="Body005_f0009"  d="M 69.99999999999997 39.000000000000014 L 69.99999999999997 39.000000000000014 L 69.99999999999999 11.500000000000004 L 69.99999999999999 11.500000000000023 L 69.99999999999994 39.00000000000013 Z " stroke="#191919" stroke-width="0.7 px" style="stroke-width:0.7;stroke-miterlimit:4;stroke-dasharray:none;stroke-linecap:square;fill:#7014d4;fill-opacity:0.09999999999999998;fill-rule: evenodd"/>
<path id="Body005_f0010"  d="M 77.99999999999997 45.00000000000002 L 77.99999999999997 45.00000000000002 L 77.99999999999997 48.00000000000002 L 77.99999999999997 48.0000000000001 L 77.99999999999997 45.000000000000156 Z " stroke="#191919" stroke-width="0.7 px" style="stroke-width:0.7;stroke-miterlimit:4;stroke-dasharray:none;stroke-linecap:square;fill:#7014d4;fill-opacity:0.09999999999999998;fill-rule: evenodd"/>
<path id="Body005_f0011"  d="M 67.99999999999994 41.000000000000135 Q 67.99999999999994 39.00000000000013 69.99999999999994 39.00000000000013 L 69.99999999999997 39.000000000000014 Q 67.99999999999994 39.00000000000013 67.99999999999993 41.000000000000135 L 67.99999999999996 41.00000000000008 Z " stroke="#191919" stroke-width="0.7 px" style="stroke-width:0.7;stroke-miterlimit:4;stroke-dasharray:none;stroke-linecap:square;fill:#7014d4;fill-opacity:0.09999999999999998;fill-rule: evenodd"/>
<path id="Body005_f0012"  d="M 77.99999999999997 48.00000000000002 L 77.99999999999997 48.00000000000002 L 71.99999999999997 48.00000000000002 L 71.99999999999996 48.00000000000009 L 77.99999999999996 48.000000000000156 Z " stroke="#191919" stroke-width="0.7 px" style="stroke-width:0.7;stroke-miterlimit:4;stroke-dasharray:none;stroke-linecap:square;fill:#7014d4;fill-opacity:0.09999999999999998;fill-rule: evenodd"/>
<path id="Body005_f0013"  d="M 67.99999999999996 45.00000000000002 L 67.99999999999997 45.00000000000002 L 67.99999999999997 41.00000000000002 L 67.99999999999996 41.00000000000008 L 67.99999999999994 45.000000000000156 Z " stroke="#191919" stroke-width="0.7 px" style="stroke-width:0.7;stroke-miterlimit:4;stroke-dasharray:none;stroke-linecap:square;fill:#7014d4;fill-opacity:0.09999999999999998;fill-rule: evenodd"/>
<path id="Body005_f0014"  d="M 71.99999999999996 48.00000000000002 L 71.99999999999997 48.00000000000002 L 71.99999999999997 45.00000000000002 L 71.99999999999996 45.00000000000008 L 71.99999999999994 48.000000000000156 Z " stroke="#191919" stroke-width="0.7 px" style="stroke-width:0.7;stroke-miterlimit:4;stroke-dasharray:none;stroke-linecap:square;fill:#7014d4;fill-opacity:0.09999999999999998;fill-rule: evenodd"/>
<path id="Body005_f0015"  d="M 71.99999999999997 45.00000000000002 L 71.99999999999997 45.00000000000002 L 67.99999999999997 45.00000000000002 L 67.99999999999994 45.00000000000008 L 71.99999999999994 45.000000000000156 Z " stroke="#191919" stroke-width="0.7 px" style="stroke-width:0.7;stroke-miterlimit:4;stroke-dasharray:none;stroke-linecap:square;fill:#7014d4;fill-opacity:0.09999999999999998;fill-rule: evenodd"/>
<path id="Body005_f0016"  d="M 73.07999999999998 33.00000000000001 L 73.07999999999998 33.00000000000001 L 73.07999999999998 39.00000000000005 L 73.07999999999998 39.00000000000001 L 73.07999999999998 33.00000000000001 Z " stroke="#191919" stroke-width="0.7 px" style="stroke-width:0.7;stroke-miterlimit:4;stroke-dasharray:none;stroke-linecap:square;fill:#7014d4;fill-opacity:0.09999999999999998;fill-rule: evenodd"/>
<path id="Body005_f0017"  d="M 73.07999999999998 39.00000000000001 L 73.07999999999998 39.00000000000001 L 75.99999999999999 39.00000000000005 L 75.99999999999999 39.00000000000001 L 73.08 39.00000000000001 Z " stroke="#191919" stroke-width="0.7 px" style="stroke-width:0.7;stroke-miterlimit:4;stroke-dasharray:none;stroke-linecap:square;fill:#7014d4;fill-opacity:0.09999999999999998;fill-rule: evenodd"/>
<path id="Body005_f0018"  d="M 75.99999999999999 39.00000000000001 L 75.99999999999999 39.00000000000001 L 75.99999999999999 33.00000000000005 L 75.99999999999999 33.00000000000001 L 75.99999999999999 39.00000000000001 Z " stroke="#191919" stroke-width="0.7 px" style="stroke-width:0.7;stroke-miterlimit:4;stroke-dasharray:none;stroke-linecap:square;fill:#7014d4;fill-opacity:0.09999999999999998;fill-rule: evenodd"/>
<path id="Body005_f0019"  d="M 75.99999999999999 33.00000000000001 L 75.99999999999999 33.00000000000001 L 73.07999999999998 33.00000000000005 L 73.07999999999998 33.00000000000001 L 75.99999999999999 33.00000000000001 Z " stroke="#191919" stroke-width="0.7 px" style="stroke-width:0.7;stroke-miterlimit:4;stroke-dasharray:none;stroke-linecap:square;fill:#7014d4;fill-opacity:0.09999999999999998;fill-rule: evenodd"/>
<path id="Body005_f0020"  d="M 76.0 6.000000000000001 L 76.0 6.000000000000002 L 73.08 6.000000000000014 L 73.08 6.000000000000002 L 76.0 6.0 Z " stroke="#191919" stroke-width="0.7 px" style="stroke-width:0.7;stroke-miterlimit:4;stroke-dasharray:none;stroke-linecap:square;fill:#7014d4;fill-opacity:0.09999999999999998;fill-rule: evenodd"/>
<path id="Body005_f0021"  d="M 73.08 6.000000000000001 L 73.08 6.000000000000002 L 73.08 12.000000000000023 L 73.08 12.000000000000004 L 73.08 6.0 Z " stroke="#191919" stroke-width="0.7 px" style="stroke-width:0.7;stroke-miterlimit:4;stroke-dasharray:none;stroke-linecap:square;fill:#7014d4;fill-opacity:0.09999999999999998;fill-rule: evenodd"/>
<path id="Body005_f0022"  d="M 73.08 12.000000000000004 L 73.08 12.000000000000004 L 76.0 12.000000000000025 L 76.0 12.000000000000004 L 73.08 12.000000000000004 Z " stroke="#191919" stroke-width="0.7 px" style="stroke-width:0.7;stroke-miterlimit:4;stroke-dasharray:none;stroke-linecap:square;fill:#7014d4;fill-opacity:0.09999999999999998;fill-rule: evenodd"/>
<path id="Body005_f0023"  d="M 76.0 12.000000000000004 L 76.0 12.000000000000004 L 76.0 6.000000000000013 L 76.0 6.000000000000001 L 76.0 12.000000000000004 Z " stroke="#191919" stroke-width="0.7 px" style="stroke-width:0.7;stroke-miterlimit:4;stroke-dasharray:none;stroke-linecap:square;fill:#7014d4;fill-opacity:0.09999999999999998;fill-rule: evenodd"/>
<title>b'left-side-connected-flat'</title>
</g>
</svg>