<?xml version="1.0"?>
<!DOCTYPE svg PUBLIC "-//W3C//DTD SVG 1.1//EN" "http://www.w3.org/Graphics/SVG/1.1/DTD/svg11.dtd">
<svg width="18.360000000000035mm" height="45.36000000000002mm" viewBox="0 0 18.360000000000035 45.36000000000002" xmlns="http://www.w3.org/2000/svg" version="1.1">
<g id="Body008" transform="translate(48.180000,45.180000) scale(1,-1)">
<path id="Body008_f0000"  d="M -31.999999999999996 -6.661338147750941e-16 L -31.999999999999996 -1.3145040611561855e-15 L -45.012795 1.3020640121652652e-16 L -45.012795000000004 7.785766475976177e-16 L -31.999999999999993 3.2951419370874646e-15 Z " stroke="#191919" stroke-width="0.7 px" style="stroke-width:0.7;stroke-miterlimit:4;stroke-dasharray:none;stroke-linecap:square;fill:#b610eb;fill-opacity:1.0;fill-rule: evenodd"/>
<path id="Body008_f0001"  d="M -45.012795 7.785766475976178e-16 L -45.012795 1.3020640121652652e-16 Q -47.99703800000001 -2.681312283314697e-15 -48.00000000000001 5.000000000000003 L -48.0 5.000000000000002 Q -47.99703800000001 -2.0329420369336045e-15 -45.01279500000001 -1.03898945003067e-15 Z " stroke="#191919" stroke-width="0.7 px" style="stroke-width:0.7;stroke-miterlimit:4;stroke-dasharray:none;stroke-linecap:square;fill:#b610eb;fill-opacity:1.0;fill-rule: evenodd"/>
<path id="Body008_f0002"  d="M -48.0 5.000000000000002 L -48.0 5.000000000000001 L -47.999999999999986 45.00000000000001 L -47.999999999999986 45.00000000000001 L -48.00000000000001 5.000000000000003 Z " stroke="#191919" stroke-width="0.7 px" style="stroke-width:0.7;stroke-miterlimit:4;stroke-dasharray:none;stroke-linecap:square;fill:#b610eb;fill-opacity:1.0;fill-rule: evenodd"/>
<path id="Body008_f0003"  d="M -47.999999999999986 45.00000000000001 L -47.999999999999986 45.00000000000001 L -29.999999999999982 45.00000000000001 L -29.99999999999998 45.00000000000001 L -47.99999999999997 45.00000000000005 Z " stroke="#191919" stroke-width="0.7 px" style="stroke-width:0.7;stroke-miterlimit:4;stroke-dasharray:none;stroke-linecap:square;fill:#b610eb;fill-opacity:1.0;fill-rule: evenodd"/>
<path id="Body008_f0004"  d="M -29.999999999999982 45.00000000000001 L -29.999999999999982 45.00000000000001 L -29.999999999999982 41.00000000000001 L -29.999999999999982 41.00000000000001 L -29.999999999999957 45.00000000000005 Z " stroke="#191919" stroke-width="0.7 px" style="stroke-width:0.7;stroke-miterlimit:4;stroke-dasharray:none;stroke-linecap:square;fill:#b610eb;fill-opacity:1.0;fill-rule: evenodd"/>
<path id="Body008_f0005"  d="M -29.999999999999957 41.00000000000005 Q -29.99999999999996 39.000000000000036 -31.99999999999996 39.000000000000036 L -31.999999999999982 39.00000000000001 Q -29.999999999999964 39.000000000000036 -29.999999999999957 41.00000000000005 L -29.999999999999982 41.00000000000001 Z " stroke="#191919" stroke-width="0.7 px" style="stroke-width:0.7;stroke-miterlimit:4;stroke-dasharray:none;stroke-linecap:square;fill:#b610eb;fill-opacity:1.0;fill-rule: evenodd"/>
<path id="Body008_f0006"  d="M -31.999999999999982 39.00000000000001 L -31.999999999999982 39.00000000000001 L -31.999999999999993 11.500000000000004 L -31.999999999999993 11.500000000000002 L -31.99999999999996 39.000000000000036 Z " stroke="#191919" stroke-width="0.7 px" style="stroke-width:0.7;stroke-miterlimit:4;stroke-dasharray:none;stroke-linecap:square;fill:#b610eb;fill-opacity:1.0;fill-rule: evenodd"/>
<path id="Body008_f0007"  d="M -31.999999999999986 11.500000000000016 Q -29.999999999999986 11.500000000000016 -29.999999999999986 6.500000000000011 L -29.999999999999993 6.5 Q -29.99999999999998 11.500000000000014 -31.999999999999986 11.500000000000014 L -31.999999999999993 11.500000000000002 Z " stroke="#191919" stroke-width="0.7 px" style="stroke-width:0.7;stroke-miterlimit:4;stroke-dasharray:none;stroke-linecap:square;fill:#b610eb;fill-opacity:1.0;fill-rule: evenodd"/>
<path id="Body008_f0008"  d="M -29.999999999999993 6.500000000000001 L -29.999999999999993 6.5 L -29.999999999999996 2.499999999999999 L -29.999999999999996 2.4999999999999996 L -29.999999999999986 6.500000000000011 Z " stroke="#191919" stroke-width="0.7 px" style="stroke-width:0.7;stroke-miterlimit:4;stroke-dasharray:none;stroke-linecap:square;fill:#b610eb;fill-opacity:1.0;fill-rule: evenodd"/>
<path id="Body008_f0009"  d="M -29.999999999999993 2.5000000000000067 Q -30.000869999999992 3.960985983653132e-15 -31.999999999999993 3.2951419370874646e-15 L -31.999999999999996 -1.3145040611561855e-15 Q -30.000869999999992 3.312615737272039e-15 -29.999999999999986 2.5000000000000058 L -29.999999999999996 2.4999999999999996 Z " stroke="#191919" stroke-width="0.7 px" style="stroke-width:0.7;stroke-miterlimit:4;stroke-dasharray:none;stroke-linecap:square;fill:#b610eb;fill-opacity:1.0;fill-rule: evenodd"/>
<path id="Body008_f0010"  d="M -31.999999999999996 -6.661338147750941e-16 L -45.012795 7.785766475976178e-16 Q -47.99703800000001 -2.0329420369336045e-15 -48.00000000000001 5.000000000000003 L -47.999999999999986 45.00000000000001 L -29.999999999999982 45.00000000000001 L -29.999999999999982 41.00000000000001 Q -29.99999999999996 39.000000000000036 -31.99999999999996 39.000000000000036 L -31.999999999999993 11.500000000000002 Q -29.999999999999986 11.500000000000016 -29.999999999999986 6.500000000000011 L -29.999999999999996 2.4999999999999996 Q -30.000869999999992 3.960985983653132e-15 -31.999999999999993 3.2951419370874646e-15 Z " stroke="#191919" stroke-width="0.7 px" style="stroke-width:0.7;stroke-miterlimit:4;stroke-dasharray:none;stroke-linecap:square;fill:#b610eb;fill-opacity:1.0;fill-rule: evenodd"/>
<path id="Body008_f0011"  d="M -31.999999999999996 -1.3145040611561855e-15 Q -30.000869999999992 3.312615737272039e-15 -29.999999999999986 2.5000000000000058 L -29.999999999999986 6.500000000000011 Q -29.99999999999998 11.500000000000014 -31.999999999999986 11.500000000000014 L -31.999999999999964 39.000000000000036 Q -29.999999999999964 39.000000000000036 -29.999999999999957 41.00000000000005 L -29.999999999999957 45.00000000000005 L -47.99999999999997 45.00000000000005 L -48.00000000000001 5.000000000000003 Q -47.99703800000001 -2.681312283314697e-15 -45.01279500000001 -1.687359696411762e-15 L -31.999999999999993 2.6467716907063724e-15 Z " stroke="#191919" stroke-width="0.7 px" style="stroke-width:0.7;stroke-miterlimit:4;stroke-dasharray:none;stroke-linecap:square;fill:#b610eb;fill-opacity:1.0;fill-rule: evenodd"/>
<title>b'right-side-smooth-flat'</title>
</g>
</svg>