<?xml version="1.0"?>
<!DOCTYPE svg PUBLIC "-//W3C//DTD SVG 1.1//EN" "http://www.w3.org/Graphics/SVG/1.1/DTD/svg11.dtd">
<svg width="73.22151791210928mm" height="57.22671939195964mm" viewBox="0 0 73.22151791210928 57.22671939195964" xmlns="http://www.w3.org/2000/svg" version="1.1">
<g id="Body011" transform="translate(6.474135,107.508861) scale(1,-1)">
<path id="Body011_f0000"  d="M 66.0085 50.999999999999986 L -5.671490000000001 50.999999999999986 L -5.671490000000002 50.999999999999986 L 66.00850000000001 50.999999999999986 L 66.00850000000001 50.999999999999986 Z " stroke="#191919" stroke-width="0.7 px" style="stroke-width:0.7;stroke-miterlimit:4;stroke-dasharray:none;stroke-linecap:square;fill:#e287af;fill-opacity:1.0;fill-rule: evenodd"/>
<path id="Body011_f0001"  d="M -5.671490000000001 51.0 L -5.671490000000001 71.0 L -5.671490000000002 70.99999999999999 L -5.671490000000002 50.999999999999986 L -5.671490000000001 50.999999999999986 Z " stroke="#191919" stroke-width="0.7 px" style="stroke-width:0.7;stroke-miterlimit:4;stroke-dasharray:none;stroke-linecap:square;fill:#e287af;fill-opacity:1.0;fill-rule: evenodd"/>
<path id="Body011_f0002"  d="M 66.00850000000001 70.99999999999999 L 66.00850000000001 50.999999999999986 L 66.00850000000001 50.999999999999986 L 66.00850000000001 70.99999999999999 L 66.00850000000001 71.0 Z " stroke="#191919" stroke-width="0.7 px" style="stroke-width:0.7;stroke-miterlimit:4;stroke-dasharray:none;stroke-linecap:square;fill:#e287af;fill-opacity:1.0;fill-rule: evenodd"/>
<path id="Body011_f0003"  d="M 66.00850000000001 71.0 C 66.55295332152038 83.63889765375235 62.43373138934628 86.53235580704509 59.8586611452411 89.51586229013766 C 57.283590901135916 92.49936877323023 56.252672345099654 95.57292358612263 54.36880002831272 97.57346284996117 C 52.48492771152577 99.57400211379971 49.748101633988156 100.50152582858438 47.21113218296206 102.09229003696409 C 44.67416273193598 103.68305424534381 42.33704990742142 105.93705894731858 39.47152031358857 106.58491402801792 C 36.60599071975571 107.23276910871725 33.212044356604565 106.27447456814116 29.87872150945342 106.25720779325894 C 26.54539866230229 106.23994101837674 23.272699331151145 107.16370200918837 20.430473195934724 106.53586263135395 C 17.588247060718302 105.90802325351952 15.176494121436598 103.72858350703902 12.64785907217888 102.16760997707861 C 10.119224022921163 100.6066364471182 7.473706863687431 99.66412913367792 5.838932841285848 97.42435595785183 C 4.204158818884265 95.18458278202574 3.5801279333148304 91.64754374381386 0.8881046458433997 88.37128616050892 C -1.803918641628031 85.09502857720398 -6.563934331001458 82.07955244880596 -5.671490000000001 71.0 L -5.671490000000002 50.999999999999986 L 66.00850000000001 50.999999999999986 L 66.00850000000001 70.99999999999999 Z M 12.0 56.999999999999986 L 6.0 56.999999999999986 L 6.0 54.079999999999984 L 12.0 54.079999999999984 L 12.0 56.999999999999986 Z M 0.0 58.999999999999986 L -2.92 58.999999999999986 L -2.92 52.999999999999986 L 0.0 52.999999999999986 L 0.0 58.999999999999986 Z M 33.0 56.999999999999986 L 27.0 56.999999999999986 L 27.0 54.079999999999984 L 33.0 54.079999999999984 L 33.0 56.999999999999986 Z M 54.0 56.999999999999986 L 48.0 56.999999999999986 L 48.0 54.079999999999984 L 54.0 54.079999999999984 L 54.0 56.999999999999986 Z M 62.92 58.999999999999986 L 60.0 58.999999999999986 L 60.0 52.999999999999986 L 62.92 52.999999999999986 L 62.92 58.999999999999986 Z " stroke="#191919" stroke-width="0.7 px" style="stroke-width:0.7;stroke-miterlimit:4;stroke-dasharray:none;stroke-linecap:square;fill:#e287af;fill-opacity:1.0;fill-rule: evenodd"/>
<path id="Body011_f0004"  d="M 66.0085 50.99999999999999 L -5.671490000000001 50.99999999999999 L -5.671490000000001 71.0 C -6.563934331001458 82.07955244880596 -1.803918641628031 85.09502857720398 0.8881046458433999 88.37128616050892 C 3.580127933314831 91.64754374381386 4.204158818884265 95.18458278202573 5.838932841285848 97.42435595785182 C 7.473706863687433 99.66412913367792 10.119224022921163 100.6066364471182 12.647859072178878 102.16760997707861 C 15.176494121436598 103.72858350703902 17.588247060718302 105.90802325351952 20.430473195934724 106.53586263135395 C 23.27269933115115 107.16370200918837 26.54539866230229 106.23994101837673 29.87872150945343 106.25720779325894 C 33.21204435660457 106.27447456814116 36.60599071975571 107.23276910871724 39.47152031358856 106.5849140280179 C 42.33704990742142 105.93705894731858 44.67416273193598 103.68305424534381 47.21113218296207 102.0922900369641 C 49.748101633988156 100.50152582858439 52.48492771152576 99.57400211379971 54.368800028312705 97.57346284996116 C 56.252672345099654 95.57292358612263 57.28359090113592 92.49936877323023 59.8586611452411 89.51586229013766 C 62.43373138934628 86.53235580704509 66.55295332152038 83.63889765375235 66.00850000000001 71.0 L 66.00850000000001 50.99999999999999 Z M 6.0 54.079999999999984 L 12.0 54.079999999999984 L 12.0 56.999999999999986 L 6.0 56.999999999999986 L 6.0 54.079999999999984 Z M -2.92 52.999999999999986 L 0.0 52.999999999999986 L 0.0 58.999999999999986 L -2.92 58.999999999999986 L -2.92 52.999999999999986 Z M 27.0 54.079999999999984 L 33.0 54.079999999999984 L 33.0 56.999999999999986 L 27.0 56.999999999999986 L 27.0 54.079999999999984 Z M 48.0 54.079999999999984 L 54.0 54.079999999999984 L 54.0 56.999999999999986 L 48.0 56.999999999999986 L 48.0 54.079999999999984 Z M 60.0 52.999999999999986 L 62.92 52.999999999999986 L 62.92 58.999999999999986 L 60.0 58.999999999999986 L 60.0 52.999999999999986 Z " stroke="#191919" stroke-width="0.7 px" style="stroke-width:0.7;stroke-miterlimit:4;stroke-dasharray:none;stroke-linecap:square;fill:#e287af;fill-opacity:1.0;fill-rule: evenodd"/>
<path id="Body011_f0005"  d="M -5.671490000000002 70.99999999999999 L -5.671490000000002 70.99999999999999 C -6.563934331001458 82.07955244880596 -1.803918641628031 85.09502857720398 0.8881046458433999 88.37128616050892 C 3.580127933314831 91.64754374381386 4.204158818884265 95.18458278202573 5.838932841285848 97.42435595785182 C 7.473706863687433 99.66412913367792 10.119224022921163 100.6066364471182 12.647859072178878 102.16760997707861 C 15.176494121436598 103.72858350703902 17.588247060718302 105.90802325351952 20.430473195934724 106.53586263135395 C 23.27269933115115 107.16370200918837 26.54539866230229 106.23994101837673 29.87872150945343 106.25720779325894 C 33.21204435660457 106.27447456814116 36.60599071975571 107.23276910871724 39.47152031358856 106.5849140280179 C 42.33704990742142 105.93705894731858 44.67416273193598 103.68305424534381 47.21113218296207 102.0922900369641 C 49.748101633988156 100.50152582858439 52.48492771152576 99.57400211379971 54.368800028312705 97.57346284996116 C 56.252672345099654 95.57292358612263 57.28359090113592 92.49936877323023 59.8586611452411 89.51586229013766 C 62.43373138934628 86.53235580704509 66.55295332152038 83.63889765375235 66.00850000000001 71.0 L 66.00850000000001 71.0 C 66.55295332152038 83.63889765375235 62.43373138934628 86.53235580704509 59.8586611452411 89.51586229013766 C 57.283590901135916 92.49936877323023 56.252672345099654 95.57292358612263 54.36880002831272 97.57346284996117 C 52.48492771152577 99.57400211379971 49.748101633988156 100.50152582858438 47.21113218296206 102.09229003696409 C 44.67416273193598 103.68305424534381 42.33704990742142 105.93705894731858 39.47152031358857 106.58491402801792 C 36.60599071975571 107.23276910871725 33.212044356604565 106.27447456814116 29.87872150945342 106.25720779325894 C 26.54539866230229 106.23994101837674 23.272699331151145 107.16370200918837 20.430473195934724 106.53586263135395 C 17.588247060718302 105.90802325351952 15.176494121436598 103.72858350703902 12.64785907217888 102.16760997707861 C 10.119224022921163 100.6066364471182 7.473706863687431 99.66412913367792 5.838932841285848 97.42435595785183 C 4.204158818884265 95.18458278202574 3.5801279333148304 91.64754374381386 0.8881046458433997 88.37128616050892 C -1.803918641628031 85.09502857720398 -6.563934331001458 82.07955244880596 -5.671490000000001 71.0 Z " stroke="#191919" stroke-width="0.7 px" style="stroke-width:0.7;stroke-miterlimit:4;stroke-dasharray:none;stroke-linecap:square;fill:#e287af;fill-opacity:1.0;fill-rule: evenodd"/>
<path id="Body011_f0006"  d="M 6.0 56.99999999999999 L 6.0 56.99999999999999 L 6.0 54.079999999999984 L 6.0 54.079999999999984 L 6.0 56.999999999999986 Z " stroke="#191919" stroke-width="0.7 px" style="stroke-width:0.7;stroke-miterlimit:4;stroke-dasharray:none;stroke-linecap:square;fill:#e287af;fill-opacity:1.0;fill-rule: evenodd"/>
<path id="Body011_f0007"  d="M 12.0 56.99999999999999 L 12.0 56.99999999999999 L 6.0 56.999999999999986 L 6.0 56.999999999999986 L 12.0 56.999999999999986 Z " stroke="#191919" stroke-width="0.7 px" style="stroke-width:0.7;stroke-miterlimit:4;stroke-dasharray:none;stroke-linecap:square;fill:#e287af;fill-opacity:1.0;fill-rule: evenodd"/>
<path id="Body011_f0008"  d="M 12.0 54.07999999999999 L 12.0 54.07999999999999 L 12.0 56.999999999999986 L 12.0 56.999999999999986 L 12.0 54.079999999999984 Z " stroke="#191919" stroke-width="0.7 px" style="stroke-width:0.7;stroke-miterlimit:4;stroke-dasharray:none;stroke-linecap:square;fill:#e287af;fill-opacity:1.0;fill-rule: evenodd"/>
<path id="Body011_f0009"  d="M 6.0 54.07999999999999 L 6.0 54.07999999999999 L 12.0 54.079999999999984 L 12.0 54.079999999999984 L 6.0 54.079999999999984 Z " stroke="#191919" stroke-width="0.7 px" style="stroke-width:0.7;stroke-miterlimit:4;stroke-dasharray:none;stroke-linecap:square;fill:#e287af;fill-opacity:1.0;fill-rule: evenodd"/>
<path id="Body011_f0010"  d="M -2.92 58.999999999999986 L -2.92 58.999999999999986 L -2.92 52.999999999999986 L -2.92 52.999999999999986 L -2.92 58.999999999999986 Z " stroke="#191919" stroke-width="0.7 px" style="stroke-width:0.7;stroke-miterlimit:4;stroke-dasharray:none;stroke-linecap:square;fill:#e287af;fill-opacity:1.0;fill-rule: evenodd"/>
<path id="Body011_f0011"  d="M 0.0 58.999999999999986 L 0.0 58.999999999999986 L -2.92 58.999999999999986 L -2.92 58.999999999999986 L 0.0 58.999999999999986 Z " stroke="#191919" stroke-width="0.7 px" style="stroke-width:0.7;stroke-miterlimit:4;stroke-dasharray:none;stroke-linecap:square;fill:#e287af;fill-opacity:1.0;fill-rule: evenodd"/>
<path id="Body011_f0012"  d="M 0.0 52.999999999999986 L 0.0 52.999999999999986 L 0.0 58.999999999999986 L 0.0 58.999999999999986 L 0.0 52.999999999999986 Z " stroke="#191919" stroke-width="0.7 px" style="stroke-width:0.7;stroke-miterlimit:4;stroke-dasharray:none;stroke-linecap:square;fill:#e287af;fill-opacity:1.0;fill-rule: evenodd"/>
<path id="Body011_f0013"  d="M -2.92 52.999999999999986 L -2.92 52.999999999999986 L 0.0 52.999999999999986 L 0.0 52.999999999999986 L -2.92 52.999999999999986 Z " stroke="#191919" stroke-width="0.7 px" style="stroke-width:0.7;stroke-miterlimit:4;stroke-dasharray:none;stroke-linecap:square;fill:#e287af;fill-opacity:1.0;fill-rule: evenodd"/>
<path id="Body011_f0014"  d="M 27.0 56.99999999999999 L 27.0 56.99999999999999 L 27.0 54.079999999999984 L 27.0 54.079999999999984 L 27.0 56.999999999999986 Z " stroke="#191919" stroke-width="0.7 px" style="stroke-width:0.7;stroke-miterlimit:4;stroke-dasharray:none;stroke-linecap:square;fill:#e287af;fill-opacity:1.0;fill-rule: evenodd"/>
<path id="Body011_f0015"  d="M 33.0 56.99999999999999 L 33.0 56.99999999999999 L 27.0 56.999999999999986 L 27.0 56.999999999999986 L 33.0 56.999999999999986 Z " stroke="#191919" stroke-width="0.7 px" style="stroke-width:0.7;stroke-miterlimit:4;stroke-dasharray:none;stroke-linecap:square;fill:#e287af;fill-opacity:1.0;fill-rule: evenodd"/>
<path id="Body011_f0016"  d="M 33.0 54.07999999999999 L 33.0 54.07999999999999 L 33.0 56.999999999999986 L 33.0 56.999999999999986 L 33.0 54.079999999999984 Z " stroke="#191919" stroke-width="0.7 px" style="stroke-width:0.7;stroke-miterlimit:4;stroke-dasharray:none;stroke-linecap:square;fill:#e287af;fill-opacity:1.0;fill-rule: evenodd"/>
<path id="Body011_f0017"  d="M 27.0 54.07999999999999 L 27.0 54.07999999999999 L 33.0 54.079999999999984 L 33.0 54.079999999999984 L 27.0 54.079999999999984 Z " stroke="#191919" stroke-width="0.7 px" style="stroke-width:0.7;stroke-miterlimit:4;stroke-dasharray:none;stroke-linecap:square;fill:#e287af;fill-opacity:1.0;fill-rule: evenodd"/>
<path id="Body011_f0018"  d="M 48.0 56.99999999999999 L 48.0 56.99999999999999 L 48.0 54.079999999999984 L 48.0 54.079999999999984 L 48.0 56.999999999999986 Z " stroke="#191919" stroke-width="0.7 px" style="stroke-width:0.7;stroke-miterlimit:4;stroke-dasharray:none;stroke-linecap:square;fill:#e287af;fill-opacity:1.0;fill-rule: evenodd"/>
<path id="Body011_f0019"  d="M 54.0 56.99999999999999 L 54.0 56.99999999999999 L 48.0 56.999999999999986 L 48.0 56.999999999999986 L 54.0 56.999999999999986 Z " stroke="#191919" stroke-width="0.7 px" style="stroke-width:0.7;stroke-miterlimit:4;stroke-dasharray:none;stroke-linecap:square;fill:#e287af;fill-opacity:1.0;fill-rule: evenodd"/>
<path id="Body011_f0020"  d="M 54.0 54.07999999999999 L 54.0 54.07999999999999 L 54.0 56.999999999999986 L 54.0 56.999999999999986 L 54.0 54.079999999999984 Z " stroke="#191919" stroke-width="0.7 px" style="stroke-width:0.7;stroke-miterlimit:4;stroke-dasharray:none;stroke-linecap:square;fill:#e287af;fill-opacity:1.0;fill-rule: evenodd"/>
<path id="Body011_f0021"  d="M 48.0 54.07999999999999 L 48.0 54.07999999999999 L 54.0 54.079999999999984 L 54.0 54.079999999999984 L 48.0 54.079999999999984 Z " stroke="#191919" stroke-width="0.7 px" style="stroke-width:0.7;stroke-miterlimit:4;stroke-dasharray:none;stroke-linecap:square;fill:#e287af;fill-opacity:1.0;fill-rule: evenodd"/>
<path id="Body011_f0022"  d="M 60.0 58.999999999999986 L 60.0 58.999999999999986 L 60.0 52.999999999999986 L 60.0 52.999999999999986 L 60.0 58.999999999999986 Z " stroke="#191919" stroke-width="0.7 px" style="stroke-width:0.7;stroke-miterlimit:4;stroke-dasharray:none;stroke-linecap:square;fill:#e287af;fill-opacity:1.0;fill-rule: evenodd"/>
<path id="Body011_f0023"  d="M 62.92 58.999999999999986 L 62.92 58.999999999999986 L 60.0 58.999999999999986 L 60.0 58.999999999999986 L 62.92 58.999999999999986 Z " stroke="#191919" stroke-width="0.7 px" style="stroke-width:0.7;stroke-miterlimit:4;stroke-dasharray:none;stroke-linecap:square;fill:#e287af;fill-opacity:1.0;fill-rule: evenodd"/>
<path id="Body011_f0024"  d="M 62.92 52.999999999999986 L 62.92 52.999999999999986 L 62.92 58.999999999999986 L 62.92 58.999999999999986 L 62.92 52.999999999999986 Z " stroke="#191919" stroke-width="0.7 px" style="stroke-width:0.7;stroke-miterlimit:4;stroke-dasharray:none;stroke-linecap:square;fill:#e287af;fill-opacity:1.0;fill-rule: evenodd"/>
<path id="Body011_f0025"  d="M 60.0 52.999999999999986 L 60.0 52.999999999999986 L 62.92 52.999999999999986 L 62.92 52.999999999999986 L 60.0 52.999999999999986 Z " stroke="#191919" stroke-width="0.7 px" style="stroke-width:0.7;stroke-miterlimit:4;stroke-dasharray:none;stroke-linecap:square;fill:#e287af;fill-opacity:1.0;fill-rule: evenodd"/>
<title>b'back-flat'</title>
</g>
</svg>