<?xml version="1.0"?>
<!DOCTYPE svg PUBLIC "-//W3C//DTD SVG 1.1//EN" "http://www.w3.org/Graphics/SVG/1.1/DTD/svg11.dtd">
<svg width="2.978400000000013mm" height="48.058400000000034mm" viewBox="0 0 2.978400000000013 48.058400000000034" xmlns="http://www.w3.org/2000/svg" version="1.1">
<g id="Pocket" transform="translate(0.029200,48.029200) scale(1,-1)">
<path id="Pocket_f0000"  d="M 3.996802888650565e-15 -1.332267629550189e-15 L 2.9200000000000044 -2.6290081223123714e-15 L 2.9199999999999955 2.6041280243305383e-16 L -4.671459885585706e-15 1.5571532951952366e-15 L 3.996802888650565e-15 -1.332267629550189e-15 Z " stroke="#191919" stroke-width="0.7 px" style="stroke-width:0.7;stroke-miterlimit:4;stroke-dasharray:none;stroke-linecap:square;fill:#492fba;fill-opacity:1.0;fill-rule: evenodd"/>
<path id="Pocket_f0001"  d="M 5.329070518200754e-15 2.499999999999999 Q 5.3284909817818985e-15 -1.7761636605939673e-15 3.996802888650565e-15 -1.332267629550189e-15 L 2.9200000000000044 -2.6290081223123714e-15 Q 2.9200000000000057 -3.07290415335615e-15 2.9200000000000057 2.499999999999998 L 5.329070518200753e-15 2.499999999999999 Z " stroke="#191919" stroke-width="0.7 px" style="stroke-width:0.7;stroke-miterlimit:4;stroke-dasharray:none;stroke-linecap:square;fill:#492fba;fill-opacity:1.0;fill-rule: evenodd"/>
<path id="Pocket_f0002"  d="M -4.671459885585707e-15 1.5571532951952364e-15 L 2.9199999999999955 2.6041280243305383e-16 Q 2.9199999999999937 9.230478603683445e-16 2.9199999999999937 5.0000000000000036 L -6.661338147750939e-15 5.000000000000004 Q -6.659365059391577e-15 2.219788353130527e-15 -4.6714598855857075e-15 1.5571532951952366e-15 Z " stroke="#191919" stroke-width="0.7 px" style="stroke-width:0.7;stroke-miterlimit:4;stroke-dasharray:none;stroke-linecap:square;fill:#492fba;fill-opacity:1.0;fill-rule: evenodd"/>
<path id="Pocket_f0003"  d="M 2.6645352591003836e-15 45.00000000000002 L 5.32907051820076e-15 45.00000000000002 L 5.329070518200759e-15 41.00000000000002 Q 5.329070518200759e-15 39.000000000000014 3.9968028886505714e-15 39.000000000000014 L 3.996802888650567e-15 11.500000000000004 Q 5.3290705182007545e-15 11.500000000000004 5.329070518200754e-15 6.500000000000001 L 5.329070518200754e-15 2.499999999999999 Q 5.3284909817818985e-15 -1.7761636605939673e-15 3.996802888650565e-15 -1.332267629550189e-15 L -4.671459885585707e-15 1.5571532951952364e-15 Q -6.659365059391577e-15 2.219788353130527e-15 -6.66133814775094e-15 5.000000000000004 L -6.661338147750934e-15 45.00000000000002 L -1.332267629550181e-15 45.00000000000002 L -1.3322676295501806e-15 48.00000000000002 L 2.6645352591003844e-15 48.00000000000002 L 2.6645352591003836e-15 45.00000000000002 Z M -5.650506170260091e-15 33.00000000000001 L -4.677950800688454e-15 33.00000000000001 L -4.677950800688454e-15 39.00000000000001 L -5.650506170260091e-15 39.00000000000001 L -5.650506170260091e-15 33.00000000000001 Z M -5.650506170260092e-15 12.000000000000004 L -5.650506170260092e-15 6.000000000000002 L -4.677950800688455e-15 6.000000000000002 L -4.677950800688455e-15 12.000000000000004 L -5.650506170260092e-15 12.000000000000004 Z " stroke="#191919" stroke-width="0.7 px" style="stroke-width:0.7;stroke-miterlimit:4;stroke-dasharray:none;stroke-linecap:square;fill:#492fba;fill-opacity:1.0;fill-rule: evenodd"/>
<path id="Pocket_f0004"  d="M 2.9199999999999937 5.0000000000000036 L 2.9199999999999937 45.00000000000002 L 2.919999999999999 45.00000000000002 L 2.919999999999999 48.00000000000002 L 2.920000000000003 48.00000000000002 L 2.920000000000003 45.00000000000002 L 2.9200000000000057 45.00000000000002 L 2.9200000000000057 41.00000000000002 Q 2.9200000000000057 39.000000000000014 2.9200000000000044 39.000000000000014 L 2.9200000000000044 11.500000000000002 Q 2.9200000000000057 11.500000000000002 2.9200000000000057 6.5 L 2.9200000000000057 2.499999999999998 Q 2.9200000000000057 -3.07290415335615e-15 2.9200000000000044 -2.6290081223123714e-15 L 2.9199999999999955 2.6041280243305383e-16 Q 2.9199999999999937 9.230478603683445e-16 2.9199999999999937 5.0000000000000036 Z M 2.9200000000000026 39.00000000000001 L 2.9200000000000026 33.00000000000001 L 2.9200000000000004 33.00000000000001 L 2.9200000000000004 39.00000000000001 L 2.9200000000000026 39.00000000000001 Z M 2.919999999999993 6.000000000000001 L 2.919999999999992 6.000000000000001 L 2.9199999999999946 12.000000000000004 L 2.9199999999999955 12.000000000000004 L 2.919999999999993 6.000000000000001 Z " stroke="#191919" stroke-width="0.7 px" style="stroke-width:0.7;stroke-miterlimit:4;stroke-dasharray:none;stroke-linecap:square;fill:#492fba;fill-opacity:1.0;fill-rule: evenodd"/>
<path id="Pocket_f0005"  d="M 5.329070518200754e-15 6.500000000000001 L 2.9200000000000057 6.5 L 2.9200000000000057 2.499999999999998 L 5.329070518200753e-15 2.499999999999999 L 5.329070518200754e-15 6.500000000000001 Z " stroke="#191919" stroke-width="0.7 px" style="stroke-width:0.7;stroke-miterlimit:4;stroke-dasharray:none;stroke-linecap:square;fill:#492fba;fill-opacity:1.0;fill-rule: evenodd"/>
<path id="Pocket_f0006"  d="M -6.66133814775094e-15 5.000000000000004 L 2.9199999999999937 5.0000000000000036 L 2.9199999999999937 45.00000000000002 L -6.661338147750933e-15 45.000000000000014 L -6.66133814775094e-15 5.000000000000004 Z " stroke="#191919" stroke-width="0.7 px" style="stroke-width:0.7;stroke-miterlimit:4;stroke-dasharray:none;stroke-linecap:square;fill:#492fba;fill-opacity:1.0;fill-rule: evenodd"/>
<path id="Pocket_f0007"  d="M 3.996802888650567e-15 11.500000000000004 Q 5.3290705182007545e-15 11.500000000000004 5.329070518200754e-15 6.500000000000001 L 2.9200000000000057 6.5 Q 2.9200000000000057 11.500000000000002 2.9200000000000044 11.500000000000002 L 3.996802888650567e-15 11.500000000000002 Z " stroke="#191919" stroke-width="0.7 px" style="stroke-width:0.7;stroke-miterlimit:4;stroke-dasharray:none;stroke-linecap:square;fill:#492fba;fill-opacity:1.0;fill-rule: evenodd"/>
<path id="Pocket_f0008"  d="M -6.661338147750934e-15 45.00000000000002 L 2.9199999999999937 45.00000000000002 L 2.919999999999999 45.00000000000002 L -1.332267629550181e-15 45.000000000000014 L -6.661338147750934e-15 45.00000000000002 Z " stroke="#191919" stroke-width="0.7 px" style="stroke-width:0.7;stroke-miterlimit:4;stroke-dasharray:none;stroke-linecap:square;fill:#492fba;fill-opacity:1.0;fill-rule: evenodd"/>
<path id="Pocket_f0009"  d="M 3.9968028886505714e-15 39.000000000000014 L 2.9200000000000044 39.000000000000014 L 2.9200000000000044 11.500000000000002 L 3.996802888650567e-15 11.500000000000002 L 3.9968028886505714e-15 39.000000000000014 Z " stroke="#191919" stroke-width="0.7 px" style="stroke-width:0.7;stroke-miterlimit:4;stroke-dasharray:none;stroke-linecap:square;fill:#492fba;fill-opacity:1.0;fill-rule: evenodd"/>
<path id="Pocket_f0010"  d="M -1.332267629550181e-15 45.00000000000002 L 2.919999999999999 45.00000000000002 L 2.919999999999999 48.00000000000002 L -1.3322676295501804e-15 48.00000000000003 L -1.332267629550181e-15 45.00000000000002 Z " stroke="#191919" stroke-width="0.7 px" style="stroke-width:0.7;stroke-miterlimit:4;stroke-dasharray:none;stroke-linecap:square;fill:#492fba;fill-opacity:1.0;fill-rule: evenodd"/>
<path id="Pocket_f0011"  d="M 5.329070518200759e-15 41.00000000000002 Q 5.329070518200759e-15 39.000000000000014 3.9968028886505714e-15 39.000000000000014 L 2.9200000000000044 39.000000000000014 Q 2.9200000000000057 39.000000000000014 2.9200000000000057 41.00000000000002 L 5.329070518200759e-15 41.000000000000014 Z " stroke="#191919" stroke-width="0.7 px" style="stroke-width:0.7;stroke-miterlimit:4;stroke-dasharray:none;stroke-linecap:square;fill:#492fba;fill-opacity:1.0;fill-rule: evenodd"/>
<path id="Pocket_f0012"  d="M -1.3322676295501806e-15 48.00000000000002 L 2.919999999999999 48.00000000000002 L 2.920000000000003 48.00000000000002 L 2.6645352591003844e-15 48.00000000000003 L -1.3322676295501806e-15 48.00000000000002 Z " stroke="#191919" stroke-width="0.7 px" style="stroke-width:0.7;stroke-miterlimit:4;stroke-dasharray:none;stroke-linecap:square;fill:#492fba;fill-opacity:1.0;fill-rule: evenodd"/>
<path id="Pocket_f0013"  d="M 5.32907051820076e-15 45.00000000000002 L 2.9200000000000057 45.00000000000002 L 2.9200000000000057 41.00000000000002 L 5.329070518200759e-15 41.000000000000014 L 5.32907051820076e-15 45.00000000000002 Z " stroke="#191919" stroke-width="0.7 px" style="stroke-width:0.7;stroke-miterlimit:4;stroke-dasharray:none;stroke-linecap:square;fill:#492fba;fill-opacity:1.0;fill-rule: evenodd"/>
<path id="Pocket_f0014"  d="M 2.6645352591003844e-15 48.00000000000002 L 2.920000000000003 48.00000000000002 L 2.920000000000003 45.00000000000002 L 2.6645352591003836e-15 45.000000000000014 L 2.6645352591003844e-15 48.00000000000002 Z " stroke="#191919" stroke-width="0.7 px" style="stroke-width:0.7;stroke-miterlimit:4;stroke-dasharray:none;stroke-linecap:square;fill:#492fba;fill-opacity:1.0;fill-rule: evenodd"/>
<path id="Pocket_f0015"  d="M 2.6645352591003836e-15 45.00000000000002 L 2.920000000000003 45.00000000000002 L 2.9200000000000057 45.00000000000002 L 5.329070518200761e-15 45.000000000000014 L 2.6645352591003836e-15 45.00000000000002 Z " stroke="#191919" stroke-width="0.7 px" style="stroke-width:0.7;stroke-miterlimit:4;stroke-dasharray:none;stroke-linecap:square;fill:#492fba;fill-opacity:1.0;fill-rule: evenodd"/>
<path id="Pocket_f0016"  d="M 2.920000000000002 33.00000000000001 L -4.677950800688454e-15 33.00000000000001 L -4.677950800688453e-15 39.00000000000001 L 2.9200000000000026 39.00000000000001 L 2.9200000000000044 33.00000000000001 Z " stroke="#191919" stroke-width="0.7 px" style="stroke-width:0.7;stroke-miterlimit:4;stroke-dasharray:none;stroke-linecap:square;fill:#492fba;fill-opacity:1.0;fill-rule: evenodd"/>
<path id="Pocket_f0017"  d="M 2.920000000000002 39.00000000000001 L -4.677950800688454e-15 39.00000000000001 L -5.650506170260091e-15 39.00000000000001 L 2.9200000000000004 39.00000000000001 L 2.9200000000000075 39.00000000000001 Z " stroke="#191919" stroke-width="0.7 px" style="stroke-width:0.7;stroke-miterlimit:4;stroke-dasharray:none;stroke-linecap:square;fill:#492fba;fill-opacity:1.0;fill-rule: evenodd"/>
<path id="Pocket_f0018"  d="M 2.9200000000000004 39.00000000000001 L -5.650506170260091e-15 39.00000000000001 L -5.650506170260091e-15 33.00000000000001 L 2.9200000000000004 33.00000000000001 L 2.920000000000006 39.00000000000001 Z " stroke="#191919" stroke-width="0.7 px" style="stroke-width:0.7;stroke-miterlimit:4;stroke-dasharray:none;stroke-linecap:square;fill:#492fba;fill-opacity:1.0;fill-rule: evenodd"/>
<path id="Pocket_f0019"  d="M 2.9200000000000004 33.00000000000001 L -5.650506170260091e-15 33.00000000000001 L -4.677950800688454e-15 33.00000000000001 L 2.9200000000000026 33.00000000000001 L 2.9200000000000044 33.00000000000001 Z " stroke="#191919" stroke-width="0.7 px" style="stroke-width:0.7;stroke-miterlimit:4;stroke-dasharray:none;stroke-linecap:square;fill:#492fba;fill-opacity:1.0;fill-rule: evenodd"/>
<path id="Pocket_f0020"  d="M 2.919999999999992 6.000000000000001 L -5.650506170260092e-15 6.000000000000002 L -4.677950800688455e-15 6.000000000000002 L 2.919999999999993 6.000000000000001 L 2.919999999999992 6.0 Z " stroke="#191919" stroke-width="0.7 px" style="stroke-width:0.7;stroke-miterlimit:4;stroke-dasharray:none;stroke-linecap:square;fill:#492fba;fill-opacity:1.0;fill-rule: evenodd"/>
<path id="Pocket_f0021"  d="M 2.9199999999999924 6.000000000000001 L -4.677950800688455e-15 6.000000000000002 L -4.677950800688455e-15 12.000000000000004 L 2.9199999999999955 12.000000000000004 L 2.919999999999993 6.0 Z " stroke="#191919" stroke-width="0.7 px" style="stroke-width:0.7;stroke-miterlimit:4;stroke-dasharray:none;stroke-linecap:square;fill:#492fba;fill-opacity:1.0;fill-rule: evenodd"/>
<path id="Pocket_f0022"  d="M 2.919999999999995 12.000000000000004 L -4.677950800688455e-15 12.000000000000004 L -5.650506170260092e-15 12.000000000000004 L 2.9199999999999946 12.000000000000004 L 2.9199999999999955 12.000000000000004 Z " stroke="#191919" stroke-width="0.7 px" style="stroke-width:0.7;stroke-miterlimit:4;stroke-dasharray:none;stroke-linecap:square;fill:#492fba;fill-opacity:1.0;fill-rule: evenodd"/>
<path id="Pocket_f0023"  d="M 2.9199999999999946 12.000000000000004 L -5.650506170260092e-15 12.000000000000004 L -5.650506170260092e-15 6.000000000000002 L 2.919999999999992 6.000000000000001 L 2.9199999999999946 12.000000000000004 Z " stroke="#191919" stroke-width="0.7 px" style="stroke-width:0.7;stroke-miterlimit:4;stroke-dasharray:none;stroke-linecap:square;fill:#492fba;fill-opacity:1.0;fill-rule: evenodd"/>
<title>b'Pocket'</title>
</g>
</svg>