<?xml version="1.0"?>
<!DOCTYPE svg PUBLIC "-//W3C//DTD SVG 1.1//EN" "http://www.w3.org/Graphics/SVG/1.1/DTD/svg11.dtd">
<svg width="18.360000000000056mm" height="48.36000000000005mm" viewBox="0 0 18.360000000000056 48.36000000000005" xmlns="http://www.w3.org/2000/svg" version="1.1">
<g id="Body003" transform="translate(27.180000,48.180000) scale(1,-1)">
<path id="Body003_f0000"  d="M -10.999999999999996 -1.332267629550189e-15 L -10.999999999999996 -2.629008122312372e-15 L -24.012795000000004 2.6041280243305383e-16 L -24.01279500000001 -9.08783048814142e-16 L -10.999999999999986 5.29354338141275e-15 Z " stroke="#191919" stroke-width="0.7 px" style="stroke-width:0.7;stroke-miterlimit:4;stroke-dasharray:none;stroke-linecap:square;fill:#6404b8;fill-opacity:0.09999999999999998;fill-rule: evenodd"/>
<path id="Body003_f0001"  d="M -8.999999999999979 2.5000000000000124 Q -9.000869999999981 6.6252314745440845e-15 -10.999999999999986 5.29354338141275e-15 L -10.999999999999996 -2.629008122312372e-15 Q -9.000869999999978 5.328490981781897e-15 -8.999999999999975 2.500000000000011 L -8.999999999999988 2.5000000000000058 Z " stroke="#191919" stroke-width="0.7 px" style="stroke-width:0.7;stroke-miterlimit:4;stroke-dasharray:none;stroke-linecap:square;fill:#6404b8;fill-opacity:0.09999999999999998;fill-rule: evenodd"/>
<path id="Body003_f0002"  d="M -24.012795000000004 1.5571532951952366e-15 L -24.012795000000004 2.6041280243305383e-16 Q -26.997038000000018 -6.659365059391583e-15 -27.00000000000001 5.000000000000004 L -27.000000000000007 5.000000000000005 Q -26.997038000000025 -5.362624566629396e-15 -24.01279500000002 -3.374719392823525e-15 Z " stroke="#191919" stroke-width="0.7 px" style="stroke-width:0.7;stroke-miterlimit:4;stroke-dasharray:none;stroke-linecap:square;fill:#6404b8;fill-opacity:0.09999999999999998;fill-rule: evenodd"/>
<path id="Body003_f0003"  d="M -12.999999999999968 45.00000000000002 L -8.999999999999964 45.00000000000002 L -8.999999999999968 41.00000000000002 Q -8.999999999999922 39.00000000000009 -10.999999999999925 39.000000000000085 L -10.99999999999999 11.500000000000004 Q -8.999999999999964 11.500000000000034 -8.999999999999973 6.500000000000021 L -8.999999999999993 2.499999999999999 Q -9.000869999999981 6.6252314745440845e-15 -10.999999999999986 5.29354338141275e-15 L -24.012795000000004 1.5571532951952366e-15 Q -26.997038000000025 -5.362624566629396e-15 -27.000000000000014 5.000000000000006 L -26.99999999999997 45.00000000000002 L -18.999999999999968 45.00000000000002 L -18.999999999999968 48.00000000000002 L -12.999999999999964 48.00000000000002 L -12.999999999999968 45.00000000000002 Z M -16.99999999999999 33.00000000000001 L -14.079999999999988 33.00000000000001 L -14.079999999999986 39.00000000000001 L -16.999999999999986 39.00000000000001 L -16.99999999999999 33.00000000000001 Z M -16.999999999999996 12.000000000000004 L -16.999999999999996 6.000000000000002 L -14.079999999999997 6.000000000000002 L -14.079999999999995 12.000000000000004 L -16.999999999999996 12.000000000000004 Z " stroke="#191919" stroke-width="0.7 px" style="stroke-width:0.7;stroke-miterlimit:4;stroke-dasharray:none;stroke-linecap:square;fill:#6404b8;fill-opacity:0.09999999999999998;fill-rule: evenodd"/>
<path id="Body003_f0004"  d="M -27.0 5.0000000000000036 L -26.99999999999997 45.00000000000002 L -18.99999999999997 45.00000000000002 L -18.999999999999968 48.00000000000002 L -12.999999999999966 48.00000000000002 L -12.999999999999968 45.00000000000002 L -8.999999999999966 45.00000000000002 L -8.99999999999997 41.00000000000002 Q -8.99999999999992 39.00000000000009 -10.999999999999925 39.00000000000009 L -10.99999999999999 11.500000000000004 Q -8.99999999999996 11.500000000000032 -8.99999999999997 6.5000000000000195 L -8.999999999999995 2.499999999999998 Q -9.000869999999978 5.328490981781897e-15 -10.999999999999984 3.996802888650563e-15 L -24.012795000000004 2.6041280243305383e-16 Q -26.997038000000018 -6.659365059391583e-15 -27.00000000000001 5.000000000000004 Z M -14.079999999999988 39.00000000000001 L -14.079999999999988 33.00000000000001 L -16.99999999999999 33.00000000000001 L -16.999999999999986 39.00000000000001 L -14.079999999999988 39.00000000000001 Z M -14.079999999999998 6.000000000000002 L -16.999999999999996 6.000000000000001 L -16.999999999999996 12.000000000000004 L -14.079999999999995 12.000000000000004 L -14.079999999999998 6.000000000000002 Z " stroke="#191919" stroke-width="0.7 px" style="stroke-width:0.7;stroke-miterlimit:4;stroke-dasharray:none;stroke-linecap:square;fill:#6404b8;fill-opacity:0.09999999999999998;fill-rule: evenodd"/>
<path id="Body003_f0005"  d="M -8.999999999999991 6.500000000000001 L -8.999999999999993 6.5 L -8.999999999999995 2.499999999999998 L -8.999999999999988 2.5000000000000058 L -8.999999999999973 6.500000000000021 Z " stroke="#191919" stroke-width="0.7 px" style="stroke-width:0.7;stroke-miterlimit:4;stroke-dasharray:none;stroke-linecap:square;fill:#6404b8;fill-opacity:0.09999999999999998;fill-rule: evenodd"/>
<path id="Body003_f0006"  d="M -27.0 5.000000000000004 L -27.0 5.0000000000000036 L -26.99999999999997 45.00000000000002 L -26.999999999999957 45.00000000000006 L -27.000000000000014 5.000000000000006 Z " stroke="#191919" stroke-width="0.7 px" style="stroke-width:0.7;stroke-miterlimit:4;stroke-dasharray:none;stroke-linecap:square;fill:#6404b8;fill-opacity:0.09999999999999998;fill-rule: evenodd"/>
<path id="Body003_f0007"  d="M -10.999999999999968 11.500000000000034 Q -8.999999999999964 11.500000000000034 -8.999999999999973 6.500000000000021 L -8.999999999999993 6.5 Q -8.99999999999996 11.500000000000032 -10.999999999999964 11.500000000000028 L -10.999999999999979 11.500000000000018 Z " stroke="#191919" stroke-width="0.7 px" style="stroke-width:0.7;stroke-miterlimit:4;stroke-dasharray:none;stroke-linecap:square;fill:#6404b8;fill-opacity:0.09999999999999998;fill-rule: evenodd"/>
<path id="Body003_f0008"  d="M -26.99999999999997 45.00000000000002 L -26.99999999999997 45.00000000000002 L -18.99999999999997 45.00000000000002 L -18.999999999999954 45.00000000000006 L -26.999999999999954 45.0000000000001 Z " stroke="#191919" stroke-width="0.7 px" style="stroke-width:0.7;stroke-miterlimit:4;stroke-dasharray:none;stroke-linecap:square;fill:#6404b8;fill-opacity:0.09999999999999998;fill-rule: evenodd"/>
<path id="Body003_f0009"  d="M -10.999999999999972 39.000000000000014 L -10.999999999999972 39.000000000000014 L -10.99999999999999 11.500000000000004 L -10.999999999999979 11.500000000000018 L -10.999999999999925 39.000000000000085 Z " stroke="#191919" stroke-width="0.7 px" style="stroke-width:0.7;stroke-miterlimit:4;stroke-dasharray:none;stroke-linecap:square;fill:#6404b8;fill-opacity:0.09999999999999998;fill-rule: evenodd"/>
<path id="Body003_f0010"  d="M -18.999999999999968 45.00000000000002 L -18.99999999999997 45.00000000000002 L -18.999999999999968 48.00000000000002 L -18.99999999999995 48.00000000000007 L -18.999999999999936 45.00000000000011 Z " stroke="#191919" stroke-width="0.7 px" style="stroke-width:0.7;stroke-miterlimit:4;stroke-dasharray:none;stroke-linecap:square;fill:#6404b8;fill-opacity:0.09999999999999998;fill-rule: evenodd"/>
<path id="Body003_f0011"  d="M -8.99999999999992 41.0000000000001 Q -8.999999999999922 39.00000000000009 -10.999999999999925 39.000000000000085 L -10.999999999999972 39.000000000000014 Q -8.99999999999992 39.00000000000009 -8.999999999999915 41.0000000000001 L -8.999999999999943 41.00000000000006 Z " stroke="#191919" stroke-width="0.7 px" style="stroke-width:0.7;stroke-miterlimit:4;stroke-dasharray:none;stroke-linecap:square;fill:#6404b8;fill-opacity:0.09999999999999998;fill-rule: evenodd"/>
<path id="Body003_f0012"  d="M -18.999999999999968 48.00000000000002 L -18.999999999999968 48.00000000000002 L -12.999999999999966 48.00000000000002 L -12.999999999999941 48.00000000000007 L -18.99999999999993 48.00000000000011 Z " stroke="#191919" stroke-width="0.7 px" style="stroke-width:0.7;stroke-miterlimit:4;stroke-dasharray:none;stroke-linecap:square;fill:#6404b8;fill-opacity:0.09999999999999998;fill-rule: evenodd"/>
<path id="Body003_f0013"  d="M -8.999999999999964 45.00000000000002 L -8.999999999999966 45.00000000000002 L -8.99999999999997 41.00000000000002 L -8.999999999999943 41.00000000000006 L -8.999999999999915 45.000000000000114 Z " stroke="#191919" stroke-width="0.7 px" style="stroke-width:0.7;stroke-miterlimit:4;stroke-dasharray:none;stroke-linecap:square;fill:#6404b8;fill-opacity:0.09999999999999998;fill-rule: evenodd"/>
<path id="Body003_f0014"  d="M -12.999999999999964 48.00000000000002 L -12.999999999999966 48.00000000000002 L -12.999999999999968 45.00000000000002 L -12.999999999999945 45.00000000000006 L -12.999999999999917 48.00000000000011 Z " stroke="#191919" stroke-width="0.7 px" style="stroke-width:0.7;stroke-miterlimit:4;stroke-dasharray:none;stroke-linecap:square;fill:#6404b8;fill-opacity:0.09999999999999998;fill-rule: evenodd"/>
<path id="Body003_f0015"  d="M -12.999999999999968 45.00000000000002 L -12.999999999999968 45.00000000000002 L -8.999999999999966 45.00000000000002 L -8.999999999999938 45.00000000000006 L -12.999999999999922 45.00000000000011 Z " stroke="#191919" stroke-width="0.7 px" style="stroke-width:0.7;stroke-miterlimit:4;stroke-dasharray:none;stroke-linecap:square;fill:#6404b8;fill-opacity:0.09999999999999998;fill-rule: evenodd"/>
<path id="Body003_f0016"  d="M -14.07999999999999 33.00000000000001 L -14.079999999999988 33.00000000000001 L -14.079999999999965 39.000000000000036 L -14.079999999999988 39.00000000000001 L -14.07999999999999 33.00000000000001 Z " stroke="#191919" stroke-width="0.7 px" style="stroke-width:0.7;stroke-miterlimit:4;stroke-dasharray:none;stroke-linecap:square;fill:#6404b8;fill-opacity:0.09999999999999998;fill-rule: evenodd"/>
<path id="Body003_f0017"  d="M -14.079999999999988 39.00000000000001 L -14.079999999999986 39.00000000000001 L -16.999999999999968 39.000000000000036 L -16.999999999999986 39.00000000000001 L -14.079999999999986 39.00000000000001 Z " stroke="#191919" stroke-width="0.7 px" style="stroke-width:0.7;stroke-miterlimit:4;stroke-dasharray:none;stroke-linecap:square;fill:#6404b8;fill-opacity:0.09999999999999998;fill-rule: evenodd"/>
<path id="Body003_f0018"  d="M -16.999999999999986 39.00000000000001 L -16.999999999999986 39.00000000000001 L -16.99999999999997 33.000000000000036 L -16.99999999999999 33.00000000000001 L -16.999999999999986 39.00000000000001 Z " stroke="#191919" stroke-width="0.7 px" style="stroke-width:0.7;stroke-miterlimit:4;stroke-dasharray:none;stroke-linecap:square;fill:#6404b8;fill-opacity:0.09999999999999998;fill-rule: evenodd"/>
<path id="Body003_f0019"  d="M -16.99999999999999 33.00000000000001 L -16.99999999999999 33.00000000000001 L -14.07999999999997 33.000000000000036 L -14.079999999999988 33.00000000000001 L -16.99999999999999 33.00000000000001 Z " stroke="#191919" stroke-width="0.7 px" style="stroke-width:0.7;stroke-miterlimit:4;stroke-dasharray:none;stroke-linecap:square;fill:#6404b8;fill-opacity:0.09999999999999998;fill-rule: evenodd"/>
<path id="Body003_f0020"  d="M -16.999999999999996 6.000000000000001 L -16.999999999999996 6.000000000000002 L -14.079999999999991 6.000000000000009 L -14.079999999999998 6.000000000000002 L -17.0 6.0 Z " stroke="#191919" stroke-width="0.7 px" style="stroke-width:0.7;stroke-miterlimit:4;stroke-dasharray:none;stroke-linecap:square;fill:#6404b8;fill-opacity:0.09999999999999998;fill-rule: evenodd"/>
<path id="Body003_f0021"  d="M -14.079999999999998 6.000000000000001 L -14.079999999999997 6.000000000000002 L -14.079999999999986 12.000000000000014 L -14.079999999999995 12.000000000000004 L -14.079999999999998 6.0 Z " stroke="#191919" stroke-width="0.7 px" style="stroke-width:0.7;stroke-miterlimit:4;stroke-dasharray:none;stroke-linecap:square;fill:#6404b8;fill-opacity:0.09999999999999998;fill-rule: evenodd"/>
<path id="Body003_f0022"  d="M -14.079999999999997 12.000000000000004 L -14.079999999999995 12.000000000000004 L -16.99999999999999 12.000000000000014 L -16.999999999999996 12.000000000000004 L -14.079999999999995 12.000000000000004 Z " stroke="#191919" stroke-width="0.7 px" style="stroke-width:0.7;stroke-miterlimit:4;stroke-dasharray:none;stroke-linecap:square;fill:#6404b8;fill-opacity:0.09999999999999998;fill-rule: evenodd"/>
<path id="Body003_f0023"  d="M -16.999999999999996 12.000000000000004 L -16.999999999999996 12.000000000000004 L -16.999999999999993 6.000000000000008 L -16.999999999999996 6.000000000000001 L -16.999999999999996 12.000000000000004 Z " stroke="#191919" stroke-width="0.7 px" style="stroke-width:0.7;stroke-miterlimit:4;stroke-dasharray:none;stroke-linecap:square;fill:#6404b8;fill-opacity:0.09999999999999998;fill-rule: evenodd"/>
<title>b'right-side-connected-flat'</title>
</g>
</svg>