<?xml version="1.0"?>
<!DOCTYPE svg PUBLIC "-//W3C//DTD SVG 1.1//EN" "http://www.w3.org/Graphics/SVG/1.1/DTD/svg11.dtd">
<svg width="67.1568mm" height="49.2368mm" viewBox="0 0 67.1568 49.2368" xmlns="http://www.w3.org/2000/svg" version="1.1">
<g id="Body001" transform="translate(3.578400,48.578400) scale(1,-1)">
<path id="Body001_f0000"  d="M 60.0 45.0 L 60.0 39.0 L 60.0 39.0 L 60.0 45.0 L 60.0 45.0 Z " stroke="#191919" stroke-width="0.7 px" style="stroke-width:0.7;stroke-miterlimit:4;stroke-dasharray:none;stroke-linecap:square;fill:#d48767;fill-opacity:0.09999999999999998;fill-rule: evenodd"/>
<path id="Body001_f0001"  d="M 54.0 45.0 L 60.0 45.0 L 60.0 45.0 L 54.0 45.0 L 54.0 45.0 Z " stroke="#191919" stroke-width="0.7 px" style="stroke-width:0.7;stroke-miterlimit:4;stroke-dasharray:none;stroke-linecap:square;fill:#d48767;fill-opacity:0.09999999999999998;fill-rule: evenodd"/>
<path id="Body001_f0002"  d="M 54.0 47.92 L 54.0 45.0 L 54.0 45.0 L 54.0 47.92 L 54.0 47.92 Z " stroke="#191919" stroke-width="0.7 px" style="stroke-width:0.7;stroke-miterlimit:4;stroke-dasharray:none;stroke-linecap:square;fill:#d48767;fill-opacity:0.09999999999999998;fill-rule: evenodd"/>
<path id="Body001_f0003"  d="M 48.0 47.92 L 54.0 47.92 L 54.0 47.92 L 48.0 47.92 L 48.0 47.92 Z " stroke="#191919" stroke-width="0.7 px" style="stroke-width:0.7;stroke-miterlimit:4;stroke-dasharray:none;stroke-linecap:square;fill:#d48767;fill-opacity:0.09999999999999998;fill-rule: evenodd"/>
<path id="Body001_f0004"  d="M 48.0 45.0 L 48.0 47.92 L 48.0 47.92 L 48.0 45.0 L 48.0 45.0 Z " stroke="#191919" stroke-width="0.7 px" style="stroke-width:0.7;stroke-miterlimit:4;stroke-dasharray:none;stroke-linecap:square;fill:#d48767;fill-opacity:0.09999999999999998;fill-rule: evenodd"/>
<path id="Body001_f0005"  d="M 33.0 45.0 L 48.0 45.0 L 48.0 45.0 L 33.0 45.0 L 33.0 45.0 Z " stroke="#191919" stroke-width="0.7 px" style="stroke-width:0.7;stroke-miterlimit:4;stroke-dasharray:none;stroke-linecap:square;fill:#d48767;fill-opacity:0.09999999999999998;fill-rule: evenodd"/>
<path id="Body001_f0006"  d="M 33.0 47.92 L 33.0 45.0 L 33.0 45.0 L 33.0 47.92 L 33.0 47.92 Z " stroke="#191919" stroke-width="0.7 px" style="stroke-width:0.7;stroke-miterlimit:4;stroke-dasharray:none;stroke-linecap:square;fill:#d48767;fill-opacity:0.09999999999999998;fill-rule: evenodd"/>
<path id="Body001_f0007"  d="M 27.0 47.92 L 33.0 47.92 L 33.0 47.92 L 27.0 47.92 L 27.0 47.92 Z " stroke="#191919" stroke-width="0.7 px" style="stroke-width:0.7;stroke-miterlimit:4;stroke-dasharray:none;stroke-linecap:square;fill:#d48767;fill-opacity:0.09999999999999998;fill-rule: evenodd"/>
<path id="Body001_f0008"  d="M 27.0 45.0 L 27.0 47.92 L 27.0 47.92 L 27.0 45.0 L 27.0 45.0 Z " stroke="#191919" stroke-width="0.7 px" style="stroke-width:0.7;stroke-miterlimit:4;stroke-dasharray:none;stroke-linecap:square;fill:#d48767;fill-opacity:0.09999999999999998;fill-rule: evenodd"/>
<path id="Body001_f0009"  d="M 12.0 45.0 L 27.0 45.0 L 27.0 45.0 L 12.0 45.0 L 12.0 45.0 Z " stroke="#191919" stroke-width="0.7 px" style="stroke-width:0.7;stroke-miterlimit:4;stroke-dasharray:none;stroke-linecap:square;fill:#d48767;fill-opacity:0.09999999999999998;fill-rule: evenodd"/>
<path id="Body001_f0010"  d="M 12.0 47.92 L 12.0 45.0 L 12.0 45.0 L 12.0 47.92 L 12.0 47.92 Z " stroke="#191919" stroke-width="0.7 px" style="stroke-width:0.7;stroke-miterlimit:4;stroke-dasharray:none;stroke-linecap:square;fill:#d48767;fill-opacity:0.09999999999999998;fill-rule: evenodd"/>
<path id="Body001_f0011"  d="M 6.0 47.92 L 12.0 47.92 L 12.0 47.92 L 6.0 47.92 L 6.0 47.92 Z " stroke="#191919" stroke-width="0.7 px" style="stroke-width:0.7;stroke-miterlimit:4;stroke-dasharray:none;stroke-linecap:square;fill:#d48767;fill-opacity:0.09999999999999998;fill-rule: evenodd"/>
<path id="Body001_f0012"  d="M 6.0 45.0 L 6.0 47.92 L 6.0 47.92 L 6.0 45.0 L 6.0 45.0 Z " stroke="#191919" stroke-width="0.7 px" style="stroke-width:0.7;stroke-miterlimit:4;stroke-dasharray:none;stroke-linecap:square;fill:#d48767;fill-opacity:0.09999999999999998;fill-rule: evenodd"/>
<path id="Body001_f0013"  d="M 0.0 45.0 L 6.0 45.0 L 6.0 45.0 L 0.0 45.0 L 0.0 45.0 Z " stroke="#191919" stroke-width="0.7 px" style="stroke-width:0.7;stroke-miterlimit:4;stroke-dasharray:none;stroke-linecap:square;fill:#d48767;fill-opacity:0.09999999999999998;fill-rule: evenodd"/>
<path id="Body001_f0014"  d="M 0.0 39.0 L 0.0 45.0 L 0.0 45.0 L 0.0 39.0 L 0.0 39.0 Z " stroke="#191919" stroke-width="0.7 px" style="stroke-width:0.7;stroke-miterlimit:4;stroke-dasharray:none;stroke-linecap:square;fill:#d48767;fill-opacity:0.09999999999999998;fill-rule: evenodd"/>
<path id="Body001_f0015"  d="M -2.92 39.0 L 0.0 39.0 L 0.0 39.0 L -2.92 39.0 L -2.92 39.0 Z " stroke="#191919" stroke-width="0.7 px" style="stroke-width:0.7;stroke-miterlimit:4;stroke-dasharray:none;stroke-linecap:square;fill:#d48767;fill-opacity:0.09999999999999998;fill-rule: evenodd"/>
<path id="Body001_f0016"  d="M -2.92 33.0 L -2.92 39.0 L -2.92 39.0 L -2.92 33.0 L -2.92 33.0 Z " stroke="#191919" stroke-width="0.7 px" style="stroke-width:0.7;stroke-miterlimit:4;stroke-dasharray:none;stroke-linecap:square;fill:#d48767;fill-opacity:0.09999999999999998;fill-rule: evenodd"/>
<path id="Body001_f0017"  d="M 0.0 33.0 L -2.92 33.0 L -2.92 33.0 L 0.0 33.0 L 0.0 33.0 Z " stroke="#191919" stroke-width="0.7 px" style="stroke-width:0.7;stroke-miterlimit:4;stroke-dasharray:none;stroke-linecap:square;fill:#d48767;fill-opacity:0.09999999999999998;fill-rule: evenodd"/>
<path id="Body001_f0018"  d="M 0.0 12.0 L 0.0 33.0 L 0.0 33.0 L 0.0 12.0 L 0.0 12.0 Z " stroke="#191919" stroke-width="0.7 px" style="stroke-width:0.7;stroke-miterlimit:4;stroke-dasharray:none;stroke-linecap:square;fill:#d48767;fill-opacity:0.09999999999999998;fill-rule: evenodd"/>
<path id="Body001_f0019"  d="M -2.92 12.0 L 0.0 12.0 L 0.0 12.0 L -2.92 12.0 L -2.92 12.0 Z " stroke="#191919" stroke-width="0.7 px" style="stroke-width:0.7;stroke-miterlimit:4;stroke-dasharray:none;stroke-linecap:square;fill:#d48767;fill-opacity:0.09999999999999998;fill-rule: evenodd"/>
<path id="Body001_f0020"  d="M -2.92 6.0 L -2.92 12.0 L -2.92 12.0 L -2.92 6.0 L -2.92 6.0 Z " stroke="#191919" stroke-width="0.7 px" style="stroke-width:0.7;stroke-miterlimit:4;stroke-dasharray:none;stroke-linecap:square;fill:#d48767;fill-opacity:0.09999999999999998;fill-rule: evenodd"/>
<path id="Body001_f0021"  d="M 0.0 6.0 L -2.92 6.0 L -2.92 6.0 L 2.6020852139652106e-18 6.0 L 2.6020852139652106e-18 6.0 Z " stroke="#191919" stroke-width="0.7 px" style="stroke-width:0.7;stroke-miterlimit:4;stroke-dasharray:none;stroke-linecap:square;fill:#d48767;fill-opacity:0.09999999999999998;fill-rule: evenodd"/>
<path id="Body001_f0022"  d="M 5.204170427930421e-18 0.0 L 5.204170427930421e-18 6.0 L 2.6020852139652106e-18 6.0 L 5.204170427930421e-18 -5.3201288790429436e-30 L 5.204170427930421e-18 -5.3201288790429436e-30 Z " stroke="#191919" stroke-width="0.7 px" style="stroke-width:0.7;stroke-miterlimit:4;stroke-dasharray:none;stroke-linecap:square;fill:#d48767;fill-opacity:0.09999999999999998;fill-rule: evenodd"/>
<path id="Body001_f0023"  d="M 60.0 -5.3201288790429436e-30 L 5.204170427930421e-18 -5.3201288790429436e-30 L 5.204170427930421e-18 -5.3201288790429436e-30 L 60.0 -5.3201288790429436e-30 L 60.0 -5.3201288790429436e-30 Z " stroke="#191919" stroke-width="0.7 px" style="stroke-width:0.7;stroke-miterlimit:4;stroke-dasharray:none;stroke-linecap:square;fill:#d48767;fill-opacity:0.09999999999999998;fill-rule: evenodd"/>
<path id="Body001_f0024"  d="M 60.0 6.0 L 60.0 -5.3201288790429436e-30 L 60.0 -5.3201288790429436e-30 L 60.0 6.0 L 60.0 6.0 Z " stroke="#191919" stroke-width="0.7 px" style="stroke-width:0.7;stroke-miterlimit:4;stroke-dasharray:none;stroke-linecap:square;fill:#d48767;fill-opacity:0.09999999999999998;fill-rule: evenodd"/>
<path id="Body001_f0025"  d="M 62.92 6.0 L 60.0 6.0 L 60.0 6.0 L 62.92 6.0 L 62.92 6.0 Z " stroke="#191919" stroke-width="0.7 px" style="stroke-width:0.7;stroke-miterlimit:4;stroke-dasharray:none;stroke-linecap:square;fill:#d48767;fill-opacity:0.09999999999999998;fill-rule: evenodd"/>
<path id="Body001_f0026"  d="M 62.92 12.0 L 62.92 6.0 L 62.92 6.0 L 62.92 12.0 L 62.92 12.0 Z " stroke="#191919" stroke-width="0.7 px" style="stroke-width:0.7;stroke-miterlimit:4;stroke-dasharray:none;stroke-linecap:square;fill:#d48767;fill-opacity:0.09999999999999998;fill-rule: evenodd"/>
<path id="Body001_f0027"  d="M 60.0 12.0 L 62.92 12.0 L 62.92 12.0 L 60.0 12.0 L 60.0 12.0 Z " stroke="#191919" stroke-width="0.7 px" style="stroke-width:0.7;stroke-miterlimit:4;stroke-dasharray:none;stroke-linecap:square;fill:#d48767;fill-opacity:0.09999999999999998;fill-rule: evenodd"/>
<path id="Body001_f0028"  d="M 60.0 33.0 L 60.0 12.0 L 60.0 12.0 L 60.0 33.0 L 60.0 33.0 Z " stroke="#191919" stroke-width="0.7 px" style="stroke-width:0.7;stroke-miterlimit:4;stroke-dasharray:none;stroke-linecap:square;fill:#d48767;fill-opacity:0.09999999999999998;fill-rule: evenodd"/>
<path id="Body001_f0029"  d="M 62.92 33.0 L 60.0 33.0 L 60.0 33.0 L 62.92 33.0 L 62.92 33.0 Z " stroke="#191919" stroke-width="0.7 px" style="stroke-width:0.7;stroke-miterlimit:4;stroke-dasharray:none;stroke-linecap:square;fill:#d48767;fill-opacity:0.09999999999999998;fill-rule: evenodd"/>
<path id="Body001_f0030"  d="M 62.92 39.0 L 62.92 33.0 L 62.92 33.0 L 62.92 39.0 L 62.92 39.0 Z " stroke="#191919" stroke-width="0.7 px" style="stroke-width:0.7;stroke-miterlimit:4;stroke-dasharray:none;stroke-linecap:square;fill:#d48767;fill-opacity:0.09999999999999998;fill-rule: evenodd"/>
<path id="Body001_f0031"  d="M 60.0 39.0 L 60.0 39.0 L 62.92 39.0 L 62.92 39.0 L 60.0 39.0 Z " stroke="#191919" stroke-width="0.7 px" style="stroke-width:0.7;stroke-miterlimit:4;stroke-dasharray:none;stroke-linecap:square;fill:#d48767;fill-opacity:0.09999999999999998;fill-rule: evenodd"/>
<path id="Body001_f0032"  d="M 60.0 39.0 L 62.92 39.0 L 62.92 33.0 L 60.0 33.0 L 60.0 12.0 L 62.92 12.0 L 62.92 6.0 L 60.0 6.0 L 60.0 -5.3201288790429436e-30 L 5.204170427930421e-18 -5.3201288790429436e-30 L 5.204170427930421e-18 6.0 L -2.92 6.0 L -2.92 12.0 L 0.0 12.0 L 0.0 33.0 L -2.92 33.0 L -2.92 39.0 L 0.0 39.0 L 0.0 45.0 L 6.0 45.0 L 6.0 47.92 L 12.0 47.92 L 12.0 45.0 L 27.0 45.0 L 27.0 47.92 L 33.0 47.92 L 33.0 45.0 L 48.0 45.0 L 48.0 47.92 L 54.0 47.92 L 54.0 45.0 L 60.0 45.0 L 60.0 39.0 Z " stroke="#191919" stroke-width="0.7 px" style="stroke-width:0.7;stroke-miterlimit:4;stroke-dasharray:none;stroke-linecap:square;fill:#d48767;fill-opacity:0.09999999999999998;fill-rule: evenodd"/>
<path id="Body001_f0033"  d="M 60.0 39.0 L 60.0 45.0 L 54.0 45.0 L 54.0 47.92 L 48.0 47.92 L 48.0 45.0 L 33.0 45.0 L 33.0 47.92 L 27.0 47.92 L 27.0 45.0 L 12.0 45.0 L 12.0 47.92 L 6.0 47.92 L 6.0 45.0 L 0.0 45.0 L 0.0 39.0 L -2.92 39.0 L -2.92 33.0 L 0.0 33.0 L 0.0 12.0 L -2.92 12.0 L -2.92 6.0 L 2.6020852139652106e-18 6.0 L 5.204170427930421e-18 -5.3201288790429436e-30 L 60.0 -5.3201288790429436e-30 L 60.0 6.0 L 62.92 6.0 L 62.92 12.0 L 60.0 12.0 L 60.0 33.0 L 62.92 33.0 L 62.92 39.0 L 60.0 39.0 Z " stroke="#191919" stroke-width="0.7 px" style="stroke-width:0.7;stroke-miterlimit:4;stroke-dasharray:none;stroke-linecap:square;fill:#d48767;fill-opacity:0.09999999999999998;fill-rule: evenodd"/>
<title>b'connected-seat'</title>
</g>
</svg>