<?xml version="1.0"?>
<!DOCTYPE svg PUBLIC "-//W3C//DTD SVG 1.1//EN" "http://www.w3.org/Graphics/SVG/1.1/DTD/svg11.dtd">
<svg width="61.2mm" height="46.2mm" viewBox="0 0 61.2 46.2" xmlns="http://www.w3.org/2000/svg" version="1.1">
<g id="Body" transform="translate(0.600000,45.600000) scale(1,-1)">
<path id="Body_f0000"  d="M 60.0 0.0 L 0.0 0.0 L 0.0 0.0 L 60.0 0.0 L 60.0 0.0 Z " stroke="#191919" stroke-width="0.7 px" style="stroke-width:0.7;stroke-miterlimit:4;stroke-dasharray:none;stroke-linecap:square;fill:#0bfbe9;fill-opacity:0.09999999999999998;fill-rule: evenodd"/>
<path id="Body_f0001"  d="M 60.0 45.0 L 60.0 0.0 L 60.0 0.0 L 60.0 45.0 L 60.0 45.0 Z " stroke="#191919" stroke-width="0.7 px" style="stroke-width:0.7;stroke-miterlimit:4;stroke-dasharray:none;stroke-linecap:square;fill:#0bfbe9;fill-opacity:0.09999999999999998;fill-rule: evenodd"/>
<path id="Body_f0002"  d="M 0.0 45.0 L 60.0 45.0 L 60.0 45.0 L 0.0 45.0 L 0.0 45.0 Z " stroke="#191919" stroke-width="0.7 px" style="stroke-width:0.7;stroke-miterlimit:4;stroke-dasharray:none;stroke-linecap:square;fill:#0bfbe9;fill-opacity:0.09999999999999998;fill-rule: evenodd"/>
<path id="Body_f0003"  d="M 0.0 0.0 L 0.0 45.0 L 0.0 45.0 L 0.0 0.0 L 0.0 0.0 Z " stroke="#191919" stroke-width="0.7 px" style="stroke-width:0.7;stroke-miterlimit:4;stroke-dasharray:none;stroke-linecap:square;fill:#0bfbe9;fill-opacity:0.09999999999999998;fill-rule: evenodd"/>
<path id="Body_f0004"  d="M 60.0 0.0 L 60.0 45.0 L 0.0 45.0 L 0.0 0.0 L 60.0 0.0 Z " stroke="#191919" stroke-width="0.7 px" style="stroke-width:0.7;stroke-miterlimit:4;stroke-dasharray:none;stroke-linecap:square;fill:#0bfbe9;fill-opacity:0.09999999999999998;fill-rule: evenodd"/>
<path id="Body_f0005"  d="M 0.0 0.0 L 60.0 0.0 L 60.0 45.0 L 0.0 45.0 L 0.0 0.0 Z " stroke="#191919" stroke-width="0.7 px" style="stroke-width:0.7;stroke-miterlimit:4;stroke-dasharray:none;stroke-linecap:square;fill:#0bfbe9;fill-opacity:0.09999999999999998;fill-rule: evenodd"/>
<title>b'smooth-seat'</title>
</g>
</svg>