solid OpenSCAD_Model
  facet normal 0.994522 0.104526 0
    outer loop
      vertex 10 0 7
      vertex 9.78148 2.07912 0
      vertex 9.78148 2.07912 7
    endloop
  endfacet
  facet normal 0.994522 0.104526 0
    outer loop
      vertex 9.78148 2.07912 0
      vertex 10 0 7
      vertex 10 0 0
    endloop
  endfacet
  facet normal -0.994522 0.104526 0
    outer loop
      vertex -10 0 0
      vertex -9.78148 2.07912 7
      vertex -9.78148 2.07912 0
    endloop
  endfacet
  facet normal -0.994522 0.104526 0
    outer loop
      vertex -9.78148 2.07912 7
      vertex -10 0 0
      vertex -10 0 7
    endloop
  endfacet
  facet normal 0 1 -0
    outer loop
      vertex 1.04528 9.94522 0
      vertex -1.04528 9.94522 7
      vertex 1.04528 9.94522 7
    endloop
  endfacet
  facet normal 0 1 0
    outer loop
      vertex -1.04528 9.94522 7
      vertex 1.04528 9.94522 0
      vertex -1.04528 9.94522 0
    endloop
  endfacet
  facet normal 0 -1 0
    outer loop
      vertex -1.04528 -9.94522 0
      vertex 1.04528 -9.94522 7
      vertex -1.04528 -9.94522 7
    endloop
  endfacet
  facet normal 0 -1 -0
    outer loop
      vertex 1.04528 -9.94522 7
      vertex -1.04528 -9.94522 0
      vertex 1.04528 -9.94522 0
    endloop
  endfacet
  facet normal 0.587783 0.809019 -0
    outer loop
      vertex 6.69131 7.43145 0
      vertex 5 8.66025 7
      vertex 6.69131 7.43145 7
    endloop
  endfacet
  facet normal 0.587783 0.809019 0
    outer loop
      vertex 5 8.66025 7
      vertex 6.69131 7.43145 0
      vertex 5 8.66025 0
    endloop
  endfacet
  facet normal 0.406736 0.913546 -0
    outer loop
      vertex 5 8.66025 0
      vertex 3.09017 9.51056 7
      vertex 5 8.66025 7
    endloop
  endfacet
  facet normal 0.406736 0.913546 0
    outer loop
      vertex 3.09017 9.51056 7
      vertex 5 8.66025 0
      vertex 3.09017 9.51056 0
    endloop
  endfacet
  facet normal -0.743147 0.669129 0
    outer loop
      vertex -8.09017 5.87785 0
      vertex -6.69131 7.43145 7
      vertex -6.69131 7.43145 0
    endloop
  endfacet
  facet normal -0.743147 0.669129 0
    outer loop
      vertex -6.69131 7.43145 7
      vertex -8.09017 5.87785 0
      vertex -8.09017 5.87785 7
    endloop
  endfacet
  facet normal -0.866026 0.5 0
    outer loop
      vertex -9.13545 4.06737 0
      vertex -8.09017 5.87785 7
      vertex -8.09017 5.87785 0
    endloop
  endfacet
  facet normal -0.866026 0.5 0
    outer loop
      vertex -8.09017 5.87785 7
      vertex -9.13545 4.06737 0
      vertex -9.13545 4.06737 7
    endloop
  endfacet
  facet normal -0.406736 0.913546 0
    outer loop
      vertex -3.09017 9.51056 0
      vertex -5 8.66025 7
      vertex -3.09017 9.51056 7
    endloop
  endfacet
  facet normal -0.406736 0.913546 0
    outer loop
      vertex -5 8.66025 7
      vertex -3.09017 9.51056 0
      vertex -5 8.66025 0
    endloop
  endfacet
  facet normal 0.866026 0.5 0
    outer loop
      vertex 9.13545 4.06737 7
      vertex 8.09017 5.87785 0
      vertex 8.09017 5.87785 7
    endloop
  endfacet
  facet normal 0.866026 0.5 0
    outer loop
      vertex 8.09017 5.87785 0
      vertex 9.13545 4.06737 7
      vertex 9.13545 4.06737 0
    endloop
  endfacet
  facet normal 0.951055 0.309021 0
    outer loop
      vertex 9.78148 2.07912 7
      vertex 9.13545 4.06737 0
      vertex 9.13545 4.06737 7
    endloop
  endfacet
  facet normal 0.951055 0.309021 0
    outer loop
      vertex 9.13545 4.06737 0
      vertex 9.78148 2.07912 7
      vertex 9.78148 2.07912 0
    endloop
  endfacet
  facet normal 0.743147 0.669129 0
    outer loop
      vertex 8.09017 5.87785 7
      vertex 6.69131 7.43145 0
      vertex 6.69131 7.43145 7
    endloop
  endfacet
  facet normal 0.743147 0.669129 0
    outer loop
      vertex 6.69131 7.43145 0
      vertex 8.09017 5.87785 7
      vertex 8.09017 5.87785 0
    endloop
  endfacet
  facet normal 0.207914 0.978147 -0
    outer loop
      vertex 3.09017 9.51056 0
      vertex 1.04528 9.94522 7
      vertex 3.09017 9.51056 7
    endloop
  endfacet
  facet normal 0.207914 0.978147 0
    outer loop
      vertex 1.04528 9.94522 7
      vertex 3.09017 9.51056 0
      vertex 1.04528 9.94522 0
    endloop
  endfacet
  facet normal -0.951055 0.309021 0
    outer loop
      vertex -9.78148 2.07912 0
      vertex -9.13545 4.06737 7
      vertex -9.13545 4.06737 0
    endloop
  endfacet
  facet normal -0.951055 0.309021 0
    outer loop
      vertex -9.13545 4.06737 7
      vertex -9.78148 2.07912 0
      vertex -9.78148 2.07912 7
    endloop
  endfacet
  facet normal 0 0 1
    outer loop
      vertex 8 0 7
      vertex 10 0 7
      vertex 9.78148 2.07912 7
    endloop
  endfacet
  facet normal 0 0 1
    outer loop
      vertex 7.76753 1.91453 7
      vertex 9.78148 2.07912 7
      vertex 9.13545 4.06737 7
    endloop
  endfacet
  facet normal 0 0 1
    outer loop
      vertex 10 0 7
      vertex 8 0 7
      vertex 9.78148 -2.07912 7
    endloop
  endfacet
  facet normal 0 0 1
    outer loop
      vertex 7.08365 3.71778 7
      vertex 9.13545 4.06737 7
      vertex 8.09017 5.87785 7
    endloop
  endfacet
  facet normal -0 0 1
    outer loop
      vertex 7.76753 -1.91453 7
      vertex 9.78148 -2.07912 7
      vertex 8 0 7
    endloop
  endfacet
  facet normal 0 0 1
    outer loop
      vertex 9.78148 -2.07912 7
      vertex 7.76753 -1.91453 7
      vertex 9.13545 -4.06737 7
    endloop
  endfacet
  facet normal 0 0 1
    outer loop
      vertex 9.78148 2.07912 7
      vertex 7.76753 1.91453 7
      vertex 8 0 7
    endloop
  endfacet
  facet normal 0 0 1
    outer loop
      vertex 9.13545 4.06737 7
      vertex 7.08365 3.71778 7
      vertex 7.76753 1.91453 7
    endloop
  endfacet
  facet normal 0 0 1
    outer loop
      vertex 5.98809 5.30498 7
      vertex 8.09017 5.87785 7
      vertex 6.69131 7.43145 7
    endloop
  endfacet
  facet normal 0 0 1
    outer loop
      vertex 8.09017 5.87785 7
      vertex 5.98809 5.30498 7
      vertex 7.08365 3.71778 7
    endloop
  endfacet
  facet normal 0 0 1
    outer loop
      vertex 4.54452 6.58387 7
      vertex 6.69131 7.43145 7
      vertex 5 8.66025 7
    endloop
  endfacet
  facet normal 0 0 1
    outer loop
      vertex 6.69131 7.43145 7
      vertex 4.54452 6.58387 7
      vertex 5.98809 5.30498 7
    endloop
  endfacet
  facet normal 0 0 1
    outer loop
      vertex 2.83684 7.48013 7
      vertex 5 8.66025 7
      vertex 3.09017 9.51056 7
    endloop
  endfacet
  facet normal 0 0 1
    outer loop
      vertex 5 8.66025 7
      vertex 2.83684 7.48013 7
      vertex 4.54452 6.58387 7
    endloop
  endfacet
  facet normal 0 0 1
    outer loop
      vertex 0.964293 7.94167 7
      vertex 3.09017 9.51056 7
      vertex 1.04528 9.94522 7
    endloop
  endfacet
  facet normal 0 0 1
    outer loop
      vertex 3.09017 9.51056 7
      vertex 0.964293 7.94167 7
      vertex 2.83684 7.48013 7
    endloop
  endfacet
  facet normal 0 0 1
    outer loop
      vertex 1.04528 9.94522 7
      vertex -0.964293 7.94167 7
      vertex 0.964293 7.94167 7
    endloop
  endfacet
  facet normal -0 0 1
    outer loop
      vertex -1.04528 9.94522 7
      vertex -0.964293 7.94167 7
      vertex 1.04528 9.94522 7
    endloop
  endfacet
  facet normal -0 0 1
    outer loop
      vertex -3.09017 9.51056 7
      vertex -0.964293 7.94167 7
      vertex -1.04528 9.94522 7
    endloop
  endfacet
  facet normal 0 0 1
    outer loop
      vertex -0.964293 7.94167 7
      vertex -3.09017 9.51056 7
      vertex -2.83684 7.48013 7
    endloop
  endfacet
  facet normal -0 0 1
    outer loop
      vertex -5 8.66025 7
      vertex -2.83684 7.48013 7
      vertex -3.09017 9.51056 7
    endloop
  endfacet
  facet normal 0 0 1
    outer loop
      vertex -2.83684 7.48013 7
      vertex -5 8.66025 7
      vertex -4.54452 6.58387 7
    endloop
  endfacet
  facet normal -0 0 1
    outer loop
      vertex -6.69131 7.43145 7
      vertex -4.54452 6.58387 7
      vertex -5 8.66025 7
    endloop
  endfacet
  facet normal 0 0 1
    outer loop
      vertex -4.54452 6.58387 7
      vertex -6.69131 7.43145 7
      vertex -5.98809 5.30498 7
    endloop
  endfacet
  facet normal -0 0 1
    outer loop
      vertex -8.09017 5.87785 7
      vertex -5.98809 5.30498 7
      vertex -6.69131 7.43145 7
    endloop
  endfacet
  facet normal 0 0 1
    outer loop
      vertex -5.98809 5.30498 7
      vertex -8.09017 5.87785 7
      vertex -7.08365 3.71778 7
    endloop
  endfacet
  facet normal 0 0 1
    outer loop
      vertex -7.08365 3.71778 7
      vertex -9.13545 4.06737 7
      vertex -7.76753 1.91453 7
    endloop
  endfacet
  facet normal -0 0 1
    outer loop
      vertex -9.13545 4.06737 7
      vertex -7.08365 3.71778 7
      vertex -8.09017 5.87785 7
    endloop
  endfacet
  facet normal -0 0 1
    outer loop
      vertex 7.08365 -3.71778 7
      vertex 9.13545 -4.06737 7
      vertex 7.76753 -1.91453 7
    endloop
  endfacet
  facet normal 0 0 1
    outer loop
      vertex 9.13545 -4.06737 7
      vertex 7.08365 -3.71778 7
      vertex 8.09017 -5.87785 7
    endloop
  endfacet
  facet normal -0 0 1
    outer loop
      vertex 5.98809 -5.30498 7
      vertex 8.09017 -5.87785 7
      vertex 7.08365 -3.71778 7
    endloop
  endfacet
  facet normal 0 0 1
    outer loop
      vertex 8.09017 -5.87785 7
      vertex 5.98809 -5.30498 7
      vertex 6.69131 -7.43145 7
    endloop
  endfacet
  facet normal -0 0 1
    outer loop
      vertex 4.54452 -6.58387 7
      vertex 6.69131 -7.43145 7
      vertex 5.98809 -5.30498 7
    endloop
  endfacet
  facet normal 0 0 1
    outer loop
      vertex 6.69131 -7.43145 7
      vertex 4.54452 -6.58387 7
      vertex 5 -8.66025 7
    endloop
  endfacet
  facet normal -0 0 1
    outer loop
      vertex 2.83684 -7.48013 7
      vertex 5 -8.66025 7
      vertex 4.54452 -6.58387 7
    endloop
  endfacet
  facet normal 0 0 1
    outer loop
      vertex 5 -8.66025 7
      vertex 2.83684 -7.48013 7
      vertex 3.09017 -9.51056 7
    endloop
  endfacet
  facet normal -0 0 1
    outer loop
      vertex 0.964293 -7.94167 7
      vertex 3.09017 -9.51056 7
      vertex 2.83684 -7.48013 7
    endloop
  endfacet
  facet normal 0 0 1
    outer loop
      vertex 3.09017 -9.51056 7
      vertex 0.964293 -7.94167 7
      vertex 1.04528 -9.94522 7
    endloop
  endfacet
  facet normal -0 0 1
    outer loop
      vertex -0.964293 -7.94167 7
      vertex 1.04528 -9.94522 7
      vertex 0.964293 -7.94167 7
    endloop
  endfacet
  facet normal 0 0 1
    outer loop
      vertex -0.964293 -7.94167 7
      vertex -1.04528 -9.94522 7
      vertex 1.04528 -9.94522 7
    endloop
  endfacet
  facet normal 0 0 1
    outer loop
      vertex -3.09017 -9.51056 7
      vertex -0.964293 -7.94167 7
      vertex -2.83684 -7.48013 7
    endloop
  endfacet
  facet normal 0 0 1
    outer loop
      vertex -0.964293 -7.94167 7
      vertex -3.09017 -9.51056 7
      vertex -1.04528 -9.94522 7
    endloop
  endfacet
  facet normal 0 0 1
    outer loop
      vertex -5 -8.66025 7
      vertex -2.83684 -7.48013 7
      vertex -4.54452 -6.58387 7
    endloop
  endfacet
  facet normal 0 0 1
    outer loop
      vertex -2.83684 -7.48013 7
      vertex -5 -8.66025 7
      vertex -3.09017 -9.51056 7
    endloop
  endfacet
  facet normal 0 0 1
    outer loop
      vertex -6.69131 -7.43145 7
      vertex -4.54452 -6.58387 7
      vertex -5.98809 -5.30498 7
    endloop
  endfacet
  facet normal 0 0 1
    outer loop
      vertex -4.54452 -6.58387 7
      vertex -6.69131 -7.43145 7
      vertex -5 -8.66025 7
    endloop
  endfacet
  facet normal 0 0 1
    outer loop
      vertex -8.09017 -5.87785 7
      vertex -5.98809 -5.30498 7
      vertex -7.08365 -3.71778 7
    endloop
  endfacet
  facet normal 0 0 1
    outer loop
      vertex -9.13545 -4.06737 7
      vertex -7.08365 -3.71778 7
      vertex -7.76753 -1.91453 7
    endloop
  endfacet
  facet normal 0 0 1
    outer loop
      vertex -5.98809 -5.30498 7
      vertex -8.09017 -5.87785 7
      vertex -6.69131 -7.43145 7
    endloop
  endfacet
  facet normal 0 0 1
    outer loop
      vertex -9.78148 -2.07912 7
      vertex -7.76753 -1.91453 7
      vertex -8 0 7
    endloop
  endfacet
  facet normal -0 0 1
    outer loop
      vertex -9.78148 2.07912 7
      vertex -7.76753 1.91453 7
      vertex -9.13545 4.06737 7
    endloop
  endfacet
  facet normal 0 0 1
    outer loop
      vertex -7.76753 1.91453 7
      vertex -9.78148 2.07912 7
      vertex -8 0 7
    endloop
  endfacet
  facet normal 0 0 1
    outer loop
      vertex -7.08365 -3.71778 7
      vertex -9.13545 -4.06737 7
      vertex -8.09017 -5.87785 7
    endloop
  endfacet
  facet normal 0 0 1
    outer loop
      vertex -10 0 7
      vertex -8 0 7
      vertex -9.78148 2.07912 7
    endloop
  endfacet
  facet normal 0 0 1
    outer loop
      vertex -7.76753 -1.91453 7
      vertex -9.78148 -2.07912 7
      vertex -9.13545 -4.06737 7
    endloop
  endfacet
  facet normal 0 0 1
    outer loop
      vertex -8 0 7
      vertex -10 0 7
      vertex -9.78148 -2.07912 7
    endloop
  endfacet
  facet normal -0.587783 0.809019 0
    outer loop
      vertex -5 8.66025 0
      vertex -6.69131 7.43145 7
      vertex -5 8.66025 7
    endloop
  endfacet
  facet normal -0.587783 0.809019 0
    outer loop
      vertex -6.69131 7.43145 7
      vertex -5 8.66025 0
      vertex -6.69131 7.43145 0
    endloop
  endfacet
  facet normal -0.207914 0.978147 0
    outer loop
      vertex -1.04528 9.94522 0
      vertex -3.09017 9.51056 7
      vertex -1.04528 9.94522 7
    endloop
  endfacet
  facet normal -0.207914 0.978147 0
    outer loop
      vertex -3.09017 9.51056 7
      vertex -1.04528 9.94522 0
      vertex -3.09017 9.51056 0
    endloop
  endfacet
  facet normal 0.994522 -0.104526 0
    outer loop
      vertex 9.78148 -2.07912 7
      vertex 10 0 0
      vertex 10 0 7
    endloop
  endfacet
  facet normal 0.994522 -0.104526 0
    outer loop
      vertex 10 0 0
      vertex 9.78148 -2.07912 7
      vertex 9.78148 -2.07912 0
    endloop
  endfacet
  facet normal 0 0 -1
    outer loop
      vertex 8 0 0
      vertex 10 0 0
      vertex 9.78148 -2.07912 0
    endloop
  endfacet
  facet normal 0 0 -1
    outer loop
      vertex 7.76753 -1.91453 0
      vertex 9.78148 -2.07912 0
      vertex 9.13545 -4.06737 0
    endloop
  endfacet
  facet normal 0 0 -1
    outer loop
      vertex 10 0 0
      vertex 8 0 0
      vertex 9.78148 2.07912 0
    endloop
  endfacet
  facet normal 0 0 -1
    outer loop
      vertex 7.08365 -3.71778 0
      vertex 9.13545 -4.06737 0
      vertex 8.09017 -5.87785 0
    endloop
  endfacet
  facet normal 0 0 -1
    outer loop
      vertex 7.76753 1.91453 0
      vertex 9.78148 2.07912 0
      vertex 8 0 0
    endloop
  endfacet
  facet normal -0 0 -1
    outer loop
      vertex 9.78148 2.07912 0
      vertex 7.76753 1.91453 0
      vertex 9.13545 4.06737 0
    endloop
  endfacet
  facet normal 0 0 -1
    outer loop
      vertex 9.78148 -2.07912 0
      vertex 7.76753 -1.91453 0
      vertex 8 0 0
    endloop
  endfacet
  facet normal 0 0 -1
    outer loop
      vertex 9.13545 -4.06737 0
      vertex 7.08365 -3.71778 0
      vertex 7.76753 -1.91453 0
    endloop
  endfacet
  facet normal 0 0 -1
    outer loop
      vertex 5.98809 -5.30498 0
      vertex 8.09017 -5.87785 0
      vertex 6.69131 -7.43145 0
    endloop
  endfacet
  facet normal 0 0 -1
    outer loop
      vertex 8.09017 -5.87785 0
      vertex 5.98809 -5.30498 0
      vertex 7.08365 -3.71778 0
    endloop
  endfacet
  facet normal 0 0 -1
    outer loop
      vertex 4.54452 -6.58387 0
      vertex 6.69131 -7.43145 0
      vertex 5 -8.66025 0
    endloop
  endfacet
  facet normal 0 0 -1
    outer loop
      vertex 6.69131 -7.43145 0
      vertex 4.54452 -6.58387 0
      vertex 5.98809 -5.30498 0
    endloop
  endfacet
  facet normal 0 0 -1
    outer loop
      vertex 2.83684 -7.48013 0
      vertex 5 -8.66025 0
      vertex 3.09017 -9.51056 0
    endloop
  endfacet
  facet normal 0 0 -1
    outer loop
      vertex 5 -8.66025 0
      vertex 2.83684 -7.48013 0
      vertex 4.54452 -6.58387 0
    endloop
  endfacet
  facet normal 0 0 -1
    outer loop
      vertex 0.964293 -7.94167 0
      vertex 3.09017 -9.51056 0
      vertex 1.04528 -9.94522 0
    endloop
  endfacet
  facet normal 0 0 -1
    outer loop
      vertex 3.09017 -9.51056 0
      vertex 0.964293 -7.94167 0
      vertex 2.83684 -7.48013 0
    endloop
  endfacet
  facet normal 0 0 -1
    outer loop
      vertex 1.04528 -9.94522 0
      vertex -0.964293 -7.94167 0
      vertex 0.964293 -7.94167 0
    endloop
  endfacet
  facet normal 0 0 -1
    outer loop
      vertex -1.04528 -9.94522 0
      vertex -0.964293 -7.94167 0
      vertex 1.04528 -9.94522 0
    endloop
  endfacet
  facet normal 0 0 -1
    outer loop
      vertex -3.09017 -9.51056 0
      vertex -0.964293 -7.94167 0
      vertex -1.04528 -9.94522 0
    endloop
  endfacet
  facet normal -0 0 -1
    outer loop
      vertex -0.964293 -7.94167 0
      vertex -3.09017 -9.51056 0
      vertex -2.83684 -7.48013 0
    endloop
  endfacet
  facet normal 0 0 -1
    outer loop
      vertex -5 -8.66025 0
      vertex -2.83684 -7.48013 0
      vertex -3.09017 -9.51056 0
    endloop
  endfacet
  facet normal -0 0 -1
    outer loop
      vertex -2.83684 -7.48013 0
      vertex -5 -8.66025 0
      vertex -4.54452 -6.58387 0
    endloop
  endfacet
  facet normal 0 0 -1
    outer loop
      vertex -6.69131 -7.43145 0
      vertex -4.54452 -6.58387 0
      vertex -5 -8.66025 0
    endloop
  endfacet
  facet normal -0 0 -1
    outer loop
      vertex -4.54452 -6.58387 0
      vertex -6.69131 -7.43145 0
      vertex -5.98809 -5.30498 0
    endloop
  endfacet
  facet normal 0 0 -1
    outer loop
      vertex -8.09017 -5.87785 0
      vertex -5.98809 -5.30498 0
      vertex -6.69131 -7.43145 0
    endloop
  endfacet
  facet normal -0 0 -1
    outer loop
      vertex -5.98809 -5.30498 0
      vertex -8.09017 -5.87785 0
      vertex -7.08365 -3.71778 0
    endloop
  endfacet
  facet normal -0 0 -1
    outer loop
      vertex -7.08365 -3.71778 0
      vertex -9.13545 -4.06737 0
      vertex -7.76753 -1.91453 0
    endloop
  endfacet
  facet normal 0 0 -1
    outer loop
      vertex -9.13545 -4.06737 0
      vertex -7.08365 -3.71778 0
      vertex -8.09017 -5.87785 0
    endloop
  endfacet
  facet normal 0 0 -1
    outer loop
      vertex 7.08365 3.71778 0
      vertex 9.13545 4.06737 0
      vertex 7.76753 1.91453 0
    endloop
  endfacet
  facet normal -0 0 -1
    outer loop
      vertex 9.13545 4.06737 0
      vertex 7.08365 3.71778 0
      vertex 8.09017 5.87785 0
    endloop
  endfacet
  facet normal 0 0 -1
    outer loop
      vertex 5.98809 5.30498 0
      vertex 8.09017 5.87785 0
      vertex 7.08365 3.71778 0
    endloop
  endfacet
  facet normal -0 0 -1
    outer loop
      vertex 8.09017 5.87785 0
      vertex 5.98809 5.30498 0
      vertex 6.69131 7.43145 0
    endloop
  endfacet
  facet normal 0 0 -1
    outer loop
      vertex 4.54452 6.58387 0
      vertex 6.69131 7.43145 0
      vertex 5.98809 5.30498 0
    endloop
  endfacet
  facet normal -0 0 -1
    outer loop
      vertex 6.69131 7.43145 0
      vertex 4.54452 6.58387 0
      vertex 5 8.66025 0
    endloop
  endfacet
  facet normal 0 0 -1
    outer loop
      vertex 2.83684 7.48013 0
      vertex 5 8.66025 0
      vertex 4.54452 6.58387 0
    endloop
  endfacet
  facet normal -0 0 -1
    outer loop
      vertex 5 8.66025 0
      vertex 2.83684 7.48013 0
      vertex 3.09017 9.51056 0
    endloop
  endfacet
  facet normal 0 0 -1
    outer loop
      vertex 0.964293 7.94167 0
      vertex 3.09017 9.51056 0
      vertex 2.83684 7.48013 0
    endloop
  endfacet
  facet normal -0 0 -1
    outer loop
      vertex 3.09017 9.51056 0
      vertex 0.964293 7.94167 0
      vertex 1.04528 9.94522 0
    endloop
  endfacet
  facet normal 0 0 -1
    outer loop
      vertex -0.964293 7.94167 0
      vertex 1.04528 9.94522 0
      vertex 0.964293 7.94167 0
    endloop
  endfacet
  facet normal 0 0 -1
    outer loop
      vertex -0.964293 7.94167 0
      vertex -1.04528 9.94522 0
      vertex 1.04528 9.94522 0
    endloop
  endfacet
  facet normal 0 0 -1
    outer loop
      vertex -3.09017 9.51056 0
      vertex -0.964293 7.94167 0
      vertex -2.83684 7.48013 0
    endloop
  endfacet
  facet normal 0 0 -1
    outer loop
      vertex -0.964293 7.94167 0
      vertex -3.09017 9.51056 0
      vertex -1.04528 9.94522 0
    endloop
  endfacet
  facet normal 0 0 -1
    outer loop
      vertex -5 8.66025 0
      vertex -2.83684 7.48013 0
      vertex -4.54452 6.58387 0
    endloop
  endfacet
  facet normal 0 0 -1
    outer loop
      vertex -2.83684 7.48013 0
      vertex -5 8.66025 0
      vertex -3.09017 9.51056 0
    endloop
  endfacet
  facet normal 0 0 -1
    outer loop
      vertex -6.69131 7.43145 0
      vertex -4.54452 6.58387 0
      vertex -5.98809 5.30498 0
    endloop
  endfacet
  facet normal 0 0 -1
    outer loop
      vertex -4.54452 6.58387 0
      vertex -6.69131 7.43145 0
      vertex -5 8.66025 0
    endloop
  endfacet
  facet normal 0 0 -1
    outer loop
      vertex -8.09017 5.87785 0
      vertex -5.98809 5.30498 0
      vertex -7.08365 3.71778 0
    endloop
  endfacet
  facet normal 0 0 -1
    outer loop
      vertex -9.13545 4.06737 0
      vertex -7.08365 3.71778 0
      vertex -7.76753 1.91453 0
    endloop
  endfacet
  facet normal 0 0 -1
    outer loop
      vertex -5.98809 5.30498 0
      vertex -8.09017 5.87785 0
      vertex -6.69131 7.43145 0
    endloop
  endfacet
  facet normal 0 0 -1
    outer loop
      vertex -9.78148 2.07912 0
      vertex -7.76753 1.91453 0
      vertex -8 0 0
    endloop
  endfacet
  facet normal 0 0 -1
    outer loop
      vertex -9.78148 -2.07912 0
      vertex -7.76753 -1.91453 0
      vertex -9.13545 -4.06737 0
    endloop
  endfacet
  facet normal -0 0 -1
    outer loop
      vertex -7.76753 -1.91453 0
      vertex -9.78148 -2.07912 0
      vertex -8 0 0
    endloop
  endfacet
  facet normal 0 0 -1
    outer loop
      vertex -7.08365 3.71778 0
      vertex -9.13545 4.06737 0
      vertex -8.09017 5.87785 0
    endloop
  endfacet
  facet normal 0 0 -1
    outer loop
      vertex -10 0 0
      vertex -8 0 0
      vertex -9.78148 -2.07912 0
    endloop
  endfacet
  facet normal 0 0 -1
    outer loop
      vertex -7.76753 1.91453 0
      vertex -9.78148 2.07912 0
      vertex -9.13545 4.06737 0
    endloop
  endfacet
  facet normal 0 0 -1
    outer loop
      vertex -8 0 0
      vertex -10 0 0
      vertex -9.78148 2.07912 0
    endloop
  endfacet
  facet normal 0.207914 -0.978147 0
    outer loop
      vertex 1.04528 -9.94522 0
      vertex 3.09017 -9.51056 7
      vertex 1.04528 -9.94522 7
    endloop
  endfacet
  facet normal 0.207914 -0.978147 0
    outer loop
      vertex 3.09017 -9.51056 7
      vertex 1.04528 -9.94522 0
      vertex 3.09017 -9.51056 0
    endloop
  endfacet
  facet normal 0.743147 -0.669129 0
    outer loop
      vertex 6.69131 -7.43145 7
      vertex 8.09017 -5.87785 0
      vertex 8.09017 -5.87785 7
    endloop
  endfacet
  facet normal 0.743147 -0.669129 0
    outer loop
      vertex 8.09017 -5.87785 0
      vertex 6.69131 -7.43145 7
      vertex 6.69131 -7.43145 0
    endloop
  endfacet
  facet normal 0.951055 -0.309021 0
    outer loop
      vertex 9.13545 -4.06737 7
      vertex 9.78148 -2.07912 0
      vertex 9.78148 -2.07912 7
    endloop
  endfacet
  facet normal 0.951055 -0.309021 0
    outer loop
      vertex 9.78148 -2.07912 0
      vertex 9.13545 -4.06737 7
      vertex 9.13545 -4.06737 0
    endloop
  endfacet
  facet normal 0.866026 -0.5 0
    outer loop
      vertex 8.09017 -5.87785 7
      vertex 9.13545 -4.06737 0
      vertex 9.13545 -4.06737 7
    endloop
  endfacet
  facet normal 0.866026 -0.5 0
    outer loop
      vertex 9.13545 -4.06737 0
      vertex 8.09017 -5.87785 7
      vertex 8.09017 -5.87785 0
    endloop
  endfacet
  facet normal -0.866026 -0.5 0
    outer loop
      vertex -8.09017 -5.87785 0
      vertex -9.13545 -4.06737 7
      vertex -9.13545 -4.06737 0
    endloop
  endfacet
  facet normal -0.866026 -0.5 0
    outer loop
      vertex -9.13545 -4.06737 7
      vertex -8.09017 -5.87785 0
      vertex -8.09017 -5.87785 7
    endloop
  endfacet
  facet normal 0.587783 -0.809019 0
    outer loop
      vertex 5 -8.66025 0
      vertex 6.69131 -7.43145 7
      vertex 5 -8.66025 7
    endloop
  endfacet
  facet normal 0.587783 -0.809019 0
    outer loop
      vertex 6.69131 -7.43145 7
      vertex 5 -8.66025 0
      vertex 6.69131 -7.43145 0
    endloop
  endfacet
  facet normal 0.406736 -0.913546 0
    outer loop
      vertex 3.09017 -9.51056 0
      vertex 5 -8.66025 7
      vertex 3.09017 -9.51056 7
    endloop
  endfacet
  facet normal 0.406736 -0.913546 0
    outer loop
      vertex 5 -8.66025 7
      vertex 3.09017 -9.51056 0
      vertex 5 -8.66025 0
    endloop
  endfacet
  facet normal -0.207914 -0.978147 0
    outer loop
      vertex -3.09017 -9.51056 0
      vertex -1.04528 -9.94522 7
      vertex -3.09017 -9.51056 7
    endloop
  endfacet
  facet normal -0.207914 -0.978147 -0
    outer loop
      vertex -1.04528 -9.94522 7
      vertex -3.09017 -9.51056 0
      vertex -1.04528 -9.94522 0
    endloop
  endfacet
  facet normal -0.406736 -0.913546 0
    outer loop
      vertex -5 -8.66025 0
      vertex -3.09017 -9.51056 7
      vertex -5 -8.66025 7
    endloop
  endfacet
  facet normal -0.406736 -0.913546 -0
    outer loop
      vertex -3.09017 -9.51056 7
      vertex -5 -8.66025 0
      vertex -3.09017 -9.51056 0
    endloop
  endfacet
  facet normal -0.743147 -0.669129 0
    outer loop
      vertex -6.69131 -7.43145 0
      vertex -8.09017 -5.87785 7
      vertex -8.09017 -5.87785 0
    endloop
  endfacet
  facet normal -0.743147 -0.669129 0
    outer loop
      vertex -8.09017 -5.87785 7
      vertex -6.69131 -7.43145 0
      vertex -6.69131 -7.43145 7
    endloop
  endfacet
  facet normal -0.951055 -0.309021 0
    outer loop
      vertex -9.13545 -4.06737 0
      vertex -9.78148 -2.07912 7
      vertex -9.78148 -2.07912 0
    endloop
  endfacet
  facet normal -0.951055 -0.309021 0
    outer loop
      vertex -9.78148 -2.07912 7
      vertex -9.13545 -4.06737 0
      vertex -9.13545 -4.06737 7
    endloop
  endfacet
  facet normal -0.994522 -0.104526 0
    outer loop
      vertex -9.78148 -2.07912 0
      vertex -10 0 7
      vertex -10 0 0
    endloop
  endfacet
  facet normal -0.994522 -0.104526 0
    outer loop
      vertex -10 0 7
      vertex -9.78148 -2.07912 0
      vertex -9.78148 -2.07912 7
    endloop
  endfacet
  facet normal -0.587783 -0.809019 0
    outer loop
      vertex -6.69131 -7.43145 0
      vertex -5 -8.66025 7
      vertex -6.69131 -7.43145 7
    endloop
  endfacet
  facet normal -0.587783 -0.809019 -0
    outer loop
      vertex -5 -8.66025 7
      vertex -6.69131 -7.43145 0
      vertex -5 -8.66025 0
    endloop
  endfacet
  facet normal -0.992709 -0.120539 0
    outer loop
      vertex 8 0 0
      vertex 7.76753 1.91453 7
      vertex 7.76753 1.91453 0
    endloop
  endfacet
  facet normal -0.992709 -0.120539 0
    outer loop
      vertex 7.76753 1.91453 7
      vertex 8 0 0
      vertex 8 0 7
    endloop
  endfacet
  facet normal 0.992709 -0.120539 0
    outer loop
      vertex -8 0 7
      vertex -7.76753 1.91453 0
      vertex -7.76753 1.91453 7
    endloop
  endfacet
  facet normal 0.992709 -0.120539 0
    outer loop
      vertex -7.76753 1.91453 0
      vertex -8 0 7
      vertex -8 0 0
    endloop
  endfacet
  facet normal 0 -1 0
    outer loop
      vertex -0.964293 7.94167 0
      vertex 0.964293 7.94167 7
      vertex -0.964293 7.94167 7
    endloop
  endfacet
  facet normal 0 -1 -0
    outer loop
      vertex 0.964293 7.94167 7
      vertex -0.964293 7.94167 0
      vertex 0.964293 7.94167 0
    endloop
  endfacet
  facet normal 0 1 -0
    outer loop
      vertex 0.964293 -7.94167 0
      vertex -0.964293 -7.94167 7
      vertex 0.964293 -7.94167 7
    endloop
  endfacet
  facet normal 0 1 0
    outer loop
      vertex -0.964293 -7.94167 7
      vertex 0.964293 -7.94167 0
      vertex -0.964293 -7.94167 0
    endloop
  endfacet
  facet normal -0.663122 -0.748511 0
    outer loop
      vertex 4.54452 6.58387 0
      vertex 5.98809 5.30498 7
      vertex 4.54452 6.58387 7
    endloop
  endfacet
  facet normal -0.663122 -0.748511 -0
    outer loop
      vertex 5.98809 5.30498 7
      vertex 4.54452 6.58387 0
      vertex 5.98809 5.30498 0
    endloop
  endfacet
  facet normal 0.663122 -0.748511 0
    outer loop
      vertex -5.98809 5.30498 0
      vertex -4.54452 6.58387 7
      vertex -5.98809 5.30498 7
    endloop
  endfacet
  facet normal 0.663122 -0.748511 0
    outer loop
      vertex -4.54452 6.58387 7
      vertex -5.98809 5.30498 0
      vertex -4.54452 6.58387 0
    endloop
  endfacet
  facet normal 0.464723 -0.885456 0
    outer loop
      vertex -4.54452 6.58387 0
      vertex -2.83684 7.48013 7
      vertex -4.54452 6.58387 7
    endloop
  endfacet
  facet normal 0.464723 -0.885456 0
    outer loop
      vertex -2.83684 7.48013 7
      vertex -4.54452 6.58387 0
      vertex -2.83684 7.48013 0
    endloop
  endfacet
  facet normal -0.822985 -0.568063 0
    outer loop
      vertex 7.08365 3.71778 0
      vertex 5.98809 5.30498 7
      vertex 5.98809 5.30498 0
    endloop
  endfacet
  facet normal -0.822985 -0.568063 0
    outer loop
      vertex 5.98809 5.30498 7
      vertex 7.08365 3.71778 0
      vertex 7.08365 3.71778 7
    endloop
  endfacet
  facet normal -0.935017 -0.354604 0
    outer loop
      vertex 7.76753 1.91453 0
      vertex 7.08365 3.71778 7
      vertex 7.08365 3.71778 0
    endloop
  endfacet
  facet normal -0.935017 -0.354604 0
    outer loop
      vertex 7.08365 3.71778 7
      vertex 7.76753 1.91453 0
      vertex 7.76753 1.91453 7
    endloop
  endfacet
  facet normal -0.239315 -0.970942 0
    outer loop
      vertex 0.964293 7.94167 0
      vertex 2.83684 7.48013 7
      vertex 0.964293 7.94167 7
    endloop
  endfacet
  facet normal -0.239315 -0.970942 -0
    outer loop
      vertex 2.83684 7.48013 7
      vertex 0.964293 7.94167 0
      vertex 2.83684 7.48013 0
    endloop
  endfacet
  facet normal -0.464723 -0.885456 0
    outer loop
      vertex 2.83684 7.48013 0
      vertex 4.54452 6.58387 7
      vertex 2.83684 7.48013 7
    endloop
  endfacet
  facet normal -0.464723 -0.885456 -0
    outer loop
      vertex 4.54452 6.58387 7
      vertex 2.83684 7.48013 0
      vertex 4.54452 6.58387 0
    endloop
  endfacet
  facet normal 0.822985 -0.568063 0
    outer loop
      vertex -7.08365 3.71778 7
      vertex -5.98809 5.30498 0
      vertex -5.98809 5.30498 7
    endloop
  endfacet
  facet normal 0.822985 -0.568063 0
    outer loop
      vertex -5.98809 5.30498 0
      vertex -7.08365 3.71778 7
      vertex -7.08365 3.71778 0
    endloop
  endfacet
  facet normal 0.935017 -0.354604 0
    outer loop
      vertex -7.76753 1.91453 7
      vertex -7.08365 3.71778 0
      vertex -7.08365 3.71778 7
    endloop
  endfacet
  facet normal 0.935017 -0.354604 0
    outer loop
      vertex -7.08365 3.71778 0
      vertex -7.76753 1.91453 7
      vertex -7.76753 1.91453 0
    endloop
  endfacet
  facet normal 0.239315 -0.970942 0
    outer loop
      vertex -2.83684 7.48013 0
      vertex -0.964293 7.94167 7
      vertex -2.83684 7.48013 7
    endloop
  endfacet
  facet normal 0.239315 -0.970942 0
    outer loop
      vertex -0.964293 7.94167 7
      vertex -2.83684 7.48013 0
      vertex -0.964293 7.94167 0
    endloop
  endfacet
  facet normal -0.992709 0.120539 0
    outer loop
      vertex 7.76753 -1.91453 0
      vertex 8 0 7
      vertex 8 0 0
    endloop
  endfacet
  facet normal -0.992709 0.120539 0
    outer loop
      vertex 8 0 7
      vertex 7.76753 -1.91453 0
      vertex 7.76753 -1.91453 7
    endloop
  endfacet
  facet normal -0.663122 0.748511 0
    outer loop
      vertex 5.98809 -5.30498 0
      vertex 4.54452 -6.58387 7
      vertex 5.98809 -5.30498 7
    endloop
  endfacet
  facet normal -0.663122 0.748511 0
    outer loop
      vertex 4.54452 -6.58387 7
      vertex 5.98809 -5.30498 0
      vertex 4.54452 -6.58387 0
    endloop
  endfacet
  facet normal -0.822985 0.568063 0
    outer loop
      vertex 5.98809 -5.30498 0
      vertex 7.08365 -3.71778 7
      vertex 7.08365 -3.71778 0
    endloop
  endfacet
  facet normal -0.822985 0.568063 0
    outer loop
      vertex 7.08365 -3.71778 7
      vertex 5.98809 -5.30498 0
      vertex 5.98809 -5.30498 7
    endloop
  endfacet
  facet normal 0.663122 0.748511 -0
    outer loop
      vertex -4.54452 -6.58387 0
      vertex -5.98809 -5.30498 7
      vertex -4.54452 -6.58387 7
    endloop
  endfacet
  facet normal 0.663122 0.748511 0
    outer loop
      vertex -5.98809 -5.30498 7
      vertex -4.54452 -6.58387 0
      vertex -5.98809 -5.30498 0
    endloop
  endfacet
  facet normal 0.935017 0.354604 0
    outer loop
      vertex -7.08365 -3.71778 7
      vertex -7.76753 -1.91453 0
      vertex -7.76753 -1.91453 7
    endloop
  endfacet
  facet normal 0.935017 0.354604 0
    outer loop
      vertex -7.76753 -1.91453 0
      vertex -7.08365 -3.71778 7
      vertex -7.08365 -3.71778 0
    endloop
  endfacet
  facet normal 0.992709 0.120539 0
    outer loop
      vertex -7.76753 -1.91453 7
      vertex -8 0 0
      vertex -8 0 7
    endloop
  endfacet
  facet normal 0.992709 0.120539 0
    outer loop
      vertex -8 0 0
      vertex -7.76753 -1.91453 7
      vertex -7.76753 -1.91453 0
    endloop
  endfacet
  facet normal 0.822985 0.568063 0
    outer loop
      vertex -5.98809 -5.30498 7
      vertex -7.08365 -3.71778 0
      vertex -7.08365 -3.71778 7
    endloop
  endfacet
  facet normal 0.822985 0.568063 0
    outer loop
      vertex -7.08365 -3.71778 0
      vertex -5.98809 -5.30498 7
      vertex -5.98809 -5.30498 0
    endloop
  endfacet
  facet normal -0.935017 0.354604 0
    outer loop
      vertex 7.08365 -3.71778 0
      vertex 7.76753 -1.91453 7
      vertex 7.76753 -1.91453 0
    endloop
  endfacet
  facet normal -0.935017 0.354604 0
    outer loop
      vertex 7.76753 -1.91453 7
      vertex 7.08365 -3.71778 0
      vertex 7.08365 -3.71778 7
    endloop
  endfacet
  facet normal 0.239315 0.970942 -0
    outer loop
      vertex -0.964293 -7.94167 0
      vertex -2.83684 -7.48013 7
      vertex -0.964293 -7.94167 7
    endloop
  endfacet
  facet normal 0.239315 0.970942 0
    outer loop
      vertex -2.83684 -7.48013 7
      vertex -0.964293 -7.94167 0
      vertex -2.83684 -7.48013 0
    endloop
  endfacet
  facet normal -0.464723 0.885456 0
    outer loop
      vertex 4.54452 -6.58387 0
      vertex 2.83684 -7.48013 7
      vertex 4.54452 -6.58387 7
    endloop
  endfacet
  facet normal -0.464723 0.885456 0
    outer loop
      vertex 2.83684 -7.48013 7
      vertex 4.54452 -6.58387 0
      vertex 2.83684 -7.48013 0
    endloop
  endfacet
  facet normal -0.239315 0.970942 0
    outer loop
      vertex 2.83684 -7.48013 0
      vertex 0.964293 -7.94167 7
      vertex 2.83684 -7.48013 7
    endloop
  endfacet
  facet normal -0.239315 0.970942 0
    outer loop
      vertex 0.964293 -7.94167 7
      vertex 2.83684 -7.48013 0
      vertex 0.964293 -7.94167 0
    endloop
  endfacet
  facet normal 0.464723 0.885456 -0
    outer loop
      vertex -2.83684 -7.48013 0
      vertex -4.54452 -6.58387 7
      vertex -2.83684 -7.48013 7
    endloop
  endfacet
  facet normal 0.464723 0.885456 0
    outer loop
      vertex -4.54452 -6.58387 7
      vertex -2.83684 -7.48013 0
      vertex -4.54452 -6.58387 0
    endloop
  endfacet
endsolid OpenSCAD_Model
